%TF.GenerationSoftware,KiCad,Pcbnew,7.0.6*%
%TF.CreationDate,2024-02-26T11:52:17-05:00*%
%TF.ProjectId,CHESSmate CPU,43484553-536d-4617-9465-204350552e6b,rev?*%
%TF.SameCoordinates,Original*%
%TF.FileFunction,Drillmap*%
%TF.FilePolarity,Positive*%
%FSLAX45Y45*%
G04 Gerber Fmt 4.5, Leading zero omitted, Abs format (unit mm)*
G04 Created by KiCad (PCBNEW 7.0.6) date 2024-02-26 11:52:17*
%MOMM*%
%LPD*%
G01*
G04 APERTURE LIST*
%ADD10C,0.100000*%
%ADD11C,0.200000*%
%ADD12C,0.104000*%
G04 APERTURE END LIST*
D10*
X10910000Y-5411000D02*
X14513000Y-5411000D01*
X14513000Y-11431000D01*
X10910000Y-11431000D01*
X10910000Y-5411000D01*
D11*
D10*
X11125000Y-5687000D02*
X11225000Y-5787000D01*
X11225000Y-5687000D02*
X11125000Y-5787000D01*
X11125000Y-5941000D02*
X11225000Y-6041000D01*
X11225000Y-5941000D02*
X11125000Y-6041000D01*
X11125000Y-6195000D02*
X11225000Y-6295000D01*
X11225000Y-6195000D02*
X11125000Y-6295000D01*
X11125000Y-6449000D02*
X11225000Y-6549000D01*
X11225000Y-6449000D02*
X11125000Y-6549000D01*
X11125000Y-6703000D02*
X11225000Y-6803000D01*
X11225000Y-6703000D02*
X11125000Y-6803000D01*
X11125000Y-6957000D02*
X11225000Y-7057000D01*
X11225000Y-6957000D02*
X11125000Y-7057000D01*
X11125000Y-7211000D02*
X11225000Y-7311000D01*
X11225000Y-7211000D02*
X11125000Y-7311000D01*
X11125000Y-7465000D02*
X11225000Y-7565000D01*
X11225000Y-7465000D02*
X11125000Y-7565000D01*
X11125000Y-7719000D02*
X11225000Y-7819000D01*
X11225000Y-7719000D02*
X11125000Y-7819000D01*
X11125000Y-7973000D02*
X11225000Y-8073000D01*
X11225000Y-7973000D02*
X11125000Y-8073000D01*
X11125000Y-8227000D02*
X11225000Y-8327000D01*
X11225000Y-8227000D02*
X11125000Y-8327000D01*
X11125000Y-8481000D02*
X11225000Y-8581000D01*
X11225000Y-8481000D02*
X11125000Y-8581000D01*
X11125000Y-8735000D02*
X11225000Y-8835000D01*
X11225000Y-8735000D02*
X11125000Y-8835000D01*
X11125000Y-8989000D02*
X11225000Y-9089000D01*
X11225000Y-8989000D02*
X11125000Y-9089000D01*
X11125000Y-9243000D02*
X11225000Y-9343000D01*
X11225000Y-9243000D02*
X11125000Y-9343000D01*
X11125000Y-9497000D02*
X11225000Y-9597000D01*
X11225000Y-9497000D02*
X11125000Y-9597000D01*
X11125000Y-9751000D02*
X11225000Y-9851000D01*
X11225000Y-9751000D02*
X11125000Y-9851000D01*
X11125000Y-10005000D02*
X11225000Y-10105000D01*
X11225000Y-10005000D02*
X11125000Y-10105000D01*
X11125000Y-10259000D02*
X11225000Y-10359000D01*
X11225000Y-10259000D02*
X11125000Y-10359000D01*
X11125000Y-10513000D02*
X11225000Y-10613000D01*
X11225000Y-10513000D02*
X11125000Y-10613000D01*
X11125000Y-10767000D02*
X11225000Y-10867000D01*
X11225000Y-10767000D02*
X11125000Y-10867000D01*
X11125000Y-11021000D02*
X11225000Y-11121000D01*
X11225000Y-11021000D02*
X11125000Y-11121000D01*
X11840500Y-11188000D02*
X11940500Y-11288000D01*
X11940500Y-11188000D02*
X11840500Y-11288000D01*
X12094500Y-11188000D02*
X12194500Y-11288000D01*
X12194500Y-11188000D02*
X12094500Y-11288000D01*
D12*
X11944750Y-5999450D02*
G75*
G03*
X11944750Y-5999450I-52000J0D01*
G01*
X11944750Y-6253450D02*
G75*
G03*
X11944750Y-6253450I-52000J0D01*
G01*
X11944750Y-6507450D02*
G75*
G03*
X11944750Y-6507450I-52000J0D01*
G01*
X11944750Y-6761450D02*
G75*
G03*
X11944750Y-6761450I-52000J0D01*
G01*
X11944750Y-7015450D02*
G75*
G03*
X11944750Y-7015450I-52000J0D01*
G01*
X11944750Y-7269450D02*
G75*
G03*
X11944750Y-7269450I-52000J0D01*
G01*
X11944750Y-7523450D02*
G75*
G03*
X11944750Y-7523450I-52000J0D01*
G01*
X11944750Y-7777450D02*
G75*
G03*
X11944750Y-7777450I-52000J0D01*
G01*
X11944750Y-8031450D02*
G75*
G03*
X11944750Y-8031450I-52000J0D01*
G01*
X11944750Y-8285450D02*
G75*
G03*
X11944750Y-8285450I-52000J0D01*
G01*
X11944750Y-8539450D02*
G75*
G03*
X11944750Y-8539450I-52000J0D01*
G01*
X11944750Y-8793450D02*
G75*
G03*
X11944750Y-8793450I-52000J0D01*
G01*
X11944750Y-9047450D02*
G75*
G03*
X11944750Y-9047450I-52000J0D01*
G01*
X11944750Y-9301450D02*
G75*
G03*
X11944750Y-9301450I-52000J0D01*
G01*
X11944750Y-9555450D02*
G75*
G03*
X11944750Y-9555450I-52000J0D01*
G01*
X11944750Y-9809450D02*
G75*
G03*
X11944750Y-9809450I-52000J0D01*
G01*
X11944750Y-10063450D02*
G75*
G03*
X11944750Y-10063450I-52000J0D01*
G01*
X11944750Y-10317450D02*
G75*
G03*
X11944750Y-10317450I-52000J0D01*
G01*
X11944750Y-10571450D02*
G75*
G03*
X11944750Y-10571450I-52000J0D01*
G01*
X14230750Y-5999450D02*
G75*
G03*
X14230750Y-5999450I-52000J0D01*
G01*
X14230750Y-6253450D02*
G75*
G03*
X14230750Y-6253450I-52000J0D01*
G01*
X14230750Y-6507450D02*
G75*
G03*
X14230750Y-6507450I-52000J0D01*
G01*
X14230750Y-6761450D02*
G75*
G03*
X14230750Y-6761450I-52000J0D01*
G01*
X14230750Y-7015450D02*
G75*
G03*
X14230750Y-7015450I-52000J0D01*
G01*
X14230750Y-7269450D02*
G75*
G03*
X14230750Y-7269450I-52000J0D01*
G01*
X14230750Y-7523450D02*
G75*
G03*
X14230750Y-7523450I-52000J0D01*
G01*
X14230750Y-7777450D02*
G75*
G03*
X14230750Y-7777450I-52000J0D01*
G01*
X14230750Y-8031450D02*
G75*
G03*
X14230750Y-8031450I-52000J0D01*
G01*
X14230750Y-8285450D02*
G75*
G03*
X14230750Y-8285450I-52000J0D01*
G01*
X14230750Y-8539450D02*
G75*
G03*
X14230750Y-8539450I-52000J0D01*
G01*
X14230750Y-8793450D02*
G75*
G03*
X14230750Y-8793450I-52000J0D01*
G01*
X14230750Y-9047450D02*
G75*
G03*
X14230750Y-9047450I-52000J0D01*
G01*
X14230750Y-9301450D02*
G75*
G03*
X14230750Y-9301450I-52000J0D01*
G01*
X14230750Y-9555450D02*
G75*
G03*
X14230750Y-9555450I-52000J0D01*
G01*
X14230750Y-9809450D02*
G75*
G03*
X14230750Y-9809450I-52000J0D01*
G01*
X14230750Y-10063450D02*
G75*
G03*
X14230750Y-10063450I-52000J0D01*
G01*
X14230750Y-10317450D02*
G75*
G03*
X14230750Y-10317450I-52000J0D01*
G01*
X14230750Y-10571450D02*
G75*
G03*
X14230750Y-10571450I-52000J0D01*
G01*
D11*
X11165777Y-11747484D02*
X11165777Y-11547484D01*
X11165777Y-11547484D02*
X11213396Y-11547484D01*
X11213396Y-11547484D02*
X11241967Y-11557008D01*
X11241967Y-11557008D02*
X11261015Y-11576055D01*
X11261015Y-11576055D02*
X11270539Y-11595103D01*
X11270539Y-11595103D02*
X11280062Y-11633198D01*
X11280062Y-11633198D02*
X11280062Y-11661769D01*
X11280062Y-11661769D02*
X11270539Y-11699865D01*
X11270539Y-11699865D02*
X11261015Y-11718912D01*
X11261015Y-11718912D02*
X11241967Y-11737960D01*
X11241967Y-11737960D02*
X11213396Y-11747484D01*
X11213396Y-11747484D02*
X11165777Y-11747484D01*
X11365777Y-11747484D02*
X11365777Y-11614150D01*
X11365777Y-11652246D02*
X11375301Y-11633198D01*
X11375301Y-11633198D02*
X11384824Y-11623674D01*
X11384824Y-11623674D02*
X11403872Y-11614150D01*
X11403872Y-11614150D02*
X11422920Y-11614150D01*
X11489586Y-11747484D02*
X11489586Y-11614150D01*
X11489586Y-11547484D02*
X11480062Y-11557008D01*
X11480062Y-11557008D02*
X11489586Y-11566531D01*
X11489586Y-11566531D02*
X11499110Y-11557008D01*
X11499110Y-11557008D02*
X11489586Y-11547484D01*
X11489586Y-11547484D02*
X11489586Y-11566531D01*
X11613396Y-11747484D02*
X11594348Y-11737960D01*
X11594348Y-11737960D02*
X11584824Y-11718912D01*
X11584824Y-11718912D02*
X11584824Y-11547484D01*
X11718158Y-11747484D02*
X11699110Y-11737960D01*
X11699110Y-11737960D02*
X11689586Y-11718912D01*
X11689586Y-11718912D02*
X11689586Y-11547484D01*
X11946729Y-11747484D02*
X11946729Y-11547484D01*
X11946729Y-11547484D02*
X12013396Y-11690341D01*
X12013396Y-11690341D02*
X12080062Y-11547484D01*
X12080062Y-11547484D02*
X12080062Y-11747484D01*
X12261015Y-11747484D02*
X12261015Y-11642722D01*
X12261015Y-11642722D02*
X12251491Y-11623674D01*
X12251491Y-11623674D02*
X12232443Y-11614150D01*
X12232443Y-11614150D02*
X12194348Y-11614150D01*
X12194348Y-11614150D02*
X12175301Y-11623674D01*
X12261015Y-11737960D02*
X12241967Y-11747484D01*
X12241967Y-11747484D02*
X12194348Y-11747484D01*
X12194348Y-11747484D02*
X12175301Y-11737960D01*
X12175301Y-11737960D02*
X12165777Y-11718912D01*
X12165777Y-11718912D02*
X12165777Y-11699865D01*
X12165777Y-11699865D02*
X12175301Y-11680817D01*
X12175301Y-11680817D02*
X12194348Y-11671293D01*
X12194348Y-11671293D02*
X12241967Y-11671293D01*
X12241967Y-11671293D02*
X12261015Y-11661769D01*
X12356253Y-11614150D02*
X12356253Y-11814150D01*
X12356253Y-11623674D02*
X12375301Y-11614150D01*
X12375301Y-11614150D02*
X12413396Y-11614150D01*
X12413396Y-11614150D02*
X12432443Y-11623674D01*
X12432443Y-11623674D02*
X12441967Y-11633198D01*
X12441967Y-11633198D02*
X12451491Y-11652246D01*
X12451491Y-11652246D02*
X12451491Y-11709388D01*
X12451491Y-11709388D02*
X12441967Y-11728436D01*
X12441967Y-11728436D02*
X12432443Y-11737960D01*
X12432443Y-11737960D02*
X12413396Y-11747484D01*
X12413396Y-11747484D02*
X12375301Y-11747484D01*
X12375301Y-11747484D02*
X12356253Y-11737960D01*
X12537205Y-11728436D02*
X12546729Y-11737960D01*
X12546729Y-11737960D02*
X12537205Y-11747484D01*
X12537205Y-11747484D02*
X12527682Y-11737960D01*
X12527682Y-11737960D02*
X12537205Y-11728436D01*
X12537205Y-11728436D02*
X12537205Y-11747484D01*
X12537205Y-11623674D02*
X12546729Y-11633198D01*
X12546729Y-11633198D02*
X12537205Y-11642722D01*
X12537205Y-11642722D02*
X12527682Y-11633198D01*
X12527682Y-11633198D02*
X12537205Y-11623674D01*
X12537205Y-11623674D02*
X12537205Y-11642722D01*
D10*
X10805000Y-12026000D02*
X10905000Y-12126000D01*
X10905000Y-12026000D02*
X10805000Y-12126000D01*
D11*
X11270539Y-12167484D02*
X11156253Y-12167484D01*
X11213396Y-12167484D02*
X11213396Y-11967484D01*
X11213396Y-11967484D02*
X11194348Y-11996055D01*
X11194348Y-11996055D02*
X11175301Y-12015103D01*
X11175301Y-12015103D02*
X11156253Y-12024627D01*
X11356253Y-12148436D02*
X11365777Y-12157960D01*
X11365777Y-12157960D02*
X11356253Y-12167484D01*
X11356253Y-12167484D02*
X11346729Y-12157960D01*
X11346729Y-12157960D02*
X11356253Y-12148436D01*
X11356253Y-12148436D02*
X11356253Y-12167484D01*
X11489586Y-11967484D02*
X11508634Y-11967484D01*
X11508634Y-11967484D02*
X11527682Y-11977008D01*
X11527682Y-11977008D02*
X11537205Y-11986531D01*
X11537205Y-11986531D02*
X11546729Y-12005579D01*
X11546729Y-12005579D02*
X11556253Y-12043674D01*
X11556253Y-12043674D02*
X11556253Y-12091293D01*
X11556253Y-12091293D02*
X11546729Y-12129388D01*
X11546729Y-12129388D02*
X11537205Y-12148436D01*
X11537205Y-12148436D02*
X11527682Y-12157960D01*
X11527682Y-12157960D02*
X11508634Y-12167484D01*
X11508634Y-12167484D02*
X11489586Y-12167484D01*
X11489586Y-12167484D02*
X11470539Y-12157960D01*
X11470539Y-12157960D02*
X11461015Y-12148436D01*
X11461015Y-12148436D02*
X11451491Y-12129388D01*
X11451491Y-12129388D02*
X11441967Y-12091293D01*
X11441967Y-12091293D02*
X11441967Y-12043674D01*
X11441967Y-12043674D02*
X11451491Y-12005579D01*
X11451491Y-12005579D02*
X11461015Y-11986531D01*
X11461015Y-11986531D02*
X11470539Y-11977008D01*
X11470539Y-11977008D02*
X11489586Y-11967484D01*
X11680062Y-11967484D02*
X11699110Y-11967484D01*
X11699110Y-11967484D02*
X11718158Y-11977008D01*
X11718158Y-11977008D02*
X11727682Y-11986531D01*
X11727682Y-11986531D02*
X11737205Y-12005579D01*
X11737205Y-12005579D02*
X11746729Y-12043674D01*
X11746729Y-12043674D02*
X11746729Y-12091293D01*
X11746729Y-12091293D02*
X11737205Y-12129388D01*
X11737205Y-12129388D02*
X11727682Y-12148436D01*
X11727682Y-12148436D02*
X11718158Y-12157960D01*
X11718158Y-12157960D02*
X11699110Y-12167484D01*
X11699110Y-12167484D02*
X11680062Y-12167484D01*
X11680062Y-12167484D02*
X11661015Y-12157960D01*
X11661015Y-12157960D02*
X11651491Y-12148436D01*
X11651491Y-12148436D02*
X11641967Y-12129388D01*
X11641967Y-12129388D02*
X11632443Y-12091293D01*
X11632443Y-12091293D02*
X11632443Y-12043674D01*
X11632443Y-12043674D02*
X11641967Y-12005579D01*
X11641967Y-12005579D02*
X11651491Y-11986531D01*
X11651491Y-11986531D02*
X11661015Y-11977008D01*
X11661015Y-11977008D02*
X11680062Y-11967484D01*
X11870539Y-11967484D02*
X11889586Y-11967484D01*
X11889586Y-11967484D02*
X11908634Y-11977008D01*
X11908634Y-11977008D02*
X11918158Y-11986531D01*
X11918158Y-11986531D02*
X11927682Y-12005579D01*
X11927682Y-12005579D02*
X11937205Y-12043674D01*
X11937205Y-12043674D02*
X11937205Y-12091293D01*
X11937205Y-12091293D02*
X11927682Y-12129388D01*
X11927682Y-12129388D02*
X11918158Y-12148436D01*
X11918158Y-12148436D02*
X11908634Y-12157960D01*
X11908634Y-12157960D02*
X11889586Y-12167484D01*
X11889586Y-12167484D02*
X11870539Y-12167484D01*
X11870539Y-12167484D02*
X11851491Y-12157960D01*
X11851491Y-12157960D02*
X11841967Y-12148436D01*
X11841967Y-12148436D02*
X11832443Y-12129388D01*
X11832443Y-12129388D02*
X11822920Y-12091293D01*
X11822920Y-12091293D02*
X11822920Y-12043674D01*
X11822920Y-12043674D02*
X11832443Y-12005579D01*
X11832443Y-12005579D02*
X11841967Y-11986531D01*
X11841967Y-11986531D02*
X11851491Y-11977008D01*
X11851491Y-11977008D02*
X11870539Y-11967484D01*
X12022920Y-12167484D02*
X12022920Y-12034150D01*
X12022920Y-12053198D02*
X12032443Y-12043674D01*
X12032443Y-12043674D02*
X12051491Y-12034150D01*
X12051491Y-12034150D02*
X12080063Y-12034150D01*
X12080063Y-12034150D02*
X12099110Y-12043674D01*
X12099110Y-12043674D02*
X12108634Y-12062722D01*
X12108634Y-12062722D02*
X12108634Y-12167484D01*
X12108634Y-12062722D02*
X12118158Y-12043674D01*
X12118158Y-12043674D02*
X12137205Y-12034150D01*
X12137205Y-12034150D02*
X12165777Y-12034150D01*
X12165777Y-12034150D02*
X12184824Y-12043674D01*
X12184824Y-12043674D02*
X12194348Y-12062722D01*
X12194348Y-12062722D02*
X12194348Y-12167484D01*
X12289586Y-12167484D02*
X12289586Y-12034150D01*
X12289586Y-12053198D02*
X12299110Y-12043674D01*
X12299110Y-12043674D02*
X12318158Y-12034150D01*
X12318158Y-12034150D02*
X12346729Y-12034150D01*
X12346729Y-12034150D02*
X12365777Y-12043674D01*
X12365777Y-12043674D02*
X12375301Y-12062722D01*
X12375301Y-12062722D02*
X12375301Y-12167484D01*
X12375301Y-12062722D02*
X12384824Y-12043674D01*
X12384824Y-12043674D02*
X12403872Y-12034150D01*
X12403872Y-12034150D02*
X12432443Y-12034150D01*
X12432443Y-12034150D02*
X12451491Y-12043674D01*
X12451491Y-12043674D02*
X12461015Y-12062722D01*
X12461015Y-12062722D02*
X12461015Y-12167484D01*
X12851491Y-11957960D02*
X12680063Y-12215103D01*
X13108634Y-11967484D02*
X13127682Y-11967484D01*
X13127682Y-11967484D02*
X13146729Y-11977008D01*
X13146729Y-11977008D02*
X13156253Y-11986531D01*
X13156253Y-11986531D02*
X13165777Y-12005579D01*
X13165777Y-12005579D02*
X13175301Y-12043674D01*
X13175301Y-12043674D02*
X13175301Y-12091293D01*
X13175301Y-12091293D02*
X13165777Y-12129388D01*
X13165777Y-12129388D02*
X13156253Y-12148436D01*
X13156253Y-12148436D02*
X13146729Y-12157960D01*
X13146729Y-12157960D02*
X13127682Y-12167484D01*
X13127682Y-12167484D02*
X13108634Y-12167484D01*
X13108634Y-12167484D02*
X13089586Y-12157960D01*
X13089586Y-12157960D02*
X13080063Y-12148436D01*
X13080063Y-12148436D02*
X13070539Y-12129388D01*
X13070539Y-12129388D02*
X13061015Y-12091293D01*
X13061015Y-12091293D02*
X13061015Y-12043674D01*
X13061015Y-12043674D02*
X13070539Y-12005579D01*
X13070539Y-12005579D02*
X13080063Y-11986531D01*
X13080063Y-11986531D02*
X13089586Y-11977008D01*
X13089586Y-11977008D02*
X13108634Y-11967484D01*
X13261015Y-12148436D02*
X13270539Y-12157960D01*
X13270539Y-12157960D02*
X13261015Y-12167484D01*
X13261015Y-12167484D02*
X13251491Y-12157960D01*
X13251491Y-12157960D02*
X13261015Y-12148436D01*
X13261015Y-12148436D02*
X13261015Y-12167484D01*
X13394348Y-11967484D02*
X13413396Y-11967484D01*
X13413396Y-11967484D02*
X13432444Y-11977008D01*
X13432444Y-11977008D02*
X13441967Y-11986531D01*
X13441967Y-11986531D02*
X13451491Y-12005579D01*
X13451491Y-12005579D02*
X13461015Y-12043674D01*
X13461015Y-12043674D02*
X13461015Y-12091293D01*
X13461015Y-12091293D02*
X13451491Y-12129388D01*
X13451491Y-12129388D02*
X13441967Y-12148436D01*
X13441967Y-12148436D02*
X13432444Y-12157960D01*
X13432444Y-12157960D02*
X13413396Y-12167484D01*
X13413396Y-12167484D02*
X13394348Y-12167484D01*
X13394348Y-12167484D02*
X13375301Y-12157960D01*
X13375301Y-12157960D02*
X13365777Y-12148436D01*
X13365777Y-12148436D02*
X13356253Y-12129388D01*
X13356253Y-12129388D02*
X13346729Y-12091293D01*
X13346729Y-12091293D02*
X13346729Y-12043674D01*
X13346729Y-12043674D02*
X13356253Y-12005579D01*
X13356253Y-12005579D02*
X13365777Y-11986531D01*
X13365777Y-11986531D02*
X13375301Y-11977008D01*
X13375301Y-11977008D02*
X13394348Y-11967484D01*
X13527682Y-11967484D02*
X13651491Y-11967484D01*
X13651491Y-11967484D02*
X13584825Y-12043674D01*
X13584825Y-12043674D02*
X13613396Y-12043674D01*
X13613396Y-12043674D02*
X13632444Y-12053198D01*
X13632444Y-12053198D02*
X13641967Y-12062722D01*
X13641967Y-12062722D02*
X13651491Y-12081769D01*
X13651491Y-12081769D02*
X13651491Y-12129388D01*
X13651491Y-12129388D02*
X13641967Y-12148436D01*
X13641967Y-12148436D02*
X13632444Y-12157960D01*
X13632444Y-12157960D02*
X13613396Y-12167484D01*
X13613396Y-12167484D02*
X13556253Y-12167484D01*
X13556253Y-12167484D02*
X13537206Y-12157960D01*
X13537206Y-12157960D02*
X13527682Y-12148436D01*
X13746729Y-12167484D02*
X13784825Y-12167484D01*
X13784825Y-12167484D02*
X13803872Y-12157960D01*
X13803872Y-12157960D02*
X13813396Y-12148436D01*
X13813396Y-12148436D02*
X13832444Y-12119865D01*
X13832444Y-12119865D02*
X13841967Y-12081769D01*
X13841967Y-12081769D02*
X13841967Y-12005579D01*
X13841967Y-12005579D02*
X13832444Y-11986531D01*
X13832444Y-11986531D02*
X13822920Y-11977008D01*
X13822920Y-11977008D02*
X13803872Y-11967484D01*
X13803872Y-11967484D02*
X13765777Y-11967484D01*
X13765777Y-11967484D02*
X13746729Y-11977008D01*
X13746729Y-11977008D02*
X13737206Y-11986531D01*
X13737206Y-11986531D02*
X13727682Y-12005579D01*
X13727682Y-12005579D02*
X13727682Y-12053198D01*
X13727682Y-12053198D02*
X13737206Y-12072246D01*
X13737206Y-12072246D02*
X13746729Y-12081769D01*
X13746729Y-12081769D02*
X13765777Y-12091293D01*
X13765777Y-12091293D02*
X13803872Y-12091293D01*
X13803872Y-12091293D02*
X13822920Y-12081769D01*
X13822920Y-12081769D02*
X13832444Y-12072246D01*
X13832444Y-12072246D02*
X13841967Y-12053198D01*
X14013396Y-12034150D02*
X14013396Y-12167484D01*
X13965777Y-11957960D02*
X13918158Y-12100817D01*
X13918158Y-12100817D02*
X14041967Y-12100817D01*
X14108634Y-11967484D02*
X14108634Y-12005579D01*
X14184825Y-11967484D02*
X14184825Y-12005579D01*
X14480063Y-12243674D02*
X14470539Y-12234150D01*
X14470539Y-12234150D02*
X14451491Y-12205579D01*
X14451491Y-12205579D02*
X14441968Y-12186531D01*
X14441968Y-12186531D02*
X14432444Y-12157960D01*
X14432444Y-12157960D02*
X14422920Y-12110341D01*
X14422920Y-12110341D02*
X14422920Y-12072246D01*
X14422920Y-12072246D02*
X14432444Y-12024627D01*
X14432444Y-12024627D02*
X14441968Y-11996055D01*
X14441968Y-11996055D02*
X14451491Y-11977008D01*
X14451491Y-11977008D02*
X14470539Y-11948436D01*
X14470539Y-11948436D02*
X14480063Y-11938912D01*
X14546729Y-11986531D02*
X14556253Y-11977008D01*
X14556253Y-11977008D02*
X14575301Y-11967484D01*
X14575301Y-11967484D02*
X14622920Y-11967484D01*
X14622920Y-11967484D02*
X14641968Y-11977008D01*
X14641968Y-11977008D02*
X14651491Y-11986531D01*
X14651491Y-11986531D02*
X14661015Y-12005579D01*
X14661015Y-12005579D02*
X14661015Y-12024627D01*
X14661015Y-12024627D02*
X14651491Y-12053198D01*
X14651491Y-12053198D02*
X14537206Y-12167484D01*
X14537206Y-12167484D02*
X14661015Y-12167484D01*
X14832444Y-12034150D02*
X14832444Y-12167484D01*
X14784825Y-11957960D02*
X14737206Y-12100817D01*
X14737206Y-12100817D02*
X14861015Y-12100817D01*
X15089587Y-12167484D02*
X15089587Y-11967484D01*
X15175301Y-12167484D02*
X15175301Y-12062722D01*
X15175301Y-12062722D02*
X15165777Y-12043674D01*
X15165777Y-12043674D02*
X15146730Y-12034150D01*
X15146730Y-12034150D02*
X15118158Y-12034150D01*
X15118158Y-12034150D02*
X15099110Y-12043674D01*
X15099110Y-12043674D02*
X15089587Y-12053198D01*
X15299110Y-12167484D02*
X15280063Y-12157960D01*
X15280063Y-12157960D02*
X15270539Y-12148436D01*
X15270539Y-12148436D02*
X15261015Y-12129388D01*
X15261015Y-12129388D02*
X15261015Y-12072246D01*
X15261015Y-12072246D02*
X15270539Y-12053198D01*
X15270539Y-12053198D02*
X15280063Y-12043674D01*
X15280063Y-12043674D02*
X15299110Y-12034150D01*
X15299110Y-12034150D02*
X15327682Y-12034150D01*
X15327682Y-12034150D02*
X15346730Y-12043674D01*
X15346730Y-12043674D02*
X15356253Y-12053198D01*
X15356253Y-12053198D02*
X15365777Y-12072246D01*
X15365777Y-12072246D02*
X15365777Y-12129388D01*
X15365777Y-12129388D02*
X15356253Y-12148436D01*
X15356253Y-12148436D02*
X15346730Y-12157960D01*
X15346730Y-12157960D02*
X15327682Y-12167484D01*
X15327682Y-12167484D02*
X15299110Y-12167484D01*
X15480063Y-12167484D02*
X15461015Y-12157960D01*
X15461015Y-12157960D02*
X15451491Y-12138912D01*
X15451491Y-12138912D02*
X15451491Y-11967484D01*
X15632444Y-12157960D02*
X15613396Y-12167484D01*
X15613396Y-12167484D02*
X15575301Y-12167484D01*
X15575301Y-12167484D02*
X15556253Y-12157960D01*
X15556253Y-12157960D02*
X15546730Y-12138912D01*
X15546730Y-12138912D02*
X15546730Y-12062722D01*
X15546730Y-12062722D02*
X15556253Y-12043674D01*
X15556253Y-12043674D02*
X15575301Y-12034150D01*
X15575301Y-12034150D02*
X15613396Y-12034150D01*
X15613396Y-12034150D02*
X15632444Y-12043674D01*
X15632444Y-12043674D02*
X15641968Y-12062722D01*
X15641968Y-12062722D02*
X15641968Y-12081769D01*
X15641968Y-12081769D02*
X15546730Y-12100817D01*
X15718158Y-12157960D02*
X15737206Y-12167484D01*
X15737206Y-12167484D02*
X15775301Y-12167484D01*
X15775301Y-12167484D02*
X15794349Y-12157960D01*
X15794349Y-12157960D02*
X15803872Y-12138912D01*
X15803872Y-12138912D02*
X15803872Y-12129388D01*
X15803872Y-12129388D02*
X15794349Y-12110341D01*
X15794349Y-12110341D02*
X15775301Y-12100817D01*
X15775301Y-12100817D02*
X15746730Y-12100817D01*
X15746730Y-12100817D02*
X15727682Y-12091293D01*
X15727682Y-12091293D02*
X15718158Y-12072246D01*
X15718158Y-12072246D02*
X15718158Y-12062722D01*
X15718158Y-12062722D02*
X15727682Y-12043674D01*
X15727682Y-12043674D02*
X15746730Y-12034150D01*
X15746730Y-12034150D02*
X15775301Y-12034150D01*
X15775301Y-12034150D02*
X15794349Y-12043674D01*
X15870539Y-12243674D02*
X15880063Y-12234150D01*
X15880063Y-12234150D02*
X15899111Y-12205579D01*
X15899111Y-12205579D02*
X15908634Y-12186531D01*
X15908634Y-12186531D02*
X15918158Y-12157960D01*
X15918158Y-12157960D02*
X15927682Y-12110341D01*
X15927682Y-12110341D02*
X15927682Y-12072246D01*
X15927682Y-12072246D02*
X15918158Y-12024627D01*
X15918158Y-12024627D02*
X15908634Y-11996055D01*
X15908634Y-11996055D02*
X15899111Y-11977008D01*
X15899111Y-11977008D02*
X15880063Y-11948436D01*
X15880063Y-11948436D02*
X15870539Y-11938912D01*
D12*
X10905000Y-12340000D02*
G75*
G03*
X10905000Y-12340000I-52000J0D01*
G01*
D11*
X11270539Y-12431484D02*
X11156253Y-12431484D01*
X11213396Y-12431484D02*
X11213396Y-12231484D01*
X11213396Y-12231484D02*
X11194348Y-12260055D01*
X11194348Y-12260055D02*
X11175301Y-12279103D01*
X11175301Y-12279103D02*
X11156253Y-12288627D01*
X11356253Y-12412436D02*
X11365777Y-12421960D01*
X11365777Y-12421960D02*
X11356253Y-12431484D01*
X11356253Y-12431484D02*
X11346729Y-12421960D01*
X11346729Y-12421960D02*
X11356253Y-12412436D01*
X11356253Y-12412436D02*
X11356253Y-12431484D01*
X11489586Y-12231484D02*
X11508634Y-12231484D01*
X11508634Y-12231484D02*
X11527682Y-12241008D01*
X11527682Y-12241008D02*
X11537205Y-12250531D01*
X11537205Y-12250531D02*
X11546729Y-12269579D01*
X11546729Y-12269579D02*
X11556253Y-12307674D01*
X11556253Y-12307674D02*
X11556253Y-12355293D01*
X11556253Y-12355293D02*
X11546729Y-12393388D01*
X11546729Y-12393388D02*
X11537205Y-12412436D01*
X11537205Y-12412436D02*
X11527682Y-12421960D01*
X11527682Y-12421960D02*
X11508634Y-12431484D01*
X11508634Y-12431484D02*
X11489586Y-12431484D01*
X11489586Y-12431484D02*
X11470539Y-12421960D01*
X11470539Y-12421960D02*
X11461015Y-12412436D01*
X11461015Y-12412436D02*
X11451491Y-12393388D01*
X11451491Y-12393388D02*
X11441967Y-12355293D01*
X11441967Y-12355293D02*
X11441967Y-12307674D01*
X11441967Y-12307674D02*
X11451491Y-12269579D01*
X11451491Y-12269579D02*
X11461015Y-12250531D01*
X11461015Y-12250531D02*
X11470539Y-12241008D01*
X11470539Y-12241008D02*
X11489586Y-12231484D01*
X11727682Y-12298150D02*
X11727682Y-12431484D01*
X11680062Y-12221960D02*
X11632443Y-12364817D01*
X11632443Y-12364817D02*
X11756253Y-12364817D01*
X11870539Y-12231484D02*
X11889586Y-12231484D01*
X11889586Y-12231484D02*
X11908634Y-12241008D01*
X11908634Y-12241008D02*
X11918158Y-12250531D01*
X11918158Y-12250531D02*
X11927682Y-12269579D01*
X11927682Y-12269579D02*
X11937205Y-12307674D01*
X11937205Y-12307674D02*
X11937205Y-12355293D01*
X11937205Y-12355293D02*
X11927682Y-12393388D01*
X11927682Y-12393388D02*
X11918158Y-12412436D01*
X11918158Y-12412436D02*
X11908634Y-12421960D01*
X11908634Y-12421960D02*
X11889586Y-12431484D01*
X11889586Y-12431484D02*
X11870539Y-12431484D01*
X11870539Y-12431484D02*
X11851491Y-12421960D01*
X11851491Y-12421960D02*
X11841967Y-12412436D01*
X11841967Y-12412436D02*
X11832443Y-12393388D01*
X11832443Y-12393388D02*
X11822920Y-12355293D01*
X11822920Y-12355293D02*
X11822920Y-12307674D01*
X11822920Y-12307674D02*
X11832443Y-12269579D01*
X11832443Y-12269579D02*
X11841967Y-12250531D01*
X11841967Y-12250531D02*
X11851491Y-12241008D01*
X11851491Y-12241008D02*
X11870539Y-12231484D01*
X12022920Y-12431484D02*
X12022920Y-12298150D01*
X12022920Y-12317198D02*
X12032443Y-12307674D01*
X12032443Y-12307674D02*
X12051491Y-12298150D01*
X12051491Y-12298150D02*
X12080063Y-12298150D01*
X12080063Y-12298150D02*
X12099110Y-12307674D01*
X12099110Y-12307674D02*
X12108634Y-12326722D01*
X12108634Y-12326722D02*
X12108634Y-12431484D01*
X12108634Y-12326722D02*
X12118158Y-12307674D01*
X12118158Y-12307674D02*
X12137205Y-12298150D01*
X12137205Y-12298150D02*
X12165777Y-12298150D01*
X12165777Y-12298150D02*
X12184824Y-12307674D01*
X12184824Y-12307674D02*
X12194348Y-12326722D01*
X12194348Y-12326722D02*
X12194348Y-12431484D01*
X12289586Y-12431484D02*
X12289586Y-12298150D01*
X12289586Y-12317198D02*
X12299110Y-12307674D01*
X12299110Y-12307674D02*
X12318158Y-12298150D01*
X12318158Y-12298150D02*
X12346729Y-12298150D01*
X12346729Y-12298150D02*
X12365777Y-12307674D01*
X12365777Y-12307674D02*
X12375301Y-12326722D01*
X12375301Y-12326722D02*
X12375301Y-12431484D01*
X12375301Y-12326722D02*
X12384824Y-12307674D01*
X12384824Y-12307674D02*
X12403872Y-12298150D01*
X12403872Y-12298150D02*
X12432443Y-12298150D01*
X12432443Y-12298150D02*
X12451491Y-12307674D01*
X12451491Y-12307674D02*
X12461015Y-12326722D01*
X12461015Y-12326722D02*
X12461015Y-12431484D01*
X12851491Y-12221960D02*
X12680063Y-12479103D01*
X13108634Y-12231484D02*
X13127682Y-12231484D01*
X13127682Y-12231484D02*
X13146729Y-12241008D01*
X13146729Y-12241008D02*
X13156253Y-12250531D01*
X13156253Y-12250531D02*
X13165777Y-12269579D01*
X13165777Y-12269579D02*
X13175301Y-12307674D01*
X13175301Y-12307674D02*
X13175301Y-12355293D01*
X13175301Y-12355293D02*
X13165777Y-12393388D01*
X13165777Y-12393388D02*
X13156253Y-12412436D01*
X13156253Y-12412436D02*
X13146729Y-12421960D01*
X13146729Y-12421960D02*
X13127682Y-12431484D01*
X13127682Y-12431484D02*
X13108634Y-12431484D01*
X13108634Y-12431484D02*
X13089586Y-12421960D01*
X13089586Y-12421960D02*
X13080063Y-12412436D01*
X13080063Y-12412436D02*
X13070539Y-12393388D01*
X13070539Y-12393388D02*
X13061015Y-12355293D01*
X13061015Y-12355293D02*
X13061015Y-12307674D01*
X13061015Y-12307674D02*
X13070539Y-12269579D01*
X13070539Y-12269579D02*
X13080063Y-12250531D01*
X13080063Y-12250531D02*
X13089586Y-12241008D01*
X13089586Y-12241008D02*
X13108634Y-12231484D01*
X13261015Y-12412436D02*
X13270539Y-12421960D01*
X13270539Y-12421960D02*
X13261015Y-12431484D01*
X13261015Y-12431484D02*
X13251491Y-12421960D01*
X13251491Y-12421960D02*
X13261015Y-12412436D01*
X13261015Y-12412436D02*
X13261015Y-12431484D01*
X13394348Y-12231484D02*
X13413396Y-12231484D01*
X13413396Y-12231484D02*
X13432444Y-12241008D01*
X13432444Y-12241008D02*
X13441967Y-12250531D01*
X13441967Y-12250531D02*
X13451491Y-12269579D01*
X13451491Y-12269579D02*
X13461015Y-12307674D01*
X13461015Y-12307674D02*
X13461015Y-12355293D01*
X13461015Y-12355293D02*
X13451491Y-12393388D01*
X13451491Y-12393388D02*
X13441967Y-12412436D01*
X13441967Y-12412436D02*
X13432444Y-12421960D01*
X13432444Y-12421960D02*
X13413396Y-12431484D01*
X13413396Y-12431484D02*
X13394348Y-12431484D01*
X13394348Y-12431484D02*
X13375301Y-12421960D01*
X13375301Y-12421960D02*
X13365777Y-12412436D01*
X13365777Y-12412436D02*
X13356253Y-12393388D01*
X13356253Y-12393388D02*
X13346729Y-12355293D01*
X13346729Y-12355293D02*
X13346729Y-12307674D01*
X13346729Y-12307674D02*
X13356253Y-12269579D01*
X13356253Y-12269579D02*
X13365777Y-12250531D01*
X13365777Y-12250531D02*
X13375301Y-12241008D01*
X13375301Y-12241008D02*
X13394348Y-12231484D01*
X13632444Y-12298150D02*
X13632444Y-12431484D01*
X13584825Y-12221960D02*
X13537206Y-12364817D01*
X13537206Y-12364817D02*
X13661015Y-12364817D01*
X13775301Y-12231484D02*
X13794348Y-12231484D01*
X13794348Y-12231484D02*
X13813396Y-12241008D01*
X13813396Y-12241008D02*
X13822920Y-12250531D01*
X13822920Y-12250531D02*
X13832444Y-12269579D01*
X13832444Y-12269579D02*
X13841967Y-12307674D01*
X13841967Y-12307674D02*
X13841967Y-12355293D01*
X13841967Y-12355293D02*
X13832444Y-12393388D01*
X13832444Y-12393388D02*
X13822920Y-12412436D01*
X13822920Y-12412436D02*
X13813396Y-12421960D01*
X13813396Y-12421960D02*
X13794348Y-12431484D01*
X13794348Y-12431484D02*
X13775301Y-12431484D01*
X13775301Y-12431484D02*
X13756253Y-12421960D01*
X13756253Y-12421960D02*
X13746729Y-12412436D01*
X13746729Y-12412436D02*
X13737206Y-12393388D01*
X13737206Y-12393388D02*
X13727682Y-12355293D01*
X13727682Y-12355293D02*
X13727682Y-12307674D01*
X13727682Y-12307674D02*
X13737206Y-12269579D01*
X13737206Y-12269579D02*
X13746729Y-12250531D01*
X13746729Y-12250531D02*
X13756253Y-12241008D01*
X13756253Y-12241008D02*
X13775301Y-12231484D01*
X13937206Y-12431484D02*
X13975301Y-12431484D01*
X13975301Y-12431484D02*
X13994348Y-12421960D01*
X13994348Y-12421960D02*
X14003872Y-12412436D01*
X14003872Y-12412436D02*
X14022920Y-12383865D01*
X14022920Y-12383865D02*
X14032444Y-12345769D01*
X14032444Y-12345769D02*
X14032444Y-12269579D01*
X14032444Y-12269579D02*
X14022920Y-12250531D01*
X14022920Y-12250531D02*
X14013396Y-12241008D01*
X14013396Y-12241008D02*
X13994348Y-12231484D01*
X13994348Y-12231484D02*
X13956253Y-12231484D01*
X13956253Y-12231484D02*
X13937206Y-12241008D01*
X13937206Y-12241008D02*
X13927682Y-12250531D01*
X13927682Y-12250531D02*
X13918158Y-12269579D01*
X13918158Y-12269579D02*
X13918158Y-12317198D01*
X13918158Y-12317198D02*
X13927682Y-12336246D01*
X13927682Y-12336246D02*
X13937206Y-12345769D01*
X13937206Y-12345769D02*
X13956253Y-12355293D01*
X13956253Y-12355293D02*
X13994348Y-12355293D01*
X13994348Y-12355293D02*
X14013396Y-12345769D01*
X14013396Y-12345769D02*
X14022920Y-12336246D01*
X14022920Y-12336246D02*
X14032444Y-12317198D01*
X14108634Y-12231484D02*
X14108634Y-12269579D01*
X14184825Y-12231484D02*
X14184825Y-12269579D01*
X14480063Y-12507674D02*
X14470539Y-12498150D01*
X14470539Y-12498150D02*
X14451491Y-12469579D01*
X14451491Y-12469579D02*
X14441968Y-12450531D01*
X14441968Y-12450531D02*
X14432444Y-12421960D01*
X14432444Y-12421960D02*
X14422920Y-12374341D01*
X14422920Y-12374341D02*
X14422920Y-12336246D01*
X14422920Y-12336246D02*
X14432444Y-12288627D01*
X14432444Y-12288627D02*
X14441968Y-12260055D01*
X14441968Y-12260055D02*
X14451491Y-12241008D01*
X14451491Y-12241008D02*
X14470539Y-12212436D01*
X14470539Y-12212436D02*
X14480063Y-12202912D01*
X14537206Y-12231484D02*
X14661015Y-12231484D01*
X14661015Y-12231484D02*
X14594348Y-12307674D01*
X14594348Y-12307674D02*
X14622920Y-12307674D01*
X14622920Y-12307674D02*
X14641968Y-12317198D01*
X14641968Y-12317198D02*
X14651491Y-12326722D01*
X14651491Y-12326722D02*
X14661015Y-12345769D01*
X14661015Y-12345769D02*
X14661015Y-12393388D01*
X14661015Y-12393388D02*
X14651491Y-12412436D01*
X14651491Y-12412436D02*
X14641968Y-12421960D01*
X14641968Y-12421960D02*
X14622920Y-12431484D01*
X14622920Y-12431484D02*
X14565777Y-12431484D01*
X14565777Y-12431484D02*
X14546729Y-12421960D01*
X14546729Y-12421960D02*
X14537206Y-12412436D01*
X14775301Y-12317198D02*
X14756253Y-12307674D01*
X14756253Y-12307674D02*
X14746729Y-12298150D01*
X14746729Y-12298150D02*
X14737206Y-12279103D01*
X14737206Y-12279103D02*
X14737206Y-12269579D01*
X14737206Y-12269579D02*
X14746729Y-12250531D01*
X14746729Y-12250531D02*
X14756253Y-12241008D01*
X14756253Y-12241008D02*
X14775301Y-12231484D01*
X14775301Y-12231484D02*
X14813396Y-12231484D01*
X14813396Y-12231484D02*
X14832444Y-12241008D01*
X14832444Y-12241008D02*
X14841968Y-12250531D01*
X14841968Y-12250531D02*
X14851491Y-12269579D01*
X14851491Y-12269579D02*
X14851491Y-12279103D01*
X14851491Y-12279103D02*
X14841968Y-12298150D01*
X14841968Y-12298150D02*
X14832444Y-12307674D01*
X14832444Y-12307674D02*
X14813396Y-12317198D01*
X14813396Y-12317198D02*
X14775301Y-12317198D01*
X14775301Y-12317198D02*
X14756253Y-12326722D01*
X14756253Y-12326722D02*
X14746729Y-12336246D01*
X14746729Y-12336246D02*
X14737206Y-12355293D01*
X14737206Y-12355293D02*
X14737206Y-12393388D01*
X14737206Y-12393388D02*
X14746729Y-12412436D01*
X14746729Y-12412436D02*
X14756253Y-12421960D01*
X14756253Y-12421960D02*
X14775301Y-12431484D01*
X14775301Y-12431484D02*
X14813396Y-12431484D01*
X14813396Y-12431484D02*
X14832444Y-12421960D01*
X14832444Y-12421960D02*
X14841968Y-12412436D01*
X14841968Y-12412436D02*
X14851491Y-12393388D01*
X14851491Y-12393388D02*
X14851491Y-12355293D01*
X14851491Y-12355293D02*
X14841968Y-12336246D01*
X14841968Y-12336246D02*
X14832444Y-12326722D01*
X14832444Y-12326722D02*
X14813396Y-12317198D01*
X15089587Y-12431484D02*
X15089587Y-12231484D01*
X15175301Y-12431484D02*
X15175301Y-12326722D01*
X15175301Y-12326722D02*
X15165777Y-12307674D01*
X15165777Y-12307674D02*
X15146730Y-12298150D01*
X15146730Y-12298150D02*
X15118158Y-12298150D01*
X15118158Y-12298150D02*
X15099110Y-12307674D01*
X15099110Y-12307674D02*
X15089587Y-12317198D01*
X15299110Y-12431484D02*
X15280063Y-12421960D01*
X15280063Y-12421960D02*
X15270539Y-12412436D01*
X15270539Y-12412436D02*
X15261015Y-12393388D01*
X15261015Y-12393388D02*
X15261015Y-12336246D01*
X15261015Y-12336246D02*
X15270539Y-12317198D01*
X15270539Y-12317198D02*
X15280063Y-12307674D01*
X15280063Y-12307674D02*
X15299110Y-12298150D01*
X15299110Y-12298150D02*
X15327682Y-12298150D01*
X15327682Y-12298150D02*
X15346730Y-12307674D01*
X15346730Y-12307674D02*
X15356253Y-12317198D01*
X15356253Y-12317198D02*
X15365777Y-12336246D01*
X15365777Y-12336246D02*
X15365777Y-12393388D01*
X15365777Y-12393388D02*
X15356253Y-12412436D01*
X15356253Y-12412436D02*
X15346730Y-12421960D01*
X15346730Y-12421960D02*
X15327682Y-12431484D01*
X15327682Y-12431484D02*
X15299110Y-12431484D01*
X15480063Y-12431484D02*
X15461015Y-12421960D01*
X15461015Y-12421960D02*
X15451491Y-12402912D01*
X15451491Y-12402912D02*
X15451491Y-12231484D01*
X15632444Y-12421960D02*
X15613396Y-12431484D01*
X15613396Y-12431484D02*
X15575301Y-12431484D01*
X15575301Y-12431484D02*
X15556253Y-12421960D01*
X15556253Y-12421960D02*
X15546730Y-12402912D01*
X15546730Y-12402912D02*
X15546730Y-12326722D01*
X15546730Y-12326722D02*
X15556253Y-12307674D01*
X15556253Y-12307674D02*
X15575301Y-12298150D01*
X15575301Y-12298150D02*
X15613396Y-12298150D01*
X15613396Y-12298150D02*
X15632444Y-12307674D01*
X15632444Y-12307674D02*
X15641968Y-12326722D01*
X15641968Y-12326722D02*
X15641968Y-12345769D01*
X15641968Y-12345769D02*
X15546730Y-12364817D01*
X15718158Y-12421960D02*
X15737206Y-12431484D01*
X15737206Y-12431484D02*
X15775301Y-12431484D01*
X15775301Y-12431484D02*
X15794349Y-12421960D01*
X15794349Y-12421960D02*
X15803872Y-12402912D01*
X15803872Y-12402912D02*
X15803872Y-12393388D01*
X15803872Y-12393388D02*
X15794349Y-12374341D01*
X15794349Y-12374341D02*
X15775301Y-12364817D01*
X15775301Y-12364817D02*
X15746730Y-12364817D01*
X15746730Y-12364817D02*
X15727682Y-12355293D01*
X15727682Y-12355293D02*
X15718158Y-12336246D01*
X15718158Y-12336246D02*
X15718158Y-12326722D01*
X15718158Y-12326722D02*
X15727682Y-12307674D01*
X15727682Y-12307674D02*
X15746730Y-12298150D01*
X15746730Y-12298150D02*
X15775301Y-12298150D01*
X15775301Y-12298150D02*
X15794349Y-12307674D01*
X15870539Y-12507674D02*
X15880063Y-12498150D01*
X15880063Y-12498150D02*
X15899111Y-12469579D01*
X15899111Y-12469579D02*
X15908634Y-12450531D01*
X15908634Y-12450531D02*
X15918158Y-12421960D01*
X15918158Y-12421960D02*
X15927682Y-12374341D01*
X15927682Y-12374341D02*
X15927682Y-12336246D01*
X15927682Y-12336246D02*
X15918158Y-12288627D01*
X15918158Y-12288627D02*
X15908634Y-12260055D01*
X15908634Y-12260055D02*
X15899111Y-12241008D01*
X15899111Y-12241008D02*
X15880063Y-12212436D01*
X15880063Y-12212436D02*
X15870539Y-12202912D01*
M02*
