M48
; DRILL file {KiCad 7.0.6} date Mon Jan 22 18:50:31 2024
; FORMAT={-:-/ absolute / metric / decimal}
; #@! TF.CreationDate,2024-01-22T18:50:31-05:00
; #@! TF.GenerationSoftware,Kicad,Pcbnew,7.0.6
; #@! TF.FileFunction,Plated,1,4,PTH
FMAT,2
METRIC
; #@! TA.AperFunction,Plated,PTH,ViaDrill
T1C0.400
; #@! TA.AperFunction,Plated,PTH,ComponentDrill
T2C0.700
; #@! TA.AperFunction,Plated,PTH,ComponentDrill
T3C0.800
; #@! TA.AperFunction,Plated,PTH,ComponentDrill
T4C0.900
; #@! TA.AperFunction,Plated,PTH,ComponentDrill
T5C1.000
; #@! TA.AperFunction,Plated,PTH,ComponentDrill
T6C1.200
; #@! TA.AperFunction,Plated,PTH,ComponentDrill
T7C1.300
; #@! TA.AperFunction,Plated,PTH,ViaDrill
T8C3.400
%
G90
G05
T1
X72.91Y-41.63
X74.3Y-42.42
X75.67Y-43.94
X76.97Y-43.19
X83.33Y-39.36
X84.72Y-40.13
X86.17Y-40.9
X87.76Y-44.73
X93.17Y-41.66
X94.37Y-42.41
X95.49Y-43.96
X96.94Y-43.2
X103.3Y-39.39
X104.66Y-40.15
X106.02Y-40.92
X107.47Y-44.71
X125.22Y-41.67
X126.7Y-42.45
X127.96Y-43.94
X129.13Y-43.18
X135.45Y-39.37
X136.73Y-40.14
X138.21Y-40.89
X139.73Y-44.72
X145.63Y-41.69
X147.14Y-42.45
X148.25Y-43.97
X149.65Y-43.2
X156.02Y-39.37
X157.26Y-40.16
X158.45Y-40.91
X159.6Y-44.69
T2
X79.805Y-69.285
X81.075Y-70.555
X82.345Y-69.285
X99.73Y-69.36
X101.0Y-70.63
X102.27Y-69.36
X131.82Y-69.34
X133.09Y-70.61
X134.36Y-69.34
X152.405Y-69.365
X153.675Y-70.635
X154.945Y-69.365
T3
X50.78Y-42.07
X50.78Y-46.12
X50.78Y-50.17
X50.78Y-54.22
X50.78Y-58.27
X50.78Y-62.32
X50.78Y-66.37
X50.78Y-70.42
X59.48Y-76.69
X60.94Y-42.07
X60.94Y-46.12
X60.94Y-50.17
X60.94Y-54.22
X60.94Y-58.27
X60.94Y-62.32
X60.94Y-66.37
X60.94Y-70.42
X69.64Y-76.69
X78.22Y-51.34
X78.22Y-53.88
X78.22Y-56.42
X78.22Y-58.96
X78.22Y-61.5
X83.3Y-51.34
X83.3Y-53.88
X83.3Y-56.42
X83.3Y-58.96
X83.3Y-61.5
X85.69Y-70.56
X91.63Y-76.67
X95.85Y-70.56
X98.21Y-51.35
X98.21Y-53.89
X98.21Y-56.43
X98.21Y-58.97
X98.21Y-61.51
X101.79Y-76.67
X103.29Y-51.35
X103.29Y-53.89
X103.29Y-56.43
X103.29Y-58.97
X103.29Y-61.51
X105.9Y-70.64
X116.06Y-70.64
X130.37Y-51.34
X130.37Y-53.88
X130.37Y-56.42
X130.37Y-58.96
X130.37Y-61.5
X135.45Y-51.34
X135.45Y-53.88
X135.45Y-56.42
X135.45Y-58.96
X135.45Y-61.5
X137.11Y-81.18
X138.15Y-70.63
X147.27Y-81.18
X148.31Y-70.63
X149.48Y-81.17
X150.952Y-51.402
X150.952Y-53.942
X150.952Y-56.482
X150.952Y-59.023
X150.952Y-61.562
X156.032Y-51.402
X156.032Y-53.942
X156.032Y-56.482
X156.032Y-59.023
X156.032Y-61.562
X158.496Y-70.612
X159.64Y-81.17
X166.47Y-51.7
X166.47Y-61.86
X168.656Y-70.612
X174.06Y-51.72
X174.06Y-61.88
T4
X67.1Y-81.54
X69.64Y-81.54
X99.29Y-81.5
X101.83Y-81.5
X131.26Y-81.44
X133.8Y-81.44
X163.04Y-81.52
X165.58Y-81.52
T5
X89.662Y-29.718
X92.202Y-29.718
X94.742Y-29.718
X97.282Y-29.718
X99.822Y-29.718
X102.362Y-29.718
X104.902Y-29.718
X107.442Y-29.718
X109.982Y-29.718
X112.522Y-29.718
X115.062Y-29.718
X117.602Y-29.718
X120.142Y-29.718
X122.682Y-29.718
X125.222Y-29.718
X127.762Y-29.718
X130.302Y-29.718
X132.842Y-29.718
X135.382Y-29.718
X137.922Y-29.718
X140.462Y-29.718
X143.002Y-29.718
X166.51Y-43.67
X174.11Y-43.67
T6
X54.34Y-141.19
X54.34Y-146.19
X54.38Y-121.27
X54.38Y-126.27
X66.84Y-141.19
X66.84Y-146.19
X66.88Y-121.27
X66.88Y-126.27
X70.43Y-141.2
X70.43Y-146.2
X70.44Y-121.24
X70.44Y-126.24
X82.93Y-141.2
X82.93Y-146.2
X82.94Y-121.24
X82.94Y-126.24
X86.47Y-141.21
X86.47Y-146.21
X86.48Y-121.24
X86.48Y-126.24
X98.97Y-141.21
X98.97Y-146.21
X98.98Y-121.24
X98.98Y-126.24
X102.47Y-141.17
X102.47Y-146.17
X102.5Y-121.22
X102.5Y-126.22
X114.97Y-141.17
X114.97Y-146.17
X115.0Y-121.22
X115.0Y-126.22
X118.51Y-121.22
X118.51Y-126.22
X118.51Y-141.18
X118.51Y-146.18
X126.47Y-101.08
X126.47Y-106.08
X131.01Y-121.22
X131.01Y-126.22
X131.01Y-141.18
X131.01Y-146.18
X134.52Y-141.18
X134.52Y-146.18
X134.55Y-121.2
X134.55Y-126.2
X138.97Y-101.08
X138.97Y-106.08
X147.02Y-141.18
X147.02Y-146.18
X147.05Y-121.2
X147.05Y-126.2
X150.52Y-141.18
X150.52Y-146.18
X150.62Y-121.15
X150.62Y-126.15
X158.22Y-101.06
X158.22Y-106.06
X163.02Y-141.18
X163.02Y-146.18
X163.12Y-121.15
X163.12Y-126.15
X166.56Y-141.19
X166.56Y-146.19
X166.74Y-121.06
X166.74Y-126.06
X170.72Y-101.06
X170.72Y-106.06
X179.06Y-141.19
X179.06Y-146.19
X179.24Y-121.06
X179.24Y-126.06
T7
X62.47Y-101.07
X62.47Y-106.07
X74.97Y-101.07
X74.97Y-106.07
T8
X45.76Y-122.63
X45.79Y-74.63
X78.3Y-160.16
X78.31Y-29.13
X154.26Y-160.1
X154.28Y-29.11
X186.72Y-122.69
X186.77Y-74.63
T0
M30
