%TF.GenerationSoftware,KiCad,Pcbnew,7.0.6*%
%TF.CreationDate,2024-01-22T18:50:27-05:00*%
%TF.ProjectId,CHESSmate PCB,43484553-536d-4617-9465-205043422e6b,rev?*%
%TF.SameCoordinates,Original*%
%TF.FileFunction,Legend,Bot*%
%TF.FilePolarity,Positive*%
%FSLAX46Y46*%
G04 Gerber Fmt 4.6, Leading zero omitted, Abs format (unit mm)*
G04 Created by KiCad (PCBNEW 7.0.6) date 2024-01-22 18:50:27*
%MOMM*%
%LPD*%
G01*
G04 APERTURE LIST*
%ADD10O,1.600000X1.200000*%
%ADD11O,1.200000X1.200000*%
%ADD12R,1.700000X1.700000*%
%ADD13O,1.700000X1.700000*%
%ADD14R,2.000000X2.000000*%
%ADD15C,2.000000*%
%ADD16O,3.048000X1.850000*%
%ADD17C,1.600000*%
%ADD18O,1.600000X1.600000*%
%ADD19R,1.600000X1.600000*%
%ADD20O,3.000000X2.500000*%
%ADD21R,1.800000X1.800000*%
%ADD22C,1.800000*%
G04 APERTURE END LIST*
%LPC*%
D10*
%TO.C,2N2222A*%
X99730000Y-69360000D03*
D11*
X101000000Y-70630000D03*
X102270000Y-69360000D03*
%TD*%
D10*
%TO.C,2N2222A*%
X152404724Y-69364724D03*
D11*
X153674724Y-70634724D03*
X154944724Y-69364724D03*
%TD*%
D10*
%TO.C,2N2222A*%
X131820000Y-69340000D03*
D11*
X133090000Y-70610000D03*
X134360000Y-69340000D03*
%TD*%
D10*
%TO.C,2N2222A*%
X79804724Y-69284724D03*
D11*
X81074724Y-70554724D03*
X82344724Y-69284724D03*
%TD*%
D12*
%TO.C,J1*%
X89662000Y-29718000D03*
D13*
X92202000Y-29718000D03*
X94742000Y-29718000D03*
X97282000Y-29718000D03*
X99822000Y-29718000D03*
X102362000Y-29718000D03*
X104902000Y-29718000D03*
X107442000Y-29718000D03*
X109982000Y-29718000D03*
X112522000Y-29718000D03*
X115062000Y-29718000D03*
X117602000Y-29718000D03*
X120142000Y-29718000D03*
X122682000Y-29718000D03*
X125222000Y-29718000D03*
X127762000Y-29718000D03*
X130302000Y-29718000D03*
X132842000Y-29718000D03*
X135382000Y-29718000D03*
X137922000Y-29718000D03*
X140462000Y-29718000D03*
X143002000Y-29718000D03*
%TD*%
D14*
%TO.C,BZ1*%
X166510000Y-43670000D03*
D15*
X174110000Y-43670000D03*
%TD*%
D16*
%TO.C,SW17*%
X62470000Y-101070000D03*
X74970000Y-101070000D03*
X62470000Y-106070000D03*
X74970000Y-106070000D03*
%TD*%
D17*
%TO.C,75R*%
X59480000Y-76690000D03*
D18*
X69640000Y-76690000D03*
%TD*%
D17*
%TO.C,10K*%
X95850000Y-70560000D03*
D18*
X85690000Y-70560000D03*
%TD*%
D19*
%TO.C,3161AS*%
X98210000Y-51350000D03*
D17*
X98210000Y-53890000D03*
X98210000Y-56430000D03*
X98210000Y-58970000D03*
X98210000Y-61510000D03*
X103290000Y-61510000D03*
X103290000Y-58970000D03*
X103290000Y-56430000D03*
X103290000Y-53890000D03*
X103290000Y-51350000D03*
%TD*%
D18*
%TO.C,75R*%
X159640000Y-81170000D03*
D17*
X149480000Y-81170000D03*
%TD*%
%TO.C,470R*%
X50780000Y-66370000D03*
D18*
X60940000Y-66370000D03*
%TD*%
D20*
%TO.C,SW8*%
X166740000Y-121060000D03*
X179240000Y-121060000D03*
X166740000Y-126060000D03*
X179240000Y-126060000D03*
%TD*%
D17*
%TO.C,1K*%
X174060000Y-51720000D03*
D18*
X174060000Y-61880000D03*
%TD*%
D21*
%TO.C,D3*%
X131260000Y-81440000D03*
D22*
X133800000Y-81440000D03*
%TD*%
D17*
%TO.C,470R*%
X50780000Y-42070000D03*
D18*
X60940000Y-42070000D03*
%TD*%
D17*
%TO.C,470R*%
X50780000Y-62320000D03*
D18*
X60940000Y-62320000D03*
%TD*%
D17*
%TO.C,470R*%
X50780000Y-70420000D03*
D18*
X60940000Y-70420000D03*
%TD*%
D17*
%TO.C,470R*%
X50780000Y-58270000D03*
D18*
X60940000Y-58270000D03*
%TD*%
D20*
%TO.C,SW3*%
X86480000Y-121240000D03*
X98980000Y-121240000D03*
X86480000Y-126240000D03*
X98980000Y-126240000D03*
%TD*%
D18*
%TO.C,75R*%
X147270000Y-81180000D03*
D17*
X137110000Y-81180000D03*
%TD*%
%TO.C,75R*%
X91630000Y-76670000D03*
D18*
X101790000Y-76670000D03*
%TD*%
D20*
%TO.C,SW2*%
X70440000Y-121240000D03*
X82940000Y-121240000D03*
X70440000Y-126240000D03*
X82940000Y-126240000D03*
%TD*%
D21*
%TO.C,D2*%
X99290000Y-81500000D03*
D22*
X101830000Y-81500000D03*
%TD*%
D17*
%TO.C,10K*%
X148310000Y-70630000D03*
D18*
X138150000Y-70630000D03*
%TD*%
D20*
%TO.C,SW18*%
X126470000Y-101080000D03*
X138970000Y-101080000D03*
X126470000Y-106080000D03*
X138970000Y-106080000D03*
%TD*%
%TO.C,SW19*%
X158220000Y-101060000D03*
X170720000Y-101060000D03*
X158220000Y-106060000D03*
X170720000Y-106060000D03*
%TD*%
D21*
%TO.C,D1*%
X67100000Y-81540000D03*
D22*
X69640000Y-81540000D03*
%TD*%
D17*
%TO.C,10K*%
X116060000Y-70640000D03*
D18*
X105900000Y-70640000D03*
%TD*%
D17*
%TO.C,470R*%
X50780000Y-54220000D03*
D18*
X60940000Y-54220000D03*
%TD*%
D20*
%TO.C,SW6*%
X134550000Y-121200000D03*
X147050000Y-121200000D03*
X134550000Y-126200000D03*
X147050000Y-126200000D03*
%TD*%
D19*
%TO.C,3161AS*%
X150952500Y-51402500D03*
D17*
X150952500Y-53942500D03*
X150952500Y-56482500D03*
X150952500Y-59022500D03*
X150952500Y-61562500D03*
X156032500Y-61562500D03*
X156032500Y-59022500D03*
X156032500Y-56482500D03*
X156032500Y-53942500D03*
X156032500Y-51402500D03*
%TD*%
%TO.C,470R*%
X50780000Y-50170000D03*
D18*
X60940000Y-50170000D03*
%TD*%
D20*
%TO.C,SW9*%
X54340000Y-141190000D03*
X66840000Y-141190000D03*
X54340000Y-146190000D03*
X66840000Y-146190000D03*
%TD*%
%TO.C,SW12*%
X102470000Y-141170000D03*
X114970000Y-141170000D03*
X102470000Y-146170000D03*
X114970000Y-146170000D03*
%TD*%
D21*
%TO.C,D4*%
X163040000Y-81520000D03*
D22*
X165580000Y-81520000D03*
%TD*%
D17*
%TO.C,470R*%
X50780000Y-46120000D03*
D18*
X60940000Y-46120000D03*
%TD*%
D20*
%TO.C,SW13*%
X118510000Y-141180000D03*
X131010000Y-141180000D03*
X118510000Y-146180000D03*
X131010000Y-146180000D03*
%TD*%
%TO.C,SW14*%
X134520000Y-141180000D03*
X147020000Y-141180000D03*
X134520000Y-146180000D03*
X147020000Y-146180000D03*
%TD*%
%TO.C,SW16*%
X166560000Y-141190000D03*
X179060000Y-141190000D03*
X166560000Y-146190000D03*
X179060000Y-146190000D03*
%TD*%
D17*
%TO.C,10K*%
X168656000Y-70612000D03*
D18*
X158496000Y-70612000D03*
%TD*%
D20*
%TO.C,SW4*%
X115000000Y-126220000D03*
X102500000Y-126220000D03*
X115000000Y-121220000D03*
X102500000Y-121220000D03*
%TD*%
%TO.C,SW1*%
X66880000Y-126270000D03*
X54380000Y-126270000D03*
X66880000Y-121270000D03*
X54380000Y-121270000D03*
%TD*%
%TO.C,SW5*%
X118510000Y-121220000D03*
X131010000Y-121220000D03*
X118510000Y-126220000D03*
X131010000Y-126220000D03*
%TD*%
D17*
%TO.C,1K*%
X166470000Y-61860000D03*
D18*
X166470000Y-51700000D03*
%TD*%
D19*
%TO.C,3161AS*%
X78220000Y-51340000D03*
D17*
X78220000Y-53880000D03*
X78220000Y-56420000D03*
X78220000Y-58960000D03*
X78220000Y-61500000D03*
X83300000Y-61500000D03*
X83300000Y-58960000D03*
X83300000Y-56420000D03*
X83300000Y-53880000D03*
X83300000Y-51340000D03*
%TD*%
D20*
%TO.C,SW11*%
X86470000Y-141210000D03*
X98970000Y-141210000D03*
X86470000Y-146210000D03*
X98970000Y-146210000D03*
%TD*%
D19*
%TO.C,3161AS*%
X130370000Y-51340000D03*
D17*
X130370000Y-53880000D03*
X130370000Y-56420000D03*
X130370000Y-58960000D03*
X130370000Y-61500000D03*
X135450000Y-61500000D03*
X135450000Y-58960000D03*
X135450000Y-56420000D03*
X135450000Y-53880000D03*
X135450000Y-51340000D03*
%TD*%
D20*
%TO.C,SW7*%
X150620000Y-121150000D03*
X163120000Y-121150000D03*
X150620000Y-126150000D03*
X163120000Y-126150000D03*
%TD*%
%TO.C,SW15*%
X150520000Y-141180000D03*
X163020000Y-141180000D03*
X150520000Y-146180000D03*
X163020000Y-146180000D03*
%TD*%
%TO.C,SW10*%
X70430000Y-141200000D03*
X82930000Y-141200000D03*
X70430000Y-146200000D03*
X82930000Y-146200000D03*
%TD*%
%LPD*%
M02*
