G04 #@! TF.GenerationSoftware,KiCad,Pcbnew,7.0.2*
G04 #@! TF.CreationDate,2024-02-12T11:42:01-05:00*
G04 #@! TF.ProjectId,CHESSmate CPU,43484553-536d-4617-9465-204350552e6b,rev?*
G04 #@! TF.SameCoordinates,Original*
G04 #@! TF.FileFunction,Soldermask,Top*
G04 #@! TF.FilePolarity,Negative*
%FSLAX46Y46*%
G04 Gerber Fmt 4.6, Leading zero omitted, Abs format (unit mm)*
G04 Created by KiCad (PCBNEW 7.0.2) date 2024-02-12 11:42:01*
%MOMM*%
%LPD*%
G01*
G04 APERTURE LIST*
G04 Aperture macros list*
%AMRoundRect*
0 Rectangle with rounded corners*
0 $1 Rounding radius*
0 $2 $3 $4 $5 $6 $7 $8 $9 X,Y pos of 4 corners*
0 Add a 4 corners polygon primitive as box body*
4,1,4,$2,$3,$4,$5,$6,$7,$8,$9,$2,$3,0*
0 Add four circle primitives for the rounded corners*
1,1,$1+$1,$2,$3*
1,1,$1+$1,$4,$5*
1,1,$1+$1,$6,$7*
1,1,$1+$1,$8,$9*
0 Add four rect primitives between the rounded corners*
20,1,$1+$1,$2,$3,$4,$5,0*
20,1,$1+$1,$4,$5,$6,$7,0*
20,1,$1+$1,$6,$7,$8,$9,0*
20,1,$1+$1,$8,$9,$2,$3,0*%
G04 Aperture macros list end*
%ADD10C,1.764000*%
%ADD11RoundRect,0.102000X-0.780000X-0.780000X0.780000X-0.780000X0.780000X0.780000X-0.780000X0.780000X0*%
%ADD12O,1.700000X1.700000*%
%ADD13R,1.700000X1.700000*%
G04 APERTURE END LIST*
D10*
X144327500Y-105714500D03*
X144327500Y-103174500D03*
X144327500Y-100634500D03*
X144327500Y-98094500D03*
X144327500Y-95554500D03*
X144327500Y-93014500D03*
X144327500Y-90474500D03*
X144327500Y-87934500D03*
X144327500Y-85394500D03*
X144327500Y-82854500D03*
X144327500Y-80314500D03*
X144327500Y-77774500D03*
X144327500Y-75234500D03*
X144327500Y-72694500D03*
X144327500Y-70154500D03*
X144327500Y-67614500D03*
X144327500Y-65074500D03*
X144327500Y-62534500D03*
X144327500Y-59994500D03*
X118927500Y-103174500D03*
X118927500Y-100634500D03*
X118927500Y-98094500D03*
X118927500Y-95554500D03*
X118927500Y-93014500D03*
X118927500Y-90474500D03*
X118927500Y-87934500D03*
X118927500Y-85394500D03*
X118927500Y-82854500D03*
X118927500Y-80314500D03*
X118927500Y-77774500D03*
X118927500Y-75234500D03*
X118927500Y-72694500D03*
X118927500Y-70154500D03*
X118927500Y-67614500D03*
X118927500Y-65074500D03*
X118927500Y-105714500D03*
X118927500Y-62534500D03*
D11*
X118927500Y-59994500D03*
D12*
X111750000Y-110710000D03*
X111750000Y-108170000D03*
X111750000Y-105630000D03*
X111750000Y-103090000D03*
X111750000Y-100550000D03*
X111750000Y-98010000D03*
X111750000Y-95470000D03*
X111750000Y-92930000D03*
X111750000Y-90390000D03*
X111750000Y-87850000D03*
X111750000Y-85310000D03*
X111750000Y-82770000D03*
X111750000Y-80230000D03*
X111750000Y-77690000D03*
X111750000Y-75150000D03*
X111750000Y-72610000D03*
X111750000Y-70070000D03*
X111750000Y-67530000D03*
X111750000Y-64990000D03*
X111750000Y-62450000D03*
X111750000Y-59910000D03*
D13*
X111750000Y-57370000D03*
M02*
