G04 #@! TF.GenerationSoftware,KiCad,Pcbnew,7.0.6*
G04 #@! TF.CreationDate,2024-02-26T11:52:11-05:00*
G04 #@! TF.ProjectId,CHESSmate CPU,43484553-536d-4617-9465-204350552e6b,rev?*
G04 #@! TF.SameCoordinates,Original*
G04 #@! TF.FileFunction,Copper,L2,Bot*
G04 #@! TF.FilePolarity,Positive*
%FSLAX46Y46*%
G04 Gerber Fmt 4.6, Leading zero omitted, Abs format (unit mm)*
G04 Created by KiCad (PCBNEW 7.0.6) date 2024-02-26 11:52:11*
%MOMM*%
%LPD*%
G01*
G04 APERTURE LIST*
G04 #@! TA.AperFunction,ComponentPad*
%ADD10R,1.700000X1.700000*%
G04 #@! TD*
G04 #@! TA.AperFunction,ComponentPad*
%ADD11O,1.700000X1.700000*%
G04 #@! TD*
G04 #@! TA.AperFunction,ComponentPad*
%ADD12C,1.560000*%
G04 #@! TD*
G04 #@! TA.AperFunction,ComponentPad*
%ADD13R,1.560000X1.560000*%
G04 #@! TD*
G04 #@! TA.AperFunction,Conductor*
%ADD14C,0.250000*%
G04 #@! TD*
G04 APERTURE END LIST*
D10*
X118905000Y-112380000D03*
D11*
X121445000Y-112380000D03*
D12*
X141787500Y-105714500D03*
X141787500Y-103174500D03*
X141787500Y-100634500D03*
X141787500Y-98094500D03*
X141787500Y-95554500D03*
X141787500Y-93014500D03*
X141787500Y-90474500D03*
X141787500Y-87934500D03*
X141787500Y-85394500D03*
X141787500Y-82854500D03*
X141787500Y-80314500D03*
X141787500Y-77774500D03*
X141787500Y-75234500D03*
X141787500Y-72694500D03*
X141787500Y-70154500D03*
X141787500Y-67614500D03*
X141787500Y-65074500D03*
X141787500Y-62534500D03*
X141787500Y-59994500D03*
X118927500Y-105714500D03*
X118927500Y-103174500D03*
X118927500Y-100634500D03*
X118927500Y-98094500D03*
X118927500Y-95554500D03*
X118927500Y-93014500D03*
X118927500Y-90474500D03*
X118927500Y-87934500D03*
X118927500Y-85394500D03*
X118927500Y-82854500D03*
X118927500Y-80314500D03*
X118927500Y-77774500D03*
X118927500Y-75234500D03*
X118927500Y-72694500D03*
X118927500Y-70154500D03*
X118927500Y-67614500D03*
X118927500Y-65074500D03*
X118927500Y-62534500D03*
D13*
X118927500Y-59994500D03*
D10*
X111750000Y-57370000D03*
D11*
X111750000Y-59910000D03*
X111750000Y-62450000D03*
X111750000Y-64990000D03*
X111750000Y-67530000D03*
X111750000Y-70070000D03*
X111750000Y-72610000D03*
X111750000Y-75150000D03*
X111750000Y-77690000D03*
X111750000Y-80230000D03*
X111750000Y-82770000D03*
X111750000Y-85310000D03*
X111750000Y-87850000D03*
X111750000Y-90390000D03*
X111750000Y-92930000D03*
X111750000Y-95470000D03*
X111750000Y-98010000D03*
X111750000Y-100550000D03*
X111750000Y-103090000D03*
X111750000Y-105630000D03*
X111750000Y-108170000D03*
X111750000Y-110710000D03*
D14*
X110280000Y-86780000D02*
X111750000Y-85310000D01*
X112320000Y-94210000D02*
X113530000Y-93000000D01*
X113530000Y-93000000D02*
X118913000Y-93000000D01*
X111180000Y-94210000D02*
X112320000Y-94210000D01*
X110280000Y-86780000D02*
X110280000Y-93310000D01*
X118913000Y-93000000D02*
X118927500Y-93014500D01*
X110280000Y-93310000D02*
X111180000Y-94210000D01*
X110850000Y-95470000D02*
X111750000Y-95470000D01*
X118927500Y-58787500D02*
X118927500Y-59994500D01*
X109830000Y-56490000D02*
X110590000Y-55730000D01*
X115870000Y-55730000D02*
X118927500Y-58787500D01*
X110850000Y-95470000D02*
X109830000Y-94450000D01*
X110590000Y-55730000D02*
X115870000Y-55730000D01*
X109830000Y-94450000D02*
X109830000Y-56490000D01*
X123035000Y-107010000D02*
X131950500Y-98094500D01*
X111750000Y-110710000D02*
X115450000Y-107010000D01*
X115450000Y-107010000D02*
X123035000Y-107010000D01*
X131950500Y-98094500D02*
X141787500Y-98094500D01*
X124860000Y-104470000D02*
X133775500Y-95554500D01*
X115450000Y-104470000D02*
X124860000Y-104470000D01*
X133775500Y-95554500D02*
X141787500Y-95554500D01*
X111750000Y-108170000D02*
X115450000Y-104470000D01*
X135635500Y-93014500D02*
X141787500Y-93014500D01*
X126740000Y-101910000D02*
X135635500Y-93014500D01*
X115470000Y-101910000D02*
X126740000Y-101910000D01*
X111750000Y-105630000D02*
X115470000Y-101910000D01*
X137485500Y-90474500D02*
X141787500Y-90474500D01*
X115460000Y-99380000D02*
X128580000Y-99380000D01*
X128580000Y-99380000D02*
X137485500Y-90474500D01*
X111750000Y-103090000D02*
X115460000Y-99380000D01*
X139345500Y-87934500D02*
X141787500Y-87934500D01*
X130450000Y-96830000D02*
X139345500Y-87934500D01*
X115470000Y-96830000D02*
X130450000Y-96830000D01*
X111750000Y-100550000D02*
X115470000Y-96830000D01*
X141215500Y-85394500D02*
X141787500Y-85394500D01*
X115470000Y-94290000D02*
X132320000Y-94290000D01*
X132320000Y-94290000D02*
X141215500Y-85394500D01*
X111750000Y-98010000D02*
X115470000Y-94290000D01*
X115350000Y-85130000D02*
X116340000Y-84140000D01*
X115350000Y-89330000D02*
X115350000Y-85130000D01*
X116340000Y-84140000D02*
X140502000Y-84140000D01*
X111750000Y-92930000D02*
X115350000Y-89330000D01*
X140502000Y-84140000D02*
X141787500Y-82854500D01*
X140492000Y-81610000D02*
X141787500Y-80314500D01*
X115820000Y-81610000D02*
X140492000Y-81610000D01*
X114900000Y-82530000D02*
X115820000Y-81610000D01*
X114900000Y-87240000D02*
X114900000Y-82530000D01*
X111750000Y-90390000D02*
X114900000Y-87240000D01*
X140540000Y-79040000D02*
X141805500Y-77774500D01*
X114400000Y-79940000D02*
X115300000Y-79040000D01*
X111750000Y-87850000D02*
X114400000Y-85200000D01*
X114400000Y-85200000D02*
X114400000Y-79940000D01*
X115300000Y-79040000D02*
X140540000Y-79040000D01*
X140512000Y-73970000D02*
X141787500Y-72694500D01*
X114850000Y-73970000D02*
X140512000Y-73970000D01*
X113950000Y-74870000D02*
X114850000Y-73970000D01*
X113950000Y-80570000D02*
X113950000Y-74870000D01*
X111750000Y-82770000D02*
X113950000Y-80570000D01*
X140512000Y-66350000D02*
X141787500Y-65074500D01*
X114390000Y-66350000D02*
X140512000Y-66350000D01*
X113500000Y-67240000D02*
X114390000Y-66350000D01*
X113500000Y-78480000D02*
X113500000Y-67240000D01*
X111750000Y-80230000D02*
X113500000Y-78480000D01*
X113980000Y-63820000D02*
X140560000Y-63820000D01*
X113050000Y-64750000D02*
X113980000Y-63820000D01*
X140560000Y-63820000D02*
X141845500Y-62534500D01*
X113050000Y-76390000D02*
X113050000Y-64750000D01*
X111750000Y-77690000D02*
X113050000Y-76390000D01*
M02*
