M48
; DRILL file {KiCad 7.0.2} date Mon Feb 12 11:42:49 2024
; FORMAT={-:-/ absolute / metric / decimal}
; #@! TF.CreationDate,2024-02-12T11:42:49-05:00
; #@! TF.GenerationSoftware,Kicad,Pcbnew,7.0.2
; #@! TF.FileFunction,Plated,1,2,PTH
FMAT,2
METRIC
; #@! TA.AperFunction,Plated,PTH,ComponentDrill
T1C1.000
; #@! TA.AperFunction,Plated,PTH,ComponentDrill
T2C1.040
%
G90
G05
T1
X111.75Y-57.37
X111.75Y-59.91
X111.75Y-62.45
X111.75Y-64.99
X111.75Y-67.53
X111.75Y-70.07
X111.75Y-72.61
X111.75Y-75.15
X111.75Y-77.69
X111.75Y-80.23
X111.75Y-82.77
X111.75Y-85.31
X111.75Y-87.85
X111.75Y-90.39
X111.75Y-92.93
X111.75Y-95.47
X111.75Y-98.01
X111.75Y-100.55
X111.75Y-103.09
X111.75Y-105.63
X111.75Y-108.17
X111.75Y-110.71
T2
X118.927Y-59.994
X118.927Y-62.534
X118.927Y-65.075
X118.927Y-67.614
X118.927Y-70.154
X118.927Y-72.694
X118.927Y-75.234
X118.927Y-77.775
X118.927Y-80.314
X118.927Y-82.855
X118.927Y-85.394
X118.927Y-87.934
X118.927Y-90.474
X118.927Y-93.014
X118.927Y-95.554
X118.927Y-98.094
X118.927Y-100.634
X118.927Y-103.174
X118.927Y-105.715
X144.327Y-59.994
X144.327Y-62.534
X144.327Y-65.075
X144.327Y-67.614
X144.327Y-70.154
X144.327Y-72.694
X144.327Y-75.234
X144.327Y-77.775
X144.327Y-80.314
X144.327Y-82.855
X144.327Y-85.394
X144.327Y-87.934
X144.327Y-90.474
X144.327Y-93.014
X144.327Y-95.554
X144.327Y-98.094
X144.327Y-100.634
X144.327Y-103.174
X144.327Y-105.715
T0
M30
