%TF.GenerationSoftware,KiCad,Pcbnew,7.0.2*%
%TF.CreationDate,2024-02-12T11:42:51-05:00*%
%TF.ProjectId,CHESSmate CPU,43484553-536d-4617-9465-204350552e6b,rev?*%
%TF.SameCoordinates,Original*%
%TF.FileFunction,Drillmap*%
%TF.FilePolarity,Positive*%
%FSLAX45Y45*%
G04 Gerber Fmt 4.5, Leading zero omitted, Abs format (unit mm)*
G04 Created by KiCad (PCBNEW 7.0.2) date 2024-02-12 11:42:51*
%MOMM*%
%LPD*%
G01*
G04 APERTURE LIST*
%ADD10C,0.100000*%
%ADD11C,0.200000*%
G04 APERTURE END LIST*
D10*
X10910000Y-5411000D02*
X14713000Y-5411000D01*
X14713000Y-11431000D01*
X10910000Y-11431000D01*
X10910000Y-5411000D01*
D11*
X11152619Y-11748524D02*
X11152619Y-11548524D01*
X11152619Y-11548524D02*
X11200238Y-11548524D01*
X11200238Y-11548524D02*
X11228809Y-11558048D01*
X11228809Y-11558048D02*
X11247857Y-11577095D01*
X11247857Y-11577095D02*
X11257381Y-11596143D01*
X11257381Y-11596143D02*
X11266905Y-11634238D01*
X11266905Y-11634238D02*
X11266905Y-11662809D01*
X11266905Y-11662809D02*
X11257381Y-11700905D01*
X11257381Y-11700905D02*
X11247857Y-11719952D01*
X11247857Y-11719952D02*
X11228809Y-11739000D01*
X11228809Y-11739000D02*
X11200238Y-11748524D01*
X11200238Y-11748524D02*
X11152619Y-11748524D01*
X11352619Y-11748524D02*
X11352619Y-11615190D01*
X11352619Y-11653286D02*
X11362143Y-11634238D01*
X11362143Y-11634238D02*
X11371667Y-11624714D01*
X11371667Y-11624714D02*
X11390714Y-11615190D01*
X11390714Y-11615190D02*
X11409762Y-11615190D01*
X11476428Y-11748524D02*
X11476428Y-11615190D01*
X11476428Y-11548524D02*
X11466905Y-11558048D01*
X11466905Y-11558048D02*
X11476428Y-11567571D01*
X11476428Y-11567571D02*
X11485952Y-11558048D01*
X11485952Y-11558048D02*
X11476428Y-11548524D01*
X11476428Y-11548524D02*
X11476428Y-11567571D01*
X11600238Y-11748524D02*
X11581190Y-11739000D01*
X11581190Y-11739000D02*
X11571667Y-11719952D01*
X11571667Y-11719952D02*
X11571667Y-11548524D01*
X11705000Y-11748524D02*
X11685952Y-11739000D01*
X11685952Y-11739000D02*
X11676428Y-11719952D01*
X11676428Y-11719952D02*
X11676428Y-11548524D01*
X11933571Y-11748524D02*
X11933571Y-11548524D01*
X11933571Y-11548524D02*
X12000238Y-11691381D01*
X12000238Y-11691381D02*
X12066905Y-11548524D01*
X12066905Y-11548524D02*
X12066905Y-11748524D01*
X12247857Y-11748524D02*
X12247857Y-11643762D01*
X12247857Y-11643762D02*
X12238333Y-11624714D01*
X12238333Y-11624714D02*
X12219286Y-11615190D01*
X12219286Y-11615190D02*
X12181190Y-11615190D01*
X12181190Y-11615190D02*
X12162143Y-11624714D01*
X12247857Y-11739000D02*
X12228809Y-11748524D01*
X12228809Y-11748524D02*
X12181190Y-11748524D01*
X12181190Y-11748524D02*
X12162143Y-11739000D01*
X12162143Y-11739000D02*
X12152619Y-11719952D01*
X12152619Y-11719952D02*
X12152619Y-11700905D01*
X12152619Y-11700905D02*
X12162143Y-11681857D01*
X12162143Y-11681857D02*
X12181190Y-11672333D01*
X12181190Y-11672333D02*
X12228809Y-11672333D01*
X12228809Y-11672333D02*
X12247857Y-11662809D01*
X12343095Y-11615190D02*
X12343095Y-11815190D01*
X12343095Y-11624714D02*
X12362143Y-11615190D01*
X12362143Y-11615190D02*
X12400238Y-11615190D01*
X12400238Y-11615190D02*
X12419286Y-11624714D01*
X12419286Y-11624714D02*
X12428809Y-11634238D01*
X12428809Y-11634238D02*
X12438333Y-11653286D01*
X12438333Y-11653286D02*
X12438333Y-11710428D01*
X12438333Y-11710428D02*
X12428809Y-11729476D01*
X12428809Y-11729476D02*
X12419286Y-11739000D01*
X12419286Y-11739000D02*
X12400238Y-11748524D01*
X12400238Y-11748524D02*
X12362143Y-11748524D01*
X12362143Y-11748524D02*
X12343095Y-11739000D01*
X12524048Y-11729476D02*
X12533571Y-11739000D01*
X12533571Y-11739000D02*
X12524048Y-11748524D01*
X12524048Y-11748524D02*
X12514524Y-11739000D01*
X12514524Y-11739000D02*
X12524048Y-11729476D01*
X12524048Y-11729476D02*
X12524048Y-11748524D01*
X12524048Y-11624714D02*
X12533571Y-11634238D01*
X12533571Y-11634238D02*
X12524048Y-11643762D01*
X12524048Y-11643762D02*
X12514524Y-11634238D01*
X12514524Y-11634238D02*
X12524048Y-11624714D01*
X12524048Y-11624714D02*
X12524048Y-11643762D01*
M02*
