G04 #@! TF.GenerationSoftware,KiCad,Pcbnew,7.0.2*
G04 #@! TF.CreationDate,2024-02-12T11:42:01-05:00*
G04 #@! TF.ProjectId,CHESSmate CPU,43484553-536d-4617-9465-204350552e6b,rev?*
G04 #@! TF.SameCoordinates,Original*
G04 #@! TF.FileFunction,Legend,Top*
G04 #@! TF.FilePolarity,Positive*
%FSLAX46Y46*%
G04 Gerber Fmt 4.6, Leading zero omitted, Abs format (unit mm)*
G04 Created by KiCad (PCBNEW 7.0.2) date 2024-02-12 11:42:01*
%MOMM*%
%LPD*%
G01*
G04 APERTURE LIST*
G04 Aperture macros list*
%AMRoundRect*
0 Rectangle with rounded corners*
0 $1 Rounding radius*
0 $2 $3 $4 $5 $6 $7 $8 $9 X,Y pos of 4 corners*
0 Add a 4 corners polygon primitive as box body*
4,1,4,$2,$3,$4,$5,$6,$7,$8,$9,$2,$3,0*
0 Add four circle primitives for the rounded corners*
1,1,$1+$1,$2,$3*
1,1,$1+$1,$4,$5*
1,1,$1+$1,$6,$7*
1,1,$1+$1,$8,$9*
0 Add four rect primitives between the rounded corners*
20,1,$1+$1,$2,$3,$4,$5,0*
20,1,$1+$1,$4,$5,$6,$7,0*
20,1,$1+$1,$6,$7,$8,$9,0*
20,1,$1+$1,$8,$9,$2,$3,0*%
G04 Aperture macros list end*
%ADD10C,0.150000*%
%ADD11C,0.100000*%
%ADD12C,0.200000*%
%ADD13C,0.127000*%
%ADD14C,0.120000*%
%ADD15C,1.764000*%
%ADD16RoundRect,0.102000X-0.780000X-0.780000X0.780000X-0.780000X0.780000X0.780000X-0.780000X0.780000X0*%
%ADD17O,1.700000X1.700000*%
%ADD18R,1.700000X1.700000*%
G04 APERTURE END LIST*
D10*
X124693728Y-56823286D02*
X125027190Y-56823286D01*
X125170102Y-57347298D02*
X124693728Y-57347298D01*
X124693728Y-57347298D02*
X124693728Y-56346912D01*
X124693728Y-56346912D02*
X125170102Y-56346912D01*
X125551201Y-57299661D02*
X125694114Y-57347298D01*
X125694114Y-57347298D02*
X125932301Y-57347298D01*
X125932301Y-57347298D02*
X126027576Y-57299661D01*
X126027576Y-57299661D02*
X126075213Y-57252023D01*
X126075213Y-57252023D02*
X126122850Y-57156748D01*
X126122850Y-57156748D02*
X126122850Y-57061473D01*
X126122850Y-57061473D02*
X126075213Y-56966199D01*
X126075213Y-56966199D02*
X126027576Y-56918561D01*
X126027576Y-56918561D02*
X125932301Y-56870924D01*
X125932301Y-56870924D02*
X125741751Y-56823286D01*
X125741751Y-56823286D02*
X125646476Y-56775649D01*
X125646476Y-56775649D02*
X125598839Y-56728011D01*
X125598839Y-56728011D02*
X125551201Y-56632737D01*
X125551201Y-56632737D02*
X125551201Y-56537462D01*
X125551201Y-56537462D02*
X125598839Y-56442187D01*
X125598839Y-56442187D02*
X125646476Y-56394549D01*
X125646476Y-56394549D02*
X125741751Y-56346912D01*
X125741751Y-56346912D02*
X125979938Y-56346912D01*
X125979938Y-56346912D02*
X126122850Y-56394549D01*
X126551588Y-57347298D02*
X126551588Y-56346912D01*
X126551588Y-56346912D02*
X126932687Y-56346912D01*
X126932687Y-56346912D02*
X127027962Y-56394549D01*
X127027962Y-56394549D02*
X127075599Y-56442187D01*
X127075599Y-56442187D02*
X127123237Y-56537462D01*
X127123237Y-56537462D02*
X127123237Y-56680374D01*
X127123237Y-56680374D02*
X127075599Y-56775649D01*
X127075599Y-56775649D02*
X127027962Y-56823286D01*
X127027962Y-56823286D02*
X126932687Y-56870924D01*
X126932687Y-56870924D02*
X126551588Y-56870924D01*
X127551974Y-56966199D02*
X128314173Y-56966199D01*
X128695272Y-56346912D02*
X128933459Y-57347298D01*
X128933459Y-57347298D02*
X129124009Y-56632737D01*
X129124009Y-56632737D02*
X129314558Y-57347298D01*
X129314558Y-57347298D02*
X129552746Y-56346912D01*
X130505494Y-57347298D02*
X130172032Y-56870924D01*
X129933845Y-57347298D02*
X129933845Y-56346912D01*
X129933845Y-56346912D02*
X130314944Y-56346912D01*
X130314944Y-56346912D02*
X130410219Y-56394549D01*
X130410219Y-56394549D02*
X130457856Y-56442187D01*
X130457856Y-56442187D02*
X130505494Y-56537462D01*
X130505494Y-56537462D02*
X130505494Y-56680374D01*
X130505494Y-56680374D02*
X130457856Y-56775649D01*
X130457856Y-56775649D02*
X130410219Y-56823286D01*
X130410219Y-56823286D02*
X130314944Y-56870924D01*
X130314944Y-56870924D02*
X129933845Y-56870924D01*
X131124780Y-56346912D02*
X131315330Y-56346912D01*
X131315330Y-56346912D02*
X131410605Y-56394549D01*
X131410605Y-56394549D02*
X131505880Y-56489824D01*
X131505880Y-56489824D02*
X131553517Y-56680374D01*
X131553517Y-56680374D02*
X131553517Y-57013836D01*
X131553517Y-57013836D02*
X131505880Y-57204386D01*
X131505880Y-57204386D02*
X131410605Y-57299661D01*
X131410605Y-57299661D02*
X131315330Y-57347298D01*
X131315330Y-57347298D02*
X131124780Y-57347298D01*
X131124780Y-57347298D02*
X131029506Y-57299661D01*
X131029506Y-57299661D02*
X130934231Y-57204386D01*
X130934231Y-57204386D02*
X130886593Y-57013836D01*
X130886593Y-57013836D02*
X130886593Y-56680374D01*
X130886593Y-56680374D02*
X130934231Y-56489824D01*
X130934231Y-56489824D02*
X131029506Y-56394549D01*
X131029506Y-56394549D02*
X131124780Y-56346912D01*
X132172803Y-56346912D02*
X132363353Y-56346912D01*
X132363353Y-56346912D02*
X132458628Y-56394549D01*
X132458628Y-56394549D02*
X132553903Y-56489824D01*
X132553903Y-56489824D02*
X132601540Y-56680374D01*
X132601540Y-56680374D02*
X132601540Y-57013836D01*
X132601540Y-57013836D02*
X132553903Y-57204386D01*
X132553903Y-57204386D02*
X132458628Y-57299661D01*
X132458628Y-57299661D02*
X132363353Y-57347298D01*
X132363353Y-57347298D02*
X132172803Y-57347298D01*
X132172803Y-57347298D02*
X132077529Y-57299661D01*
X132077529Y-57299661D02*
X131982254Y-57204386D01*
X131982254Y-57204386D02*
X131934616Y-57013836D01*
X131934616Y-57013836D02*
X131934616Y-56680374D01*
X131934616Y-56680374D02*
X131982254Y-56489824D01*
X131982254Y-56489824D02*
X132077529Y-56394549D01*
X132077529Y-56394549D02*
X132172803Y-56346912D01*
X133030277Y-57347298D02*
X133030277Y-56346912D01*
X133030277Y-56346912D02*
X133363739Y-57061473D01*
X133363739Y-57061473D02*
X133697201Y-56346912D01*
X133697201Y-56346912D02*
X133697201Y-57347298D01*
X134173575Y-56966199D02*
X134935774Y-56966199D01*
X135316873Y-56346912D02*
X135936159Y-56346912D01*
X135936159Y-56346912D02*
X135602697Y-56728011D01*
X135602697Y-56728011D02*
X135745610Y-56728011D01*
X135745610Y-56728011D02*
X135840885Y-56775649D01*
X135840885Y-56775649D02*
X135888522Y-56823286D01*
X135888522Y-56823286D02*
X135936159Y-56918561D01*
X135936159Y-56918561D02*
X135936159Y-57156748D01*
X135936159Y-57156748D02*
X135888522Y-57252023D01*
X135888522Y-57252023D02*
X135840885Y-57299661D01*
X135840885Y-57299661D02*
X135745610Y-57347298D01*
X135745610Y-57347298D02*
X135459785Y-57347298D01*
X135459785Y-57347298D02*
X135364510Y-57299661D01*
X135364510Y-57299661D02*
X135316873Y-57252023D01*
X136317259Y-56442187D02*
X136364897Y-56394549D01*
X136364897Y-56394549D02*
X136460172Y-56346912D01*
X136460172Y-56346912D02*
X136698359Y-56346912D01*
X136698359Y-56346912D02*
X136793634Y-56394549D01*
X136793634Y-56394549D02*
X136841271Y-56442187D01*
X136841271Y-56442187D02*
X136888908Y-56537462D01*
X136888908Y-56537462D02*
X136888908Y-56632737D01*
X136888908Y-56632737D02*
X136841271Y-56775649D01*
X136841271Y-56775649D02*
X136269622Y-57347298D01*
X136269622Y-57347298D02*
X136888908Y-57347298D01*
D11*
X120705404Y-64709738D02*
X120610166Y-64662119D01*
X120610166Y-64662119D02*
X120467309Y-64662119D01*
X120467309Y-64662119D02*
X120324452Y-64709738D01*
X120324452Y-64709738D02*
X120229214Y-64804976D01*
X120229214Y-64804976D02*
X120181595Y-64900214D01*
X120181595Y-64900214D02*
X120133976Y-65090690D01*
X120133976Y-65090690D02*
X120133976Y-65233547D01*
X120133976Y-65233547D02*
X120181595Y-65424023D01*
X120181595Y-65424023D02*
X120229214Y-65519261D01*
X120229214Y-65519261D02*
X120324452Y-65614500D01*
X120324452Y-65614500D02*
X120467309Y-65662119D01*
X120467309Y-65662119D02*
X120562547Y-65662119D01*
X120562547Y-65662119D02*
X120705404Y-65614500D01*
X120705404Y-65614500D02*
X120753023Y-65566880D01*
X120753023Y-65566880D02*
X120753023Y-65233547D01*
X120753023Y-65233547D02*
X120562547Y-65233547D01*
X121181595Y-65662119D02*
X121181595Y-64662119D01*
X121181595Y-64662119D02*
X121562547Y-64662119D01*
X121562547Y-64662119D02*
X121657785Y-64709738D01*
X121657785Y-64709738D02*
X121705404Y-64757357D01*
X121705404Y-64757357D02*
X121753023Y-64852595D01*
X121753023Y-64852595D02*
X121753023Y-64995452D01*
X121753023Y-64995452D02*
X121705404Y-65090690D01*
X121705404Y-65090690D02*
X121657785Y-65138309D01*
X121657785Y-65138309D02*
X121562547Y-65185928D01*
X121562547Y-65185928D02*
X121181595Y-65185928D01*
X122181595Y-65662119D02*
X122181595Y-64662119D01*
X122848261Y-64662119D02*
X123038737Y-64662119D01*
X123038737Y-64662119D02*
X123133975Y-64709738D01*
X123133975Y-64709738D02*
X123229213Y-64804976D01*
X123229213Y-64804976D02*
X123276832Y-64995452D01*
X123276832Y-64995452D02*
X123276832Y-65328785D01*
X123276832Y-65328785D02*
X123229213Y-65519261D01*
X123229213Y-65519261D02*
X123133975Y-65614500D01*
X123133975Y-65614500D02*
X123038737Y-65662119D01*
X123038737Y-65662119D02*
X122848261Y-65662119D01*
X122848261Y-65662119D02*
X122753023Y-65614500D01*
X122753023Y-65614500D02*
X122657785Y-65519261D01*
X122657785Y-65519261D02*
X122610166Y-65328785D01*
X122610166Y-65328785D02*
X122610166Y-64995452D01*
X122610166Y-64995452D02*
X122657785Y-64804976D01*
X122657785Y-64804976D02*
X122753023Y-64709738D01*
X122753023Y-64709738D02*
X122848261Y-64662119D01*
X123610166Y-64662119D02*
X124229213Y-64662119D01*
X124229213Y-64662119D02*
X123895880Y-65043071D01*
X123895880Y-65043071D02*
X124038737Y-65043071D01*
X124038737Y-65043071D02*
X124133975Y-65090690D01*
X124133975Y-65090690D02*
X124181594Y-65138309D01*
X124181594Y-65138309D02*
X124229213Y-65233547D01*
X124229213Y-65233547D02*
X124229213Y-65471642D01*
X124229213Y-65471642D02*
X124181594Y-65566880D01*
X124181594Y-65566880D02*
X124133975Y-65614500D01*
X124133975Y-65614500D02*
X124038737Y-65662119D01*
X124038737Y-65662119D02*
X123753023Y-65662119D01*
X123753023Y-65662119D02*
X123657785Y-65614500D01*
X123657785Y-65614500D02*
X123610166Y-65566880D01*
X125086356Y-64662119D02*
X124895880Y-64662119D01*
X124895880Y-64662119D02*
X124800642Y-64709738D01*
X124800642Y-64709738D02*
X124753023Y-64757357D01*
X124753023Y-64757357D02*
X124657785Y-64900214D01*
X124657785Y-64900214D02*
X124610166Y-65090690D01*
X124610166Y-65090690D02*
X124610166Y-65471642D01*
X124610166Y-65471642D02*
X124657785Y-65566880D01*
X124657785Y-65566880D02*
X124705404Y-65614500D01*
X124705404Y-65614500D02*
X124800642Y-65662119D01*
X124800642Y-65662119D02*
X124991118Y-65662119D01*
X124991118Y-65662119D02*
X125086356Y-65614500D01*
X125086356Y-65614500D02*
X125133975Y-65566880D01*
X125133975Y-65566880D02*
X125181594Y-65471642D01*
X125181594Y-65471642D02*
X125181594Y-65233547D01*
X125181594Y-65233547D02*
X125133975Y-65138309D01*
X125133975Y-65138309D02*
X125086356Y-65090690D01*
X125086356Y-65090690D02*
X124991118Y-65043071D01*
X124991118Y-65043071D02*
X124800642Y-65043071D01*
X124800642Y-65043071D02*
X124705404Y-65090690D01*
X124705404Y-65090690D02*
X124657785Y-65138309D01*
X124657785Y-65138309D02*
X124610166Y-65233547D01*
X120753023Y-63122119D02*
X120419690Y-62645928D01*
X120181595Y-63122119D02*
X120181595Y-62122119D01*
X120181595Y-62122119D02*
X120562547Y-62122119D01*
X120562547Y-62122119D02*
X120657785Y-62169738D01*
X120657785Y-62169738D02*
X120705404Y-62217357D01*
X120705404Y-62217357D02*
X120753023Y-62312595D01*
X120753023Y-62312595D02*
X120753023Y-62455452D01*
X120753023Y-62455452D02*
X120705404Y-62550690D01*
X120705404Y-62550690D02*
X120657785Y-62598309D01*
X120657785Y-62598309D02*
X120562547Y-62645928D01*
X120562547Y-62645928D02*
X120181595Y-62645928D01*
X121181595Y-62598309D02*
X121514928Y-62598309D01*
X121657785Y-63122119D02*
X121181595Y-63122119D01*
X121181595Y-63122119D02*
X121181595Y-62122119D01*
X121181595Y-62122119D02*
X121657785Y-62122119D01*
X122038738Y-63074500D02*
X122181595Y-63122119D01*
X122181595Y-63122119D02*
X122419690Y-63122119D01*
X122419690Y-63122119D02*
X122514928Y-63074500D01*
X122514928Y-63074500D02*
X122562547Y-63026880D01*
X122562547Y-63026880D02*
X122610166Y-62931642D01*
X122610166Y-62931642D02*
X122610166Y-62836404D01*
X122610166Y-62836404D02*
X122562547Y-62741166D01*
X122562547Y-62741166D02*
X122514928Y-62693547D01*
X122514928Y-62693547D02*
X122419690Y-62645928D01*
X122419690Y-62645928D02*
X122229214Y-62598309D01*
X122229214Y-62598309D02*
X122133976Y-62550690D01*
X122133976Y-62550690D02*
X122086357Y-62503071D01*
X122086357Y-62503071D02*
X122038738Y-62407833D01*
X122038738Y-62407833D02*
X122038738Y-62312595D01*
X122038738Y-62312595D02*
X122086357Y-62217357D01*
X122086357Y-62217357D02*
X122133976Y-62169738D01*
X122133976Y-62169738D02*
X122229214Y-62122119D01*
X122229214Y-62122119D02*
X122467309Y-62122119D01*
X122467309Y-62122119D02*
X122610166Y-62169738D01*
X123038738Y-62598309D02*
X123372071Y-62598309D01*
X123514928Y-63122119D02*
X123038738Y-63122119D01*
X123038738Y-63122119D02*
X123038738Y-62122119D01*
X123038738Y-62122119D02*
X123514928Y-62122119D01*
X123800643Y-62122119D02*
X124372071Y-62122119D01*
X124086357Y-63122119D02*
X124086357Y-62122119D01*
X120086357Y-59582119D02*
X120705404Y-59582119D01*
X120705404Y-59582119D02*
X120372071Y-59963071D01*
X120372071Y-59963071D02*
X120514928Y-59963071D01*
X120514928Y-59963071D02*
X120610166Y-60010690D01*
X120610166Y-60010690D02*
X120657785Y-60058309D01*
X120657785Y-60058309D02*
X120705404Y-60153547D01*
X120705404Y-60153547D02*
X120705404Y-60391642D01*
X120705404Y-60391642D02*
X120657785Y-60486880D01*
X120657785Y-60486880D02*
X120610166Y-60534500D01*
X120610166Y-60534500D02*
X120514928Y-60582119D01*
X120514928Y-60582119D02*
X120229214Y-60582119D01*
X120229214Y-60582119D02*
X120133976Y-60534500D01*
X120133976Y-60534500D02*
X120086357Y-60486880D01*
X120991119Y-59582119D02*
X121324452Y-60582119D01*
X121324452Y-60582119D02*
X121657785Y-59582119D01*
X121895881Y-59582119D02*
X122514928Y-59582119D01*
X122514928Y-59582119D02*
X122181595Y-59963071D01*
X122181595Y-59963071D02*
X122324452Y-59963071D01*
X122324452Y-59963071D02*
X122419690Y-60010690D01*
X122419690Y-60010690D02*
X122467309Y-60058309D01*
X122467309Y-60058309D02*
X122514928Y-60153547D01*
X122514928Y-60153547D02*
X122514928Y-60391642D01*
X122514928Y-60391642D02*
X122467309Y-60486880D01*
X122467309Y-60486880D02*
X122419690Y-60534500D01*
X122419690Y-60534500D02*
X122324452Y-60582119D01*
X122324452Y-60582119D02*
X122038738Y-60582119D01*
X122038738Y-60582119D02*
X121943500Y-60534500D01*
X121943500Y-60534500D02*
X121895881Y-60486880D01*
X120705404Y-67249738D02*
X120610166Y-67202119D01*
X120610166Y-67202119D02*
X120467309Y-67202119D01*
X120467309Y-67202119D02*
X120324452Y-67249738D01*
X120324452Y-67249738D02*
X120229214Y-67344976D01*
X120229214Y-67344976D02*
X120181595Y-67440214D01*
X120181595Y-67440214D02*
X120133976Y-67630690D01*
X120133976Y-67630690D02*
X120133976Y-67773547D01*
X120133976Y-67773547D02*
X120181595Y-67964023D01*
X120181595Y-67964023D02*
X120229214Y-68059261D01*
X120229214Y-68059261D02*
X120324452Y-68154500D01*
X120324452Y-68154500D02*
X120467309Y-68202119D01*
X120467309Y-68202119D02*
X120562547Y-68202119D01*
X120562547Y-68202119D02*
X120705404Y-68154500D01*
X120705404Y-68154500D02*
X120753023Y-68106880D01*
X120753023Y-68106880D02*
X120753023Y-67773547D01*
X120753023Y-67773547D02*
X120562547Y-67773547D01*
X121181595Y-68202119D02*
X121181595Y-67202119D01*
X121181595Y-67202119D02*
X121562547Y-67202119D01*
X121562547Y-67202119D02*
X121657785Y-67249738D01*
X121657785Y-67249738D02*
X121705404Y-67297357D01*
X121705404Y-67297357D02*
X121753023Y-67392595D01*
X121753023Y-67392595D02*
X121753023Y-67535452D01*
X121753023Y-67535452D02*
X121705404Y-67630690D01*
X121705404Y-67630690D02*
X121657785Y-67678309D01*
X121657785Y-67678309D02*
X121562547Y-67725928D01*
X121562547Y-67725928D02*
X121181595Y-67725928D01*
X122181595Y-68202119D02*
X122181595Y-67202119D01*
X122848261Y-67202119D02*
X123038737Y-67202119D01*
X123038737Y-67202119D02*
X123133975Y-67249738D01*
X123133975Y-67249738D02*
X123229213Y-67344976D01*
X123229213Y-67344976D02*
X123276832Y-67535452D01*
X123276832Y-67535452D02*
X123276832Y-67868785D01*
X123276832Y-67868785D02*
X123229213Y-68059261D01*
X123229213Y-68059261D02*
X123133975Y-68154500D01*
X123133975Y-68154500D02*
X123038737Y-68202119D01*
X123038737Y-68202119D02*
X122848261Y-68202119D01*
X122848261Y-68202119D02*
X122753023Y-68154500D01*
X122753023Y-68154500D02*
X122657785Y-68059261D01*
X122657785Y-68059261D02*
X122610166Y-67868785D01*
X122610166Y-67868785D02*
X122610166Y-67535452D01*
X122610166Y-67535452D02*
X122657785Y-67344976D01*
X122657785Y-67344976D02*
X122753023Y-67249738D01*
X122753023Y-67249738D02*
X122848261Y-67202119D01*
X123610166Y-67202119D02*
X124229213Y-67202119D01*
X124229213Y-67202119D02*
X123895880Y-67583071D01*
X123895880Y-67583071D02*
X124038737Y-67583071D01*
X124038737Y-67583071D02*
X124133975Y-67630690D01*
X124133975Y-67630690D02*
X124181594Y-67678309D01*
X124181594Y-67678309D02*
X124229213Y-67773547D01*
X124229213Y-67773547D02*
X124229213Y-68011642D01*
X124229213Y-68011642D02*
X124181594Y-68106880D01*
X124181594Y-68106880D02*
X124133975Y-68154500D01*
X124133975Y-68154500D02*
X124038737Y-68202119D01*
X124038737Y-68202119D02*
X123753023Y-68202119D01*
X123753023Y-68202119D02*
X123657785Y-68154500D01*
X123657785Y-68154500D02*
X123610166Y-68106880D01*
X124705404Y-68202119D02*
X124895880Y-68202119D01*
X124895880Y-68202119D02*
X124991118Y-68154500D01*
X124991118Y-68154500D02*
X125038737Y-68106880D01*
X125038737Y-68106880D02*
X125133975Y-67964023D01*
X125133975Y-67964023D02*
X125181594Y-67773547D01*
X125181594Y-67773547D02*
X125181594Y-67392595D01*
X125181594Y-67392595D02*
X125133975Y-67297357D01*
X125133975Y-67297357D02*
X125086356Y-67249738D01*
X125086356Y-67249738D02*
X124991118Y-67202119D01*
X124991118Y-67202119D02*
X124800642Y-67202119D01*
X124800642Y-67202119D02*
X124705404Y-67249738D01*
X124705404Y-67249738D02*
X124657785Y-67297357D01*
X124657785Y-67297357D02*
X124610166Y-67392595D01*
X124610166Y-67392595D02*
X124610166Y-67630690D01*
X124610166Y-67630690D02*
X124657785Y-67725928D01*
X124657785Y-67725928D02*
X124705404Y-67773547D01*
X124705404Y-67773547D02*
X124800642Y-67821166D01*
X124800642Y-67821166D02*
X124991118Y-67821166D01*
X124991118Y-67821166D02*
X125086356Y-67773547D01*
X125086356Y-67773547D02*
X125133975Y-67725928D01*
X125133975Y-67725928D02*
X125181594Y-67630690D01*
X120705404Y-69789738D02*
X120610166Y-69742119D01*
X120610166Y-69742119D02*
X120467309Y-69742119D01*
X120467309Y-69742119D02*
X120324452Y-69789738D01*
X120324452Y-69789738D02*
X120229214Y-69884976D01*
X120229214Y-69884976D02*
X120181595Y-69980214D01*
X120181595Y-69980214D02*
X120133976Y-70170690D01*
X120133976Y-70170690D02*
X120133976Y-70313547D01*
X120133976Y-70313547D02*
X120181595Y-70504023D01*
X120181595Y-70504023D02*
X120229214Y-70599261D01*
X120229214Y-70599261D02*
X120324452Y-70694500D01*
X120324452Y-70694500D02*
X120467309Y-70742119D01*
X120467309Y-70742119D02*
X120562547Y-70742119D01*
X120562547Y-70742119D02*
X120705404Y-70694500D01*
X120705404Y-70694500D02*
X120753023Y-70646880D01*
X120753023Y-70646880D02*
X120753023Y-70313547D01*
X120753023Y-70313547D02*
X120562547Y-70313547D01*
X121181595Y-70742119D02*
X121181595Y-69742119D01*
X121181595Y-69742119D02*
X121562547Y-69742119D01*
X121562547Y-69742119D02*
X121657785Y-69789738D01*
X121657785Y-69789738D02*
X121705404Y-69837357D01*
X121705404Y-69837357D02*
X121753023Y-69932595D01*
X121753023Y-69932595D02*
X121753023Y-70075452D01*
X121753023Y-70075452D02*
X121705404Y-70170690D01*
X121705404Y-70170690D02*
X121657785Y-70218309D01*
X121657785Y-70218309D02*
X121562547Y-70265928D01*
X121562547Y-70265928D02*
X121181595Y-70265928D01*
X122181595Y-70742119D02*
X122181595Y-69742119D01*
X122848261Y-69742119D02*
X123038737Y-69742119D01*
X123038737Y-69742119D02*
X123133975Y-69789738D01*
X123133975Y-69789738D02*
X123229213Y-69884976D01*
X123229213Y-69884976D02*
X123276832Y-70075452D01*
X123276832Y-70075452D02*
X123276832Y-70408785D01*
X123276832Y-70408785D02*
X123229213Y-70599261D01*
X123229213Y-70599261D02*
X123133975Y-70694500D01*
X123133975Y-70694500D02*
X123038737Y-70742119D01*
X123038737Y-70742119D02*
X122848261Y-70742119D01*
X122848261Y-70742119D02*
X122753023Y-70694500D01*
X122753023Y-70694500D02*
X122657785Y-70599261D01*
X122657785Y-70599261D02*
X122610166Y-70408785D01*
X122610166Y-70408785D02*
X122610166Y-70075452D01*
X122610166Y-70075452D02*
X122657785Y-69884976D01*
X122657785Y-69884976D02*
X122753023Y-69789738D01*
X122753023Y-69789738D02*
X122848261Y-69742119D01*
X123610166Y-69742119D02*
X124229213Y-69742119D01*
X124229213Y-69742119D02*
X123895880Y-70123071D01*
X123895880Y-70123071D02*
X124038737Y-70123071D01*
X124038737Y-70123071D02*
X124133975Y-70170690D01*
X124133975Y-70170690D02*
X124181594Y-70218309D01*
X124181594Y-70218309D02*
X124229213Y-70313547D01*
X124229213Y-70313547D02*
X124229213Y-70551642D01*
X124229213Y-70551642D02*
X124181594Y-70646880D01*
X124181594Y-70646880D02*
X124133975Y-70694500D01*
X124133975Y-70694500D02*
X124038737Y-70742119D01*
X124038737Y-70742119D02*
X123753023Y-70742119D01*
X123753023Y-70742119D02*
X123657785Y-70694500D01*
X123657785Y-70694500D02*
X123610166Y-70646880D01*
X125086356Y-70075452D02*
X125086356Y-70742119D01*
X124848261Y-69694500D02*
X124610166Y-70408785D01*
X124610166Y-70408785D02*
X125229213Y-70408785D01*
X120705404Y-72583738D02*
X120610166Y-72536119D01*
X120610166Y-72536119D02*
X120467309Y-72536119D01*
X120467309Y-72536119D02*
X120324452Y-72583738D01*
X120324452Y-72583738D02*
X120229214Y-72678976D01*
X120229214Y-72678976D02*
X120181595Y-72774214D01*
X120181595Y-72774214D02*
X120133976Y-72964690D01*
X120133976Y-72964690D02*
X120133976Y-73107547D01*
X120133976Y-73107547D02*
X120181595Y-73298023D01*
X120181595Y-73298023D02*
X120229214Y-73393261D01*
X120229214Y-73393261D02*
X120324452Y-73488500D01*
X120324452Y-73488500D02*
X120467309Y-73536119D01*
X120467309Y-73536119D02*
X120562547Y-73536119D01*
X120562547Y-73536119D02*
X120705404Y-73488500D01*
X120705404Y-73488500D02*
X120753023Y-73440880D01*
X120753023Y-73440880D02*
X120753023Y-73107547D01*
X120753023Y-73107547D02*
X120562547Y-73107547D01*
X121181595Y-73536119D02*
X121181595Y-72536119D01*
X121181595Y-72536119D02*
X121562547Y-72536119D01*
X121562547Y-72536119D02*
X121657785Y-72583738D01*
X121657785Y-72583738D02*
X121705404Y-72631357D01*
X121705404Y-72631357D02*
X121753023Y-72726595D01*
X121753023Y-72726595D02*
X121753023Y-72869452D01*
X121753023Y-72869452D02*
X121705404Y-72964690D01*
X121705404Y-72964690D02*
X121657785Y-73012309D01*
X121657785Y-73012309D02*
X121562547Y-73059928D01*
X121562547Y-73059928D02*
X121181595Y-73059928D01*
X122181595Y-73536119D02*
X122181595Y-72536119D01*
X122848261Y-72536119D02*
X123038737Y-72536119D01*
X123038737Y-72536119D02*
X123133975Y-72583738D01*
X123133975Y-72583738D02*
X123229213Y-72678976D01*
X123229213Y-72678976D02*
X123276832Y-72869452D01*
X123276832Y-72869452D02*
X123276832Y-73202785D01*
X123276832Y-73202785D02*
X123229213Y-73393261D01*
X123229213Y-73393261D02*
X123133975Y-73488500D01*
X123133975Y-73488500D02*
X123038737Y-73536119D01*
X123038737Y-73536119D02*
X122848261Y-73536119D01*
X122848261Y-73536119D02*
X122753023Y-73488500D01*
X122753023Y-73488500D02*
X122657785Y-73393261D01*
X122657785Y-73393261D02*
X122610166Y-73202785D01*
X122610166Y-73202785D02*
X122610166Y-72869452D01*
X122610166Y-72869452D02*
X122657785Y-72678976D01*
X122657785Y-72678976D02*
X122753023Y-72583738D01*
X122753023Y-72583738D02*
X122848261Y-72536119D01*
X123610166Y-72536119D02*
X124229213Y-72536119D01*
X124229213Y-72536119D02*
X123895880Y-72917071D01*
X123895880Y-72917071D02*
X124038737Y-72917071D01*
X124038737Y-72917071D02*
X124133975Y-72964690D01*
X124133975Y-72964690D02*
X124181594Y-73012309D01*
X124181594Y-73012309D02*
X124229213Y-73107547D01*
X124229213Y-73107547D02*
X124229213Y-73345642D01*
X124229213Y-73345642D02*
X124181594Y-73440880D01*
X124181594Y-73440880D02*
X124133975Y-73488500D01*
X124133975Y-73488500D02*
X124038737Y-73536119D01*
X124038737Y-73536119D02*
X123753023Y-73536119D01*
X123753023Y-73536119D02*
X123657785Y-73488500D01*
X123657785Y-73488500D02*
X123610166Y-73440880D01*
X125133975Y-72536119D02*
X124657785Y-72536119D01*
X124657785Y-72536119D02*
X124610166Y-73012309D01*
X124610166Y-73012309D02*
X124657785Y-72964690D01*
X124657785Y-72964690D02*
X124753023Y-72917071D01*
X124753023Y-72917071D02*
X124991118Y-72917071D01*
X124991118Y-72917071D02*
X125086356Y-72964690D01*
X125086356Y-72964690D02*
X125133975Y-73012309D01*
X125133975Y-73012309D02*
X125181594Y-73107547D01*
X125181594Y-73107547D02*
X125181594Y-73345642D01*
X125181594Y-73345642D02*
X125133975Y-73440880D01*
X125133975Y-73440880D02*
X125086356Y-73488500D01*
X125086356Y-73488500D02*
X124991118Y-73536119D01*
X124991118Y-73536119D02*
X124753023Y-73536119D01*
X124753023Y-73536119D02*
X124657785Y-73488500D01*
X124657785Y-73488500D02*
X124610166Y-73440880D01*
X120705404Y-74869738D02*
X120610166Y-74822119D01*
X120610166Y-74822119D02*
X120467309Y-74822119D01*
X120467309Y-74822119D02*
X120324452Y-74869738D01*
X120324452Y-74869738D02*
X120229214Y-74964976D01*
X120229214Y-74964976D02*
X120181595Y-75060214D01*
X120181595Y-75060214D02*
X120133976Y-75250690D01*
X120133976Y-75250690D02*
X120133976Y-75393547D01*
X120133976Y-75393547D02*
X120181595Y-75584023D01*
X120181595Y-75584023D02*
X120229214Y-75679261D01*
X120229214Y-75679261D02*
X120324452Y-75774500D01*
X120324452Y-75774500D02*
X120467309Y-75822119D01*
X120467309Y-75822119D02*
X120562547Y-75822119D01*
X120562547Y-75822119D02*
X120705404Y-75774500D01*
X120705404Y-75774500D02*
X120753023Y-75726880D01*
X120753023Y-75726880D02*
X120753023Y-75393547D01*
X120753023Y-75393547D02*
X120562547Y-75393547D01*
X121181595Y-75822119D02*
X121181595Y-74822119D01*
X121181595Y-74822119D02*
X121562547Y-74822119D01*
X121562547Y-74822119D02*
X121657785Y-74869738D01*
X121657785Y-74869738D02*
X121705404Y-74917357D01*
X121705404Y-74917357D02*
X121753023Y-75012595D01*
X121753023Y-75012595D02*
X121753023Y-75155452D01*
X121753023Y-75155452D02*
X121705404Y-75250690D01*
X121705404Y-75250690D02*
X121657785Y-75298309D01*
X121657785Y-75298309D02*
X121562547Y-75345928D01*
X121562547Y-75345928D02*
X121181595Y-75345928D01*
X122181595Y-75822119D02*
X122181595Y-74822119D01*
X122848261Y-74822119D02*
X123038737Y-74822119D01*
X123038737Y-74822119D02*
X123133975Y-74869738D01*
X123133975Y-74869738D02*
X123229213Y-74964976D01*
X123229213Y-74964976D02*
X123276832Y-75155452D01*
X123276832Y-75155452D02*
X123276832Y-75488785D01*
X123276832Y-75488785D02*
X123229213Y-75679261D01*
X123229213Y-75679261D02*
X123133975Y-75774500D01*
X123133975Y-75774500D02*
X123038737Y-75822119D01*
X123038737Y-75822119D02*
X122848261Y-75822119D01*
X122848261Y-75822119D02*
X122753023Y-75774500D01*
X122753023Y-75774500D02*
X122657785Y-75679261D01*
X122657785Y-75679261D02*
X122610166Y-75488785D01*
X122610166Y-75488785D02*
X122610166Y-75155452D01*
X122610166Y-75155452D02*
X122657785Y-74964976D01*
X122657785Y-74964976D02*
X122753023Y-74869738D01*
X122753023Y-74869738D02*
X122848261Y-74822119D01*
X123610166Y-74822119D02*
X124229213Y-74822119D01*
X124229213Y-74822119D02*
X123895880Y-75203071D01*
X123895880Y-75203071D02*
X124038737Y-75203071D01*
X124038737Y-75203071D02*
X124133975Y-75250690D01*
X124133975Y-75250690D02*
X124181594Y-75298309D01*
X124181594Y-75298309D02*
X124229213Y-75393547D01*
X124229213Y-75393547D02*
X124229213Y-75631642D01*
X124229213Y-75631642D02*
X124181594Y-75726880D01*
X124181594Y-75726880D02*
X124133975Y-75774500D01*
X124133975Y-75774500D02*
X124038737Y-75822119D01*
X124038737Y-75822119D02*
X123753023Y-75822119D01*
X123753023Y-75822119D02*
X123657785Y-75774500D01*
X123657785Y-75774500D02*
X123610166Y-75726880D01*
X124610166Y-74917357D02*
X124657785Y-74869738D01*
X124657785Y-74869738D02*
X124753023Y-74822119D01*
X124753023Y-74822119D02*
X124991118Y-74822119D01*
X124991118Y-74822119D02*
X125086356Y-74869738D01*
X125086356Y-74869738D02*
X125133975Y-74917357D01*
X125133975Y-74917357D02*
X125181594Y-75012595D01*
X125181594Y-75012595D02*
X125181594Y-75107833D01*
X125181594Y-75107833D02*
X125133975Y-75250690D01*
X125133975Y-75250690D02*
X124562547Y-75822119D01*
X124562547Y-75822119D02*
X125181594Y-75822119D01*
X120705404Y-77409738D02*
X120610166Y-77362119D01*
X120610166Y-77362119D02*
X120467309Y-77362119D01*
X120467309Y-77362119D02*
X120324452Y-77409738D01*
X120324452Y-77409738D02*
X120229214Y-77504976D01*
X120229214Y-77504976D02*
X120181595Y-77600214D01*
X120181595Y-77600214D02*
X120133976Y-77790690D01*
X120133976Y-77790690D02*
X120133976Y-77933547D01*
X120133976Y-77933547D02*
X120181595Y-78124023D01*
X120181595Y-78124023D02*
X120229214Y-78219261D01*
X120229214Y-78219261D02*
X120324452Y-78314500D01*
X120324452Y-78314500D02*
X120467309Y-78362119D01*
X120467309Y-78362119D02*
X120562547Y-78362119D01*
X120562547Y-78362119D02*
X120705404Y-78314500D01*
X120705404Y-78314500D02*
X120753023Y-78266880D01*
X120753023Y-78266880D02*
X120753023Y-77933547D01*
X120753023Y-77933547D02*
X120562547Y-77933547D01*
X121181595Y-78362119D02*
X121181595Y-77362119D01*
X121181595Y-77362119D02*
X121562547Y-77362119D01*
X121562547Y-77362119D02*
X121657785Y-77409738D01*
X121657785Y-77409738D02*
X121705404Y-77457357D01*
X121705404Y-77457357D02*
X121753023Y-77552595D01*
X121753023Y-77552595D02*
X121753023Y-77695452D01*
X121753023Y-77695452D02*
X121705404Y-77790690D01*
X121705404Y-77790690D02*
X121657785Y-77838309D01*
X121657785Y-77838309D02*
X121562547Y-77885928D01*
X121562547Y-77885928D02*
X121181595Y-77885928D01*
X122181595Y-78362119D02*
X122181595Y-77362119D01*
X122848261Y-77362119D02*
X123038737Y-77362119D01*
X123038737Y-77362119D02*
X123133975Y-77409738D01*
X123133975Y-77409738D02*
X123229213Y-77504976D01*
X123229213Y-77504976D02*
X123276832Y-77695452D01*
X123276832Y-77695452D02*
X123276832Y-78028785D01*
X123276832Y-78028785D02*
X123229213Y-78219261D01*
X123229213Y-78219261D02*
X123133975Y-78314500D01*
X123133975Y-78314500D02*
X123038737Y-78362119D01*
X123038737Y-78362119D02*
X122848261Y-78362119D01*
X122848261Y-78362119D02*
X122753023Y-78314500D01*
X122753023Y-78314500D02*
X122657785Y-78219261D01*
X122657785Y-78219261D02*
X122610166Y-78028785D01*
X122610166Y-78028785D02*
X122610166Y-77695452D01*
X122610166Y-77695452D02*
X122657785Y-77504976D01*
X122657785Y-77504976D02*
X122753023Y-77409738D01*
X122753023Y-77409738D02*
X122848261Y-77362119D01*
X123610166Y-77362119D02*
X124229213Y-77362119D01*
X124229213Y-77362119D02*
X123895880Y-77743071D01*
X123895880Y-77743071D02*
X124038737Y-77743071D01*
X124038737Y-77743071D02*
X124133975Y-77790690D01*
X124133975Y-77790690D02*
X124181594Y-77838309D01*
X124181594Y-77838309D02*
X124229213Y-77933547D01*
X124229213Y-77933547D02*
X124229213Y-78171642D01*
X124229213Y-78171642D02*
X124181594Y-78266880D01*
X124181594Y-78266880D02*
X124133975Y-78314500D01*
X124133975Y-78314500D02*
X124038737Y-78362119D01*
X124038737Y-78362119D02*
X123753023Y-78362119D01*
X123753023Y-78362119D02*
X123657785Y-78314500D01*
X123657785Y-78314500D02*
X123610166Y-78266880D01*
X124562547Y-77362119D02*
X125181594Y-77362119D01*
X125181594Y-77362119D02*
X124848261Y-77743071D01*
X124848261Y-77743071D02*
X124991118Y-77743071D01*
X124991118Y-77743071D02*
X125086356Y-77790690D01*
X125086356Y-77790690D02*
X125133975Y-77838309D01*
X125133975Y-77838309D02*
X125181594Y-77933547D01*
X125181594Y-77933547D02*
X125181594Y-78171642D01*
X125181594Y-78171642D02*
X125133975Y-78266880D01*
X125133975Y-78266880D02*
X125086356Y-78314500D01*
X125086356Y-78314500D02*
X124991118Y-78362119D01*
X124991118Y-78362119D02*
X124705404Y-78362119D01*
X124705404Y-78362119D02*
X124610166Y-78314500D01*
X124610166Y-78314500D02*
X124562547Y-78266880D01*
X120705404Y-79949738D02*
X120610166Y-79902119D01*
X120610166Y-79902119D02*
X120467309Y-79902119D01*
X120467309Y-79902119D02*
X120324452Y-79949738D01*
X120324452Y-79949738D02*
X120229214Y-80044976D01*
X120229214Y-80044976D02*
X120181595Y-80140214D01*
X120181595Y-80140214D02*
X120133976Y-80330690D01*
X120133976Y-80330690D02*
X120133976Y-80473547D01*
X120133976Y-80473547D02*
X120181595Y-80664023D01*
X120181595Y-80664023D02*
X120229214Y-80759261D01*
X120229214Y-80759261D02*
X120324452Y-80854500D01*
X120324452Y-80854500D02*
X120467309Y-80902119D01*
X120467309Y-80902119D02*
X120562547Y-80902119D01*
X120562547Y-80902119D02*
X120705404Y-80854500D01*
X120705404Y-80854500D02*
X120753023Y-80806880D01*
X120753023Y-80806880D02*
X120753023Y-80473547D01*
X120753023Y-80473547D02*
X120562547Y-80473547D01*
X121181595Y-80902119D02*
X121181595Y-79902119D01*
X121181595Y-79902119D02*
X121562547Y-79902119D01*
X121562547Y-79902119D02*
X121657785Y-79949738D01*
X121657785Y-79949738D02*
X121705404Y-79997357D01*
X121705404Y-79997357D02*
X121753023Y-80092595D01*
X121753023Y-80092595D02*
X121753023Y-80235452D01*
X121753023Y-80235452D02*
X121705404Y-80330690D01*
X121705404Y-80330690D02*
X121657785Y-80378309D01*
X121657785Y-80378309D02*
X121562547Y-80425928D01*
X121562547Y-80425928D02*
X121181595Y-80425928D01*
X122181595Y-80902119D02*
X122181595Y-79902119D01*
X122848261Y-79902119D02*
X123038737Y-79902119D01*
X123038737Y-79902119D02*
X123133975Y-79949738D01*
X123133975Y-79949738D02*
X123229213Y-80044976D01*
X123229213Y-80044976D02*
X123276832Y-80235452D01*
X123276832Y-80235452D02*
X123276832Y-80568785D01*
X123276832Y-80568785D02*
X123229213Y-80759261D01*
X123229213Y-80759261D02*
X123133975Y-80854500D01*
X123133975Y-80854500D02*
X123038737Y-80902119D01*
X123038737Y-80902119D02*
X122848261Y-80902119D01*
X122848261Y-80902119D02*
X122753023Y-80854500D01*
X122753023Y-80854500D02*
X122657785Y-80759261D01*
X122657785Y-80759261D02*
X122610166Y-80568785D01*
X122610166Y-80568785D02*
X122610166Y-80235452D01*
X122610166Y-80235452D02*
X122657785Y-80044976D01*
X122657785Y-80044976D02*
X122753023Y-79949738D01*
X122753023Y-79949738D02*
X122848261Y-79902119D01*
X123657785Y-79997357D02*
X123705404Y-79949738D01*
X123705404Y-79949738D02*
X123800642Y-79902119D01*
X123800642Y-79902119D02*
X124038737Y-79902119D01*
X124038737Y-79902119D02*
X124133975Y-79949738D01*
X124133975Y-79949738D02*
X124181594Y-79997357D01*
X124181594Y-79997357D02*
X124229213Y-80092595D01*
X124229213Y-80092595D02*
X124229213Y-80187833D01*
X124229213Y-80187833D02*
X124181594Y-80330690D01*
X124181594Y-80330690D02*
X123610166Y-80902119D01*
X123610166Y-80902119D02*
X124229213Y-80902119D01*
X125133975Y-79902119D02*
X124657785Y-79902119D01*
X124657785Y-79902119D02*
X124610166Y-80378309D01*
X124610166Y-80378309D02*
X124657785Y-80330690D01*
X124657785Y-80330690D02*
X124753023Y-80283071D01*
X124753023Y-80283071D02*
X124991118Y-80283071D01*
X124991118Y-80283071D02*
X125086356Y-80330690D01*
X125086356Y-80330690D02*
X125133975Y-80378309D01*
X125133975Y-80378309D02*
X125181594Y-80473547D01*
X125181594Y-80473547D02*
X125181594Y-80711642D01*
X125181594Y-80711642D02*
X125133975Y-80806880D01*
X125133975Y-80806880D02*
X125086356Y-80854500D01*
X125086356Y-80854500D02*
X124991118Y-80902119D01*
X124991118Y-80902119D02*
X124753023Y-80902119D01*
X124753023Y-80902119D02*
X124657785Y-80854500D01*
X124657785Y-80854500D02*
X124610166Y-80806880D01*
X120705404Y-82489738D02*
X120610166Y-82442119D01*
X120610166Y-82442119D02*
X120467309Y-82442119D01*
X120467309Y-82442119D02*
X120324452Y-82489738D01*
X120324452Y-82489738D02*
X120229214Y-82584976D01*
X120229214Y-82584976D02*
X120181595Y-82680214D01*
X120181595Y-82680214D02*
X120133976Y-82870690D01*
X120133976Y-82870690D02*
X120133976Y-83013547D01*
X120133976Y-83013547D02*
X120181595Y-83204023D01*
X120181595Y-83204023D02*
X120229214Y-83299261D01*
X120229214Y-83299261D02*
X120324452Y-83394500D01*
X120324452Y-83394500D02*
X120467309Y-83442119D01*
X120467309Y-83442119D02*
X120562547Y-83442119D01*
X120562547Y-83442119D02*
X120705404Y-83394500D01*
X120705404Y-83394500D02*
X120753023Y-83346880D01*
X120753023Y-83346880D02*
X120753023Y-83013547D01*
X120753023Y-83013547D02*
X120562547Y-83013547D01*
X121181595Y-83442119D02*
X121181595Y-82442119D01*
X121181595Y-82442119D02*
X121562547Y-82442119D01*
X121562547Y-82442119D02*
X121657785Y-82489738D01*
X121657785Y-82489738D02*
X121705404Y-82537357D01*
X121705404Y-82537357D02*
X121753023Y-82632595D01*
X121753023Y-82632595D02*
X121753023Y-82775452D01*
X121753023Y-82775452D02*
X121705404Y-82870690D01*
X121705404Y-82870690D02*
X121657785Y-82918309D01*
X121657785Y-82918309D02*
X121562547Y-82965928D01*
X121562547Y-82965928D02*
X121181595Y-82965928D01*
X122181595Y-83442119D02*
X122181595Y-82442119D01*
X122848261Y-82442119D02*
X123038737Y-82442119D01*
X123038737Y-82442119D02*
X123133975Y-82489738D01*
X123133975Y-82489738D02*
X123229213Y-82584976D01*
X123229213Y-82584976D02*
X123276832Y-82775452D01*
X123276832Y-82775452D02*
X123276832Y-83108785D01*
X123276832Y-83108785D02*
X123229213Y-83299261D01*
X123229213Y-83299261D02*
X123133975Y-83394500D01*
X123133975Y-83394500D02*
X123038737Y-83442119D01*
X123038737Y-83442119D02*
X122848261Y-83442119D01*
X122848261Y-83442119D02*
X122753023Y-83394500D01*
X122753023Y-83394500D02*
X122657785Y-83299261D01*
X122657785Y-83299261D02*
X122610166Y-83108785D01*
X122610166Y-83108785D02*
X122610166Y-82775452D01*
X122610166Y-82775452D02*
X122657785Y-82584976D01*
X122657785Y-82584976D02*
X122753023Y-82489738D01*
X122753023Y-82489738D02*
X122848261Y-82442119D01*
X123657785Y-82537357D02*
X123705404Y-82489738D01*
X123705404Y-82489738D02*
X123800642Y-82442119D01*
X123800642Y-82442119D02*
X124038737Y-82442119D01*
X124038737Y-82442119D02*
X124133975Y-82489738D01*
X124133975Y-82489738D02*
X124181594Y-82537357D01*
X124181594Y-82537357D02*
X124229213Y-82632595D01*
X124229213Y-82632595D02*
X124229213Y-82727833D01*
X124229213Y-82727833D02*
X124181594Y-82870690D01*
X124181594Y-82870690D02*
X123610166Y-83442119D01*
X123610166Y-83442119D02*
X124229213Y-83442119D01*
X125086356Y-82442119D02*
X124895880Y-82442119D01*
X124895880Y-82442119D02*
X124800642Y-82489738D01*
X124800642Y-82489738D02*
X124753023Y-82537357D01*
X124753023Y-82537357D02*
X124657785Y-82680214D01*
X124657785Y-82680214D02*
X124610166Y-82870690D01*
X124610166Y-82870690D02*
X124610166Y-83251642D01*
X124610166Y-83251642D02*
X124657785Y-83346880D01*
X124657785Y-83346880D02*
X124705404Y-83394500D01*
X124705404Y-83394500D02*
X124800642Y-83442119D01*
X124800642Y-83442119D02*
X124991118Y-83442119D01*
X124991118Y-83442119D02*
X125086356Y-83394500D01*
X125086356Y-83394500D02*
X125133975Y-83346880D01*
X125133975Y-83346880D02*
X125181594Y-83251642D01*
X125181594Y-83251642D02*
X125181594Y-83013547D01*
X125181594Y-83013547D02*
X125133975Y-82918309D01*
X125133975Y-82918309D02*
X125086356Y-82870690D01*
X125086356Y-82870690D02*
X124991118Y-82823071D01*
X124991118Y-82823071D02*
X124800642Y-82823071D01*
X124800642Y-82823071D02*
X124705404Y-82870690D01*
X124705404Y-82870690D02*
X124657785Y-82918309D01*
X124657785Y-82918309D02*
X124610166Y-83013547D01*
X120705404Y-85029738D02*
X120610166Y-84982119D01*
X120610166Y-84982119D02*
X120467309Y-84982119D01*
X120467309Y-84982119D02*
X120324452Y-85029738D01*
X120324452Y-85029738D02*
X120229214Y-85124976D01*
X120229214Y-85124976D02*
X120181595Y-85220214D01*
X120181595Y-85220214D02*
X120133976Y-85410690D01*
X120133976Y-85410690D02*
X120133976Y-85553547D01*
X120133976Y-85553547D02*
X120181595Y-85744023D01*
X120181595Y-85744023D02*
X120229214Y-85839261D01*
X120229214Y-85839261D02*
X120324452Y-85934500D01*
X120324452Y-85934500D02*
X120467309Y-85982119D01*
X120467309Y-85982119D02*
X120562547Y-85982119D01*
X120562547Y-85982119D02*
X120705404Y-85934500D01*
X120705404Y-85934500D02*
X120753023Y-85886880D01*
X120753023Y-85886880D02*
X120753023Y-85553547D01*
X120753023Y-85553547D02*
X120562547Y-85553547D01*
X121181595Y-85982119D02*
X121181595Y-84982119D01*
X121181595Y-84982119D02*
X121562547Y-84982119D01*
X121562547Y-84982119D02*
X121657785Y-85029738D01*
X121657785Y-85029738D02*
X121705404Y-85077357D01*
X121705404Y-85077357D02*
X121753023Y-85172595D01*
X121753023Y-85172595D02*
X121753023Y-85315452D01*
X121753023Y-85315452D02*
X121705404Y-85410690D01*
X121705404Y-85410690D02*
X121657785Y-85458309D01*
X121657785Y-85458309D02*
X121562547Y-85505928D01*
X121562547Y-85505928D02*
X121181595Y-85505928D01*
X122181595Y-85982119D02*
X122181595Y-84982119D01*
X122848261Y-84982119D02*
X123038737Y-84982119D01*
X123038737Y-84982119D02*
X123133975Y-85029738D01*
X123133975Y-85029738D02*
X123229213Y-85124976D01*
X123229213Y-85124976D02*
X123276832Y-85315452D01*
X123276832Y-85315452D02*
X123276832Y-85648785D01*
X123276832Y-85648785D02*
X123229213Y-85839261D01*
X123229213Y-85839261D02*
X123133975Y-85934500D01*
X123133975Y-85934500D02*
X123038737Y-85982119D01*
X123038737Y-85982119D02*
X122848261Y-85982119D01*
X122848261Y-85982119D02*
X122753023Y-85934500D01*
X122753023Y-85934500D02*
X122657785Y-85839261D01*
X122657785Y-85839261D02*
X122610166Y-85648785D01*
X122610166Y-85648785D02*
X122610166Y-85315452D01*
X122610166Y-85315452D02*
X122657785Y-85124976D01*
X122657785Y-85124976D02*
X122753023Y-85029738D01*
X122753023Y-85029738D02*
X122848261Y-84982119D01*
X123657785Y-85077357D02*
X123705404Y-85029738D01*
X123705404Y-85029738D02*
X123800642Y-84982119D01*
X123800642Y-84982119D02*
X124038737Y-84982119D01*
X124038737Y-84982119D02*
X124133975Y-85029738D01*
X124133975Y-85029738D02*
X124181594Y-85077357D01*
X124181594Y-85077357D02*
X124229213Y-85172595D01*
X124229213Y-85172595D02*
X124229213Y-85267833D01*
X124229213Y-85267833D02*
X124181594Y-85410690D01*
X124181594Y-85410690D02*
X123610166Y-85982119D01*
X123610166Y-85982119D02*
X124229213Y-85982119D01*
X124562547Y-84982119D02*
X125229213Y-84982119D01*
X125229213Y-84982119D02*
X124800642Y-85982119D01*
X120705404Y-87569738D02*
X120610166Y-87522119D01*
X120610166Y-87522119D02*
X120467309Y-87522119D01*
X120467309Y-87522119D02*
X120324452Y-87569738D01*
X120324452Y-87569738D02*
X120229214Y-87664976D01*
X120229214Y-87664976D02*
X120181595Y-87760214D01*
X120181595Y-87760214D02*
X120133976Y-87950690D01*
X120133976Y-87950690D02*
X120133976Y-88093547D01*
X120133976Y-88093547D02*
X120181595Y-88284023D01*
X120181595Y-88284023D02*
X120229214Y-88379261D01*
X120229214Y-88379261D02*
X120324452Y-88474500D01*
X120324452Y-88474500D02*
X120467309Y-88522119D01*
X120467309Y-88522119D02*
X120562547Y-88522119D01*
X120562547Y-88522119D02*
X120705404Y-88474500D01*
X120705404Y-88474500D02*
X120753023Y-88426880D01*
X120753023Y-88426880D02*
X120753023Y-88093547D01*
X120753023Y-88093547D02*
X120562547Y-88093547D01*
X121181595Y-88522119D02*
X121181595Y-87522119D01*
X121181595Y-87522119D02*
X121562547Y-87522119D01*
X121562547Y-87522119D02*
X121657785Y-87569738D01*
X121657785Y-87569738D02*
X121705404Y-87617357D01*
X121705404Y-87617357D02*
X121753023Y-87712595D01*
X121753023Y-87712595D02*
X121753023Y-87855452D01*
X121753023Y-87855452D02*
X121705404Y-87950690D01*
X121705404Y-87950690D02*
X121657785Y-87998309D01*
X121657785Y-87998309D02*
X121562547Y-88045928D01*
X121562547Y-88045928D02*
X121181595Y-88045928D01*
X122181595Y-88522119D02*
X122181595Y-87522119D01*
X122848261Y-87522119D02*
X123038737Y-87522119D01*
X123038737Y-87522119D02*
X123133975Y-87569738D01*
X123133975Y-87569738D02*
X123229213Y-87664976D01*
X123229213Y-87664976D02*
X123276832Y-87855452D01*
X123276832Y-87855452D02*
X123276832Y-88188785D01*
X123276832Y-88188785D02*
X123229213Y-88379261D01*
X123229213Y-88379261D02*
X123133975Y-88474500D01*
X123133975Y-88474500D02*
X123038737Y-88522119D01*
X123038737Y-88522119D02*
X122848261Y-88522119D01*
X122848261Y-88522119D02*
X122753023Y-88474500D01*
X122753023Y-88474500D02*
X122657785Y-88379261D01*
X122657785Y-88379261D02*
X122610166Y-88188785D01*
X122610166Y-88188785D02*
X122610166Y-87855452D01*
X122610166Y-87855452D02*
X122657785Y-87664976D01*
X122657785Y-87664976D02*
X122753023Y-87569738D01*
X122753023Y-87569738D02*
X122848261Y-87522119D01*
X124229213Y-88522119D02*
X123657785Y-88522119D01*
X123943499Y-88522119D02*
X123943499Y-87522119D01*
X123943499Y-87522119D02*
X123848261Y-87664976D01*
X123848261Y-87664976D02*
X123753023Y-87760214D01*
X123753023Y-87760214D02*
X123657785Y-87807833D01*
X125086356Y-87855452D02*
X125086356Y-88522119D01*
X124848261Y-87474500D02*
X124610166Y-88188785D01*
X124610166Y-88188785D02*
X125229213Y-88188785D01*
X120705404Y-90109738D02*
X120610166Y-90062119D01*
X120610166Y-90062119D02*
X120467309Y-90062119D01*
X120467309Y-90062119D02*
X120324452Y-90109738D01*
X120324452Y-90109738D02*
X120229214Y-90204976D01*
X120229214Y-90204976D02*
X120181595Y-90300214D01*
X120181595Y-90300214D02*
X120133976Y-90490690D01*
X120133976Y-90490690D02*
X120133976Y-90633547D01*
X120133976Y-90633547D02*
X120181595Y-90824023D01*
X120181595Y-90824023D02*
X120229214Y-90919261D01*
X120229214Y-90919261D02*
X120324452Y-91014500D01*
X120324452Y-91014500D02*
X120467309Y-91062119D01*
X120467309Y-91062119D02*
X120562547Y-91062119D01*
X120562547Y-91062119D02*
X120705404Y-91014500D01*
X120705404Y-91014500D02*
X120753023Y-90966880D01*
X120753023Y-90966880D02*
X120753023Y-90633547D01*
X120753023Y-90633547D02*
X120562547Y-90633547D01*
X121181595Y-91062119D02*
X121181595Y-90062119D01*
X121181595Y-90062119D02*
X121562547Y-90062119D01*
X121562547Y-90062119D02*
X121657785Y-90109738D01*
X121657785Y-90109738D02*
X121705404Y-90157357D01*
X121705404Y-90157357D02*
X121753023Y-90252595D01*
X121753023Y-90252595D02*
X121753023Y-90395452D01*
X121753023Y-90395452D02*
X121705404Y-90490690D01*
X121705404Y-90490690D02*
X121657785Y-90538309D01*
X121657785Y-90538309D02*
X121562547Y-90585928D01*
X121562547Y-90585928D02*
X121181595Y-90585928D01*
X122181595Y-91062119D02*
X122181595Y-90062119D01*
X122848261Y-90062119D02*
X123038737Y-90062119D01*
X123038737Y-90062119D02*
X123133975Y-90109738D01*
X123133975Y-90109738D02*
X123229213Y-90204976D01*
X123229213Y-90204976D02*
X123276832Y-90395452D01*
X123276832Y-90395452D02*
X123276832Y-90728785D01*
X123276832Y-90728785D02*
X123229213Y-90919261D01*
X123229213Y-90919261D02*
X123133975Y-91014500D01*
X123133975Y-91014500D02*
X123038737Y-91062119D01*
X123038737Y-91062119D02*
X122848261Y-91062119D01*
X122848261Y-91062119D02*
X122753023Y-91014500D01*
X122753023Y-91014500D02*
X122657785Y-90919261D01*
X122657785Y-90919261D02*
X122610166Y-90728785D01*
X122610166Y-90728785D02*
X122610166Y-90395452D01*
X122610166Y-90395452D02*
X122657785Y-90204976D01*
X122657785Y-90204976D02*
X122753023Y-90109738D01*
X122753023Y-90109738D02*
X122848261Y-90062119D01*
X124229213Y-91062119D02*
X123657785Y-91062119D01*
X123943499Y-91062119D02*
X123943499Y-90062119D01*
X123943499Y-90062119D02*
X123848261Y-90204976D01*
X123848261Y-90204976D02*
X123753023Y-90300214D01*
X123753023Y-90300214D02*
X123657785Y-90347833D01*
X124610166Y-90157357D02*
X124657785Y-90109738D01*
X124657785Y-90109738D02*
X124753023Y-90062119D01*
X124753023Y-90062119D02*
X124991118Y-90062119D01*
X124991118Y-90062119D02*
X125086356Y-90109738D01*
X125086356Y-90109738D02*
X125133975Y-90157357D01*
X125133975Y-90157357D02*
X125181594Y-90252595D01*
X125181594Y-90252595D02*
X125181594Y-90347833D01*
X125181594Y-90347833D02*
X125133975Y-90490690D01*
X125133975Y-90490690D02*
X124562547Y-91062119D01*
X124562547Y-91062119D02*
X125181594Y-91062119D01*
X120705404Y-92649738D02*
X120610166Y-92602119D01*
X120610166Y-92602119D02*
X120467309Y-92602119D01*
X120467309Y-92602119D02*
X120324452Y-92649738D01*
X120324452Y-92649738D02*
X120229214Y-92744976D01*
X120229214Y-92744976D02*
X120181595Y-92840214D01*
X120181595Y-92840214D02*
X120133976Y-93030690D01*
X120133976Y-93030690D02*
X120133976Y-93173547D01*
X120133976Y-93173547D02*
X120181595Y-93364023D01*
X120181595Y-93364023D02*
X120229214Y-93459261D01*
X120229214Y-93459261D02*
X120324452Y-93554500D01*
X120324452Y-93554500D02*
X120467309Y-93602119D01*
X120467309Y-93602119D02*
X120562547Y-93602119D01*
X120562547Y-93602119D02*
X120705404Y-93554500D01*
X120705404Y-93554500D02*
X120753023Y-93506880D01*
X120753023Y-93506880D02*
X120753023Y-93173547D01*
X120753023Y-93173547D02*
X120562547Y-93173547D01*
X121181595Y-93602119D02*
X121181595Y-92602119D01*
X121181595Y-92602119D02*
X121753023Y-93602119D01*
X121753023Y-93602119D02*
X121753023Y-92602119D01*
X122229214Y-93602119D02*
X122229214Y-92602119D01*
X122229214Y-92602119D02*
X122467309Y-92602119D01*
X122467309Y-92602119D02*
X122610166Y-92649738D01*
X122610166Y-92649738D02*
X122705404Y-92744976D01*
X122705404Y-92744976D02*
X122753023Y-92840214D01*
X122753023Y-92840214D02*
X122800642Y-93030690D01*
X122800642Y-93030690D02*
X122800642Y-93173547D01*
X122800642Y-93173547D02*
X122753023Y-93364023D01*
X122753023Y-93364023D02*
X122705404Y-93459261D01*
X122705404Y-93459261D02*
X122610166Y-93554500D01*
X122610166Y-93554500D02*
X122467309Y-93602119D01*
X122467309Y-93602119D02*
X122229214Y-93602119D01*
X120705404Y-95189738D02*
X120610166Y-95142119D01*
X120610166Y-95142119D02*
X120467309Y-95142119D01*
X120467309Y-95142119D02*
X120324452Y-95189738D01*
X120324452Y-95189738D02*
X120229214Y-95284976D01*
X120229214Y-95284976D02*
X120181595Y-95380214D01*
X120181595Y-95380214D02*
X120133976Y-95570690D01*
X120133976Y-95570690D02*
X120133976Y-95713547D01*
X120133976Y-95713547D02*
X120181595Y-95904023D01*
X120181595Y-95904023D02*
X120229214Y-95999261D01*
X120229214Y-95999261D02*
X120324452Y-96094500D01*
X120324452Y-96094500D02*
X120467309Y-96142119D01*
X120467309Y-96142119D02*
X120562547Y-96142119D01*
X120562547Y-96142119D02*
X120705404Y-96094500D01*
X120705404Y-96094500D02*
X120753023Y-96046880D01*
X120753023Y-96046880D02*
X120753023Y-95713547D01*
X120753023Y-95713547D02*
X120562547Y-95713547D01*
X121181595Y-96142119D02*
X121181595Y-95142119D01*
X121181595Y-95142119D02*
X121562547Y-95142119D01*
X121562547Y-95142119D02*
X121657785Y-95189738D01*
X121657785Y-95189738D02*
X121705404Y-95237357D01*
X121705404Y-95237357D02*
X121753023Y-95332595D01*
X121753023Y-95332595D02*
X121753023Y-95475452D01*
X121753023Y-95475452D02*
X121705404Y-95570690D01*
X121705404Y-95570690D02*
X121657785Y-95618309D01*
X121657785Y-95618309D02*
X121562547Y-95665928D01*
X121562547Y-95665928D02*
X121181595Y-95665928D01*
X122181595Y-96142119D02*
X122181595Y-95142119D01*
X122848261Y-95142119D02*
X123038737Y-95142119D01*
X123038737Y-95142119D02*
X123133975Y-95189738D01*
X123133975Y-95189738D02*
X123229213Y-95284976D01*
X123229213Y-95284976D02*
X123276832Y-95475452D01*
X123276832Y-95475452D02*
X123276832Y-95808785D01*
X123276832Y-95808785D02*
X123229213Y-95999261D01*
X123229213Y-95999261D02*
X123133975Y-96094500D01*
X123133975Y-96094500D02*
X123038737Y-96142119D01*
X123038737Y-96142119D02*
X122848261Y-96142119D01*
X122848261Y-96142119D02*
X122753023Y-96094500D01*
X122753023Y-96094500D02*
X122657785Y-95999261D01*
X122657785Y-95999261D02*
X122610166Y-95808785D01*
X122610166Y-95808785D02*
X122610166Y-95475452D01*
X122610166Y-95475452D02*
X122657785Y-95284976D01*
X122657785Y-95284976D02*
X122753023Y-95189738D01*
X122753023Y-95189738D02*
X122848261Y-95142119D01*
X124229213Y-96142119D02*
X123657785Y-96142119D01*
X123943499Y-96142119D02*
X123943499Y-95142119D01*
X123943499Y-95142119D02*
X123848261Y-95284976D01*
X123848261Y-95284976D02*
X123753023Y-95380214D01*
X123753023Y-95380214D02*
X123657785Y-95427833D01*
X124562547Y-95142119D02*
X125181594Y-95142119D01*
X125181594Y-95142119D02*
X124848261Y-95523071D01*
X124848261Y-95523071D02*
X124991118Y-95523071D01*
X124991118Y-95523071D02*
X125086356Y-95570690D01*
X125086356Y-95570690D02*
X125133975Y-95618309D01*
X125133975Y-95618309D02*
X125181594Y-95713547D01*
X125181594Y-95713547D02*
X125181594Y-95951642D01*
X125181594Y-95951642D02*
X125133975Y-96046880D01*
X125133975Y-96046880D02*
X125086356Y-96094500D01*
X125086356Y-96094500D02*
X124991118Y-96142119D01*
X124991118Y-96142119D02*
X124705404Y-96142119D01*
X124705404Y-96142119D02*
X124610166Y-96094500D01*
X124610166Y-96094500D02*
X124562547Y-96046880D01*
X120705404Y-97729738D02*
X120610166Y-97682119D01*
X120610166Y-97682119D02*
X120467309Y-97682119D01*
X120467309Y-97682119D02*
X120324452Y-97729738D01*
X120324452Y-97729738D02*
X120229214Y-97824976D01*
X120229214Y-97824976D02*
X120181595Y-97920214D01*
X120181595Y-97920214D02*
X120133976Y-98110690D01*
X120133976Y-98110690D02*
X120133976Y-98253547D01*
X120133976Y-98253547D02*
X120181595Y-98444023D01*
X120181595Y-98444023D02*
X120229214Y-98539261D01*
X120229214Y-98539261D02*
X120324452Y-98634500D01*
X120324452Y-98634500D02*
X120467309Y-98682119D01*
X120467309Y-98682119D02*
X120562547Y-98682119D01*
X120562547Y-98682119D02*
X120705404Y-98634500D01*
X120705404Y-98634500D02*
X120753023Y-98586880D01*
X120753023Y-98586880D02*
X120753023Y-98253547D01*
X120753023Y-98253547D02*
X120562547Y-98253547D01*
X121181595Y-98682119D02*
X121181595Y-97682119D01*
X121181595Y-97682119D02*
X121562547Y-97682119D01*
X121562547Y-97682119D02*
X121657785Y-97729738D01*
X121657785Y-97729738D02*
X121705404Y-97777357D01*
X121705404Y-97777357D02*
X121753023Y-97872595D01*
X121753023Y-97872595D02*
X121753023Y-98015452D01*
X121753023Y-98015452D02*
X121705404Y-98110690D01*
X121705404Y-98110690D02*
X121657785Y-98158309D01*
X121657785Y-98158309D02*
X121562547Y-98205928D01*
X121562547Y-98205928D02*
X121181595Y-98205928D01*
X122181595Y-98682119D02*
X122181595Y-97682119D01*
X122848261Y-97682119D02*
X123038737Y-97682119D01*
X123038737Y-97682119D02*
X123133975Y-97729738D01*
X123133975Y-97729738D02*
X123229213Y-97824976D01*
X123229213Y-97824976D02*
X123276832Y-98015452D01*
X123276832Y-98015452D02*
X123276832Y-98348785D01*
X123276832Y-98348785D02*
X123229213Y-98539261D01*
X123229213Y-98539261D02*
X123133975Y-98634500D01*
X123133975Y-98634500D02*
X123038737Y-98682119D01*
X123038737Y-98682119D02*
X122848261Y-98682119D01*
X122848261Y-98682119D02*
X122753023Y-98634500D01*
X122753023Y-98634500D02*
X122657785Y-98539261D01*
X122657785Y-98539261D02*
X122610166Y-98348785D01*
X122610166Y-98348785D02*
X122610166Y-98015452D01*
X122610166Y-98015452D02*
X122657785Y-97824976D01*
X122657785Y-97824976D02*
X122753023Y-97729738D01*
X122753023Y-97729738D02*
X122848261Y-97682119D01*
X123895880Y-97682119D02*
X123991118Y-97682119D01*
X123991118Y-97682119D02*
X124086356Y-97729738D01*
X124086356Y-97729738D02*
X124133975Y-97777357D01*
X124133975Y-97777357D02*
X124181594Y-97872595D01*
X124181594Y-97872595D02*
X124229213Y-98063071D01*
X124229213Y-98063071D02*
X124229213Y-98301166D01*
X124229213Y-98301166D02*
X124181594Y-98491642D01*
X124181594Y-98491642D02*
X124133975Y-98586880D01*
X124133975Y-98586880D02*
X124086356Y-98634500D01*
X124086356Y-98634500D02*
X123991118Y-98682119D01*
X123991118Y-98682119D02*
X123895880Y-98682119D01*
X123895880Y-98682119D02*
X123800642Y-98634500D01*
X123800642Y-98634500D02*
X123753023Y-98586880D01*
X123753023Y-98586880D02*
X123705404Y-98491642D01*
X123705404Y-98491642D02*
X123657785Y-98301166D01*
X123657785Y-98301166D02*
X123657785Y-98063071D01*
X123657785Y-98063071D02*
X123705404Y-97872595D01*
X123705404Y-97872595D02*
X123753023Y-97777357D01*
X123753023Y-97777357D02*
X123800642Y-97729738D01*
X123800642Y-97729738D02*
X123895880Y-97682119D01*
X124705404Y-98682119D02*
X124895880Y-98682119D01*
X124895880Y-98682119D02*
X124991118Y-98634500D01*
X124991118Y-98634500D02*
X125038737Y-98586880D01*
X125038737Y-98586880D02*
X125133975Y-98444023D01*
X125133975Y-98444023D02*
X125181594Y-98253547D01*
X125181594Y-98253547D02*
X125181594Y-97872595D01*
X125181594Y-97872595D02*
X125133975Y-97777357D01*
X125133975Y-97777357D02*
X125086356Y-97729738D01*
X125086356Y-97729738D02*
X124991118Y-97682119D01*
X124991118Y-97682119D02*
X124800642Y-97682119D01*
X124800642Y-97682119D02*
X124705404Y-97729738D01*
X124705404Y-97729738D02*
X124657785Y-97777357D01*
X124657785Y-97777357D02*
X124610166Y-97872595D01*
X124610166Y-97872595D02*
X124610166Y-98110690D01*
X124610166Y-98110690D02*
X124657785Y-98205928D01*
X124657785Y-98205928D02*
X124705404Y-98253547D01*
X124705404Y-98253547D02*
X124800642Y-98301166D01*
X124800642Y-98301166D02*
X124991118Y-98301166D01*
X124991118Y-98301166D02*
X125086356Y-98253547D01*
X125086356Y-98253547D02*
X125133975Y-98205928D01*
X125133975Y-98205928D02*
X125181594Y-98110690D01*
X120705404Y-100269738D02*
X120610166Y-100222119D01*
X120610166Y-100222119D02*
X120467309Y-100222119D01*
X120467309Y-100222119D02*
X120324452Y-100269738D01*
X120324452Y-100269738D02*
X120229214Y-100364976D01*
X120229214Y-100364976D02*
X120181595Y-100460214D01*
X120181595Y-100460214D02*
X120133976Y-100650690D01*
X120133976Y-100650690D02*
X120133976Y-100793547D01*
X120133976Y-100793547D02*
X120181595Y-100984023D01*
X120181595Y-100984023D02*
X120229214Y-101079261D01*
X120229214Y-101079261D02*
X120324452Y-101174500D01*
X120324452Y-101174500D02*
X120467309Y-101222119D01*
X120467309Y-101222119D02*
X120562547Y-101222119D01*
X120562547Y-101222119D02*
X120705404Y-101174500D01*
X120705404Y-101174500D02*
X120753023Y-101126880D01*
X120753023Y-101126880D02*
X120753023Y-100793547D01*
X120753023Y-100793547D02*
X120562547Y-100793547D01*
X121181595Y-101222119D02*
X121181595Y-100222119D01*
X121181595Y-100222119D02*
X121562547Y-100222119D01*
X121562547Y-100222119D02*
X121657785Y-100269738D01*
X121657785Y-100269738D02*
X121705404Y-100317357D01*
X121705404Y-100317357D02*
X121753023Y-100412595D01*
X121753023Y-100412595D02*
X121753023Y-100555452D01*
X121753023Y-100555452D02*
X121705404Y-100650690D01*
X121705404Y-100650690D02*
X121657785Y-100698309D01*
X121657785Y-100698309D02*
X121562547Y-100745928D01*
X121562547Y-100745928D02*
X121181595Y-100745928D01*
X122181595Y-101222119D02*
X122181595Y-100222119D01*
X122848261Y-100222119D02*
X123038737Y-100222119D01*
X123038737Y-100222119D02*
X123133975Y-100269738D01*
X123133975Y-100269738D02*
X123229213Y-100364976D01*
X123229213Y-100364976D02*
X123276832Y-100555452D01*
X123276832Y-100555452D02*
X123276832Y-100888785D01*
X123276832Y-100888785D02*
X123229213Y-101079261D01*
X123229213Y-101079261D02*
X123133975Y-101174500D01*
X123133975Y-101174500D02*
X123038737Y-101222119D01*
X123038737Y-101222119D02*
X122848261Y-101222119D01*
X122848261Y-101222119D02*
X122753023Y-101174500D01*
X122753023Y-101174500D02*
X122657785Y-101079261D01*
X122657785Y-101079261D02*
X122610166Y-100888785D01*
X122610166Y-100888785D02*
X122610166Y-100555452D01*
X122610166Y-100555452D02*
X122657785Y-100364976D01*
X122657785Y-100364976D02*
X122753023Y-100269738D01*
X122753023Y-100269738D02*
X122848261Y-100222119D01*
X124229213Y-101222119D02*
X123657785Y-101222119D01*
X123943499Y-101222119D02*
X123943499Y-100222119D01*
X123943499Y-100222119D02*
X123848261Y-100364976D01*
X123848261Y-100364976D02*
X123753023Y-100460214D01*
X123753023Y-100460214D02*
X123657785Y-100507833D01*
X124848261Y-100222119D02*
X124943499Y-100222119D01*
X124943499Y-100222119D02*
X125038737Y-100269738D01*
X125038737Y-100269738D02*
X125086356Y-100317357D01*
X125086356Y-100317357D02*
X125133975Y-100412595D01*
X125133975Y-100412595D02*
X125181594Y-100603071D01*
X125181594Y-100603071D02*
X125181594Y-100841166D01*
X125181594Y-100841166D02*
X125133975Y-101031642D01*
X125133975Y-101031642D02*
X125086356Y-101126880D01*
X125086356Y-101126880D02*
X125038737Y-101174500D01*
X125038737Y-101174500D02*
X124943499Y-101222119D01*
X124943499Y-101222119D02*
X124848261Y-101222119D01*
X124848261Y-101222119D02*
X124753023Y-101174500D01*
X124753023Y-101174500D02*
X124705404Y-101126880D01*
X124705404Y-101126880D02*
X124657785Y-101031642D01*
X124657785Y-101031642D02*
X124610166Y-100841166D01*
X124610166Y-100841166D02*
X124610166Y-100603071D01*
X124610166Y-100603071D02*
X124657785Y-100412595D01*
X124657785Y-100412595D02*
X124705404Y-100317357D01*
X124705404Y-100317357D02*
X124753023Y-100269738D01*
X124753023Y-100269738D02*
X124848261Y-100222119D01*
X120705404Y-102809738D02*
X120610166Y-102762119D01*
X120610166Y-102762119D02*
X120467309Y-102762119D01*
X120467309Y-102762119D02*
X120324452Y-102809738D01*
X120324452Y-102809738D02*
X120229214Y-102904976D01*
X120229214Y-102904976D02*
X120181595Y-103000214D01*
X120181595Y-103000214D02*
X120133976Y-103190690D01*
X120133976Y-103190690D02*
X120133976Y-103333547D01*
X120133976Y-103333547D02*
X120181595Y-103524023D01*
X120181595Y-103524023D02*
X120229214Y-103619261D01*
X120229214Y-103619261D02*
X120324452Y-103714500D01*
X120324452Y-103714500D02*
X120467309Y-103762119D01*
X120467309Y-103762119D02*
X120562547Y-103762119D01*
X120562547Y-103762119D02*
X120705404Y-103714500D01*
X120705404Y-103714500D02*
X120753023Y-103666880D01*
X120753023Y-103666880D02*
X120753023Y-103333547D01*
X120753023Y-103333547D02*
X120562547Y-103333547D01*
X121181595Y-103762119D02*
X121181595Y-102762119D01*
X121181595Y-102762119D02*
X121562547Y-102762119D01*
X121562547Y-102762119D02*
X121657785Y-102809738D01*
X121657785Y-102809738D02*
X121705404Y-102857357D01*
X121705404Y-102857357D02*
X121753023Y-102952595D01*
X121753023Y-102952595D02*
X121753023Y-103095452D01*
X121753023Y-103095452D02*
X121705404Y-103190690D01*
X121705404Y-103190690D02*
X121657785Y-103238309D01*
X121657785Y-103238309D02*
X121562547Y-103285928D01*
X121562547Y-103285928D02*
X121181595Y-103285928D01*
X122181595Y-103762119D02*
X122181595Y-102762119D01*
X122848261Y-102762119D02*
X123038737Y-102762119D01*
X123038737Y-102762119D02*
X123133975Y-102809738D01*
X123133975Y-102809738D02*
X123229213Y-102904976D01*
X123229213Y-102904976D02*
X123276832Y-103095452D01*
X123276832Y-103095452D02*
X123276832Y-103428785D01*
X123276832Y-103428785D02*
X123229213Y-103619261D01*
X123229213Y-103619261D02*
X123133975Y-103714500D01*
X123133975Y-103714500D02*
X123038737Y-103762119D01*
X123038737Y-103762119D02*
X122848261Y-103762119D01*
X122848261Y-103762119D02*
X122753023Y-103714500D01*
X122753023Y-103714500D02*
X122657785Y-103619261D01*
X122657785Y-103619261D02*
X122610166Y-103428785D01*
X122610166Y-103428785D02*
X122610166Y-103095452D01*
X122610166Y-103095452D02*
X122657785Y-102904976D01*
X122657785Y-102904976D02*
X122753023Y-102809738D01*
X122753023Y-102809738D02*
X122848261Y-102762119D01*
X124229213Y-103762119D02*
X123657785Y-103762119D01*
X123943499Y-103762119D02*
X123943499Y-102762119D01*
X123943499Y-102762119D02*
X123848261Y-102904976D01*
X123848261Y-102904976D02*
X123753023Y-103000214D01*
X123753023Y-103000214D02*
X123657785Y-103047833D01*
X125181594Y-103762119D02*
X124610166Y-103762119D01*
X124895880Y-103762119D02*
X124895880Y-102762119D01*
X124895880Y-102762119D02*
X124800642Y-102904976D01*
X124800642Y-102904976D02*
X124705404Y-103000214D01*
X124705404Y-103000214D02*
X124610166Y-103047833D01*
X120657785Y-105302119D02*
X120181595Y-105302119D01*
X120181595Y-105302119D02*
X120133976Y-105778309D01*
X120133976Y-105778309D02*
X120181595Y-105730690D01*
X120181595Y-105730690D02*
X120276833Y-105683071D01*
X120276833Y-105683071D02*
X120514928Y-105683071D01*
X120514928Y-105683071D02*
X120610166Y-105730690D01*
X120610166Y-105730690D02*
X120657785Y-105778309D01*
X120657785Y-105778309D02*
X120705404Y-105873547D01*
X120705404Y-105873547D02*
X120705404Y-106111642D01*
X120705404Y-106111642D02*
X120657785Y-106206880D01*
X120657785Y-106206880D02*
X120610166Y-106254500D01*
X120610166Y-106254500D02*
X120514928Y-106302119D01*
X120514928Y-106302119D02*
X120276833Y-106302119D01*
X120276833Y-106302119D02*
X120181595Y-106254500D01*
X120181595Y-106254500D02*
X120133976Y-106206880D01*
X120991119Y-105302119D02*
X121324452Y-106302119D01*
X121324452Y-106302119D02*
X121657785Y-105302119D01*
X139501404Y-105603738D02*
X139406166Y-105556119D01*
X139406166Y-105556119D02*
X139263309Y-105556119D01*
X139263309Y-105556119D02*
X139120452Y-105603738D01*
X139120452Y-105603738D02*
X139025214Y-105698976D01*
X139025214Y-105698976D02*
X138977595Y-105794214D01*
X138977595Y-105794214D02*
X138929976Y-105984690D01*
X138929976Y-105984690D02*
X138929976Y-106127547D01*
X138929976Y-106127547D02*
X138977595Y-106318023D01*
X138977595Y-106318023D02*
X139025214Y-106413261D01*
X139025214Y-106413261D02*
X139120452Y-106508500D01*
X139120452Y-106508500D02*
X139263309Y-106556119D01*
X139263309Y-106556119D02*
X139358547Y-106556119D01*
X139358547Y-106556119D02*
X139501404Y-106508500D01*
X139501404Y-106508500D02*
X139549023Y-106460880D01*
X139549023Y-106460880D02*
X139549023Y-106127547D01*
X139549023Y-106127547D02*
X139358547Y-106127547D01*
X139977595Y-106556119D02*
X139977595Y-105556119D01*
X139977595Y-105556119D02*
X140358547Y-105556119D01*
X140358547Y-105556119D02*
X140453785Y-105603738D01*
X140453785Y-105603738D02*
X140501404Y-105651357D01*
X140501404Y-105651357D02*
X140549023Y-105746595D01*
X140549023Y-105746595D02*
X140549023Y-105889452D01*
X140549023Y-105889452D02*
X140501404Y-105984690D01*
X140501404Y-105984690D02*
X140453785Y-106032309D01*
X140453785Y-106032309D02*
X140358547Y-106079928D01*
X140358547Y-106079928D02*
X139977595Y-106079928D01*
X140977595Y-106556119D02*
X140977595Y-105556119D01*
X141644261Y-105556119D02*
X141834737Y-105556119D01*
X141834737Y-105556119D02*
X141929975Y-105603738D01*
X141929975Y-105603738D02*
X142025213Y-105698976D01*
X142025213Y-105698976D02*
X142072832Y-105889452D01*
X142072832Y-105889452D02*
X142072832Y-106222785D01*
X142072832Y-106222785D02*
X142025213Y-106413261D01*
X142025213Y-106413261D02*
X141929975Y-106508500D01*
X141929975Y-106508500D02*
X141834737Y-106556119D01*
X141834737Y-106556119D02*
X141644261Y-106556119D01*
X141644261Y-106556119D02*
X141549023Y-106508500D01*
X141549023Y-106508500D02*
X141453785Y-106413261D01*
X141453785Y-106413261D02*
X141406166Y-106222785D01*
X141406166Y-106222785D02*
X141406166Y-105889452D01*
X141406166Y-105889452D02*
X141453785Y-105698976D01*
X141453785Y-105698976D02*
X141549023Y-105603738D01*
X141549023Y-105603738D02*
X141644261Y-105556119D01*
X142929975Y-105556119D02*
X142739499Y-105556119D01*
X142739499Y-105556119D02*
X142644261Y-105603738D01*
X142644261Y-105603738D02*
X142596642Y-105651357D01*
X142596642Y-105651357D02*
X142501404Y-105794214D01*
X142501404Y-105794214D02*
X142453785Y-105984690D01*
X142453785Y-105984690D02*
X142453785Y-106365642D01*
X142453785Y-106365642D02*
X142501404Y-106460880D01*
X142501404Y-106460880D02*
X142549023Y-106508500D01*
X142549023Y-106508500D02*
X142644261Y-106556119D01*
X142644261Y-106556119D02*
X142834737Y-106556119D01*
X142834737Y-106556119D02*
X142929975Y-106508500D01*
X142929975Y-106508500D02*
X142977594Y-106460880D01*
X142977594Y-106460880D02*
X143025213Y-106365642D01*
X143025213Y-106365642D02*
X143025213Y-106127547D01*
X143025213Y-106127547D02*
X142977594Y-106032309D01*
X142977594Y-106032309D02*
X142929975Y-105984690D01*
X142929975Y-105984690D02*
X142834737Y-105937071D01*
X142834737Y-105937071D02*
X142644261Y-105937071D01*
X142644261Y-105937071D02*
X142549023Y-105984690D01*
X142549023Y-105984690D02*
X142501404Y-106032309D01*
X142501404Y-106032309D02*
X142453785Y-106127547D01*
X139501404Y-103063738D02*
X139406166Y-103016119D01*
X139406166Y-103016119D02*
X139263309Y-103016119D01*
X139263309Y-103016119D02*
X139120452Y-103063738D01*
X139120452Y-103063738D02*
X139025214Y-103158976D01*
X139025214Y-103158976D02*
X138977595Y-103254214D01*
X138977595Y-103254214D02*
X138929976Y-103444690D01*
X138929976Y-103444690D02*
X138929976Y-103587547D01*
X138929976Y-103587547D02*
X138977595Y-103778023D01*
X138977595Y-103778023D02*
X139025214Y-103873261D01*
X139025214Y-103873261D02*
X139120452Y-103968500D01*
X139120452Y-103968500D02*
X139263309Y-104016119D01*
X139263309Y-104016119D02*
X139358547Y-104016119D01*
X139358547Y-104016119D02*
X139501404Y-103968500D01*
X139501404Y-103968500D02*
X139549023Y-103920880D01*
X139549023Y-103920880D02*
X139549023Y-103587547D01*
X139549023Y-103587547D02*
X139358547Y-103587547D01*
X139977595Y-104016119D02*
X139977595Y-103016119D01*
X139977595Y-103016119D02*
X140358547Y-103016119D01*
X140358547Y-103016119D02*
X140453785Y-103063738D01*
X140453785Y-103063738D02*
X140501404Y-103111357D01*
X140501404Y-103111357D02*
X140549023Y-103206595D01*
X140549023Y-103206595D02*
X140549023Y-103349452D01*
X140549023Y-103349452D02*
X140501404Y-103444690D01*
X140501404Y-103444690D02*
X140453785Y-103492309D01*
X140453785Y-103492309D02*
X140358547Y-103539928D01*
X140358547Y-103539928D02*
X139977595Y-103539928D01*
X140977595Y-104016119D02*
X140977595Y-103016119D01*
X141644261Y-103016119D02*
X141834737Y-103016119D01*
X141834737Y-103016119D02*
X141929975Y-103063738D01*
X141929975Y-103063738D02*
X142025213Y-103158976D01*
X142025213Y-103158976D02*
X142072832Y-103349452D01*
X142072832Y-103349452D02*
X142072832Y-103682785D01*
X142072832Y-103682785D02*
X142025213Y-103873261D01*
X142025213Y-103873261D02*
X141929975Y-103968500D01*
X141929975Y-103968500D02*
X141834737Y-104016119D01*
X141834737Y-104016119D02*
X141644261Y-104016119D01*
X141644261Y-104016119D02*
X141549023Y-103968500D01*
X141549023Y-103968500D02*
X141453785Y-103873261D01*
X141453785Y-103873261D02*
X141406166Y-103682785D01*
X141406166Y-103682785D02*
X141406166Y-103349452D01*
X141406166Y-103349452D02*
X141453785Y-103158976D01*
X141453785Y-103158976D02*
X141549023Y-103063738D01*
X141549023Y-103063738D02*
X141644261Y-103016119D01*
X142406166Y-103016119D02*
X143072832Y-103016119D01*
X143072832Y-103016119D02*
X142644261Y-104016119D01*
X139501404Y-100523738D02*
X139406166Y-100476119D01*
X139406166Y-100476119D02*
X139263309Y-100476119D01*
X139263309Y-100476119D02*
X139120452Y-100523738D01*
X139120452Y-100523738D02*
X139025214Y-100618976D01*
X139025214Y-100618976D02*
X138977595Y-100714214D01*
X138977595Y-100714214D02*
X138929976Y-100904690D01*
X138929976Y-100904690D02*
X138929976Y-101047547D01*
X138929976Y-101047547D02*
X138977595Y-101238023D01*
X138977595Y-101238023D02*
X139025214Y-101333261D01*
X139025214Y-101333261D02*
X139120452Y-101428500D01*
X139120452Y-101428500D02*
X139263309Y-101476119D01*
X139263309Y-101476119D02*
X139358547Y-101476119D01*
X139358547Y-101476119D02*
X139501404Y-101428500D01*
X139501404Y-101428500D02*
X139549023Y-101380880D01*
X139549023Y-101380880D02*
X139549023Y-101047547D01*
X139549023Y-101047547D02*
X139358547Y-101047547D01*
X139977595Y-101476119D02*
X139977595Y-100476119D01*
X139977595Y-100476119D02*
X140358547Y-100476119D01*
X140358547Y-100476119D02*
X140453785Y-100523738D01*
X140453785Y-100523738D02*
X140501404Y-100571357D01*
X140501404Y-100571357D02*
X140549023Y-100666595D01*
X140549023Y-100666595D02*
X140549023Y-100809452D01*
X140549023Y-100809452D02*
X140501404Y-100904690D01*
X140501404Y-100904690D02*
X140453785Y-100952309D01*
X140453785Y-100952309D02*
X140358547Y-100999928D01*
X140358547Y-100999928D02*
X139977595Y-100999928D01*
X140977595Y-101476119D02*
X140977595Y-100476119D01*
X141644261Y-100476119D02*
X141834737Y-100476119D01*
X141834737Y-100476119D02*
X141929975Y-100523738D01*
X141929975Y-100523738D02*
X142025213Y-100618976D01*
X142025213Y-100618976D02*
X142072832Y-100809452D01*
X142072832Y-100809452D02*
X142072832Y-101142785D01*
X142072832Y-101142785D02*
X142025213Y-101333261D01*
X142025213Y-101333261D02*
X141929975Y-101428500D01*
X141929975Y-101428500D02*
X141834737Y-101476119D01*
X141834737Y-101476119D02*
X141644261Y-101476119D01*
X141644261Y-101476119D02*
X141549023Y-101428500D01*
X141549023Y-101428500D02*
X141453785Y-101333261D01*
X141453785Y-101333261D02*
X141406166Y-101142785D01*
X141406166Y-101142785D02*
X141406166Y-100809452D01*
X141406166Y-100809452D02*
X141453785Y-100618976D01*
X141453785Y-100618976D02*
X141549023Y-100523738D01*
X141549023Y-100523738D02*
X141644261Y-100476119D01*
X142644261Y-100904690D02*
X142549023Y-100857071D01*
X142549023Y-100857071D02*
X142501404Y-100809452D01*
X142501404Y-100809452D02*
X142453785Y-100714214D01*
X142453785Y-100714214D02*
X142453785Y-100666595D01*
X142453785Y-100666595D02*
X142501404Y-100571357D01*
X142501404Y-100571357D02*
X142549023Y-100523738D01*
X142549023Y-100523738D02*
X142644261Y-100476119D01*
X142644261Y-100476119D02*
X142834737Y-100476119D01*
X142834737Y-100476119D02*
X142929975Y-100523738D01*
X142929975Y-100523738D02*
X142977594Y-100571357D01*
X142977594Y-100571357D02*
X143025213Y-100666595D01*
X143025213Y-100666595D02*
X143025213Y-100714214D01*
X143025213Y-100714214D02*
X142977594Y-100809452D01*
X142977594Y-100809452D02*
X142929975Y-100857071D01*
X142929975Y-100857071D02*
X142834737Y-100904690D01*
X142834737Y-100904690D02*
X142644261Y-100904690D01*
X142644261Y-100904690D02*
X142549023Y-100952309D01*
X142549023Y-100952309D02*
X142501404Y-100999928D01*
X142501404Y-100999928D02*
X142453785Y-101095166D01*
X142453785Y-101095166D02*
X142453785Y-101285642D01*
X142453785Y-101285642D02*
X142501404Y-101380880D01*
X142501404Y-101380880D02*
X142549023Y-101428500D01*
X142549023Y-101428500D02*
X142644261Y-101476119D01*
X142644261Y-101476119D02*
X142834737Y-101476119D01*
X142834737Y-101476119D02*
X142929975Y-101428500D01*
X142929975Y-101428500D02*
X142977594Y-101380880D01*
X142977594Y-101380880D02*
X143025213Y-101285642D01*
X143025213Y-101285642D02*
X143025213Y-101095166D01*
X143025213Y-101095166D02*
X142977594Y-100999928D01*
X142977594Y-100999928D02*
X142929975Y-100952309D01*
X142929975Y-100952309D02*
X142834737Y-100904690D01*
X138485404Y-97983738D02*
X138390166Y-97936119D01*
X138390166Y-97936119D02*
X138247309Y-97936119D01*
X138247309Y-97936119D02*
X138104452Y-97983738D01*
X138104452Y-97983738D02*
X138009214Y-98078976D01*
X138009214Y-98078976D02*
X137961595Y-98174214D01*
X137961595Y-98174214D02*
X137913976Y-98364690D01*
X137913976Y-98364690D02*
X137913976Y-98507547D01*
X137913976Y-98507547D02*
X137961595Y-98698023D01*
X137961595Y-98698023D02*
X138009214Y-98793261D01*
X138009214Y-98793261D02*
X138104452Y-98888500D01*
X138104452Y-98888500D02*
X138247309Y-98936119D01*
X138247309Y-98936119D02*
X138342547Y-98936119D01*
X138342547Y-98936119D02*
X138485404Y-98888500D01*
X138485404Y-98888500D02*
X138533023Y-98840880D01*
X138533023Y-98840880D02*
X138533023Y-98507547D01*
X138533023Y-98507547D02*
X138342547Y-98507547D01*
X138961595Y-98936119D02*
X138961595Y-97936119D01*
X138961595Y-97936119D02*
X139342547Y-97936119D01*
X139342547Y-97936119D02*
X139437785Y-97983738D01*
X139437785Y-97983738D02*
X139485404Y-98031357D01*
X139485404Y-98031357D02*
X139533023Y-98126595D01*
X139533023Y-98126595D02*
X139533023Y-98269452D01*
X139533023Y-98269452D02*
X139485404Y-98364690D01*
X139485404Y-98364690D02*
X139437785Y-98412309D01*
X139437785Y-98412309D02*
X139342547Y-98459928D01*
X139342547Y-98459928D02*
X138961595Y-98459928D01*
X139961595Y-98936119D02*
X139961595Y-97936119D01*
X140628261Y-97936119D02*
X140818737Y-97936119D01*
X140818737Y-97936119D02*
X140913975Y-97983738D01*
X140913975Y-97983738D02*
X141009213Y-98078976D01*
X141009213Y-98078976D02*
X141056832Y-98269452D01*
X141056832Y-98269452D02*
X141056832Y-98602785D01*
X141056832Y-98602785D02*
X141009213Y-98793261D01*
X141009213Y-98793261D02*
X140913975Y-98888500D01*
X140913975Y-98888500D02*
X140818737Y-98936119D01*
X140818737Y-98936119D02*
X140628261Y-98936119D01*
X140628261Y-98936119D02*
X140533023Y-98888500D01*
X140533023Y-98888500D02*
X140437785Y-98793261D01*
X140437785Y-98793261D02*
X140390166Y-98602785D01*
X140390166Y-98602785D02*
X140390166Y-98269452D01*
X140390166Y-98269452D02*
X140437785Y-98078976D01*
X140437785Y-98078976D02*
X140533023Y-97983738D01*
X140533023Y-97983738D02*
X140628261Y-97936119D01*
X142009213Y-98936119D02*
X141437785Y-98936119D01*
X141723499Y-98936119D02*
X141723499Y-97936119D01*
X141723499Y-97936119D02*
X141628261Y-98078976D01*
X141628261Y-98078976D02*
X141533023Y-98174214D01*
X141533023Y-98174214D02*
X141437785Y-98221833D01*
X142913975Y-97936119D02*
X142437785Y-97936119D01*
X142437785Y-97936119D02*
X142390166Y-98412309D01*
X142390166Y-98412309D02*
X142437785Y-98364690D01*
X142437785Y-98364690D02*
X142533023Y-98317071D01*
X142533023Y-98317071D02*
X142771118Y-98317071D01*
X142771118Y-98317071D02*
X142866356Y-98364690D01*
X142866356Y-98364690D02*
X142913975Y-98412309D01*
X142913975Y-98412309D02*
X142961594Y-98507547D01*
X142961594Y-98507547D02*
X142961594Y-98745642D01*
X142961594Y-98745642D02*
X142913975Y-98840880D01*
X142913975Y-98840880D02*
X142866356Y-98888500D01*
X142866356Y-98888500D02*
X142771118Y-98936119D01*
X142771118Y-98936119D02*
X142533023Y-98936119D01*
X142533023Y-98936119D02*
X142437785Y-98888500D01*
X142437785Y-98888500D02*
X142390166Y-98840880D01*
X139501404Y-95443738D02*
X139406166Y-95396119D01*
X139406166Y-95396119D02*
X139263309Y-95396119D01*
X139263309Y-95396119D02*
X139120452Y-95443738D01*
X139120452Y-95443738D02*
X139025214Y-95538976D01*
X139025214Y-95538976D02*
X138977595Y-95634214D01*
X138977595Y-95634214D02*
X138929976Y-95824690D01*
X138929976Y-95824690D02*
X138929976Y-95967547D01*
X138929976Y-95967547D02*
X138977595Y-96158023D01*
X138977595Y-96158023D02*
X139025214Y-96253261D01*
X139025214Y-96253261D02*
X139120452Y-96348500D01*
X139120452Y-96348500D02*
X139263309Y-96396119D01*
X139263309Y-96396119D02*
X139358547Y-96396119D01*
X139358547Y-96396119D02*
X139501404Y-96348500D01*
X139501404Y-96348500D02*
X139549023Y-96300880D01*
X139549023Y-96300880D02*
X139549023Y-95967547D01*
X139549023Y-95967547D02*
X139358547Y-95967547D01*
X139977595Y-96396119D02*
X139977595Y-95396119D01*
X139977595Y-95396119D02*
X140358547Y-95396119D01*
X140358547Y-95396119D02*
X140453785Y-95443738D01*
X140453785Y-95443738D02*
X140501404Y-95491357D01*
X140501404Y-95491357D02*
X140549023Y-95586595D01*
X140549023Y-95586595D02*
X140549023Y-95729452D01*
X140549023Y-95729452D02*
X140501404Y-95824690D01*
X140501404Y-95824690D02*
X140453785Y-95872309D01*
X140453785Y-95872309D02*
X140358547Y-95919928D01*
X140358547Y-95919928D02*
X139977595Y-95919928D01*
X140977595Y-96396119D02*
X140977595Y-95396119D01*
X141644261Y-95396119D02*
X141834737Y-95396119D01*
X141834737Y-95396119D02*
X141929975Y-95443738D01*
X141929975Y-95443738D02*
X142025213Y-95538976D01*
X142025213Y-95538976D02*
X142072832Y-95729452D01*
X142072832Y-95729452D02*
X142072832Y-96062785D01*
X142072832Y-96062785D02*
X142025213Y-96253261D01*
X142025213Y-96253261D02*
X141929975Y-96348500D01*
X141929975Y-96348500D02*
X141834737Y-96396119D01*
X141834737Y-96396119D02*
X141644261Y-96396119D01*
X141644261Y-96396119D02*
X141549023Y-96348500D01*
X141549023Y-96348500D02*
X141453785Y-96253261D01*
X141453785Y-96253261D02*
X141406166Y-96062785D01*
X141406166Y-96062785D02*
X141406166Y-95729452D01*
X141406166Y-95729452D02*
X141453785Y-95538976D01*
X141453785Y-95538976D02*
X141549023Y-95443738D01*
X141549023Y-95443738D02*
X141644261Y-95396119D01*
X142453785Y-95491357D02*
X142501404Y-95443738D01*
X142501404Y-95443738D02*
X142596642Y-95396119D01*
X142596642Y-95396119D02*
X142834737Y-95396119D01*
X142834737Y-95396119D02*
X142929975Y-95443738D01*
X142929975Y-95443738D02*
X142977594Y-95491357D01*
X142977594Y-95491357D02*
X143025213Y-95586595D01*
X143025213Y-95586595D02*
X143025213Y-95681833D01*
X143025213Y-95681833D02*
X142977594Y-95824690D01*
X142977594Y-95824690D02*
X142406166Y-96396119D01*
X142406166Y-96396119D02*
X143025213Y-96396119D01*
X139501404Y-92649738D02*
X139406166Y-92602119D01*
X139406166Y-92602119D02*
X139263309Y-92602119D01*
X139263309Y-92602119D02*
X139120452Y-92649738D01*
X139120452Y-92649738D02*
X139025214Y-92744976D01*
X139025214Y-92744976D02*
X138977595Y-92840214D01*
X138977595Y-92840214D02*
X138929976Y-93030690D01*
X138929976Y-93030690D02*
X138929976Y-93173547D01*
X138929976Y-93173547D02*
X138977595Y-93364023D01*
X138977595Y-93364023D02*
X139025214Y-93459261D01*
X139025214Y-93459261D02*
X139120452Y-93554500D01*
X139120452Y-93554500D02*
X139263309Y-93602119D01*
X139263309Y-93602119D02*
X139358547Y-93602119D01*
X139358547Y-93602119D02*
X139501404Y-93554500D01*
X139501404Y-93554500D02*
X139549023Y-93506880D01*
X139549023Y-93506880D02*
X139549023Y-93173547D01*
X139549023Y-93173547D02*
X139358547Y-93173547D01*
X139977595Y-93602119D02*
X139977595Y-92602119D01*
X139977595Y-92602119D02*
X140358547Y-92602119D01*
X140358547Y-92602119D02*
X140453785Y-92649738D01*
X140453785Y-92649738D02*
X140501404Y-92697357D01*
X140501404Y-92697357D02*
X140549023Y-92792595D01*
X140549023Y-92792595D02*
X140549023Y-92935452D01*
X140549023Y-92935452D02*
X140501404Y-93030690D01*
X140501404Y-93030690D02*
X140453785Y-93078309D01*
X140453785Y-93078309D02*
X140358547Y-93125928D01*
X140358547Y-93125928D02*
X139977595Y-93125928D01*
X140977595Y-93602119D02*
X140977595Y-92602119D01*
X141644261Y-92602119D02*
X141834737Y-92602119D01*
X141834737Y-92602119D02*
X141929975Y-92649738D01*
X141929975Y-92649738D02*
X142025213Y-92744976D01*
X142025213Y-92744976D02*
X142072832Y-92935452D01*
X142072832Y-92935452D02*
X142072832Y-93268785D01*
X142072832Y-93268785D02*
X142025213Y-93459261D01*
X142025213Y-93459261D02*
X141929975Y-93554500D01*
X141929975Y-93554500D02*
X141834737Y-93602119D01*
X141834737Y-93602119D02*
X141644261Y-93602119D01*
X141644261Y-93602119D02*
X141549023Y-93554500D01*
X141549023Y-93554500D02*
X141453785Y-93459261D01*
X141453785Y-93459261D02*
X141406166Y-93268785D01*
X141406166Y-93268785D02*
X141406166Y-92935452D01*
X141406166Y-92935452D02*
X141453785Y-92744976D01*
X141453785Y-92744976D02*
X141549023Y-92649738D01*
X141549023Y-92649738D02*
X141644261Y-92602119D01*
X142691880Y-92602119D02*
X142787118Y-92602119D01*
X142787118Y-92602119D02*
X142882356Y-92649738D01*
X142882356Y-92649738D02*
X142929975Y-92697357D01*
X142929975Y-92697357D02*
X142977594Y-92792595D01*
X142977594Y-92792595D02*
X143025213Y-92983071D01*
X143025213Y-92983071D02*
X143025213Y-93221166D01*
X143025213Y-93221166D02*
X142977594Y-93411642D01*
X142977594Y-93411642D02*
X142929975Y-93506880D01*
X142929975Y-93506880D02*
X142882356Y-93554500D01*
X142882356Y-93554500D02*
X142787118Y-93602119D01*
X142787118Y-93602119D02*
X142691880Y-93602119D01*
X142691880Y-93602119D02*
X142596642Y-93554500D01*
X142596642Y-93554500D02*
X142549023Y-93506880D01*
X142549023Y-93506880D02*
X142501404Y-93411642D01*
X142501404Y-93411642D02*
X142453785Y-93221166D01*
X142453785Y-93221166D02*
X142453785Y-92983071D01*
X142453785Y-92983071D02*
X142501404Y-92792595D01*
X142501404Y-92792595D02*
X142549023Y-92697357D01*
X142549023Y-92697357D02*
X142596642Y-92649738D01*
X142596642Y-92649738D02*
X142691880Y-92602119D01*
X139501404Y-90109738D02*
X139406166Y-90062119D01*
X139406166Y-90062119D02*
X139263309Y-90062119D01*
X139263309Y-90062119D02*
X139120452Y-90109738D01*
X139120452Y-90109738D02*
X139025214Y-90204976D01*
X139025214Y-90204976D02*
X138977595Y-90300214D01*
X138977595Y-90300214D02*
X138929976Y-90490690D01*
X138929976Y-90490690D02*
X138929976Y-90633547D01*
X138929976Y-90633547D02*
X138977595Y-90824023D01*
X138977595Y-90824023D02*
X139025214Y-90919261D01*
X139025214Y-90919261D02*
X139120452Y-91014500D01*
X139120452Y-91014500D02*
X139263309Y-91062119D01*
X139263309Y-91062119D02*
X139358547Y-91062119D01*
X139358547Y-91062119D02*
X139501404Y-91014500D01*
X139501404Y-91014500D02*
X139549023Y-90966880D01*
X139549023Y-90966880D02*
X139549023Y-90633547D01*
X139549023Y-90633547D02*
X139358547Y-90633547D01*
X139977595Y-91062119D02*
X139977595Y-90062119D01*
X139977595Y-90062119D02*
X140358547Y-90062119D01*
X140358547Y-90062119D02*
X140453785Y-90109738D01*
X140453785Y-90109738D02*
X140501404Y-90157357D01*
X140501404Y-90157357D02*
X140549023Y-90252595D01*
X140549023Y-90252595D02*
X140549023Y-90395452D01*
X140549023Y-90395452D02*
X140501404Y-90490690D01*
X140501404Y-90490690D02*
X140453785Y-90538309D01*
X140453785Y-90538309D02*
X140358547Y-90585928D01*
X140358547Y-90585928D02*
X139977595Y-90585928D01*
X140977595Y-91062119D02*
X140977595Y-90062119D01*
X141644261Y-90062119D02*
X141834737Y-90062119D01*
X141834737Y-90062119D02*
X141929975Y-90109738D01*
X141929975Y-90109738D02*
X142025213Y-90204976D01*
X142025213Y-90204976D02*
X142072832Y-90395452D01*
X142072832Y-90395452D02*
X142072832Y-90728785D01*
X142072832Y-90728785D02*
X142025213Y-90919261D01*
X142025213Y-90919261D02*
X141929975Y-91014500D01*
X141929975Y-91014500D02*
X141834737Y-91062119D01*
X141834737Y-91062119D02*
X141644261Y-91062119D01*
X141644261Y-91062119D02*
X141549023Y-91014500D01*
X141549023Y-91014500D02*
X141453785Y-90919261D01*
X141453785Y-90919261D02*
X141406166Y-90728785D01*
X141406166Y-90728785D02*
X141406166Y-90395452D01*
X141406166Y-90395452D02*
X141453785Y-90204976D01*
X141453785Y-90204976D02*
X141549023Y-90109738D01*
X141549023Y-90109738D02*
X141644261Y-90062119D01*
X142929975Y-90395452D02*
X142929975Y-91062119D01*
X142691880Y-90014500D02*
X142453785Y-90728785D01*
X142453785Y-90728785D02*
X143072832Y-90728785D01*
X138485404Y-87569738D02*
X138390166Y-87522119D01*
X138390166Y-87522119D02*
X138247309Y-87522119D01*
X138247309Y-87522119D02*
X138104452Y-87569738D01*
X138104452Y-87569738D02*
X138009214Y-87664976D01*
X138009214Y-87664976D02*
X137961595Y-87760214D01*
X137961595Y-87760214D02*
X137913976Y-87950690D01*
X137913976Y-87950690D02*
X137913976Y-88093547D01*
X137913976Y-88093547D02*
X137961595Y-88284023D01*
X137961595Y-88284023D02*
X138009214Y-88379261D01*
X138009214Y-88379261D02*
X138104452Y-88474500D01*
X138104452Y-88474500D02*
X138247309Y-88522119D01*
X138247309Y-88522119D02*
X138342547Y-88522119D01*
X138342547Y-88522119D02*
X138485404Y-88474500D01*
X138485404Y-88474500D02*
X138533023Y-88426880D01*
X138533023Y-88426880D02*
X138533023Y-88093547D01*
X138533023Y-88093547D02*
X138342547Y-88093547D01*
X138961595Y-88522119D02*
X138961595Y-87522119D01*
X138961595Y-87522119D02*
X139342547Y-87522119D01*
X139342547Y-87522119D02*
X139437785Y-87569738D01*
X139437785Y-87569738D02*
X139485404Y-87617357D01*
X139485404Y-87617357D02*
X139533023Y-87712595D01*
X139533023Y-87712595D02*
X139533023Y-87855452D01*
X139533023Y-87855452D02*
X139485404Y-87950690D01*
X139485404Y-87950690D02*
X139437785Y-87998309D01*
X139437785Y-87998309D02*
X139342547Y-88045928D01*
X139342547Y-88045928D02*
X138961595Y-88045928D01*
X139961595Y-88522119D02*
X139961595Y-87522119D01*
X140628261Y-87522119D02*
X140818737Y-87522119D01*
X140818737Y-87522119D02*
X140913975Y-87569738D01*
X140913975Y-87569738D02*
X141009213Y-87664976D01*
X141009213Y-87664976D02*
X141056832Y-87855452D01*
X141056832Y-87855452D02*
X141056832Y-88188785D01*
X141056832Y-88188785D02*
X141009213Y-88379261D01*
X141009213Y-88379261D02*
X140913975Y-88474500D01*
X140913975Y-88474500D02*
X140818737Y-88522119D01*
X140818737Y-88522119D02*
X140628261Y-88522119D01*
X140628261Y-88522119D02*
X140533023Y-88474500D01*
X140533023Y-88474500D02*
X140437785Y-88379261D01*
X140437785Y-88379261D02*
X140390166Y-88188785D01*
X140390166Y-88188785D02*
X140390166Y-87855452D01*
X140390166Y-87855452D02*
X140437785Y-87664976D01*
X140437785Y-87664976D02*
X140533023Y-87569738D01*
X140533023Y-87569738D02*
X140628261Y-87522119D01*
X142009213Y-88522119D02*
X141437785Y-88522119D01*
X141723499Y-88522119D02*
X141723499Y-87522119D01*
X141723499Y-87522119D02*
X141628261Y-87664976D01*
X141628261Y-87664976D02*
X141533023Y-87760214D01*
X141533023Y-87760214D02*
X141437785Y-87807833D01*
X142866356Y-87522119D02*
X142675880Y-87522119D01*
X142675880Y-87522119D02*
X142580642Y-87569738D01*
X142580642Y-87569738D02*
X142533023Y-87617357D01*
X142533023Y-87617357D02*
X142437785Y-87760214D01*
X142437785Y-87760214D02*
X142390166Y-87950690D01*
X142390166Y-87950690D02*
X142390166Y-88331642D01*
X142390166Y-88331642D02*
X142437785Y-88426880D01*
X142437785Y-88426880D02*
X142485404Y-88474500D01*
X142485404Y-88474500D02*
X142580642Y-88522119D01*
X142580642Y-88522119D02*
X142771118Y-88522119D01*
X142771118Y-88522119D02*
X142866356Y-88474500D01*
X142866356Y-88474500D02*
X142913975Y-88426880D01*
X142913975Y-88426880D02*
X142961594Y-88331642D01*
X142961594Y-88331642D02*
X142961594Y-88093547D01*
X142961594Y-88093547D02*
X142913975Y-87998309D01*
X142913975Y-87998309D02*
X142866356Y-87950690D01*
X142866356Y-87950690D02*
X142771118Y-87903071D01*
X142771118Y-87903071D02*
X142580642Y-87903071D01*
X142580642Y-87903071D02*
X142485404Y-87950690D01*
X142485404Y-87950690D02*
X142437785Y-87998309D01*
X142437785Y-87998309D02*
X142390166Y-88093547D01*
X138485404Y-85029738D02*
X138390166Y-84982119D01*
X138390166Y-84982119D02*
X138247309Y-84982119D01*
X138247309Y-84982119D02*
X138104452Y-85029738D01*
X138104452Y-85029738D02*
X138009214Y-85124976D01*
X138009214Y-85124976D02*
X137961595Y-85220214D01*
X137961595Y-85220214D02*
X137913976Y-85410690D01*
X137913976Y-85410690D02*
X137913976Y-85553547D01*
X137913976Y-85553547D02*
X137961595Y-85744023D01*
X137961595Y-85744023D02*
X138009214Y-85839261D01*
X138009214Y-85839261D02*
X138104452Y-85934500D01*
X138104452Y-85934500D02*
X138247309Y-85982119D01*
X138247309Y-85982119D02*
X138342547Y-85982119D01*
X138342547Y-85982119D02*
X138485404Y-85934500D01*
X138485404Y-85934500D02*
X138533023Y-85886880D01*
X138533023Y-85886880D02*
X138533023Y-85553547D01*
X138533023Y-85553547D02*
X138342547Y-85553547D01*
X138961595Y-85982119D02*
X138961595Y-84982119D01*
X138961595Y-84982119D02*
X139342547Y-84982119D01*
X139342547Y-84982119D02*
X139437785Y-85029738D01*
X139437785Y-85029738D02*
X139485404Y-85077357D01*
X139485404Y-85077357D02*
X139533023Y-85172595D01*
X139533023Y-85172595D02*
X139533023Y-85315452D01*
X139533023Y-85315452D02*
X139485404Y-85410690D01*
X139485404Y-85410690D02*
X139437785Y-85458309D01*
X139437785Y-85458309D02*
X139342547Y-85505928D01*
X139342547Y-85505928D02*
X138961595Y-85505928D01*
X139961595Y-85982119D02*
X139961595Y-84982119D01*
X140628261Y-84982119D02*
X140818737Y-84982119D01*
X140818737Y-84982119D02*
X140913975Y-85029738D01*
X140913975Y-85029738D02*
X141009213Y-85124976D01*
X141009213Y-85124976D02*
X141056832Y-85315452D01*
X141056832Y-85315452D02*
X141056832Y-85648785D01*
X141056832Y-85648785D02*
X141009213Y-85839261D01*
X141009213Y-85839261D02*
X140913975Y-85934500D01*
X140913975Y-85934500D02*
X140818737Y-85982119D01*
X140818737Y-85982119D02*
X140628261Y-85982119D01*
X140628261Y-85982119D02*
X140533023Y-85934500D01*
X140533023Y-85934500D02*
X140437785Y-85839261D01*
X140437785Y-85839261D02*
X140390166Y-85648785D01*
X140390166Y-85648785D02*
X140390166Y-85315452D01*
X140390166Y-85315452D02*
X140437785Y-85124976D01*
X140437785Y-85124976D02*
X140533023Y-85029738D01*
X140533023Y-85029738D02*
X140628261Y-84982119D01*
X142009213Y-85982119D02*
X141437785Y-85982119D01*
X141723499Y-85982119D02*
X141723499Y-84982119D01*
X141723499Y-84982119D02*
X141628261Y-85124976D01*
X141628261Y-85124976D02*
X141533023Y-85220214D01*
X141533023Y-85220214D02*
X141437785Y-85267833D01*
X142342547Y-84982119D02*
X143009213Y-84982119D01*
X143009213Y-84982119D02*
X142580642Y-85982119D01*
X139501404Y-82489738D02*
X139406166Y-82442119D01*
X139406166Y-82442119D02*
X139263309Y-82442119D01*
X139263309Y-82442119D02*
X139120452Y-82489738D01*
X139120452Y-82489738D02*
X139025214Y-82584976D01*
X139025214Y-82584976D02*
X138977595Y-82680214D01*
X138977595Y-82680214D02*
X138929976Y-82870690D01*
X138929976Y-82870690D02*
X138929976Y-83013547D01*
X138929976Y-83013547D02*
X138977595Y-83204023D01*
X138977595Y-83204023D02*
X139025214Y-83299261D01*
X139025214Y-83299261D02*
X139120452Y-83394500D01*
X139120452Y-83394500D02*
X139263309Y-83442119D01*
X139263309Y-83442119D02*
X139358547Y-83442119D01*
X139358547Y-83442119D02*
X139501404Y-83394500D01*
X139501404Y-83394500D02*
X139549023Y-83346880D01*
X139549023Y-83346880D02*
X139549023Y-83013547D01*
X139549023Y-83013547D02*
X139358547Y-83013547D01*
X139977595Y-83442119D02*
X139977595Y-82442119D01*
X139977595Y-82442119D02*
X140358547Y-82442119D01*
X140358547Y-82442119D02*
X140453785Y-82489738D01*
X140453785Y-82489738D02*
X140501404Y-82537357D01*
X140501404Y-82537357D02*
X140549023Y-82632595D01*
X140549023Y-82632595D02*
X140549023Y-82775452D01*
X140549023Y-82775452D02*
X140501404Y-82870690D01*
X140501404Y-82870690D02*
X140453785Y-82918309D01*
X140453785Y-82918309D02*
X140358547Y-82965928D01*
X140358547Y-82965928D02*
X139977595Y-82965928D01*
X140977595Y-83442119D02*
X140977595Y-82442119D01*
X141644261Y-82442119D02*
X141834737Y-82442119D01*
X141834737Y-82442119D02*
X141929975Y-82489738D01*
X141929975Y-82489738D02*
X142025213Y-82584976D01*
X142025213Y-82584976D02*
X142072832Y-82775452D01*
X142072832Y-82775452D02*
X142072832Y-83108785D01*
X142072832Y-83108785D02*
X142025213Y-83299261D01*
X142025213Y-83299261D02*
X141929975Y-83394500D01*
X141929975Y-83394500D02*
X141834737Y-83442119D01*
X141834737Y-83442119D02*
X141644261Y-83442119D01*
X141644261Y-83442119D02*
X141549023Y-83394500D01*
X141549023Y-83394500D02*
X141453785Y-83299261D01*
X141453785Y-83299261D02*
X141406166Y-83108785D01*
X141406166Y-83108785D02*
X141406166Y-82775452D01*
X141406166Y-82775452D02*
X141453785Y-82584976D01*
X141453785Y-82584976D02*
X141549023Y-82489738D01*
X141549023Y-82489738D02*
X141644261Y-82442119D01*
X142977594Y-82442119D02*
X142501404Y-82442119D01*
X142501404Y-82442119D02*
X142453785Y-82918309D01*
X142453785Y-82918309D02*
X142501404Y-82870690D01*
X142501404Y-82870690D02*
X142596642Y-82823071D01*
X142596642Y-82823071D02*
X142834737Y-82823071D01*
X142834737Y-82823071D02*
X142929975Y-82870690D01*
X142929975Y-82870690D02*
X142977594Y-82918309D01*
X142977594Y-82918309D02*
X143025213Y-83013547D01*
X143025213Y-83013547D02*
X143025213Y-83251642D01*
X143025213Y-83251642D02*
X142977594Y-83346880D01*
X142977594Y-83346880D02*
X142929975Y-83394500D01*
X142929975Y-83394500D02*
X142834737Y-83442119D01*
X142834737Y-83442119D02*
X142596642Y-83442119D01*
X142596642Y-83442119D02*
X142501404Y-83394500D01*
X142501404Y-83394500D02*
X142453785Y-83346880D01*
X138485404Y-79949738D02*
X138390166Y-79902119D01*
X138390166Y-79902119D02*
X138247309Y-79902119D01*
X138247309Y-79902119D02*
X138104452Y-79949738D01*
X138104452Y-79949738D02*
X138009214Y-80044976D01*
X138009214Y-80044976D02*
X137961595Y-80140214D01*
X137961595Y-80140214D02*
X137913976Y-80330690D01*
X137913976Y-80330690D02*
X137913976Y-80473547D01*
X137913976Y-80473547D02*
X137961595Y-80664023D01*
X137961595Y-80664023D02*
X138009214Y-80759261D01*
X138009214Y-80759261D02*
X138104452Y-80854500D01*
X138104452Y-80854500D02*
X138247309Y-80902119D01*
X138247309Y-80902119D02*
X138342547Y-80902119D01*
X138342547Y-80902119D02*
X138485404Y-80854500D01*
X138485404Y-80854500D02*
X138533023Y-80806880D01*
X138533023Y-80806880D02*
X138533023Y-80473547D01*
X138533023Y-80473547D02*
X138342547Y-80473547D01*
X138961595Y-80902119D02*
X138961595Y-79902119D01*
X138961595Y-79902119D02*
X139342547Y-79902119D01*
X139342547Y-79902119D02*
X139437785Y-79949738D01*
X139437785Y-79949738D02*
X139485404Y-79997357D01*
X139485404Y-79997357D02*
X139533023Y-80092595D01*
X139533023Y-80092595D02*
X139533023Y-80235452D01*
X139533023Y-80235452D02*
X139485404Y-80330690D01*
X139485404Y-80330690D02*
X139437785Y-80378309D01*
X139437785Y-80378309D02*
X139342547Y-80425928D01*
X139342547Y-80425928D02*
X138961595Y-80425928D01*
X139961595Y-80902119D02*
X139961595Y-79902119D01*
X140628261Y-79902119D02*
X140818737Y-79902119D01*
X140818737Y-79902119D02*
X140913975Y-79949738D01*
X140913975Y-79949738D02*
X141009213Y-80044976D01*
X141009213Y-80044976D02*
X141056832Y-80235452D01*
X141056832Y-80235452D02*
X141056832Y-80568785D01*
X141056832Y-80568785D02*
X141009213Y-80759261D01*
X141009213Y-80759261D02*
X140913975Y-80854500D01*
X140913975Y-80854500D02*
X140818737Y-80902119D01*
X140818737Y-80902119D02*
X140628261Y-80902119D01*
X140628261Y-80902119D02*
X140533023Y-80854500D01*
X140533023Y-80854500D02*
X140437785Y-80759261D01*
X140437785Y-80759261D02*
X140390166Y-80568785D01*
X140390166Y-80568785D02*
X140390166Y-80235452D01*
X140390166Y-80235452D02*
X140437785Y-80044976D01*
X140437785Y-80044976D02*
X140533023Y-79949738D01*
X140533023Y-79949738D02*
X140628261Y-79902119D01*
X142009213Y-80902119D02*
X141437785Y-80902119D01*
X141723499Y-80902119D02*
X141723499Y-79902119D01*
X141723499Y-79902119D02*
X141628261Y-80044976D01*
X141628261Y-80044976D02*
X141533023Y-80140214D01*
X141533023Y-80140214D02*
X141437785Y-80187833D01*
X142580642Y-80330690D02*
X142485404Y-80283071D01*
X142485404Y-80283071D02*
X142437785Y-80235452D01*
X142437785Y-80235452D02*
X142390166Y-80140214D01*
X142390166Y-80140214D02*
X142390166Y-80092595D01*
X142390166Y-80092595D02*
X142437785Y-79997357D01*
X142437785Y-79997357D02*
X142485404Y-79949738D01*
X142485404Y-79949738D02*
X142580642Y-79902119D01*
X142580642Y-79902119D02*
X142771118Y-79902119D01*
X142771118Y-79902119D02*
X142866356Y-79949738D01*
X142866356Y-79949738D02*
X142913975Y-79997357D01*
X142913975Y-79997357D02*
X142961594Y-80092595D01*
X142961594Y-80092595D02*
X142961594Y-80140214D01*
X142961594Y-80140214D02*
X142913975Y-80235452D01*
X142913975Y-80235452D02*
X142866356Y-80283071D01*
X142866356Y-80283071D02*
X142771118Y-80330690D01*
X142771118Y-80330690D02*
X142580642Y-80330690D01*
X142580642Y-80330690D02*
X142485404Y-80378309D01*
X142485404Y-80378309D02*
X142437785Y-80425928D01*
X142437785Y-80425928D02*
X142390166Y-80521166D01*
X142390166Y-80521166D02*
X142390166Y-80711642D01*
X142390166Y-80711642D02*
X142437785Y-80806880D01*
X142437785Y-80806880D02*
X142485404Y-80854500D01*
X142485404Y-80854500D02*
X142580642Y-80902119D01*
X142580642Y-80902119D02*
X142771118Y-80902119D01*
X142771118Y-80902119D02*
X142866356Y-80854500D01*
X142866356Y-80854500D02*
X142913975Y-80806880D01*
X142913975Y-80806880D02*
X142961594Y-80711642D01*
X142961594Y-80711642D02*
X142961594Y-80521166D01*
X142961594Y-80521166D02*
X142913975Y-80425928D01*
X142913975Y-80425928D02*
X142866356Y-80378309D01*
X142866356Y-80378309D02*
X142771118Y-80330690D01*
X138485404Y-77409738D02*
X138390166Y-77362119D01*
X138390166Y-77362119D02*
X138247309Y-77362119D01*
X138247309Y-77362119D02*
X138104452Y-77409738D01*
X138104452Y-77409738D02*
X138009214Y-77504976D01*
X138009214Y-77504976D02*
X137961595Y-77600214D01*
X137961595Y-77600214D02*
X137913976Y-77790690D01*
X137913976Y-77790690D02*
X137913976Y-77933547D01*
X137913976Y-77933547D02*
X137961595Y-78124023D01*
X137961595Y-78124023D02*
X138009214Y-78219261D01*
X138009214Y-78219261D02*
X138104452Y-78314500D01*
X138104452Y-78314500D02*
X138247309Y-78362119D01*
X138247309Y-78362119D02*
X138342547Y-78362119D01*
X138342547Y-78362119D02*
X138485404Y-78314500D01*
X138485404Y-78314500D02*
X138533023Y-78266880D01*
X138533023Y-78266880D02*
X138533023Y-77933547D01*
X138533023Y-77933547D02*
X138342547Y-77933547D01*
X138961595Y-78362119D02*
X138961595Y-77362119D01*
X138961595Y-77362119D02*
X139342547Y-77362119D01*
X139342547Y-77362119D02*
X139437785Y-77409738D01*
X139437785Y-77409738D02*
X139485404Y-77457357D01*
X139485404Y-77457357D02*
X139533023Y-77552595D01*
X139533023Y-77552595D02*
X139533023Y-77695452D01*
X139533023Y-77695452D02*
X139485404Y-77790690D01*
X139485404Y-77790690D02*
X139437785Y-77838309D01*
X139437785Y-77838309D02*
X139342547Y-77885928D01*
X139342547Y-77885928D02*
X138961595Y-77885928D01*
X139961595Y-78362119D02*
X139961595Y-77362119D01*
X140628261Y-77362119D02*
X140818737Y-77362119D01*
X140818737Y-77362119D02*
X140913975Y-77409738D01*
X140913975Y-77409738D02*
X141009213Y-77504976D01*
X141009213Y-77504976D02*
X141056832Y-77695452D01*
X141056832Y-77695452D02*
X141056832Y-78028785D01*
X141056832Y-78028785D02*
X141009213Y-78219261D01*
X141009213Y-78219261D02*
X140913975Y-78314500D01*
X140913975Y-78314500D02*
X140818737Y-78362119D01*
X140818737Y-78362119D02*
X140628261Y-78362119D01*
X140628261Y-78362119D02*
X140533023Y-78314500D01*
X140533023Y-78314500D02*
X140437785Y-78219261D01*
X140437785Y-78219261D02*
X140390166Y-78028785D01*
X140390166Y-78028785D02*
X140390166Y-77695452D01*
X140390166Y-77695452D02*
X140437785Y-77504976D01*
X140437785Y-77504976D02*
X140533023Y-77409738D01*
X140533023Y-77409738D02*
X140628261Y-77362119D01*
X142009213Y-78362119D02*
X141437785Y-78362119D01*
X141723499Y-78362119D02*
X141723499Y-77362119D01*
X141723499Y-77362119D02*
X141628261Y-77504976D01*
X141628261Y-77504976D02*
X141533023Y-77600214D01*
X141533023Y-77600214D02*
X141437785Y-77647833D01*
X142485404Y-78362119D02*
X142675880Y-78362119D01*
X142675880Y-78362119D02*
X142771118Y-78314500D01*
X142771118Y-78314500D02*
X142818737Y-78266880D01*
X142818737Y-78266880D02*
X142913975Y-78124023D01*
X142913975Y-78124023D02*
X142961594Y-77933547D01*
X142961594Y-77933547D02*
X142961594Y-77552595D01*
X142961594Y-77552595D02*
X142913975Y-77457357D01*
X142913975Y-77457357D02*
X142866356Y-77409738D01*
X142866356Y-77409738D02*
X142771118Y-77362119D01*
X142771118Y-77362119D02*
X142580642Y-77362119D01*
X142580642Y-77362119D02*
X142485404Y-77409738D01*
X142485404Y-77409738D02*
X142437785Y-77457357D01*
X142437785Y-77457357D02*
X142390166Y-77552595D01*
X142390166Y-77552595D02*
X142390166Y-77790690D01*
X142390166Y-77790690D02*
X142437785Y-77885928D01*
X142437785Y-77885928D02*
X142485404Y-77933547D01*
X142485404Y-77933547D02*
X142580642Y-77981166D01*
X142580642Y-77981166D02*
X142771118Y-77981166D01*
X142771118Y-77981166D02*
X142866356Y-77933547D01*
X142866356Y-77933547D02*
X142913975Y-77885928D01*
X142913975Y-77885928D02*
X142961594Y-77790690D01*
X141025404Y-74869738D02*
X140930166Y-74822119D01*
X140930166Y-74822119D02*
X140787309Y-74822119D01*
X140787309Y-74822119D02*
X140644452Y-74869738D01*
X140644452Y-74869738D02*
X140549214Y-74964976D01*
X140549214Y-74964976D02*
X140501595Y-75060214D01*
X140501595Y-75060214D02*
X140453976Y-75250690D01*
X140453976Y-75250690D02*
X140453976Y-75393547D01*
X140453976Y-75393547D02*
X140501595Y-75584023D01*
X140501595Y-75584023D02*
X140549214Y-75679261D01*
X140549214Y-75679261D02*
X140644452Y-75774500D01*
X140644452Y-75774500D02*
X140787309Y-75822119D01*
X140787309Y-75822119D02*
X140882547Y-75822119D01*
X140882547Y-75822119D02*
X141025404Y-75774500D01*
X141025404Y-75774500D02*
X141073023Y-75726880D01*
X141073023Y-75726880D02*
X141073023Y-75393547D01*
X141073023Y-75393547D02*
X140882547Y-75393547D01*
X141501595Y-75822119D02*
X141501595Y-74822119D01*
X141501595Y-74822119D02*
X142073023Y-75822119D01*
X142073023Y-75822119D02*
X142073023Y-74822119D01*
X142549214Y-75822119D02*
X142549214Y-74822119D01*
X142549214Y-74822119D02*
X142787309Y-74822119D01*
X142787309Y-74822119D02*
X142930166Y-74869738D01*
X142930166Y-74869738D02*
X143025404Y-74964976D01*
X143025404Y-74964976D02*
X143073023Y-75060214D01*
X143073023Y-75060214D02*
X143120642Y-75250690D01*
X143120642Y-75250690D02*
X143120642Y-75393547D01*
X143120642Y-75393547D02*
X143073023Y-75584023D01*
X143073023Y-75584023D02*
X143025404Y-75679261D01*
X143025404Y-75679261D02*
X142930166Y-75774500D01*
X142930166Y-75774500D02*
X142787309Y-75822119D01*
X142787309Y-75822119D02*
X142549214Y-75822119D01*
X138739404Y-72329738D02*
X138644166Y-72282119D01*
X138644166Y-72282119D02*
X138501309Y-72282119D01*
X138501309Y-72282119D02*
X138358452Y-72329738D01*
X138358452Y-72329738D02*
X138263214Y-72424976D01*
X138263214Y-72424976D02*
X138215595Y-72520214D01*
X138215595Y-72520214D02*
X138167976Y-72710690D01*
X138167976Y-72710690D02*
X138167976Y-72853547D01*
X138167976Y-72853547D02*
X138215595Y-73044023D01*
X138215595Y-73044023D02*
X138263214Y-73139261D01*
X138263214Y-73139261D02*
X138358452Y-73234500D01*
X138358452Y-73234500D02*
X138501309Y-73282119D01*
X138501309Y-73282119D02*
X138596547Y-73282119D01*
X138596547Y-73282119D02*
X138739404Y-73234500D01*
X138739404Y-73234500D02*
X138787023Y-73186880D01*
X138787023Y-73186880D02*
X138787023Y-72853547D01*
X138787023Y-72853547D02*
X138596547Y-72853547D01*
X139215595Y-73282119D02*
X139215595Y-72282119D01*
X139215595Y-72282119D02*
X139596547Y-72282119D01*
X139596547Y-72282119D02*
X139691785Y-72329738D01*
X139691785Y-72329738D02*
X139739404Y-72377357D01*
X139739404Y-72377357D02*
X139787023Y-72472595D01*
X139787023Y-72472595D02*
X139787023Y-72615452D01*
X139787023Y-72615452D02*
X139739404Y-72710690D01*
X139739404Y-72710690D02*
X139691785Y-72758309D01*
X139691785Y-72758309D02*
X139596547Y-72805928D01*
X139596547Y-72805928D02*
X139215595Y-72805928D01*
X140215595Y-73282119D02*
X140215595Y-72282119D01*
X140882261Y-72282119D02*
X141072737Y-72282119D01*
X141072737Y-72282119D02*
X141167975Y-72329738D01*
X141167975Y-72329738D02*
X141263213Y-72424976D01*
X141263213Y-72424976D02*
X141310832Y-72615452D01*
X141310832Y-72615452D02*
X141310832Y-72948785D01*
X141310832Y-72948785D02*
X141263213Y-73139261D01*
X141263213Y-73139261D02*
X141167975Y-73234500D01*
X141167975Y-73234500D02*
X141072737Y-73282119D01*
X141072737Y-73282119D02*
X140882261Y-73282119D01*
X140882261Y-73282119D02*
X140787023Y-73234500D01*
X140787023Y-73234500D02*
X140691785Y-73139261D01*
X140691785Y-73139261D02*
X140644166Y-72948785D01*
X140644166Y-72948785D02*
X140644166Y-72615452D01*
X140644166Y-72615452D02*
X140691785Y-72424976D01*
X140691785Y-72424976D02*
X140787023Y-72329738D01*
X140787023Y-72329738D02*
X140882261Y-72282119D01*
X141691785Y-72377357D02*
X141739404Y-72329738D01*
X141739404Y-72329738D02*
X141834642Y-72282119D01*
X141834642Y-72282119D02*
X142072737Y-72282119D01*
X142072737Y-72282119D02*
X142167975Y-72329738D01*
X142167975Y-72329738D02*
X142215594Y-72377357D01*
X142215594Y-72377357D02*
X142263213Y-72472595D01*
X142263213Y-72472595D02*
X142263213Y-72567833D01*
X142263213Y-72567833D02*
X142215594Y-72710690D01*
X142215594Y-72710690D02*
X141644166Y-73282119D01*
X141644166Y-73282119D02*
X142263213Y-73282119D01*
X143215594Y-73282119D02*
X142644166Y-73282119D01*
X142929880Y-73282119D02*
X142929880Y-72282119D01*
X142929880Y-72282119D02*
X142834642Y-72424976D01*
X142834642Y-72424976D02*
X142739404Y-72520214D01*
X142739404Y-72520214D02*
X142644166Y-72567833D01*
X139501404Y-69789738D02*
X139406166Y-69742119D01*
X139406166Y-69742119D02*
X139263309Y-69742119D01*
X139263309Y-69742119D02*
X139120452Y-69789738D01*
X139120452Y-69789738D02*
X139025214Y-69884976D01*
X139025214Y-69884976D02*
X138977595Y-69980214D01*
X138977595Y-69980214D02*
X138929976Y-70170690D01*
X138929976Y-70170690D02*
X138929976Y-70313547D01*
X138929976Y-70313547D02*
X138977595Y-70504023D01*
X138977595Y-70504023D02*
X139025214Y-70599261D01*
X139025214Y-70599261D02*
X139120452Y-70694500D01*
X139120452Y-70694500D02*
X139263309Y-70742119D01*
X139263309Y-70742119D02*
X139358547Y-70742119D01*
X139358547Y-70742119D02*
X139501404Y-70694500D01*
X139501404Y-70694500D02*
X139549023Y-70646880D01*
X139549023Y-70646880D02*
X139549023Y-70313547D01*
X139549023Y-70313547D02*
X139358547Y-70313547D01*
X139977595Y-70742119D02*
X139977595Y-69742119D01*
X139977595Y-69742119D02*
X140358547Y-69742119D01*
X140358547Y-69742119D02*
X140453785Y-69789738D01*
X140453785Y-69789738D02*
X140501404Y-69837357D01*
X140501404Y-69837357D02*
X140549023Y-69932595D01*
X140549023Y-69932595D02*
X140549023Y-70075452D01*
X140549023Y-70075452D02*
X140501404Y-70170690D01*
X140501404Y-70170690D02*
X140453785Y-70218309D01*
X140453785Y-70218309D02*
X140358547Y-70265928D01*
X140358547Y-70265928D02*
X139977595Y-70265928D01*
X140977595Y-70742119D02*
X140977595Y-69742119D01*
X141644261Y-69742119D02*
X141834737Y-69742119D01*
X141834737Y-69742119D02*
X141929975Y-69789738D01*
X141929975Y-69789738D02*
X142025213Y-69884976D01*
X142025213Y-69884976D02*
X142072832Y-70075452D01*
X142072832Y-70075452D02*
X142072832Y-70408785D01*
X142072832Y-70408785D02*
X142025213Y-70599261D01*
X142025213Y-70599261D02*
X141929975Y-70694500D01*
X141929975Y-70694500D02*
X141834737Y-70742119D01*
X141834737Y-70742119D02*
X141644261Y-70742119D01*
X141644261Y-70742119D02*
X141549023Y-70694500D01*
X141549023Y-70694500D02*
X141453785Y-70599261D01*
X141453785Y-70599261D02*
X141406166Y-70408785D01*
X141406166Y-70408785D02*
X141406166Y-70075452D01*
X141406166Y-70075452D02*
X141453785Y-69884976D01*
X141453785Y-69884976D02*
X141549023Y-69789738D01*
X141549023Y-69789738D02*
X141644261Y-69742119D01*
X142406166Y-69742119D02*
X143025213Y-69742119D01*
X143025213Y-69742119D02*
X142691880Y-70123071D01*
X142691880Y-70123071D02*
X142834737Y-70123071D01*
X142834737Y-70123071D02*
X142929975Y-70170690D01*
X142929975Y-70170690D02*
X142977594Y-70218309D01*
X142977594Y-70218309D02*
X143025213Y-70313547D01*
X143025213Y-70313547D02*
X143025213Y-70551642D01*
X143025213Y-70551642D02*
X142977594Y-70646880D01*
X142977594Y-70646880D02*
X142929975Y-70694500D01*
X142929975Y-70694500D02*
X142834737Y-70742119D01*
X142834737Y-70742119D02*
X142549023Y-70742119D01*
X142549023Y-70742119D02*
X142453785Y-70694500D01*
X142453785Y-70694500D02*
X142406166Y-70646880D01*
X139501404Y-67249738D02*
X139406166Y-67202119D01*
X139406166Y-67202119D02*
X139263309Y-67202119D01*
X139263309Y-67202119D02*
X139120452Y-67249738D01*
X139120452Y-67249738D02*
X139025214Y-67344976D01*
X139025214Y-67344976D02*
X138977595Y-67440214D01*
X138977595Y-67440214D02*
X138929976Y-67630690D01*
X138929976Y-67630690D02*
X138929976Y-67773547D01*
X138929976Y-67773547D02*
X138977595Y-67964023D01*
X138977595Y-67964023D02*
X139025214Y-68059261D01*
X139025214Y-68059261D02*
X139120452Y-68154500D01*
X139120452Y-68154500D02*
X139263309Y-68202119D01*
X139263309Y-68202119D02*
X139358547Y-68202119D01*
X139358547Y-68202119D02*
X139501404Y-68154500D01*
X139501404Y-68154500D02*
X139549023Y-68106880D01*
X139549023Y-68106880D02*
X139549023Y-67773547D01*
X139549023Y-67773547D02*
X139358547Y-67773547D01*
X139977595Y-68202119D02*
X139977595Y-67202119D01*
X139977595Y-67202119D02*
X140358547Y-67202119D01*
X140358547Y-67202119D02*
X140453785Y-67249738D01*
X140453785Y-67249738D02*
X140501404Y-67297357D01*
X140501404Y-67297357D02*
X140549023Y-67392595D01*
X140549023Y-67392595D02*
X140549023Y-67535452D01*
X140549023Y-67535452D02*
X140501404Y-67630690D01*
X140501404Y-67630690D02*
X140453785Y-67678309D01*
X140453785Y-67678309D02*
X140358547Y-67725928D01*
X140358547Y-67725928D02*
X139977595Y-67725928D01*
X140977595Y-68202119D02*
X140977595Y-67202119D01*
X141644261Y-67202119D02*
X141834737Y-67202119D01*
X141834737Y-67202119D02*
X141929975Y-67249738D01*
X141929975Y-67249738D02*
X142025213Y-67344976D01*
X142025213Y-67344976D02*
X142072832Y-67535452D01*
X142072832Y-67535452D02*
X142072832Y-67868785D01*
X142072832Y-67868785D02*
X142025213Y-68059261D01*
X142025213Y-68059261D02*
X141929975Y-68154500D01*
X141929975Y-68154500D02*
X141834737Y-68202119D01*
X141834737Y-68202119D02*
X141644261Y-68202119D01*
X141644261Y-68202119D02*
X141549023Y-68154500D01*
X141549023Y-68154500D02*
X141453785Y-68059261D01*
X141453785Y-68059261D02*
X141406166Y-67868785D01*
X141406166Y-67868785D02*
X141406166Y-67535452D01*
X141406166Y-67535452D02*
X141453785Y-67344976D01*
X141453785Y-67344976D02*
X141549023Y-67249738D01*
X141549023Y-67249738D02*
X141644261Y-67202119D01*
X143025213Y-68202119D02*
X142453785Y-68202119D01*
X142739499Y-68202119D02*
X142739499Y-67202119D01*
X142739499Y-67202119D02*
X142644261Y-67344976D01*
X142644261Y-67344976D02*
X142549023Y-67440214D01*
X142549023Y-67440214D02*
X142453785Y-67487833D01*
X138485404Y-64709738D02*
X138390166Y-64662119D01*
X138390166Y-64662119D02*
X138247309Y-64662119D01*
X138247309Y-64662119D02*
X138104452Y-64709738D01*
X138104452Y-64709738D02*
X138009214Y-64804976D01*
X138009214Y-64804976D02*
X137961595Y-64900214D01*
X137961595Y-64900214D02*
X137913976Y-65090690D01*
X137913976Y-65090690D02*
X137913976Y-65233547D01*
X137913976Y-65233547D02*
X137961595Y-65424023D01*
X137961595Y-65424023D02*
X138009214Y-65519261D01*
X138009214Y-65519261D02*
X138104452Y-65614500D01*
X138104452Y-65614500D02*
X138247309Y-65662119D01*
X138247309Y-65662119D02*
X138342547Y-65662119D01*
X138342547Y-65662119D02*
X138485404Y-65614500D01*
X138485404Y-65614500D02*
X138533023Y-65566880D01*
X138533023Y-65566880D02*
X138533023Y-65233547D01*
X138533023Y-65233547D02*
X138342547Y-65233547D01*
X138961595Y-65662119D02*
X138961595Y-64662119D01*
X138961595Y-64662119D02*
X139342547Y-64662119D01*
X139342547Y-64662119D02*
X139437785Y-64709738D01*
X139437785Y-64709738D02*
X139485404Y-64757357D01*
X139485404Y-64757357D02*
X139533023Y-64852595D01*
X139533023Y-64852595D02*
X139533023Y-64995452D01*
X139533023Y-64995452D02*
X139485404Y-65090690D01*
X139485404Y-65090690D02*
X139437785Y-65138309D01*
X139437785Y-65138309D02*
X139342547Y-65185928D01*
X139342547Y-65185928D02*
X138961595Y-65185928D01*
X139961595Y-65662119D02*
X139961595Y-64662119D01*
X140628261Y-64662119D02*
X140818737Y-64662119D01*
X140818737Y-64662119D02*
X140913975Y-64709738D01*
X140913975Y-64709738D02*
X141009213Y-64804976D01*
X141009213Y-64804976D02*
X141056832Y-64995452D01*
X141056832Y-64995452D02*
X141056832Y-65328785D01*
X141056832Y-65328785D02*
X141009213Y-65519261D01*
X141009213Y-65519261D02*
X140913975Y-65614500D01*
X140913975Y-65614500D02*
X140818737Y-65662119D01*
X140818737Y-65662119D02*
X140628261Y-65662119D01*
X140628261Y-65662119D02*
X140533023Y-65614500D01*
X140533023Y-65614500D02*
X140437785Y-65519261D01*
X140437785Y-65519261D02*
X140390166Y-65328785D01*
X140390166Y-65328785D02*
X140390166Y-64995452D01*
X140390166Y-64995452D02*
X140437785Y-64804976D01*
X140437785Y-64804976D02*
X140533023Y-64709738D01*
X140533023Y-64709738D02*
X140628261Y-64662119D01*
X141437785Y-64757357D02*
X141485404Y-64709738D01*
X141485404Y-64709738D02*
X141580642Y-64662119D01*
X141580642Y-64662119D02*
X141818737Y-64662119D01*
X141818737Y-64662119D02*
X141913975Y-64709738D01*
X141913975Y-64709738D02*
X141961594Y-64757357D01*
X141961594Y-64757357D02*
X142009213Y-64852595D01*
X142009213Y-64852595D02*
X142009213Y-64947833D01*
X142009213Y-64947833D02*
X141961594Y-65090690D01*
X141961594Y-65090690D02*
X141390166Y-65662119D01*
X141390166Y-65662119D02*
X142009213Y-65662119D01*
X142390166Y-64757357D02*
X142437785Y-64709738D01*
X142437785Y-64709738D02*
X142533023Y-64662119D01*
X142533023Y-64662119D02*
X142771118Y-64662119D01*
X142771118Y-64662119D02*
X142866356Y-64709738D01*
X142866356Y-64709738D02*
X142913975Y-64757357D01*
X142913975Y-64757357D02*
X142961594Y-64852595D01*
X142961594Y-64852595D02*
X142961594Y-64947833D01*
X142961594Y-64947833D02*
X142913975Y-65090690D01*
X142913975Y-65090690D02*
X142342547Y-65662119D01*
X142342547Y-65662119D02*
X142961594Y-65662119D01*
X138485404Y-62169738D02*
X138390166Y-62122119D01*
X138390166Y-62122119D02*
X138247309Y-62122119D01*
X138247309Y-62122119D02*
X138104452Y-62169738D01*
X138104452Y-62169738D02*
X138009214Y-62264976D01*
X138009214Y-62264976D02*
X137961595Y-62360214D01*
X137961595Y-62360214D02*
X137913976Y-62550690D01*
X137913976Y-62550690D02*
X137913976Y-62693547D01*
X137913976Y-62693547D02*
X137961595Y-62884023D01*
X137961595Y-62884023D02*
X138009214Y-62979261D01*
X138009214Y-62979261D02*
X138104452Y-63074500D01*
X138104452Y-63074500D02*
X138247309Y-63122119D01*
X138247309Y-63122119D02*
X138342547Y-63122119D01*
X138342547Y-63122119D02*
X138485404Y-63074500D01*
X138485404Y-63074500D02*
X138533023Y-63026880D01*
X138533023Y-63026880D02*
X138533023Y-62693547D01*
X138533023Y-62693547D02*
X138342547Y-62693547D01*
X138961595Y-63122119D02*
X138961595Y-62122119D01*
X138961595Y-62122119D02*
X139342547Y-62122119D01*
X139342547Y-62122119D02*
X139437785Y-62169738D01*
X139437785Y-62169738D02*
X139485404Y-62217357D01*
X139485404Y-62217357D02*
X139533023Y-62312595D01*
X139533023Y-62312595D02*
X139533023Y-62455452D01*
X139533023Y-62455452D02*
X139485404Y-62550690D01*
X139485404Y-62550690D02*
X139437785Y-62598309D01*
X139437785Y-62598309D02*
X139342547Y-62645928D01*
X139342547Y-62645928D02*
X138961595Y-62645928D01*
X139961595Y-63122119D02*
X139961595Y-62122119D01*
X140628261Y-62122119D02*
X140818737Y-62122119D01*
X140818737Y-62122119D02*
X140913975Y-62169738D01*
X140913975Y-62169738D02*
X141009213Y-62264976D01*
X141009213Y-62264976D02*
X141056832Y-62455452D01*
X141056832Y-62455452D02*
X141056832Y-62788785D01*
X141056832Y-62788785D02*
X141009213Y-62979261D01*
X141009213Y-62979261D02*
X140913975Y-63074500D01*
X140913975Y-63074500D02*
X140818737Y-63122119D01*
X140818737Y-63122119D02*
X140628261Y-63122119D01*
X140628261Y-63122119D02*
X140533023Y-63074500D01*
X140533023Y-63074500D02*
X140437785Y-62979261D01*
X140437785Y-62979261D02*
X140390166Y-62788785D01*
X140390166Y-62788785D02*
X140390166Y-62455452D01*
X140390166Y-62455452D02*
X140437785Y-62264976D01*
X140437785Y-62264976D02*
X140533023Y-62169738D01*
X140533023Y-62169738D02*
X140628261Y-62122119D01*
X141437785Y-62217357D02*
X141485404Y-62169738D01*
X141485404Y-62169738D02*
X141580642Y-62122119D01*
X141580642Y-62122119D02*
X141818737Y-62122119D01*
X141818737Y-62122119D02*
X141913975Y-62169738D01*
X141913975Y-62169738D02*
X141961594Y-62217357D01*
X141961594Y-62217357D02*
X142009213Y-62312595D01*
X142009213Y-62312595D02*
X142009213Y-62407833D01*
X142009213Y-62407833D02*
X141961594Y-62550690D01*
X141961594Y-62550690D02*
X141390166Y-63122119D01*
X141390166Y-63122119D02*
X142009213Y-63122119D01*
X142342547Y-62122119D02*
X142961594Y-62122119D01*
X142961594Y-62122119D02*
X142628261Y-62503071D01*
X142628261Y-62503071D02*
X142771118Y-62503071D01*
X142771118Y-62503071D02*
X142866356Y-62550690D01*
X142866356Y-62550690D02*
X142913975Y-62598309D01*
X142913975Y-62598309D02*
X142961594Y-62693547D01*
X142961594Y-62693547D02*
X142961594Y-62931642D01*
X142961594Y-62931642D02*
X142913975Y-63026880D01*
X142913975Y-63026880D02*
X142866356Y-63074500D01*
X142866356Y-63074500D02*
X142771118Y-63122119D01*
X142771118Y-63122119D02*
X142485404Y-63122119D01*
X142485404Y-63122119D02*
X142390166Y-63074500D01*
X142390166Y-63074500D02*
X142342547Y-63026880D01*
X141025404Y-59629738D02*
X140930166Y-59582119D01*
X140930166Y-59582119D02*
X140787309Y-59582119D01*
X140787309Y-59582119D02*
X140644452Y-59629738D01*
X140644452Y-59629738D02*
X140549214Y-59724976D01*
X140549214Y-59724976D02*
X140501595Y-59820214D01*
X140501595Y-59820214D02*
X140453976Y-60010690D01*
X140453976Y-60010690D02*
X140453976Y-60153547D01*
X140453976Y-60153547D02*
X140501595Y-60344023D01*
X140501595Y-60344023D02*
X140549214Y-60439261D01*
X140549214Y-60439261D02*
X140644452Y-60534500D01*
X140644452Y-60534500D02*
X140787309Y-60582119D01*
X140787309Y-60582119D02*
X140882547Y-60582119D01*
X140882547Y-60582119D02*
X141025404Y-60534500D01*
X141025404Y-60534500D02*
X141073023Y-60486880D01*
X141073023Y-60486880D02*
X141073023Y-60153547D01*
X141073023Y-60153547D02*
X140882547Y-60153547D01*
X141501595Y-60582119D02*
X141501595Y-59582119D01*
X141501595Y-59582119D02*
X142073023Y-60582119D01*
X142073023Y-60582119D02*
X142073023Y-59582119D01*
X142549214Y-60582119D02*
X142549214Y-59582119D01*
X142549214Y-59582119D02*
X142787309Y-59582119D01*
X142787309Y-59582119D02*
X142930166Y-59629738D01*
X142930166Y-59629738D02*
X143025404Y-59724976D01*
X143025404Y-59724976D02*
X143073023Y-59820214D01*
X143073023Y-59820214D02*
X143120642Y-60010690D01*
X143120642Y-60010690D02*
X143120642Y-60153547D01*
X143120642Y-60153547D02*
X143073023Y-60344023D01*
X143073023Y-60344023D02*
X143025404Y-60439261D01*
X143025404Y-60439261D02*
X142930166Y-60534500D01*
X142930166Y-60534500D02*
X142787309Y-60582119D01*
X142787309Y-60582119D02*
X142549214Y-60582119D01*
D10*
X111516666Y-54822619D02*
X111516666Y-55536904D01*
X111516666Y-55536904D02*
X111469047Y-55679761D01*
X111469047Y-55679761D02*
X111373809Y-55775000D01*
X111373809Y-55775000D02*
X111230952Y-55822619D01*
X111230952Y-55822619D02*
X111135714Y-55822619D01*
X112516666Y-55822619D02*
X111945238Y-55822619D01*
X112230952Y-55822619D02*
X112230952Y-54822619D01*
X112230952Y-54822619D02*
X112135714Y-54965476D01*
X112135714Y-54965476D02*
X112040476Y-55060714D01*
X112040476Y-55060714D02*
X111945238Y-55108333D01*
D12*
X117127500Y-59994500D02*
G75*
G03*
X117127500Y-59994500I-100000J0D01*
G01*
D13*
X145577500Y-109472500D02*
X117677500Y-109472500D01*
X145577500Y-58672500D02*
X145577500Y-109472500D01*
X117677500Y-58672500D02*
X145577500Y-58672500D01*
X117677500Y-109472500D02*
X117677500Y-58672500D01*
D11*
X126801500Y-102868500D02*
X136453500Y-102868500D01*
X136453500Y-102868500D02*
X136453500Y-110996500D01*
X136453500Y-110996500D02*
X126801500Y-110996500D01*
X126801500Y-110996500D02*
X126801500Y-102868500D01*
D14*
X110420000Y-58640000D02*
X113080000Y-58640000D01*
X110420000Y-57370000D02*
X110420000Y-56040000D01*
X113080000Y-58640000D02*
X113080000Y-112040000D01*
X110420000Y-56040000D02*
X111750000Y-56040000D01*
X110420000Y-58640000D02*
X110420000Y-112040000D01*
X110420000Y-112040000D02*
X113080000Y-112040000D01*
%LPC*%
D15*
X144327500Y-105714500D03*
X144327500Y-103174500D03*
X144327500Y-100634500D03*
X144327500Y-98094500D03*
X144327500Y-95554500D03*
X144327500Y-93014500D03*
X144327500Y-90474500D03*
X144327500Y-87934500D03*
X144327500Y-85394500D03*
X144327500Y-82854500D03*
X144327500Y-80314500D03*
X144327500Y-77774500D03*
X144327500Y-75234500D03*
X144327500Y-72694500D03*
X144327500Y-70154500D03*
X144327500Y-67614500D03*
X144327500Y-65074500D03*
X144327500Y-62534500D03*
X144327500Y-59994500D03*
X118927500Y-103174500D03*
X118927500Y-100634500D03*
X118927500Y-98094500D03*
X118927500Y-95554500D03*
X118927500Y-93014500D03*
X118927500Y-90474500D03*
X118927500Y-87934500D03*
X118927500Y-85394500D03*
X118927500Y-82854500D03*
X118927500Y-80314500D03*
X118927500Y-77774500D03*
X118927500Y-75234500D03*
X118927500Y-72694500D03*
X118927500Y-70154500D03*
X118927500Y-67614500D03*
X118927500Y-65074500D03*
X118927500Y-105714500D03*
X118927500Y-62534500D03*
D16*
X118927500Y-59994500D03*
D17*
X111750000Y-110710000D03*
X111750000Y-108170000D03*
X111750000Y-105630000D03*
X111750000Y-103090000D03*
X111750000Y-100550000D03*
X111750000Y-98010000D03*
X111750000Y-95470000D03*
X111750000Y-92930000D03*
X111750000Y-90390000D03*
X111750000Y-87850000D03*
X111750000Y-85310000D03*
X111750000Y-82770000D03*
X111750000Y-80230000D03*
X111750000Y-77690000D03*
X111750000Y-75150000D03*
X111750000Y-72610000D03*
X111750000Y-70070000D03*
X111750000Y-67530000D03*
X111750000Y-64990000D03*
X111750000Y-62450000D03*
X111750000Y-59910000D03*
D18*
X111750000Y-57370000D03*
%LPD*%
M02*
