%TF.GenerationSoftware,KiCad,Pcbnew,7.0.6*%
%TF.CreationDate,2024-01-22T18:50:27-05:00*%
%TF.ProjectId,CHESSmate PCB,43484553-536d-4617-9465-205043422e6b,rev?*%
%TF.SameCoordinates,Original*%
%TF.FileFunction,Copper,L4,Bot*%
%TF.FilePolarity,Positive*%
%FSLAX46Y46*%
G04 Gerber Fmt 4.6, Leading zero omitted, Abs format (unit mm)*
G04 Created by KiCad (PCBNEW 7.0.6) date 2024-01-22 18:50:27*
%MOMM*%
%LPD*%
G01*
G04 APERTURE LIST*
%TA.AperFunction,ComponentPad*%
%ADD10O,1.600000X1.200000*%
%TD*%
%TA.AperFunction,ComponentPad*%
%ADD11O,1.200000X1.200000*%
%TD*%
%TA.AperFunction,ComponentPad*%
%ADD12R,1.700000X1.700000*%
%TD*%
%TA.AperFunction,ComponentPad*%
%ADD13O,1.700000X1.700000*%
%TD*%
%TA.AperFunction,ComponentPad*%
%ADD14R,2.000000X2.000000*%
%TD*%
%TA.AperFunction,ComponentPad*%
%ADD15C,2.000000*%
%TD*%
%TA.AperFunction,ComponentPad*%
%ADD16O,3.048000X1.850000*%
%TD*%
%TA.AperFunction,ComponentPad*%
%ADD17C,1.600000*%
%TD*%
%TA.AperFunction,ComponentPad*%
%ADD18O,1.600000X1.600000*%
%TD*%
%TA.AperFunction,ComponentPad*%
%ADD19R,1.600000X1.600000*%
%TD*%
%TA.AperFunction,ComponentPad*%
%ADD20O,3.000000X2.500000*%
%TD*%
%TA.AperFunction,ComponentPad*%
%ADD21R,1.800000X1.800000*%
%TD*%
%TA.AperFunction,ComponentPad*%
%ADD22C,1.800000*%
%TD*%
%TA.AperFunction,ViaPad*%
%ADD23C,6.000000*%
%TD*%
%TA.AperFunction,ViaPad*%
%ADD24C,0.800000*%
%TD*%
%TA.AperFunction,Conductor*%
%ADD25C,0.250000*%
%TD*%
G04 APERTURE END LIST*
D10*
%TO.P,2N2222A,1,E*%
%TO.N,GNDREF*%
X99730000Y-69360000D03*
D11*
%TO.P,2N2222A,2,B*%
%TO.N,Net-(Q2-B)*%
X101000000Y-70630000D03*
%TO.P,2N2222A,3,C*%
%TO.N,Net-(Q2-C)*%
X102270000Y-69360000D03*
%TD*%
D10*
%TO.P,2N2222A,1,E*%
%TO.N,GNDREF*%
X152404724Y-69364724D03*
D11*
%TO.P,2N2222A,2,B*%
%TO.N,Net-(Q4-B)*%
X153674724Y-70634724D03*
%TO.P,2N2222A,3,C*%
%TO.N,Net-(Q4-C)*%
X154944724Y-69364724D03*
%TD*%
D10*
%TO.P,2N2222A,1,E*%
%TO.N,GNDREF*%
X131820000Y-69340000D03*
D11*
%TO.P,2N2222A,2,B*%
%TO.N,Net-(Q3-B)*%
X133090000Y-70610000D03*
%TO.P,2N2222A,3,C*%
%TO.N,Net-(Q3-C)*%
X134360000Y-69340000D03*
%TD*%
D10*
%TO.P,2N2222A,1,E*%
%TO.N,GNDREF*%
X79804724Y-69284724D03*
D11*
%TO.P,2N2222A,2,B*%
%TO.N,Net-(Q1-B)*%
X81074724Y-70554724D03*
%TO.P,2N2222A,3,C*%
%TO.N,Net-(Q1-C)*%
X82344724Y-69284724D03*
%TD*%
D12*
%TO.P,J1,1,Pin_1*%
%TO.N,Net-(J1-Pin_1)*%
X89662000Y-29718000D03*
D13*
%TO.P,J1,2,Pin_2*%
%TO.N,Net-(J1-Pin_2)*%
X92202000Y-29718000D03*
%TO.P,J1,3,Pin_3*%
%TO.N,Net-(J1-Pin_3)*%
X94742000Y-29718000D03*
%TO.P,J1,4,Pin_4*%
%TO.N,Net-(J1-Pin_4)*%
X97282000Y-29718000D03*
%TO.P,J1,5,Pin_5*%
%TO.N,Net-(J1-Pin_5)*%
X99822000Y-29718000D03*
%TO.P,J1,6,Pin_6*%
%TO.N,Net-(J1-Pin_6)*%
X102362000Y-29718000D03*
%TO.P,J1,7,Pin_7*%
%TO.N,Net-(J1-Pin_7)*%
X104902000Y-29718000D03*
%TO.P,J1,8,Pin_8*%
%TO.N,Net-(J1-Pin_8)*%
X107442000Y-29718000D03*
%TO.P,J1,9,Pin_9*%
%TO.N,Net-(J1-Pin_9)*%
X109982000Y-29718000D03*
%TO.P,J1,10,Pin_10*%
%TO.N,Net-(J1-Pin_10)*%
X112522000Y-29718000D03*
%TO.P,J1,11,Pin_11*%
%TO.N,Net-(J1-Pin_11)*%
X115062000Y-29718000D03*
%TO.P,J1,12,Pin_12*%
%TO.N,GNDREF*%
X117602000Y-29718000D03*
%TO.P,J1,13,Pin_13*%
%TO.N,Net-(J1-Pin_13)*%
X120142000Y-29718000D03*
%TO.P,J1,14,Pin_14*%
%TO.N,Net-(J1-Pin_14)*%
X122682000Y-29718000D03*
%TO.P,J1,15,Pin_15*%
%TO.N,Net-(D3-K)*%
X125222000Y-29718000D03*
%TO.P,J1,16,Pin_16*%
%TO.N,Net-(J1-Pin_16)*%
X127762000Y-29718000D03*
%TO.P,J1,17,Pin_17*%
%TO.N,Net-(J1-Pin_17)*%
X130302000Y-29718000D03*
%TO.P,J1,18,Pin_18*%
%TO.N,Net-(J1-Pin_18)*%
X132842000Y-29718000D03*
%TO.P,J1,19,Pin_19*%
%TO.N,Net-(J1-Pin_19)*%
X135382000Y-29718000D03*
%TO.P,J1,20,Pin_20*%
%TO.N,Net-(J1-Pin_20)*%
X137922000Y-29718000D03*
%TO.P,J1,21,Pin_21*%
%TO.N,Net-(BZ1--)*%
X140462000Y-29718000D03*
%TO.P,J1,22,Pin_22*%
%TO.N,Net-(BZ1-+)*%
X143002000Y-29718000D03*
%TD*%
D14*
%TO.P,BZ1,1,-*%
%TO.N,Net-(BZ1--)*%
X166510000Y-43670000D03*
D15*
%TO.P,BZ1,2,+*%
%TO.N,Net-(BZ1-+)*%
X174110000Y-43670000D03*
%TD*%
D16*
%TO.P,SW17,1*%
%TO.N,Net-(J1-Pin_11)*%
X62470000Y-101070000D03*
X74970000Y-101070000D03*
%TO.P,SW17,2*%
%TO.N,GNDREF*%
X62470000Y-106070000D03*
X74970000Y-106070000D03*
%TD*%
D17*
%TO.P,75R,1*%
%TO.N,Net-(J1-Pin_13)*%
X59480000Y-76690000D03*
D18*
%TO.P,75R,2*%
%TO.N,Net-(D1-A)*%
X69640000Y-76690000D03*
%TD*%
D17*
%TO.P,10K,1*%
%TO.N,Net-(J1-Pin_17)*%
X95850000Y-70560000D03*
D18*
%TO.P,10K,2*%
%TO.N,Net-(Q1-B)*%
X85690000Y-70560000D03*
%TD*%
D19*
%TO.P,3161AS,1,CA*%
%TO.N,Net-(Q2-C)*%
X98210000Y-51350000D03*
D17*
%TO.P,3161AS,2,F*%
%TO.N,Net-(U1-F)*%
X98210000Y-53890000D03*
%TO.P,3161AS,3,G*%
%TO.N,Net-(U1-G)*%
X98210000Y-56430000D03*
%TO.P,3161AS,4,E*%
%TO.N,Net-(U1-E)*%
X98210000Y-58970000D03*
%TO.P,3161AS,5,D*%
%TO.N,Net-(U1-D)*%
X98210000Y-61510000D03*
%TO.P,3161AS,6,CA*%
%TO.N,Net-(Q2-C)*%
X103290000Y-61510000D03*
%TO.P,3161AS,7,DP*%
%TO.N,Net-(U1-DP)*%
X103290000Y-58970000D03*
%TO.P,3161AS,8,C*%
%TO.N,Net-(U1-C)*%
X103290000Y-56430000D03*
%TO.P,3161AS,9,B*%
%TO.N,Net-(U1-B)*%
X103290000Y-53890000D03*
%TO.P,3161AS,10,A*%
%TO.N,Net-(U1-A)*%
X103290000Y-51350000D03*
%TD*%
D18*
%TO.P,75R,2*%
%TO.N,Net-(J1-Pin_16)*%
X159640000Y-81170000D03*
D17*
%TO.P,75R,1*%
%TO.N,Net-(D3-A)*%
X149480000Y-81170000D03*
%TD*%
%TO.P,470R,1*%
%TO.N,Net-(J1-Pin_2)*%
X50780000Y-66370000D03*
D18*
%TO.P,470R,2*%
%TO.N,Net-(U1-G)*%
X60940000Y-66370000D03*
%TD*%
D20*
%TO.P,SW8,1*%
%TO.N,Net-(J1-Pin_8)*%
X166740000Y-121060000D03*
X179240000Y-121060000D03*
%TO.P,SW8,2*%
%TO.N,GNDREF*%
X166740000Y-126060000D03*
X179240000Y-126060000D03*
%TD*%
D17*
%TO.P,1K,1*%
%TO.N,Net-(BZ1-+)*%
X174060000Y-51720000D03*
D18*
%TO.P,1K,2*%
%TO.N,Net-(J1-Pin_16)*%
X174060000Y-61880000D03*
%TD*%
D21*
%TO.P,D3,1,K*%
%TO.N,Net-(D3-K)*%
X131260000Y-81440000D03*
D22*
%TO.P,D3,2,A*%
%TO.N,Net-(D3-A)*%
X133800000Y-81440000D03*
%TD*%
D17*
%TO.P,470R,1*%
%TO.N,Net-(J1-Pin_8)*%
X50780000Y-42070000D03*
D18*
%TO.P,470R,2*%
%TO.N,Net-(U1-A)*%
X60940000Y-42070000D03*
%TD*%
D17*
%TO.P,470R,1*%
%TO.N,Net-(J1-Pin_3)*%
X50780000Y-62320000D03*
D18*
%TO.P,470R,2*%
%TO.N,Net-(U1-F)*%
X60940000Y-62320000D03*
%TD*%
D17*
%TO.P,470R,1*%
%TO.N,Net-(J1-Pin_1)*%
X50780000Y-70420000D03*
D18*
%TO.P,470R,2*%
%TO.N,Net-(U1-DP)*%
X60940000Y-70420000D03*
%TD*%
D17*
%TO.P,470R,1*%
%TO.N,Net-(J1-Pin_4)*%
X50780000Y-58270000D03*
D18*
%TO.P,470R,2*%
%TO.N,Net-(U1-E)*%
X60940000Y-58270000D03*
%TD*%
D20*
%TO.P,SW3,1*%
%TO.N,Net-(J1-Pin_3)*%
X86480000Y-121240000D03*
X98980000Y-121240000D03*
%TO.P,SW3,2*%
%TO.N,GNDREF*%
X86480000Y-126240000D03*
X98980000Y-126240000D03*
%TD*%
D18*
%TO.P,75R,2*%
%TO.N,Net-(D3-A)*%
X147270000Y-81180000D03*
D17*
%TO.P,75R,1*%
%TO.N,GNDREF*%
X137110000Y-81180000D03*
%TD*%
%TO.P,75R,1*%
%TO.N,Net-(J1-Pin_14)*%
X91630000Y-76670000D03*
D18*
%TO.P,75R,2*%
%TO.N,Net-(D2-A)*%
X101790000Y-76670000D03*
%TD*%
D20*
%TO.P,SW2,1*%
%TO.N,Net-(J1-Pin_2)*%
X70440000Y-121240000D03*
X82940000Y-121240000D03*
%TO.P,SW2,2*%
%TO.N,GNDREF*%
X70440000Y-126240000D03*
X82940000Y-126240000D03*
%TD*%
D21*
%TO.P,D2,1,K*%
%TO.N,GNDREF*%
X99290000Y-81500000D03*
D22*
%TO.P,D2,2,A*%
%TO.N,Net-(D2-A)*%
X101830000Y-81500000D03*
%TD*%
D17*
%TO.P,10K,1*%
%TO.N,Net-(J1-Pin_19)*%
X148310000Y-70630000D03*
D18*
%TO.P,10K,2*%
%TO.N,Net-(Q3-B)*%
X138150000Y-70630000D03*
%TD*%
D20*
%TO.P,SW18,1*%
%TO.N,Net-(J1-Pin_10)*%
X126470000Y-101080000D03*
X138970000Y-101080000D03*
%TO.P,SW18,2*%
%TO.N,GNDREF*%
X126470000Y-106080000D03*
X138970000Y-106080000D03*
%TD*%
%TO.P,SW19,1*%
%TO.N,Net-(J1-Pin_9)*%
X158220000Y-101060000D03*
X170720000Y-101060000D03*
%TO.P,SW19,2*%
%TO.N,GNDREF*%
X158220000Y-106060000D03*
X170720000Y-106060000D03*
%TD*%
D21*
%TO.P,D1,1,K*%
%TO.N,GNDREF*%
X67100000Y-81540000D03*
D22*
%TO.P,D1,2,A*%
%TO.N,Net-(D1-A)*%
X69640000Y-81540000D03*
%TD*%
D17*
%TO.P,10K,1*%
%TO.N,Net-(J1-Pin_18)*%
X116060000Y-70640000D03*
D18*
%TO.P,10K,2*%
%TO.N,Net-(Q2-B)*%
X105900000Y-70640000D03*
%TD*%
D17*
%TO.P,470R,1*%
%TO.N,Net-(J1-Pin_5)*%
X50780000Y-54220000D03*
D18*
%TO.P,470R,2*%
%TO.N,Net-(U1-D)*%
X60940000Y-54220000D03*
%TD*%
D20*
%TO.P,SW6,1*%
%TO.N,Net-(J1-Pin_6)*%
X134550000Y-121200000D03*
X147050000Y-121200000D03*
%TO.P,SW6,2*%
%TO.N,GNDREF*%
X134550000Y-126200000D03*
X147050000Y-126200000D03*
%TD*%
D19*
%TO.P,3161AS,1,CA*%
%TO.N,Net-(Q4-C)*%
X150952500Y-51402500D03*
D17*
%TO.P,3161AS,2,F*%
%TO.N,Net-(U1-F)*%
X150952500Y-53942500D03*
%TO.P,3161AS,3,G*%
%TO.N,Net-(U1-G)*%
X150952500Y-56482500D03*
%TO.P,3161AS,4,E*%
%TO.N,Net-(U1-E)*%
X150952500Y-59022500D03*
%TO.P,3161AS,5,D*%
%TO.N,Net-(U1-D)*%
X150952500Y-61562500D03*
%TO.P,3161AS,6,CA*%
%TO.N,Net-(Q4-C)*%
X156032500Y-61562500D03*
%TO.P,3161AS,7,DP*%
%TO.N,Net-(U1-DP)*%
X156032500Y-59022500D03*
%TO.P,3161AS,8,C*%
%TO.N,Net-(U1-C)*%
X156032500Y-56482500D03*
%TO.P,3161AS,9,B*%
%TO.N,Net-(U1-B)*%
X156032500Y-53942500D03*
%TO.P,3161AS,10,A*%
%TO.N,Net-(U1-A)*%
X156032500Y-51402500D03*
%TD*%
%TO.P,470R,1*%
%TO.N,Net-(J1-Pin_6)*%
X50780000Y-50170000D03*
D18*
%TO.P,470R,2*%
%TO.N,Net-(U1-C)*%
X60940000Y-50170000D03*
%TD*%
D20*
%TO.P,SW9,1*%
%TO.N,Net-(J1-Pin_1)*%
X54340000Y-141190000D03*
X66840000Y-141190000D03*
%TO.P,SW9,2*%
%TO.N,GNDREF*%
X54340000Y-146190000D03*
X66840000Y-146190000D03*
%TD*%
%TO.P,SW12,1*%
%TO.N,Net-(J1-Pin_4)*%
X102470000Y-141170000D03*
X114970000Y-141170000D03*
%TO.P,SW12,2*%
%TO.N,GNDREF*%
X102470000Y-146170000D03*
X114970000Y-146170000D03*
%TD*%
D21*
%TO.P,D4,1,K*%
%TO.N,Net-(D3-A)*%
X163040000Y-81520000D03*
D22*
%TO.P,D4,2,A*%
%TO.N,Net-(D3-K)*%
X165580000Y-81520000D03*
%TD*%
D17*
%TO.P,470R,1*%
%TO.N,Net-(J1-Pin_7)*%
X50780000Y-46120000D03*
D18*
%TO.P,470R,2*%
%TO.N,Net-(U1-B)*%
X60940000Y-46120000D03*
%TD*%
D20*
%TO.P,SW13,1*%
%TO.N,Net-(J1-Pin_5)*%
X118510000Y-141180000D03*
X131010000Y-141180000D03*
%TO.P,SW13,2*%
%TO.N,GNDREF*%
X118510000Y-146180000D03*
X131010000Y-146180000D03*
%TD*%
%TO.P,SW14,1*%
%TO.N,Net-(J1-Pin_6)*%
X134520000Y-141180000D03*
X147020000Y-141180000D03*
%TO.P,SW14,2*%
%TO.N,GNDREF*%
X134520000Y-146180000D03*
X147020000Y-146180000D03*
%TD*%
%TO.P,SW16,1*%
%TO.N,Net-(J1-Pin_8)*%
X166560000Y-141190000D03*
X179060000Y-141190000D03*
%TO.P,SW16,2*%
%TO.N,GNDREF*%
X166560000Y-146190000D03*
X179060000Y-146190000D03*
%TD*%
D17*
%TO.P,10K,1*%
%TO.N,Net-(J1-Pin_20)*%
X168656000Y-70612000D03*
D18*
%TO.P,10K,2*%
%TO.N,Net-(Q4-B)*%
X158496000Y-70612000D03*
%TD*%
D20*
%TO.P,SW4,2*%
%TO.N,GNDREF*%
X115000000Y-126220000D03*
X102500000Y-126220000D03*
%TO.P,SW4,1*%
%TO.N,Net-(J1-Pin_4)*%
X115000000Y-121220000D03*
X102500000Y-121220000D03*
%TD*%
%TO.P,SW1,2*%
%TO.N,GNDREF*%
X66880000Y-126270000D03*
X54380000Y-126270000D03*
%TO.P,SW1,1*%
%TO.N,Net-(J1-Pin_1)*%
X66880000Y-121270000D03*
X54380000Y-121270000D03*
%TD*%
%TO.P,SW5,1*%
%TO.N,Net-(J1-Pin_5)*%
X118510000Y-121220000D03*
X131010000Y-121220000D03*
%TO.P,SW5,2*%
%TO.N,GNDREF*%
X118510000Y-126220000D03*
X131010000Y-126220000D03*
%TD*%
D17*
%TO.P,1K,1*%
%TO.N,Net-(J1-Pin_16)*%
X166470000Y-61860000D03*
D18*
%TO.P,1K,2*%
%TO.N,Net-(BZ1--)*%
X166470000Y-51700000D03*
%TD*%
D19*
%TO.P,3161AS,1,CA*%
%TO.N,Net-(Q1-C)*%
X78220000Y-51340000D03*
D17*
%TO.P,3161AS,2,F*%
%TO.N,Net-(U1-F)*%
X78220000Y-53880000D03*
%TO.P,3161AS,3,G*%
%TO.N,Net-(U1-G)*%
X78220000Y-56420000D03*
%TO.P,3161AS,4,E*%
%TO.N,Net-(U1-E)*%
X78220000Y-58960000D03*
%TO.P,3161AS,5,D*%
%TO.N,Net-(U1-D)*%
X78220000Y-61500000D03*
%TO.P,3161AS,6,CA*%
%TO.N,Net-(Q1-C)*%
X83300000Y-61500000D03*
%TO.P,3161AS,7,DP*%
%TO.N,Net-(U1-DP)*%
X83300000Y-58960000D03*
%TO.P,3161AS,8,C*%
%TO.N,Net-(U1-C)*%
X83300000Y-56420000D03*
%TO.P,3161AS,9,B*%
%TO.N,Net-(U1-B)*%
X83300000Y-53880000D03*
%TO.P,3161AS,10,A*%
%TO.N,Net-(U1-A)*%
X83300000Y-51340000D03*
%TD*%
D20*
%TO.P,SW11,1*%
%TO.N,Net-(J1-Pin_3)*%
X86470000Y-141210000D03*
X98970000Y-141210000D03*
%TO.P,SW11,2*%
%TO.N,GNDREF*%
X86470000Y-146210000D03*
X98970000Y-146210000D03*
%TD*%
D19*
%TO.P,3161AS,1,CA*%
%TO.N,Net-(Q3-C)*%
X130370000Y-51340000D03*
D17*
%TO.P,3161AS,2,F*%
%TO.N,Net-(U1-F)*%
X130370000Y-53880000D03*
%TO.P,3161AS,3,G*%
%TO.N,Net-(U1-G)*%
X130370000Y-56420000D03*
%TO.P,3161AS,4,E*%
%TO.N,Net-(U1-E)*%
X130370000Y-58960000D03*
%TO.P,3161AS,5,D*%
%TO.N,Net-(U1-D)*%
X130370000Y-61500000D03*
%TO.P,3161AS,6,CA*%
%TO.N,Net-(Q3-C)*%
X135450000Y-61500000D03*
%TO.P,3161AS,7,DP*%
%TO.N,Net-(U1-DP)*%
X135450000Y-58960000D03*
%TO.P,3161AS,8,C*%
%TO.N,Net-(U1-C)*%
X135450000Y-56420000D03*
%TO.P,3161AS,9,B*%
%TO.N,Net-(U1-B)*%
X135450000Y-53880000D03*
%TO.P,3161AS,10,A*%
%TO.N,Net-(U1-A)*%
X135450000Y-51340000D03*
%TD*%
D20*
%TO.P,SW7,1*%
%TO.N,Net-(J1-Pin_7)*%
X150620000Y-121150000D03*
X163120000Y-121150000D03*
%TO.P,SW7,2*%
%TO.N,GNDREF*%
X150620000Y-126150000D03*
X163120000Y-126150000D03*
%TD*%
%TO.P,SW15,1*%
%TO.N,Net-(J1-Pin_7)*%
X150520000Y-141180000D03*
X163020000Y-141180000D03*
%TO.P,SW15,2*%
%TO.N,GNDREF*%
X150520000Y-146180000D03*
X163020000Y-146180000D03*
%TD*%
%TO.P,SW10,1*%
%TO.N,Net-(J1-Pin_2)*%
X70430000Y-141200000D03*
X82930000Y-141200000D03*
%TO.P,SW10,2*%
%TO.N,GNDREF*%
X70430000Y-146200000D03*
X82930000Y-146200000D03*
%TD*%
D23*
%TO.N,*%
X186770000Y-74630000D03*
X45760000Y-122630000D03*
X78310000Y-29130000D03*
X186720000Y-122690000D03*
X154280000Y-29110000D03*
X154260000Y-160100000D03*
X78300000Y-160160000D03*
X45790000Y-74630000D03*
D24*
%TO.N,Net-(U1-A)*%
X135450000Y-39370000D03*
X156020000Y-39370000D03*
X83330000Y-39360000D03*
X103300000Y-39390000D03*
%TO.N,Net-(U1-B)*%
X157260000Y-40160000D03*
X136730000Y-40140000D03*
X104660000Y-40150000D03*
X84720000Y-40130000D03*
%TO.N,Net-(U1-C)*%
X158450000Y-40910000D03*
X138210000Y-40890000D03*
X106020000Y-40920000D03*
X86170000Y-40900000D03*
%TO.N,Net-(U1-D)*%
X145630000Y-41690000D03*
X93170000Y-41660000D03*
X125220000Y-41670000D03*
X72910000Y-41630000D03*
%TO.N,Net-(U1-E)*%
X126700000Y-42450000D03*
X94370000Y-42410000D03*
X147140000Y-42450000D03*
X74300000Y-42420000D03*
%TO.N,Net-(U1-F)*%
X129130000Y-43180000D03*
X96940000Y-43200000D03*
X149650000Y-43200000D03*
X76970000Y-43190000D03*
%TO.N,Net-(U1-G)*%
X148250000Y-43970000D03*
X95490000Y-43960000D03*
X127960000Y-43940000D03*
X75670000Y-43940000D03*
%TO.N,Net-(U1-DP)*%
X107470000Y-44710000D03*
X159600000Y-44690000D03*
X139730000Y-44720000D03*
X87760000Y-44730000D03*
%TD*%
D25*
%TO.N,Net-(BZ1--)*%
X165354000Y-34036000D02*
X166510000Y-35192000D01*
X144780000Y-34036000D02*
X165354000Y-34036000D01*
X140462000Y-29718000D02*
X144780000Y-34036000D01*
X166510000Y-35192000D02*
X166510000Y-43670000D01*
%TO.N,Net-(BZ1-+)*%
X173990000Y-42926000D02*
X174110000Y-43046000D01*
X173990000Y-34798000D02*
X173990000Y-42926000D01*
X172466000Y-33274000D02*
X173990000Y-34798000D01*
X146558000Y-33274000D02*
X172466000Y-33274000D01*
X174110000Y-43046000D02*
X174110000Y-43670000D01*
X143002000Y-29718000D02*
X146558000Y-33274000D01*
%TO.N,Net-(J1-Pin_11)*%
X74970000Y-101160000D02*
X74970000Y-101070000D01*
X85840000Y-112030000D02*
X74970000Y-101160000D01*
X171020000Y-112030000D02*
X85840000Y-112030000D01*
X171520000Y-94970000D02*
X173110000Y-96560000D01*
X173110000Y-96560000D02*
X173110000Y-109940000D01*
X119550000Y-94970000D02*
X171520000Y-94970000D01*
X114554000Y-89974000D02*
X119550000Y-94970000D01*
X114554000Y-30226000D02*
X114554000Y-89974000D01*
X173110000Y-109940000D02*
X171020000Y-112030000D01*
X115062000Y-29718000D02*
X114554000Y-30226000D01*
%TO.N,Net-(J1-Pin_10)*%
X112522000Y-97822000D02*
X112522000Y-29718000D01*
X126470000Y-101080000D02*
X115780000Y-101080000D01*
X115780000Y-101080000D02*
X112522000Y-97822000D01*
%TO.N,Net-(J1-Pin_9)*%
X114190000Y-103540000D02*
X155740000Y-103540000D01*
X109982000Y-99332000D02*
X114190000Y-103540000D01*
X109982000Y-29718000D02*
X109982000Y-99332000D01*
X155740000Y-103540000D02*
X158220000Y-101060000D01*
%TO.N,Net-(Q4-B)*%
X154088000Y-70612000D02*
X158496000Y-70612000D01*
X154070000Y-70630000D02*
X154088000Y-70612000D01*
X153674724Y-70234724D02*
X154070000Y-70630000D01*
%TO.N,Net-(Q3-B)*%
X133430000Y-70630000D02*
X138150000Y-70630000D01*
X133090000Y-70290000D02*
X133430000Y-70630000D01*
%TO.N,Net-(Q2-B)*%
X105890000Y-70630000D02*
X105900000Y-70640000D01*
X101190000Y-70630000D02*
X105890000Y-70630000D01*
X101000000Y-70440000D02*
X101190000Y-70630000D01*
%TO.N,Net-(Q1-B)*%
X85670000Y-70540000D02*
X85690000Y-70560000D01*
X81700000Y-70540000D02*
X85670000Y-70540000D01*
X81074724Y-69914724D02*
X81700000Y-70540000D01*
%TO.N,Net-(Q1-C)*%
X80772000Y-53892000D02*
X80772000Y-58674000D01*
X80772000Y-58674000D02*
X83300000Y-61202000D01*
X83300000Y-68329448D02*
X83300000Y-61500000D01*
X78220000Y-51340000D02*
X80772000Y-53892000D01*
X83300000Y-61202000D02*
X83300000Y-61500000D01*
X82344724Y-69284724D02*
X83300000Y-68329448D01*
%TO.N,Net-(Q2-C)*%
X102270000Y-69360000D02*
X103290000Y-68340000D01*
X100838000Y-53978000D02*
X100838000Y-59058000D01*
X98210000Y-51350000D02*
X100838000Y-53978000D01*
X103290000Y-68340000D02*
X103290000Y-61510000D01*
X100838000Y-59058000D02*
X103290000Y-61510000D01*
%TO.N,Net-(Q3-C)*%
X134360000Y-69340000D02*
X135450000Y-68250000D01*
X130370000Y-51340000D02*
X133096000Y-54066000D01*
X135450000Y-68250000D02*
X135450000Y-61500000D01*
X133096000Y-54066000D02*
X133096000Y-59146000D01*
X133096000Y-59146000D02*
X135450000Y-61500000D01*
%TO.N,Net-(Q4-C)*%
X156032500Y-68276948D02*
X156032500Y-61562500D01*
X153416000Y-58946000D02*
X156032500Y-61562500D01*
X153416000Y-53866000D02*
X153416000Y-58946000D01*
X154944724Y-69364724D02*
X156032500Y-68276948D01*
X150952500Y-51402500D02*
X153416000Y-53866000D01*
%TO.N,Net-(D1-A)*%
X69640000Y-76690000D02*
X69640000Y-81540000D01*
%TO.N,Net-(D2-A)*%
X101830000Y-76710000D02*
X101830000Y-81500000D01*
X101790000Y-76670000D02*
X101830000Y-76710000D01*
%TO.N,Net-(U1-A)*%
X83300000Y-51340000D02*
X83300000Y-39380000D01*
X135450000Y-51340000D02*
X135450000Y-39370000D01*
X103290000Y-51350000D02*
X103270000Y-39320000D01*
X156032500Y-51402500D02*
X156032500Y-39357500D01*
%TO.N,Net-(U1-B)*%
X104640000Y-52540000D02*
X104640000Y-40150000D01*
X156032500Y-53942500D02*
X157270000Y-52705000D01*
X103290000Y-53890000D02*
X104640000Y-52540000D01*
X84700000Y-52480000D02*
X84700000Y-40160000D01*
X83300000Y-53880000D02*
X84700000Y-52480000D01*
X136730000Y-52600000D02*
X136730000Y-40140000D01*
X157270000Y-40170000D02*
X157260000Y-40160000D01*
X135450000Y-53880000D02*
X136730000Y-52600000D01*
X157270000Y-52705000D02*
X157270000Y-40170000D01*
%TO.N,Net-(U1-C)*%
X135450000Y-56420000D02*
X138190000Y-53680000D01*
X106010000Y-53710000D02*
X106010000Y-40930000D01*
X103290000Y-56430000D02*
X106010000Y-53710000D01*
X83300000Y-56420000D02*
X86150000Y-53570000D01*
X156032500Y-56482500D02*
X158460000Y-54055000D01*
X86150000Y-53570000D02*
X86150000Y-40870000D01*
X158460000Y-54055000D02*
X158460000Y-40920000D01*
X138190000Y-53680000D02*
X138190000Y-40930000D01*
%TO.N,Net-(U1-D)*%
X145650000Y-41710000D02*
X145630000Y-41690000D01*
X72900000Y-56180000D02*
X72900000Y-41640000D01*
X150952500Y-61562500D02*
X145650000Y-56260000D01*
X93150000Y-56450000D02*
X93150000Y-41610000D01*
X78220000Y-61500000D02*
X72900000Y-56180000D01*
X72900000Y-41640000D02*
X72910000Y-41630000D01*
X145650000Y-56260000D02*
X145650000Y-41710000D01*
X125230000Y-41680000D02*
X125220000Y-41670000D01*
X130370000Y-61500000D02*
X125230000Y-56360000D01*
X98210000Y-61510000D02*
X93150000Y-56450000D01*
X125230000Y-56360000D02*
X125230000Y-41680000D01*
%TO.N,Net-(U1-E)*%
X126700000Y-55290000D02*
X126700000Y-42450000D01*
X78220000Y-58960000D02*
X74290000Y-55030000D01*
X130370000Y-58960000D02*
X126700000Y-55290000D01*
X94350000Y-42420000D02*
X94360000Y-42410000D01*
X94350000Y-55110000D02*
X94350000Y-42700000D01*
X147120000Y-55190000D02*
X150952500Y-59022500D01*
X94350000Y-42700000D02*
X94350000Y-42420000D01*
X147120000Y-42520000D02*
X147120000Y-55190000D01*
X98210000Y-58970000D02*
X94350000Y-55110000D01*
X74290000Y-55030000D02*
X74290000Y-42410000D01*
%TO.N,Net-(U1-F)*%
X150952500Y-53942500D02*
X149650000Y-52640000D01*
X96950000Y-52630000D02*
X96940000Y-43200000D01*
X98210000Y-53890000D02*
X96950000Y-52630000D01*
X130370000Y-53880000D02*
X129120000Y-52630000D01*
X129120000Y-52630000D02*
X129120000Y-43100000D01*
X76940000Y-52600000D02*
X76940000Y-43100000D01*
X78220000Y-53880000D02*
X76940000Y-52600000D01*
X149650000Y-52640000D02*
X149650000Y-43200000D01*
%TO.N,Net-(U1-G)*%
X98210000Y-56430000D02*
X95480000Y-53700000D01*
X150952500Y-56482500D02*
X148240000Y-53770000D01*
X148240000Y-53770000D02*
X148240000Y-43980000D01*
X148240000Y-43980000D02*
X148250000Y-43970000D01*
X95480000Y-53700000D02*
X95480000Y-43970000D01*
X127980000Y-54030000D02*
X127980000Y-43820000D01*
X75660000Y-53860000D02*
X75660000Y-43880000D01*
X130370000Y-56420000D02*
X127980000Y-54030000D01*
X78220000Y-56420000D02*
X75660000Y-53860000D01*
X95480000Y-43970000D02*
X95490000Y-43960000D01*
%TO.N,Net-(U1-DP)*%
X159590000Y-55465000D02*
X159590000Y-44710000D01*
X87740000Y-44750000D02*
X87760000Y-44730000D01*
X107450000Y-54810000D02*
X107450000Y-44700000D01*
X103290000Y-58970000D02*
X107450000Y-54810000D01*
X156032500Y-59022500D02*
X159590000Y-55465000D01*
X139720000Y-54690000D02*
X139720000Y-44730000D01*
X87740000Y-54520000D02*
X87740000Y-44750000D01*
X139720000Y-44730000D02*
X139730000Y-44720000D01*
X135450000Y-58960000D02*
X139720000Y-54690000D01*
X83300000Y-58960000D02*
X87740000Y-54520000D01*
%TO.N,Net-(J1-Pin_9)*%
X158220000Y-101060000D02*
X170720000Y-101060000D01*
%TO.N,Net-(J1-Pin_10)*%
X126470000Y-101080000D02*
X138970000Y-101080000D01*
%TO.N,Net-(J1-Pin_11)*%
X62470000Y-101070000D02*
X74970000Y-101070000D01*
%TD*%
M02*
