%TF.GenerationSoftware,KiCad,Pcbnew,7.0.6*%
%TF.CreationDate,2024-02-26T11:52:17-05:00*%
%TF.ProjectId,CHESSmate CPU,43484553-536d-4617-9465-204350552e6b,rev?*%
%TF.SameCoordinates,Original*%
%TF.FileFunction,Drillmap*%
%TF.FilePolarity,Positive*%
%FSLAX45Y45*%
G04 Gerber Fmt 4.5, Leading zero omitted, Abs format (unit mm)*
G04 Created by KiCad (PCBNEW 7.0.6) date 2024-02-26 11:52:17*
%MOMM*%
%LPD*%
G01*
G04 APERTURE LIST*
%ADD10C,0.100000*%
%ADD11C,0.200000*%
G04 APERTURE END LIST*
D10*
X10910000Y-5411000D02*
X14513000Y-5411000D01*
X14513000Y-11431000D01*
X10910000Y-11431000D01*
X10910000Y-5411000D01*
D11*
X11165777Y-11747484D02*
X11165777Y-11547484D01*
X11165777Y-11547484D02*
X11213396Y-11547484D01*
X11213396Y-11547484D02*
X11241967Y-11557008D01*
X11241967Y-11557008D02*
X11261015Y-11576055D01*
X11261015Y-11576055D02*
X11270539Y-11595103D01*
X11270539Y-11595103D02*
X11280062Y-11633198D01*
X11280062Y-11633198D02*
X11280062Y-11661769D01*
X11280062Y-11661769D02*
X11270539Y-11699865D01*
X11270539Y-11699865D02*
X11261015Y-11718912D01*
X11261015Y-11718912D02*
X11241967Y-11737960D01*
X11241967Y-11737960D02*
X11213396Y-11747484D01*
X11213396Y-11747484D02*
X11165777Y-11747484D01*
X11365777Y-11747484D02*
X11365777Y-11614150D01*
X11365777Y-11652246D02*
X11375301Y-11633198D01*
X11375301Y-11633198D02*
X11384824Y-11623674D01*
X11384824Y-11623674D02*
X11403872Y-11614150D01*
X11403872Y-11614150D02*
X11422920Y-11614150D01*
X11489586Y-11747484D02*
X11489586Y-11614150D01*
X11489586Y-11547484D02*
X11480062Y-11557008D01*
X11480062Y-11557008D02*
X11489586Y-11566531D01*
X11489586Y-11566531D02*
X11499110Y-11557008D01*
X11499110Y-11557008D02*
X11489586Y-11547484D01*
X11489586Y-11547484D02*
X11489586Y-11566531D01*
X11613396Y-11747484D02*
X11594348Y-11737960D01*
X11594348Y-11737960D02*
X11584824Y-11718912D01*
X11584824Y-11718912D02*
X11584824Y-11547484D01*
X11718158Y-11747484D02*
X11699110Y-11737960D01*
X11699110Y-11737960D02*
X11689586Y-11718912D01*
X11689586Y-11718912D02*
X11689586Y-11547484D01*
X11946729Y-11747484D02*
X11946729Y-11547484D01*
X11946729Y-11547484D02*
X12013396Y-11690341D01*
X12013396Y-11690341D02*
X12080062Y-11547484D01*
X12080062Y-11547484D02*
X12080062Y-11747484D01*
X12261015Y-11747484D02*
X12261015Y-11642722D01*
X12261015Y-11642722D02*
X12251491Y-11623674D01*
X12251491Y-11623674D02*
X12232443Y-11614150D01*
X12232443Y-11614150D02*
X12194348Y-11614150D01*
X12194348Y-11614150D02*
X12175301Y-11623674D01*
X12261015Y-11737960D02*
X12241967Y-11747484D01*
X12241967Y-11747484D02*
X12194348Y-11747484D01*
X12194348Y-11747484D02*
X12175301Y-11737960D01*
X12175301Y-11737960D02*
X12165777Y-11718912D01*
X12165777Y-11718912D02*
X12165777Y-11699865D01*
X12165777Y-11699865D02*
X12175301Y-11680817D01*
X12175301Y-11680817D02*
X12194348Y-11671293D01*
X12194348Y-11671293D02*
X12241967Y-11671293D01*
X12241967Y-11671293D02*
X12261015Y-11661769D01*
X12356253Y-11614150D02*
X12356253Y-11814150D01*
X12356253Y-11623674D02*
X12375301Y-11614150D01*
X12375301Y-11614150D02*
X12413396Y-11614150D01*
X12413396Y-11614150D02*
X12432443Y-11623674D01*
X12432443Y-11623674D02*
X12441967Y-11633198D01*
X12441967Y-11633198D02*
X12451491Y-11652246D01*
X12451491Y-11652246D02*
X12451491Y-11709388D01*
X12451491Y-11709388D02*
X12441967Y-11728436D01*
X12441967Y-11728436D02*
X12432443Y-11737960D01*
X12432443Y-11737960D02*
X12413396Y-11747484D01*
X12413396Y-11747484D02*
X12375301Y-11747484D01*
X12375301Y-11747484D02*
X12356253Y-11737960D01*
X12537205Y-11728436D02*
X12546729Y-11737960D01*
X12546729Y-11737960D02*
X12537205Y-11747484D01*
X12537205Y-11747484D02*
X12527682Y-11737960D01*
X12527682Y-11737960D02*
X12537205Y-11728436D01*
X12537205Y-11728436D02*
X12537205Y-11747484D01*
X12537205Y-11623674D02*
X12546729Y-11633198D01*
X12546729Y-11633198D02*
X12537205Y-11642722D01*
X12537205Y-11642722D02*
X12527682Y-11633198D01*
X12527682Y-11633198D02*
X12537205Y-11623674D01*
X12537205Y-11623674D02*
X12537205Y-11642722D01*
M02*
