%TF.GenerationSoftware,KiCad,Pcbnew,7.0.6*%
%TF.CreationDate,2024-01-22T18:50:26-05:00*%
%TF.ProjectId,CHESSmate PCB,43484553-536d-4617-9465-205043422e6b,rev?*%
%TF.SameCoordinates,Original*%
%TF.FileFunction,Copper,L1,Top*%
%TF.FilePolarity,Positive*%
%FSLAX46Y46*%
G04 Gerber Fmt 4.6, Leading zero omitted, Abs format (unit mm)*
G04 Created by KiCad (PCBNEW 7.0.6) date 2024-01-22 18:50:26*
%MOMM*%
%LPD*%
G01*
G04 APERTURE LIST*
%TA.AperFunction,ComponentPad*%
%ADD10O,1.600000X1.200000*%
%TD*%
%TA.AperFunction,ComponentPad*%
%ADD11O,1.200000X1.200000*%
%TD*%
%TA.AperFunction,ComponentPad*%
%ADD12R,1.700000X1.700000*%
%TD*%
%TA.AperFunction,ComponentPad*%
%ADD13O,1.700000X1.700000*%
%TD*%
%TA.AperFunction,ComponentPad*%
%ADD14R,2.000000X2.000000*%
%TD*%
%TA.AperFunction,ComponentPad*%
%ADD15C,2.000000*%
%TD*%
%TA.AperFunction,ComponentPad*%
%ADD16O,3.048000X1.850000*%
%TD*%
%TA.AperFunction,ComponentPad*%
%ADD17C,1.600000*%
%TD*%
%TA.AperFunction,ComponentPad*%
%ADD18O,1.600000X1.600000*%
%TD*%
%TA.AperFunction,ComponentPad*%
%ADD19R,1.600000X1.600000*%
%TD*%
%TA.AperFunction,ComponentPad*%
%ADD20O,3.000000X2.500000*%
%TD*%
%TA.AperFunction,ComponentPad*%
%ADD21R,1.800000X1.800000*%
%TD*%
%TA.AperFunction,ComponentPad*%
%ADD22C,1.800000*%
%TD*%
%TA.AperFunction,ViaPad*%
%ADD23C,6.000000*%
%TD*%
%TA.AperFunction,ViaPad*%
%ADD24C,0.800000*%
%TD*%
%TA.AperFunction,Conductor*%
%ADD25C,0.250000*%
%TD*%
G04 APERTURE END LIST*
D10*
%TO.P,2N2222A,1,E*%
%TO.N,GNDREF*%
X99730000Y-69360000D03*
D11*
%TO.P,2N2222A,2,B*%
%TO.N,Net-(Q2-B)*%
X101000000Y-70630000D03*
%TO.P,2N2222A,3,C*%
%TO.N,Net-(Q2-C)*%
X102270000Y-69360000D03*
%TD*%
D10*
%TO.P,2N2222A,1,E*%
%TO.N,GNDREF*%
X152404724Y-69364724D03*
D11*
%TO.P,2N2222A,2,B*%
%TO.N,Net-(Q4-B)*%
X153674724Y-70634724D03*
%TO.P,2N2222A,3,C*%
%TO.N,Net-(Q4-C)*%
X154944724Y-69364724D03*
%TD*%
D10*
%TO.P,2N2222A,1,E*%
%TO.N,GNDREF*%
X131820000Y-69340000D03*
D11*
%TO.P,2N2222A,2,B*%
%TO.N,Net-(Q3-B)*%
X133090000Y-70610000D03*
%TO.P,2N2222A,3,C*%
%TO.N,Net-(Q3-C)*%
X134360000Y-69340000D03*
%TD*%
D10*
%TO.P,2N2222A,1,E*%
%TO.N,GNDREF*%
X79804724Y-69284724D03*
D11*
%TO.P,2N2222A,2,B*%
%TO.N,Net-(Q1-B)*%
X81074724Y-70554724D03*
%TO.P,2N2222A,3,C*%
%TO.N,Net-(Q1-C)*%
X82344724Y-69284724D03*
%TD*%
D12*
%TO.P,J1,1,Pin_1*%
%TO.N,Net-(J1-Pin_1)*%
X89662000Y-29718000D03*
D13*
%TO.P,J1,2,Pin_2*%
%TO.N,Net-(J1-Pin_2)*%
X92202000Y-29718000D03*
%TO.P,J1,3,Pin_3*%
%TO.N,Net-(J1-Pin_3)*%
X94742000Y-29718000D03*
%TO.P,J1,4,Pin_4*%
%TO.N,Net-(J1-Pin_4)*%
X97282000Y-29718000D03*
%TO.P,J1,5,Pin_5*%
%TO.N,Net-(J1-Pin_5)*%
X99822000Y-29718000D03*
%TO.P,J1,6,Pin_6*%
%TO.N,Net-(J1-Pin_6)*%
X102362000Y-29718000D03*
%TO.P,J1,7,Pin_7*%
%TO.N,Net-(J1-Pin_7)*%
X104902000Y-29718000D03*
%TO.P,J1,8,Pin_8*%
%TO.N,Net-(J1-Pin_8)*%
X107442000Y-29718000D03*
%TO.P,J1,9,Pin_9*%
%TO.N,Net-(J1-Pin_9)*%
X109982000Y-29718000D03*
%TO.P,J1,10,Pin_10*%
%TO.N,Net-(J1-Pin_10)*%
X112522000Y-29718000D03*
%TO.P,J1,11,Pin_11*%
%TO.N,Net-(J1-Pin_11)*%
X115062000Y-29718000D03*
%TO.P,J1,12,Pin_12*%
%TO.N,GNDREF*%
X117602000Y-29718000D03*
%TO.P,J1,13,Pin_13*%
%TO.N,Net-(J1-Pin_13)*%
X120142000Y-29718000D03*
%TO.P,J1,14,Pin_14*%
%TO.N,Net-(J1-Pin_14)*%
X122682000Y-29718000D03*
%TO.P,J1,15,Pin_15*%
%TO.N,Net-(D3-K)*%
X125222000Y-29718000D03*
%TO.P,J1,16,Pin_16*%
%TO.N,Net-(J1-Pin_16)*%
X127762000Y-29718000D03*
%TO.P,J1,17,Pin_17*%
%TO.N,Net-(J1-Pin_17)*%
X130302000Y-29718000D03*
%TO.P,J1,18,Pin_18*%
%TO.N,Net-(J1-Pin_18)*%
X132842000Y-29718000D03*
%TO.P,J1,19,Pin_19*%
%TO.N,Net-(J1-Pin_19)*%
X135382000Y-29718000D03*
%TO.P,J1,20,Pin_20*%
%TO.N,Net-(J1-Pin_20)*%
X137922000Y-29718000D03*
%TO.P,J1,21,Pin_21*%
%TO.N,Net-(BZ1--)*%
X140462000Y-29718000D03*
%TO.P,J1,22,Pin_22*%
%TO.N,Net-(BZ1-+)*%
X143002000Y-29718000D03*
%TD*%
D14*
%TO.P,BZ1,1,-*%
%TO.N,Net-(BZ1--)*%
X166510000Y-43670000D03*
D15*
%TO.P,BZ1,2,+*%
%TO.N,Net-(BZ1-+)*%
X174110000Y-43670000D03*
%TD*%
D16*
%TO.P,SW17,1*%
%TO.N,Net-(J1-Pin_11)*%
X62470000Y-101070000D03*
X74970000Y-101070000D03*
%TO.P,SW17,2*%
%TO.N,GNDREF*%
X62470000Y-106070000D03*
X74970000Y-106070000D03*
%TD*%
D17*
%TO.P,75R,1*%
%TO.N,Net-(J1-Pin_13)*%
X59480000Y-76690000D03*
D18*
%TO.P,75R,2*%
%TO.N,Net-(D1-A)*%
X69640000Y-76690000D03*
%TD*%
D17*
%TO.P,10K,1*%
%TO.N,Net-(J1-Pin_17)*%
X95850000Y-70560000D03*
D18*
%TO.P,10K,2*%
%TO.N,Net-(Q1-B)*%
X85690000Y-70560000D03*
%TD*%
D19*
%TO.P,3161AS,1,CA*%
%TO.N,Net-(Q2-C)*%
X98210000Y-51350000D03*
D17*
%TO.P,3161AS,2,F*%
%TO.N,Net-(U1-F)*%
X98210000Y-53890000D03*
%TO.P,3161AS,3,G*%
%TO.N,Net-(U1-G)*%
X98210000Y-56430000D03*
%TO.P,3161AS,4,E*%
%TO.N,Net-(U1-E)*%
X98210000Y-58970000D03*
%TO.P,3161AS,5,D*%
%TO.N,Net-(U1-D)*%
X98210000Y-61510000D03*
%TO.P,3161AS,6,CA*%
%TO.N,Net-(Q2-C)*%
X103290000Y-61510000D03*
%TO.P,3161AS,7,DP*%
%TO.N,Net-(U1-DP)*%
X103290000Y-58970000D03*
%TO.P,3161AS,8,C*%
%TO.N,Net-(U1-C)*%
X103290000Y-56430000D03*
%TO.P,3161AS,9,B*%
%TO.N,Net-(U1-B)*%
X103290000Y-53890000D03*
%TO.P,3161AS,10,A*%
%TO.N,Net-(U1-A)*%
X103290000Y-51350000D03*
%TD*%
D18*
%TO.P,75R,2*%
%TO.N,Net-(J1-Pin_16)*%
X159640000Y-81170000D03*
D17*
%TO.P,75R,1*%
%TO.N,Net-(D3-A)*%
X149480000Y-81170000D03*
%TD*%
%TO.P,470R,1*%
%TO.N,Net-(J1-Pin_2)*%
X50780000Y-66370000D03*
D18*
%TO.P,470R,2*%
%TO.N,Net-(U1-G)*%
X60940000Y-66370000D03*
%TD*%
D20*
%TO.P,SW8,1*%
%TO.N,Net-(J1-Pin_8)*%
X166740000Y-121060000D03*
X179240000Y-121060000D03*
%TO.P,SW8,2*%
%TO.N,GNDREF*%
X166740000Y-126060000D03*
X179240000Y-126060000D03*
%TD*%
D17*
%TO.P,1K,1*%
%TO.N,Net-(BZ1-+)*%
X174060000Y-51720000D03*
D18*
%TO.P,1K,2*%
%TO.N,Net-(J1-Pin_16)*%
X174060000Y-61880000D03*
%TD*%
D21*
%TO.P,D3,1,K*%
%TO.N,Net-(D3-K)*%
X131260000Y-81440000D03*
D22*
%TO.P,D3,2,A*%
%TO.N,Net-(D3-A)*%
X133800000Y-81440000D03*
%TD*%
D17*
%TO.P,470R,1*%
%TO.N,Net-(J1-Pin_8)*%
X50780000Y-42070000D03*
D18*
%TO.P,470R,2*%
%TO.N,Net-(U1-A)*%
X60940000Y-42070000D03*
%TD*%
D17*
%TO.P,470R,1*%
%TO.N,Net-(J1-Pin_3)*%
X50780000Y-62320000D03*
D18*
%TO.P,470R,2*%
%TO.N,Net-(U1-F)*%
X60940000Y-62320000D03*
%TD*%
D17*
%TO.P,470R,1*%
%TO.N,Net-(J1-Pin_1)*%
X50780000Y-70420000D03*
D18*
%TO.P,470R,2*%
%TO.N,Net-(U1-DP)*%
X60940000Y-70420000D03*
%TD*%
D17*
%TO.P,470R,1*%
%TO.N,Net-(J1-Pin_4)*%
X50780000Y-58270000D03*
D18*
%TO.P,470R,2*%
%TO.N,Net-(U1-E)*%
X60940000Y-58270000D03*
%TD*%
D20*
%TO.P,SW3,1*%
%TO.N,Net-(J1-Pin_3)*%
X86480000Y-121240000D03*
X98980000Y-121240000D03*
%TO.P,SW3,2*%
%TO.N,GNDREF*%
X86480000Y-126240000D03*
X98980000Y-126240000D03*
%TD*%
D18*
%TO.P,75R,2*%
%TO.N,Net-(D3-A)*%
X147270000Y-81180000D03*
D17*
%TO.P,75R,1*%
%TO.N,GNDREF*%
X137110000Y-81180000D03*
%TD*%
%TO.P,75R,1*%
%TO.N,Net-(J1-Pin_14)*%
X91630000Y-76670000D03*
D18*
%TO.P,75R,2*%
%TO.N,Net-(D2-A)*%
X101790000Y-76670000D03*
%TD*%
D20*
%TO.P,SW2,1*%
%TO.N,Net-(J1-Pin_2)*%
X70440000Y-121240000D03*
X82940000Y-121240000D03*
%TO.P,SW2,2*%
%TO.N,GNDREF*%
X70440000Y-126240000D03*
X82940000Y-126240000D03*
%TD*%
D21*
%TO.P,D2,1,K*%
%TO.N,GNDREF*%
X99290000Y-81500000D03*
D22*
%TO.P,D2,2,A*%
%TO.N,Net-(D2-A)*%
X101830000Y-81500000D03*
%TD*%
D17*
%TO.P,10K,1*%
%TO.N,Net-(J1-Pin_19)*%
X148310000Y-70630000D03*
D18*
%TO.P,10K,2*%
%TO.N,Net-(Q3-B)*%
X138150000Y-70630000D03*
%TD*%
D20*
%TO.P,SW18,1*%
%TO.N,Net-(J1-Pin_10)*%
X126470000Y-101080000D03*
X138970000Y-101080000D03*
%TO.P,SW18,2*%
%TO.N,GNDREF*%
X126470000Y-106080000D03*
X138970000Y-106080000D03*
%TD*%
%TO.P,SW19,1*%
%TO.N,Net-(J1-Pin_9)*%
X158220000Y-101060000D03*
X170720000Y-101060000D03*
%TO.P,SW19,2*%
%TO.N,GNDREF*%
X158220000Y-106060000D03*
X170720000Y-106060000D03*
%TD*%
D21*
%TO.P,D1,1,K*%
%TO.N,GNDREF*%
X67100000Y-81540000D03*
D22*
%TO.P,D1,2,A*%
%TO.N,Net-(D1-A)*%
X69640000Y-81540000D03*
%TD*%
D17*
%TO.P,10K,1*%
%TO.N,Net-(J1-Pin_18)*%
X116060000Y-70640000D03*
D18*
%TO.P,10K,2*%
%TO.N,Net-(Q2-B)*%
X105900000Y-70640000D03*
%TD*%
D17*
%TO.P,470R,1*%
%TO.N,Net-(J1-Pin_5)*%
X50780000Y-54220000D03*
D18*
%TO.P,470R,2*%
%TO.N,Net-(U1-D)*%
X60940000Y-54220000D03*
%TD*%
D20*
%TO.P,SW6,1*%
%TO.N,Net-(J1-Pin_6)*%
X134550000Y-121200000D03*
X147050000Y-121200000D03*
%TO.P,SW6,2*%
%TO.N,GNDREF*%
X134550000Y-126200000D03*
X147050000Y-126200000D03*
%TD*%
D19*
%TO.P,3161AS,1,CA*%
%TO.N,Net-(Q4-C)*%
X150952500Y-51402500D03*
D17*
%TO.P,3161AS,2,F*%
%TO.N,Net-(U1-F)*%
X150952500Y-53942500D03*
%TO.P,3161AS,3,G*%
%TO.N,Net-(U1-G)*%
X150952500Y-56482500D03*
%TO.P,3161AS,4,E*%
%TO.N,Net-(U1-E)*%
X150952500Y-59022500D03*
%TO.P,3161AS,5,D*%
%TO.N,Net-(U1-D)*%
X150952500Y-61562500D03*
%TO.P,3161AS,6,CA*%
%TO.N,Net-(Q4-C)*%
X156032500Y-61562500D03*
%TO.P,3161AS,7,DP*%
%TO.N,Net-(U1-DP)*%
X156032500Y-59022500D03*
%TO.P,3161AS,8,C*%
%TO.N,Net-(U1-C)*%
X156032500Y-56482500D03*
%TO.P,3161AS,9,B*%
%TO.N,Net-(U1-B)*%
X156032500Y-53942500D03*
%TO.P,3161AS,10,A*%
%TO.N,Net-(U1-A)*%
X156032500Y-51402500D03*
%TD*%
%TO.P,470R,1*%
%TO.N,Net-(J1-Pin_6)*%
X50780000Y-50170000D03*
D18*
%TO.P,470R,2*%
%TO.N,Net-(U1-C)*%
X60940000Y-50170000D03*
%TD*%
D20*
%TO.P,SW9,1*%
%TO.N,Net-(J1-Pin_1)*%
X54340000Y-141190000D03*
X66840000Y-141190000D03*
%TO.P,SW9,2*%
%TO.N,GNDREF*%
X54340000Y-146190000D03*
X66840000Y-146190000D03*
%TD*%
%TO.P,SW12,1*%
%TO.N,Net-(J1-Pin_4)*%
X102470000Y-141170000D03*
X114970000Y-141170000D03*
%TO.P,SW12,2*%
%TO.N,GNDREF*%
X102470000Y-146170000D03*
X114970000Y-146170000D03*
%TD*%
D21*
%TO.P,D4,1,K*%
%TO.N,Net-(D3-A)*%
X163040000Y-81520000D03*
D22*
%TO.P,D4,2,A*%
%TO.N,Net-(D3-K)*%
X165580000Y-81520000D03*
%TD*%
D17*
%TO.P,470R,1*%
%TO.N,Net-(J1-Pin_7)*%
X50780000Y-46120000D03*
D18*
%TO.P,470R,2*%
%TO.N,Net-(U1-B)*%
X60940000Y-46120000D03*
%TD*%
D20*
%TO.P,SW13,1*%
%TO.N,Net-(J1-Pin_5)*%
X118510000Y-141180000D03*
X131010000Y-141180000D03*
%TO.P,SW13,2*%
%TO.N,GNDREF*%
X118510000Y-146180000D03*
X131010000Y-146180000D03*
%TD*%
%TO.P,SW14,1*%
%TO.N,Net-(J1-Pin_6)*%
X134520000Y-141180000D03*
X147020000Y-141180000D03*
%TO.P,SW14,2*%
%TO.N,GNDREF*%
X134520000Y-146180000D03*
X147020000Y-146180000D03*
%TD*%
%TO.P,SW16,1*%
%TO.N,Net-(J1-Pin_8)*%
X166560000Y-141190000D03*
X179060000Y-141190000D03*
%TO.P,SW16,2*%
%TO.N,GNDREF*%
X166560000Y-146190000D03*
X179060000Y-146190000D03*
%TD*%
D17*
%TO.P,10K,1*%
%TO.N,Net-(J1-Pin_20)*%
X168656000Y-70612000D03*
D18*
%TO.P,10K,2*%
%TO.N,Net-(Q4-B)*%
X158496000Y-70612000D03*
%TD*%
D20*
%TO.P,SW4,2*%
%TO.N,GNDREF*%
X115000000Y-126220000D03*
X102500000Y-126220000D03*
%TO.P,SW4,1*%
%TO.N,Net-(J1-Pin_4)*%
X115000000Y-121220000D03*
X102500000Y-121220000D03*
%TD*%
%TO.P,SW1,2*%
%TO.N,GNDREF*%
X66880000Y-126270000D03*
X54380000Y-126270000D03*
%TO.P,SW1,1*%
%TO.N,Net-(J1-Pin_1)*%
X66880000Y-121270000D03*
X54380000Y-121270000D03*
%TD*%
%TO.P,SW5,1*%
%TO.N,Net-(J1-Pin_5)*%
X118510000Y-121220000D03*
X131010000Y-121220000D03*
%TO.P,SW5,2*%
%TO.N,GNDREF*%
X118510000Y-126220000D03*
X131010000Y-126220000D03*
%TD*%
D17*
%TO.P,1K,1*%
%TO.N,Net-(J1-Pin_16)*%
X166470000Y-61860000D03*
D18*
%TO.P,1K,2*%
%TO.N,Net-(BZ1--)*%
X166470000Y-51700000D03*
%TD*%
D19*
%TO.P,3161AS,1,CA*%
%TO.N,Net-(Q1-C)*%
X78220000Y-51340000D03*
D17*
%TO.P,3161AS,2,F*%
%TO.N,Net-(U1-F)*%
X78220000Y-53880000D03*
%TO.P,3161AS,3,G*%
%TO.N,Net-(U1-G)*%
X78220000Y-56420000D03*
%TO.P,3161AS,4,E*%
%TO.N,Net-(U1-E)*%
X78220000Y-58960000D03*
%TO.P,3161AS,5,D*%
%TO.N,Net-(U1-D)*%
X78220000Y-61500000D03*
%TO.P,3161AS,6,CA*%
%TO.N,Net-(Q1-C)*%
X83300000Y-61500000D03*
%TO.P,3161AS,7,DP*%
%TO.N,Net-(U1-DP)*%
X83300000Y-58960000D03*
%TO.P,3161AS,8,C*%
%TO.N,Net-(U1-C)*%
X83300000Y-56420000D03*
%TO.P,3161AS,9,B*%
%TO.N,Net-(U1-B)*%
X83300000Y-53880000D03*
%TO.P,3161AS,10,A*%
%TO.N,Net-(U1-A)*%
X83300000Y-51340000D03*
%TD*%
D20*
%TO.P,SW11,1*%
%TO.N,Net-(J1-Pin_3)*%
X86470000Y-141210000D03*
X98970000Y-141210000D03*
%TO.P,SW11,2*%
%TO.N,GNDREF*%
X86470000Y-146210000D03*
X98970000Y-146210000D03*
%TD*%
D19*
%TO.P,3161AS,1,CA*%
%TO.N,Net-(Q3-C)*%
X130370000Y-51340000D03*
D17*
%TO.P,3161AS,2,F*%
%TO.N,Net-(U1-F)*%
X130370000Y-53880000D03*
%TO.P,3161AS,3,G*%
%TO.N,Net-(U1-G)*%
X130370000Y-56420000D03*
%TO.P,3161AS,4,E*%
%TO.N,Net-(U1-E)*%
X130370000Y-58960000D03*
%TO.P,3161AS,5,D*%
%TO.N,Net-(U1-D)*%
X130370000Y-61500000D03*
%TO.P,3161AS,6,CA*%
%TO.N,Net-(Q3-C)*%
X135450000Y-61500000D03*
%TO.P,3161AS,7,DP*%
%TO.N,Net-(U1-DP)*%
X135450000Y-58960000D03*
%TO.P,3161AS,8,C*%
%TO.N,Net-(U1-C)*%
X135450000Y-56420000D03*
%TO.P,3161AS,9,B*%
%TO.N,Net-(U1-B)*%
X135450000Y-53880000D03*
%TO.P,3161AS,10,A*%
%TO.N,Net-(U1-A)*%
X135450000Y-51340000D03*
%TD*%
D20*
%TO.P,SW7,1*%
%TO.N,Net-(J1-Pin_7)*%
X150620000Y-121150000D03*
X163120000Y-121150000D03*
%TO.P,SW7,2*%
%TO.N,GNDREF*%
X150620000Y-126150000D03*
X163120000Y-126150000D03*
%TD*%
%TO.P,SW15,1*%
%TO.N,Net-(J1-Pin_7)*%
X150520000Y-141180000D03*
X163020000Y-141180000D03*
%TO.P,SW15,2*%
%TO.N,GNDREF*%
X150520000Y-146180000D03*
X163020000Y-146180000D03*
%TD*%
%TO.P,SW10,1*%
%TO.N,Net-(J1-Pin_2)*%
X70430000Y-141200000D03*
X82930000Y-141200000D03*
%TO.P,SW10,2*%
%TO.N,GNDREF*%
X70430000Y-146200000D03*
X82930000Y-146200000D03*
%TD*%
D23*
%TO.N,*%
X186770000Y-74630000D03*
X45760000Y-122630000D03*
X78310000Y-29130000D03*
X186720000Y-122690000D03*
X154280000Y-29110000D03*
X154260000Y-160100000D03*
X78300000Y-160160000D03*
X45790000Y-74630000D03*
D24*
%TO.N,Net-(U1-A)*%
X135450000Y-39370000D03*
X156020000Y-39370000D03*
X83330000Y-39360000D03*
X103300000Y-39390000D03*
%TO.N,Net-(U1-B)*%
X157260000Y-40160000D03*
X136730000Y-40140000D03*
X104660000Y-40150000D03*
X84720000Y-40130000D03*
%TO.N,Net-(U1-C)*%
X158450000Y-40910000D03*
X138210000Y-40890000D03*
X106020000Y-40920000D03*
X86170000Y-40900000D03*
%TO.N,Net-(U1-D)*%
X145630000Y-41690000D03*
X93170000Y-41660000D03*
X125220000Y-41670000D03*
X72910000Y-41630000D03*
%TO.N,Net-(U1-E)*%
X126700000Y-42450000D03*
X94370000Y-42410000D03*
X147140000Y-42450000D03*
X74300000Y-42420000D03*
%TO.N,Net-(U1-F)*%
X129130000Y-43180000D03*
X96940000Y-43200000D03*
X149650000Y-43200000D03*
X76970000Y-43190000D03*
%TO.N,Net-(U1-G)*%
X148250000Y-43970000D03*
X95490000Y-43960000D03*
X127960000Y-43940000D03*
X75670000Y-43940000D03*
%TO.N,Net-(U1-DP)*%
X107470000Y-44710000D03*
X159600000Y-44690000D03*
X139730000Y-44720000D03*
X87760000Y-44730000D03*
%TD*%
D25*
%TO.N,Net-(J1-Pin_16)*%
X159512000Y-38354000D02*
X136398000Y-38354000D01*
X162560000Y-41402000D02*
X159512000Y-38354000D01*
X162560000Y-62738000D02*
X162560000Y-41402000D01*
X136398000Y-38354000D02*
X127762000Y-29718000D01*
X168656000Y-64262000D02*
X164084000Y-64262000D01*
X164084000Y-64262000D02*
X162560000Y-62738000D01*
X169926000Y-61880000D02*
X169926000Y-62992000D01*
X169926000Y-62992000D02*
X168656000Y-64262000D01*
%TO.N,Net-(J1-Pin_8)*%
X107442000Y-32758000D02*
X107442000Y-29718000D01*
%TO.N,Net-(J1-Pin_7)*%
X104902000Y-32758000D02*
X104902000Y-29718000D01*
%TO.N,Net-(J1-Pin_6)*%
X102362000Y-32758000D02*
X102362000Y-29718000D01*
%TO.N,Net-(J1-Pin_5)*%
X99822000Y-32758000D02*
X99822000Y-29718000D01*
%TO.N,Net-(J1-Pin_4)*%
X97282000Y-32758000D02*
X97282000Y-29718000D01*
%TO.N,Net-(J1-Pin_3)*%
X94742000Y-32758000D02*
X94742000Y-29718000D01*
%TO.N,Net-(J1-Pin_2)*%
X92202000Y-32758000D02*
X92202000Y-29718000D01*
%TO.N,Net-(J1-Pin_1)*%
X89662000Y-32758000D02*
X89662000Y-29718000D01*
X44158000Y-35344000D02*
X46122000Y-33380000D01*
X46122000Y-33380000D02*
X89040000Y-33380000D01*
X44158000Y-68630000D02*
X44158000Y-35344000D01*
X45988000Y-70460000D02*
X44158000Y-68630000D01*
X50740000Y-70460000D02*
X45988000Y-70460000D01*
X89040000Y-33380000D02*
X89662000Y-32758000D01*
X50780000Y-70420000D02*
X50740000Y-70460000D01*
%TO.N,Net-(J1-Pin_8)*%
X103540000Y-36660000D02*
X107442000Y-32758000D01*
X48182000Y-36660000D02*
X103540000Y-36660000D01*
X47356198Y-37485802D02*
X48182000Y-36660000D01*
X47356198Y-40258198D02*
X47356198Y-37485802D01*
X50770000Y-42060000D02*
X49158000Y-42060000D01*
X49158000Y-42060000D02*
X47356198Y-40258198D01*
X50780000Y-42070000D02*
X50770000Y-42060000D01*
%TO.N,Net-(J1-Pin_7)*%
X46906198Y-37167802D02*
X47864000Y-36210000D01*
X47864000Y-36210000D02*
X101450000Y-36210000D01*
X46906198Y-44758198D02*
X46906198Y-37167802D01*
X50770000Y-46130000D02*
X48278000Y-46130000D01*
X48278000Y-46130000D02*
X46906198Y-44758198D01*
X50780000Y-46120000D02*
X50770000Y-46130000D01*
X101450000Y-36210000D02*
X104902000Y-32758000D01*
%TO.N,Net-(J1-Pin_6)*%
X99400000Y-35720000D02*
X102362000Y-32758000D01*
X47592000Y-35720000D02*
X99400000Y-35720000D01*
X46456198Y-36855802D02*
X47592000Y-35720000D01*
X46456198Y-48568198D02*
X46456198Y-36855802D01*
X48058000Y-50170000D02*
X46456198Y-48568198D01*
X50780000Y-50170000D02*
X48058000Y-50170000D01*
%TO.N,Net-(J1-Pin_5)*%
X47280000Y-35270000D02*
X97310000Y-35270000D01*
X46006198Y-36543802D02*
X47280000Y-35270000D01*
X46006198Y-52638198D02*
X46006198Y-36543802D01*
X97310000Y-35270000D02*
X99822000Y-32758000D01*
X47608000Y-54240000D02*
X46006198Y-52638198D01*
X50760000Y-54240000D02*
X47608000Y-54240000D01*
X50780000Y-54220000D02*
X50760000Y-54240000D01*
%TO.N,Net-(J1-Pin_4)*%
X95240000Y-34800000D02*
X97282000Y-32758000D01*
X45548000Y-36240000D02*
X46988000Y-34800000D01*
X45548000Y-56630000D02*
X45548000Y-36240000D01*
X47178000Y-58260000D02*
X45548000Y-56630000D01*
X50770000Y-58260000D02*
X47178000Y-58260000D01*
X50780000Y-58270000D02*
X50770000Y-58260000D01*
X46988000Y-34800000D02*
X95240000Y-34800000D01*
%TO.N,Net-(J1-Pin_3)*%
X45098000Y-35928000D02*
X46686000Y-34340000D01*
X93160000Y-34340000D02*
X94742000Y-32758000D01*
X45098000Y-60500000D02*
X45098000Y-35928000D01*
X50770000Y-62310000D02*
X46908000Y-62310000D01*
X46908000Y-62310000D02*
X45098000Y-60500000D01*
X50780000Y-62320000D02*
X50770000Y-62310000D01*
X46686000Y-34340000D02*
X93160000Y-34340000D01*
%TO.N,Net-(J1-Pin_2)*%
X91130000Y-33830000D02*
X92202000Y-32758000D01*
X46434000Y-33830000D02*
X91130000Y-33830000D01*
X44648000Y-64210000D02*
X44648000Y-35616000D01*
X46838000Y-66400000D02*
X44648000Y-64210000D01*
X44648000Y-35616000D02*
X46434000Y-33830000D01*
X50750000Y-66400000D02*
X46838000Y-66400000D01*
X50780000Y-66370000D02*
X50750000Y-66400000D01*
%TO.N,Net-(J1-Pin_16)*%
X169926000Y-61880000D02*
X170180000Y-61880000D01*
X166490000Y-61880000D02*
X169926000Y-61880000D01*
X170180000Y-61880000D02*
X174060000Y-61880000D01*
%TO.N,Net-(U1-A)*%
X83340000Y-39370000D02*
X103280000Y-39370000D01*
X103300000Y-39390000D02*
X103320000Y-39370000D01*
X60940000Y-42070000D02*
X66642000Y-42070000D01*
X103280000Y-39370000D02*
X103300000Y-39390000D01*
X103320000Y-39370000D02*
X156020000Y-39370000D01*
X66642000Y-42070000D02*
X69342000Y-39370000D01*
X83330000Y-39360000D02*
X83340000Y-39370000D01*
X83320000Y-39370000D02*
X83330000Y-39360000D01*
X69342000Y-39370000D02*
X83320000Y-39370000D01*
%TO.N,Net-(U1-B)*%
X84705848Y-40115848D02*
X71452010Y-40115848D01*
X63608000Y-46120000D02*
X69568000Y-40160000D01*
X87766010Y-40115848D02*
X84734152Y-40115848D01*
X104650000Y-40160000D02*
X104660000Y-40150000D01*
X87778010Y-40115848D02*
X87772010Y-40121848D01*
X84720000Y-40130000D02*
X84705848Y-40115848D01*
X104660000Y-40150000D02*
X104670000Y-40160000D01*
X69568000Y-40160000D02*
X104650000Y-40160000D01*
X60940000Y-46120000D02*
X63608000Y-46120000D01*
X87772010Y-40121848D02*
X87766010Y-40115848D01*
X104670000Y-40160000D02*
X157260000Y-40160000D01*
X84734152Y-40115848D02*
X84720000Y-40130000D01*
%TO.N,Net-(U1-C)*%
X60940000Y-49804000D02*
X60940000Y-50170000D01*
X138206000Y-40894000D02*
X86176000Y-40894000D01*
X138214000Y-40894000D02*
X158434000Y-40894000D01*
X158434000Y-40894000D02*
X158450000Y-40910000D01*
X138210000Y-40890000D02*
X138206000Y-40894000D01*
X86164000Y-40894000D02*
X86170000Y-40900000D01*
X69850000Y-40894000D02*
X60940000Y-49804000D01*
X69850000Y-40894000D02*
X86164000Y-40894000D01*
X138210000Y-40890000D02*
X138214000Y-40894000D01*
%TO.N,Net-(U1-D)*%
X64008000Y-47752000D02*
X70104000Y-41656000D01*
X145600000Y-41660000D02*
X145630000Y-41690000D01*
X93170000Y-41660000D02*
X145600000Y-41660000D01*
X70104000Y-41656000D02*
X93166000Y-41656000D01*
X93166000Y-41656000D02*
X93170000Y-41660000D01*
X60940000Y-54220000D02*
X64008000Y-51152000D01*
X64008000Y-51152000D02*
X64008000Y-47752000D01*
%TO.N,Net-(U1-E)*%
X94362000Y-42418000D02*
X94370000Y-42410000D01*
X74298000Y-42418000D02*
X74300000Y-42420000D01*
X74300000Y-42420000D02*
X74302000Y-42418000D01*
X74302000Y-42418000D02*
X94362000Y-42418000D01*
X94378000Y-42418000D02*
X147108000Y-42418000D01*
X64770000Y-48006000D02*
X70358000Y-42418000D01*
X60940000Y-58270000D02*
X64770000Y-54440000D01*
X147108000Y-42418000D02*
X147140000Y-42450000D01*
X64770000Y-54440000D02*
X64770000Y-48006000D01*
X94370000Y-42410000D02*
X94378000Y-42418000D01*
X70358000Y-42418000D02*
X74298000Y-42418000D01*
%TO.N,Net-(U1-F)*%
X65532000Y-48260000D02*
X70612000Y-43180000D01*
X70612000Y-43180000D02*
X76960000Y-43180000D01*
X65532000Y-57728000D02*
X65532000Y-48260000D01*
X129150000Y-43200000D02*
X149650000Y-43200000D01*
X60940000Y-62320000D02*
X65532000Y-57728000D01*
X76970000Y-43190000D02*
X76980000Y-43180000D01*
X76960000Y-43180000D02*
X76970000Y-43190000D01*
X76980000Y-43180000D02*
X129130000Y-43180000D01*
X129130000Y-43180000D02*
X129150000Y-43200000D01*
%TO.N,Net-(U1-G)*%
X75668000Y-43942000D02*
X75670000Y-43940000D01*
X66294000Y-48514000D02*
X70866000Y-43942000D01*
X127960000Y-43940000D02*
X127990000Y-43970000D01*
X60940000Y-66370000D02*
X66294000Y-61016000D01*
X75670000Y-43940000D02*
X75672000Y-43942000D01*
X70866000Y-43942000D02*
X75668000Y-43942000D01*
X127990000Y-43970000D02*
X148250000Y-43970000D01*
X75672000Y-43942000D02*
X127958000Y-43942000D01*
X66294000Y-61016000D02*
X66294000Y-48514000D01*
X127958000Y-43942000D02*
X127960000Y-43940000D01*
%TO.N,Net-(U1-DP)*%
X67056000Y-64262000D02*
X67056000Y-48768000D01*
X60940000Y-70420000D02*
X60940000Y-70378000D01*
X107464000Y-44704000D02*
X107470000Y-44710000D01*
X60940000Y-70378000D02*
X67056000Y-64262000D01*
X107470000Y-44710000D02*
X107476000Y-44704000D01*
X71120000Y-44704000D02*
X107464000Y-44704000D01*
X67056000Y-48768000D02*
X71120000Y-44704000D01*
X159586000Y-44704000D02*
X159600000Y-44690000D01*
X107476000Y-44704000D02*
X159586000Y-44704000D01*
%TO.N,Net-(J1-Pin_16)*%
X166470000Y-61860000D02*
X166490000Y-61880000D01*
%TO.N,Net-(BZ1--)*%
X166470000Y-43710000D02*
X166470000Y-51700000D01*
X166510000Y-43670000D02*
X166470000Y-43710000D01*
%TO.N,Net-(BZ1-+)*%
X174110000Y-51670000D02*
X174060000Y-51720000D01*
X174110000Y-43670000D02*
X174110000Y-51670000D01*
%TO.N,Net-(J1-Pin_1)*%
X50730000Y-70470000D02*
X50780000Y-70420000D01*
X54340000Y-141190000D02*
X66840000Y-141190000D01*
X51720000Y-71360000D02*
X51720000Y-118610000D01*
X56630000Y-138900000D02*
X54340000Y-141190000D01*
X51720000Y-118610000D02*
X54380000Y-121270000D01*
X54380000Y-121270000D02*
X66880000Y-121270000D01*
X54380000Y-121270000D02*
X56630000Y-123520000D01*
X56630000Y-123520000D02*
X56630000Y-138900000D01*
X50780000Y-70420000D02*
X51720000Y-71360000D01*
%TO.N,Net-(J1-Pin_2)*%
X68440000Y-119180000D02*
X68440000Y-119230000D01*
X70470000Y-121250000D02*
X70470000Y-121260000D01*
X55090000Y-119180000D02*
X68440000Y-119180000D01*
X52180000Y-67770000D02*
X52180000Y-116270000D01*
X52180000Y-116270000D02*
X55090000Y-119180000D01*
X70470000Y-121260000D02*
X82970000Y-121260000D01*
X50780000Y-66370000D02*
X52180000Y-67770000D01*
X68440000Y-119230000D02*
X70470000Y-121260000D01*
X50740000Y-66410000D02*
X50780000Y-66370000D01*
X73090000Y-123880000D02*
X73090000Y-138540000D01*
X70470000Y-121260000D02*
X73090000Y-123880000D01*
X70430000Y-141200000D02*
X82930000Y-141200000D01*
X73090000Y-138540000D02*
X70430000Y-141200000D01*
%TO.N,Net-(J1-Pin_3)*%
X86480000Y-121240000D02*
X98980000Y-121240000D01*
X52640000Y-116050000D02*
X55320000Y-118730000D01*
X52640000Y-64180000D02*
X52640000Y-116050000D01*
X50780000Y-62320000D02*
X52640000Y-64180000D01*
X86470000Y-141210000D02*
X98970000Y-141210000D01*
X55320000Y-118730000D02*
X83970000Y-118730000D01*
X89150000Y-123910000D02*
X89150000Y-138530000D01*
X89150000Y-138530000D02*
X86470000Y-141210000D01*
X86480000Y-121240000D02*
X89150000Y-123910000D01*
X83970000Y-118730000D02*
X86480000Y-121240000D01*
%TO.N,Net-(J1-Pin_4)*%
X105220000Y-138420000D02*
X102470000Y-141170000D01*
X50780000Y-58270000D02*
X53090000Y-60580000D01*
X102470000Y-141170000D02*
X114970000Y-141170000D01*
X105220000Y-123990000D02*
X105220000Y-138420000D01*
X99510000Y-118280000D02*
X102470000Y-121240000D01*
X53090000Y-115860000D02*
X55510000Y-118280000D01*
X53090000Y-60580000D02*
X53090000Y-115860000D01*
X102470000Y-121240000D02*
X105220000Y-123990000D01*
X55510000Y-118280000D02*
X99510000Y-118280000D01*
X102470000Y-121240000D02*
X114970000Y-121240000D01*
%TO.N,Net-(J1-Pin_5)*%
X53540000Y-115670000D02*
X55660000Y-117790000D01*
X121290000Y-124080000D02*
X121290000Y-138400000D01*
X53540000Y-56980000D02*
X53540000Y-115670000D01*
X118510000Y-141180000D02*
X131010000Y-141180000D01*
X121290000Y-138400000D02*
X118510000Y-141180000D01*
X50780000Y-54220000D02*
X53540000Y-56980000D01*
X50750000Y-54250000D02*
X50780000Y-54220000D01*
X55660000Y-117790000D02*
X115000000Y-117790000D01*
X118460000Y-121250000D02*
X121290000Y-124080000D01*
X115000000Y-117790000D02*
X118460000Y-121250000D01*
X118460000Y-121250000D02*
X130960000Y-121250000D01*
%TO.N,Net-(J1-Pin_6)*%
X137150000Y-124040000D02*
X137150000Y-138410000D01*
X134380000Y-141180000D02*
X146880000Y-141180000D01*
X134370000Y-121260000D02*
X137150000Y-124040000D01*
X137150000Y-138410000D02*
X134380000Y-141180000D01*
X53990000Y-53380000D02*
X53990000Y-115480000D01*
X55840000Y-117330000D02*
X130440000Y-117330000D01*
X53990000Y-115480000D02*
X55840000Y-117330000D01*
X50780000Y-50170000D02*
X53990000Y-53380000D01*
X130440000Y-117330000D02*
X134370000Y-121260000D01*
X134370000Y-121260000D02*
X146870000Y-121260000D01*
%TO.N,Net-(J1-Pin_7)*%
X150380000Y-121260000D02*
X153120000Y-124000000D01*
X54450000Y-115270000D02*
X56050000Y-116870000D01*
X54450000Y-49790000D02*
X54450000Y-115270000D01*
X145990000Y-116870000D02*
X150380000Y-121260000D01*
X153120000Y-138430000D02*
X150360000Y-141190000D01*
X153120000Y-124000000D02*
X153120000Y-138430000D01*
X150360000Y-141190000D02*
X162860000Y-141190000D01*
X150380000Y-121260000D02*
X162880000Y-121260000D01*
X56050000Y-116870000D02*
X145990000Y-116870000D01*
X50780000Y-46120000D02*
X54450000Y-49790000D01*
%TO.N,Net-(J1-Pin_8)*%
X166380000Y-141190000D02*
X178880000Y-141190000D01*
X168740000Y-123770000D02*
X168740000Y-138830000D01*
X161390000Y-116420000D02*
X166200000Y-121230000D01*
X50780000Y-42070000D02*
X50780000Y-41840000D01*
X54910000Y-115090000D02*
X56240000Y-116420000D01*
X50780000Y-41840000D02*
X54910000Y-45970000D01*
X166200000Y-121230000D02*
X168740000Y-123770000D01*
X56240000Y-116420000D02*
X161390000Y-116420000D01*
X166200000Y-121230000D02*
X178700000Y-121230000D01*
X168740000Y-138830000D02*
X166380000Y-141190000D01*
X54910000Y-45970000D02*
X54910000Y-115090000D01*
%TD*%
M02*
