%TF.GenerationSoftware,KiCad,Pcbnew,7.0.6*%
%TF.CreationDate,2024-01-22T18:50:32-05:00*%
%TF.ProjectId,CHESSmate PCB,43484553-536d-4617-9465-205043422e6b,rev?*%
%TF.SameCoordinates,Original*%
%TF.FileFunction,Drillmap*%
%TF.FilePolarity,Positive*%
%FSLAX45Y45*%
G04 Gerber Fmt 4.5, Leading zero omitted, Abs format (unit mm)*
G04 Created by KiCad (PCBNEW 7.0.6) date 2024-01-22 18:50:32*
%MOMM*%
%LPD*%
G01*
G04 APERTURE LIST*
%ADD10C,0.499998*%
%ADD11C,0.200000*%
%ADD12C,0.040000*%
%ADD13C,0.070000*%
%ADD14C,0.080000*%
%ADD15C,0.090000*%
%ADD16C,0.100000*%
%ADD17C,0.120000*%
%ADD18C,0.130000*%
%ADD19C,0.340000*%
G04 APERTURE END LIST*
D10*
X4135000Y-2483000D02*
X19120000Y-2468000D01*
X4137000Y-16456000D02*
X4135000Y-2483000D01*
X19085649Y-16456649D02*
X4137000Y-16456000D01*
X19120000Y-2468000D02*
X19085649Y-16456649D01*
D11*
D12*
X7271000Y-4143000D02*
X7311000Y-4183000D01*
X7311000Y-4143000D02*
X7271000Y-4183000D01*
X7410000Y-4222000D02*
X7450000Y-4262000D01*
X7450000Y-4222000D02*
X7410000Y-4262000D01*
X7547000Y-4374000D02*
X7587000Y-4414000D01*
X7587000Y-4374000D02*
X7547000Y-4414000D01*
X7677000Y-4299000D02*
X7717000Y-4339000D01*
X7717000Y-4299000D02*
X7677000Y-4339000D01*
X8313000Y-3916000D02*
X8353000Y-3956000D01*
X8353000Y-3916000D02*
X8313000Y-3956000D01*
X8452000Y-3993000D02*
X8492000Y-4033000D01*
X8492000Y-3993000D02*
X8452000Y-4033000D01*
X8597000Y-4070000D02*
X8637000Y-4110000D01*
X8637000Y-4070000D02*
X8597000Y-4110000D01*
X8756000Y-4453000D02*
X8796000Y-4493000D01*
X8796000Y-4453000D02*
X8756000Y-4493000D01*
X9297000Y-4146000D02*
X9337000Y-4186000D01*
X9337000Y-4146000D02*
X9297000Y-4186000D01*
X9417000Y-4221000D02*
X9457000Y-4261000D01*
X9457000Y-4221000D02*
X9417000Y-4261000D01*
X9529000Y-4376000D02*
X9569000Y-4416000D01*
X9569000Y-4376000D02*
X9529000Y-4416000D01*
X9674000Y-4300000D02*
X9714000Y-4340000D01*
X9714000Y-4300000D02*
X9674000Y-4340000D01*
X10310000Y-3919000D02*
X10350000Y-3959000D01*
X10350000Y-3919000D02*
X10310000Y-3959000D01*
X10446000Y-3995000D02*
X10486000Y-4035000D01*
X10486000Y-3995000D02*
X10446000Y-4035000D01*
X10582000Y-4072000D02*
X10622000Y-4112000D01*
X10622000Y-4072000D02*
X10582000Y-4112000D01*
X10727000Y-4451000D02*
X10767000Y-4491000D01*
X10767000Y-4451000D02*
X10727000Y-4491000D01*
X12502000Y-4147000D02*
X12542000Y-4187000D01*
X12542000Y-4147000D02*
X12502000Y-4187000D01*
X12650000Y-4225000D02*
X12690000Y-4265000D01*
X12690000Y-4225000D02*
X12650000Y-4265000D01*
X12776000Y-4374000D02*
X12816000Y-4414000D01*
X12816000Y-4374000D02*
X12776000Y-4414000D01*
X12893000Y-4298000D02*
X12933000Y-4338000D01*
X12933000Y-4298000D02*
X12893000Y-4338000D01*
X13525000Y-3917000D02*
X13565000Y-3957000D01*
X13565000Y-3917000D02*
X13525000Y-3957000D01*
X13653000Y-3994000D02*
X13693000Y-4034000D01*
X13693000Y-3994000D02*
X13653000Y-4034000D01*
X13801000Y-4069000D02*
X13841000Y-4109000D01*
X13841000Y-4069000D02*
X13801000Y-4109000D01*
X13953000Y-4452000D02*
X13993000Y-4492000D01*
X13993000Y-4452000D02*
X13953000Y-4492000D01*
X14543000Y-4149000D02*
X14583000Y-4189000D01*
X14583000Y-4149000D02*
X14543000Y-4189000D01*
X14694000Y-4225000D02*
X14734000Y-4265000D01*
X14734000Y-4225000D02*
X14694000Y-4265000D01*
X14805000Y-4377000D02*
X14845000Y-4417000D01*
X14845000Y-4377000D02*
X14805000Y-4417000D01*
X14945000Y-4300000D02*
X14985000Y-4340000D01*
X14985000Y-4300000D02*
X14945000Y-4340000D01*
X15582000Y-3917000D02*
X15622000Y-3957000D01*
X15622000Y-3917000D02*
X15582000Y-3957000D01*
X15706000Y-3996000D02*
X15746000Y-4036000D01*
X15746000Y-3996000D02*
X15706000Y-4036000D01*
X15825000Y-4071000D02*
X15865000Y-4111000D01*
X15865000Y-4071000D02*
X15825000Y-4111000D01*
X15940000Y-4449000D02*
X15980000Y-4489000D01*
X15980000Y-4449000D02*
X15940000Y-4489000D01*
D13*
X8015472Y-6928472D02*
G75*
G03*
X8015472Y-6928472I-35000J0D01*
G01*
X8142472Y-7055472D02*
G75*
G03*
X8142472Y-7055472I-35000J0D01*
G01*
X8269472Y-6928472D02*
G75*
G03*
X8269472Y-6928472I-35000J0D01*
G01*
X10008000Y-6936000D02*
G75*
G03*
X10008000Y-6936000I-35000J0D01*
G01*
X10135000Y-7063000D02*
G75*
G03*
X10135000Y-7063000I-35000J0D01*
G01*
X10262000Y-6936000D02*
G75*
G03*
X10262000Y-6936000I-35000J0D01*
G01*
X13217000Y-6934000D02*
G75*
G03*
X13217000Y-6934000I-35000J0D01*
G01*
X13344000Y-7061000D02*
G75*
G03*
X13344000Y-7061000I-35000J0D01*
G01*
X13471000Y-6934000D02*
G75*
G03*
X13471000Y-6934000I-35000J0D01*
G01*
X15275472Y-6936472D02*
G75*
G03*
X15275472Y-6936472I-35000J0D01*
G01*
X15402472Y-7063472D02*
G75*
G03*
X15402472Y-7063472I-35000J0D01*
G01*
X15529472Y-6936472D02*
G75*
G03*
X15529472Y-6936472I-35000J0D01*
G01*
D14*
X5078000Y-4167000D02*
X5078000Y-4247000D01*
X5038000Y-4207000D02*
X5118000Y-4207000D01*
X5078000Y-4572000D02*
X5078000Y-4652000D01*
X5038000Y-4612000D02*
X5118000Y-4612000D01*
X5078000Y-4977000D02*
X5078000Y-5057000D01*
X5038000Y-5017000D02*
X5118000Y-5017000D01*
X5078000Y-5382000D02*
X5078000Y-5462000D01*
X5038000Y-5422000D02*
X5118000Y-5422000D01*
X5078000Y-5787000D02*
X5078000Y-5867000D01*
X5038000Y-5827000D02*
X5118000Y-5827000D01*
X5078000Y-6192000D02*
X5078000Y-6272000D01*
X5038000Y-6232000D02*
X5118000Y-6232000D01*
X5078000Y-6597000D02*
X5078000Y-6677000D01*
X5038000Y-6637000D02*
X5118000Y-6637000D01*
X5078000Y-7002000D02*
X5078000Y-7082000D01*
X5038000Y-7042000D02*
X5118000Y-7042000D01*
X5948000Y-7629000D02*
X5948000Y-7709000D01*
X5908000Y-7669000D02*
X5988000Y-7669000D01*
X6094000Y-4167000D02*
X6094000Y-4247000D01*
X6054000Y-4207000D02*
X6134000Y-4207000D01*
X6094000Y-4572000D02*
X6094000Y-4652000D01*
X6054000Y-4612000D02*
X6134000Y-4612000D01*
X6094000Y-4977000D02*
X6094000Y-5057000D01*
X6054000Y-5017000D02*
X6134000Y-5017000D01*
X6094000Y-5382000D02*
X6094000Y-5462000D01*
X6054000Y-5422000D02*
X6134000Y-5422000D01*
X6094000Y-5787000D02*
X6094000Y-5867000D01*
X6054000Y-5827000D02*
X6134000Y-5827000D01*
X6094000Y-6192000D02*
X6094000Y-6272000D01*
X6054000Y-6232000D02*
X6134000Y-6232000D01*
X6094000Y-6597000D02*
X6094000Y-6677000D01*
X6054000Y-6637000D02*
X6134000Y-6637000D01*
X6094000Y-7002000D02*
X6094000Y-7082000D01*
X6054000Y-7042000D02*
X6134000Y-7042000D01*
X6964000Y-7629000D02*
X6964000Y-7709000D01*
X6924000Y-7669000D02*
X7004000Y-7669000D01*
X7822000Y-5094000D02*
X7822000Y-5174000D01*
X7782000Y-5134000D02*
X7862000Y-5134000D01*
X7822000Y-5348000D02*
X7822000Y-5428000D01*
X7782000Y-5388000D02*
X7862000Y-5388000D01*
X7822000Y-5602000D02*
X7822000Y-5682000D01*
X7782000Y-5642000D02*
X7862000Y-5642000D01*
X7822000Y-5856000D02*
X7822000Y-5936000D01*
X7782000Y-5896000D02*
X7862000Y-5896000D01*
X7822000Y-6110000D02*
X7822000Y-6190000D01*
X7782000Y-6150000D02*
X7862000Y-6150000D01*
X8330000Y-5094000D02*
X8330000Y-5174000D01*
X8290000Y-5134000D02*
X8370000Y-5134000D01*
X8330000Y-5348000D02*
X8330000Y-5428000D01*
X8290000Y-5388000D02*
X8370000Y-5388000D01*
X8330000Y-5602000D02*
X8330000Y-5682000D01*
X8290000Y-5642000D02*
X8370000Y-5642000D01*
X8330000Y-5856000D02*
X8330000Y-5936000D01*
X8290000Y-5896000D02*
X8370000Y-5896000D01*
X8330000Y-6110000D02*
X8330000Y-6190000D01*
X8290000Y-6150000D02*
X8370000Y-6150000D01*
X8569000Y-7016000D02*
X8569000Y-7096000D01*
X8529000Y-7056000D02*
X8609000Y-7056000D01*
X9163000Y-7627000D02*
X9163000Y-7707000D01*
X9123000Y-7667000D02*
X9203000Y-7667000D01*
X9585000Y-7016000D02*
X9585000Y-7096000D01*
X9545000Y-7056000D02*
X9625000Y-7056000D01*
X9821000Y-5095000D02*
X9821000Y-5175000D01*
X9781000Y-5135000D02*
X9861000Y-5135000D01*
X9821000Y-5349000D02*
X9821000Y-5429000D01*
X9781000Y-5389000D02*
X9861000Y-5389000D01*
X9821000Y-5603000D02*
X9821000Y-5683000D01*
X9781000Y-5643000D02*
X9861000Y-5643000D01*
X9821000Y-5857000D02*
X9821000Y-5937000D01*
X9781000Y-5897000D02*
X9861000Y-5897000D01*
X9821000Y-6111000D02*
X9821000Y-6191000D01*
X9781000Y-6151000D02*
X9861000Y-6151000D01*
X10179000Y-7627000D02*
X10179000Y-7707000D01*
X10139000Y-7667000D02*
X10219000Y-7667000D01*
X10329000Y-5095000D02*
X10329000Y-5175000D01*
X10289000Y-5135000D02*
X10369000Y-5135000D01*
X10329000Y-5349000D02*
X10329000Y-5429000D01*
X10289000Y-5389000D02*
X10369000Y-5389000D01*
X10329000Y-5603000D02*
X10329000Y-5683000D01*
X10289000Y-5643000D02*
X10369000Y-5643000D01*
X10329000Y-5857000D02*
X10329000Y-5937000D01*
X10289000Y-5897000D02*
X10369000Y-5897000D01*
X10329000Y-6111000D02*
X10329000Y-6191000D01*
X10289000Y-6151000D02*
X10369000Y-6151000D01*
X10590000Y-7024000D02*
X10590000Y-7104000D01*
X10550000Y-7064000D02*
X10630000Y-7064000D01*
X11606000Y-7024000D02*
X11606000Y-7104000D01*
X11566000Y-7064000D02*
X11646000Y-7064000D01*
X13037000Y-5094000D02*
X13037000Y-5174000D01*
X12997000Y-5134000D02*
X13077000Y-5134000D01*
X13037000Y-5348000D02*
X13037000Y-5428000D01*
X12997000Y-5388000D02*
X13077000Y-5388000D01*
X13037000Y-5602000D02*
X13037000Y-5682000D01*
X12997000Y-5642000D02*
X13077000Y-5642000D01*
X13037000Y-5856000D02*
X13037000Y-5936000D01*
X12997000Y-5896000D02*
X13077000Y-5896000D01*
X13037000Y-6110000D02*
X13037000Y-6190000D01*
X12997000Y-6150000D02*
X13077000Y-6150000D01*
X13545000Y-5094000D02*
X13545000Y-5174000D01*
X13505000Y-5134000D02*
X13585000Y-5134000D01*
X13545000Y-5348000D02*
X13545000Y-5428000D01*
X13505000Y-5388000D02*
X13585000Y-5388000D01*
X13545000Y-5602000D02*
X13545000Y-5682000D01*
X13505000Y-5642000D02*
X13585000Y-5642000D01*
X13545000Y-5856000D02*
X13545000Y-5936000D01*
X13505000Y-5896000D02*
X13585000Y-5896000D01*
X13545000Y-6110000D02*
X13545000Y-6190000D01*
X13505000Y-6150000D02*
X13585000Y-6150000D01*
X13711000Y-8078000D02*
X13711000Y-8158000D01*
X13671000Y-8118000D02*
X13751000Y-8118000D01*
X13815000Y-7023000D02*
X13815000Y-7103000D01*
X13775000Y-7063000D02*
X13855000Y-7063000D01*
X14727000Y-8078000D02*
X14727000Y-8158000D01*
X14687000Y-8118000D02*
X14767000Y-8118000D01*
X14831000Y-7023000D02*
X14831000Y-7103000D01*
X14791000Y-7063000D02*
X14871000Y-7063000D01*
X14948000Y-8077000D02*
X14948000Y-8157000D01*
X14908000Y-8117000D02*
X14988000Y-8117000D01*
X15095250Y-5100250D02*
X15095250Y-5180250D01*
X15055250Y-5140250D02*
X15135250Y-5140250D01*
X15095250Y-5354250D02*
X15095250Y-5434250D01*
X15055250Y-5394250D02*
X15135250Y-5394250D01*
X15095250Y-5608250D02*
X15095250Y-5688250D01*
X15055250Y-5648250D02*
X15135250Y-5648250D01*
X15095250Y-5862250D02*
X15095250Y-5942250D01*
X15055250Y-5902250D02*
X15135250Y-5902250D01*
X15095250Y-6116250D02*
X15095250Y-6196250D01*
X15055250Y-6156250D02*
X15135250Y-6156250D01*
X15603250Y-5100250D02*
X15603250Y-5180250D01*
X15563250Y-5140250D02*
X15643250Y-5140250D01*
X15603250Y-5354250D02*
X15603250Y-5434250D01*
X15563250Y-5394250D02*
X15643250Y-5394250D01*
X15603250Y-5608250D02*
X15603250Y-5688250D01*
X15563250Y-5648250D02*
X15643250Y-5648250D01*
X15603250Y-5862250D02*
X15603250Y-5942250D01*
X15563250Y-5902250D02*
X15643250Y-5902250D01*
X15603250Y-6116250D02*
X15603250Y-6196250D01*
X15563250Y-6156250D02*
X15643250Y-6156250D01*
X15849600Y-7021200D02*
X15849600Y-7101200D01*
X15809600Y-7061200D02*
X15889600Y-7061200D01*
X15964000Y-8077000D02*
X15964000Y-8157000D01*
X15924000Y-8117000D02*
X16004000Y-8117000D01*
X16647000Y-5130000D02*
X16647000Y-5210000D01*
X16607000Y-5170000D02*
X16687000Y-5170000D01*
X16647000Y-6146000D02*
X16647000Y-6226000D01*
X16607000Y-6186000D02*
X16687000Y-6186000D01*
X16865600Y-7021200D02*
X16865600Y-7101200D01*
X16825600Y-7061200D02*
X16905600Y-7061200D01*
X17406000Y-5132000D02*
X17406000Y-5212000D01*
X17366000Y-5172000D02*
X17446000Y-5172000D01*
X17406000Y-6148000D02*
X17406000Y-6228000D01*
X17366000Y-6188000D02*
X17446000Y-6188000D01*
D15*
X6741820Y-8185820D02*
X6741820Y-8122180D01*
X6678180Y-8122180D01*
X6678180Y-8185820D01*
X6741820Y-8185820D01*
X6995820Y-8185820D02*
X6995820Y-8122180D01*
X6932180Y-8122180D01*
X6932180Y-8185820D01*
X6995820Y-8185820D01*
X9960820Y-8181820D02*
X9960820Y-8118180D01*
X9897180Y-8118180D01*
X9897180Y-8181820D01*
X9960820Y-8181820D01*
X10214820Y-8181820D02*
X10214820Y-8118180D01*
X10151180Y-8118180D01*
X10151180Y-8181820D01*
X10214820Y-8181820D01*
X13157820Y-8175820D02*
X13157820Y-8112180D01*
X13094180Y-8112180D01*
X13094180Y-8175820D01*
X13157820Y-8175820D01*
X13411820Y-8175820D02*
X13411820Y-8112180D01*
X13348180Y-8112180D01*
X13348180Y-8175820D01*
X13411820Y-8175820D01*
X16335820Y-8183820D02*
X16335820Y-8120180D01*
X16272180Y-8120180D01*
X16272180Y-8183820D01*
X16335820Y-8183820D01*
X16589820Y-8183820D02*
X16589820Y-8120180D01*
X16526180Y-8120180D01*
X16526180Y-8183820D01*
X16589820Y-8183820D01*
D16*
X8966200Y-3021800D02*
X9016200Y-2971800D01*
X8966200Y-2921800D01*
X8916200Y-2971800D01*
X8966200Y-3021800D01*
X9220200Y-3021800D02*
X9270200Y-2971800D01*
X9220200Y-2921800D01*
X9170200Y-2971800D01*
X9220200Y-3021800D01*
X9474200Y-3021800D02*
X9524200Y-2971800D01*
X9474200Y-2921800D01*
X9424200Y-2971800D01*
X9474200Y-3021800D01*
X9728200Y-3021800D02*
X9778200Y-2971800D01*
X9728200Y-2921800D01*
X9678200Y-2971800D01*
X9728200Y-3021800D01*
X9982200Y-3021800D02*
X10032200Y-2971800D01*
X9982200Y-2921800D01*
X9932200Y-2971800D01*
X9982200Y-3021800D01*
X10236200Y-3021800D02*
X10286200Y-2971800D01*
X10236200Y-2921800D01*
X10186200Y-2971800D01*
X10236200Y-3021800D01*
X10490200Y-3021800D02*
X10540200Y-2971800D01*
X10490200Y-2921800D01*
X10440200Y-2971800D01*
X10490200Y-3021800D01*
X10744200Y-3021800D02*
X10794200Y-2971800D01*
X10744200Y-2921800D01*
X10694200Y-2971800D01*
X10744200Y-3021800D01*
X10998200Y-3021800D02*
X11048200Y-2971800D01*
X10998200Y-2921800D01*
X10948200Y-2971800D01*
X10998200Y-3021800D01*
X11252200Y-3021800D02*
X11302200Y-2971800D01*
X11252200Y-2921800D01*
X11202200Y-2971800D01*
X11252200Y-3021800D01*
X11506200Y-3021800D02*
X11556200Y-2971800D01*
X11506200Y-2921800D01*
X11456200Y-2971800D01*
X11506200Y-3021800D01*
X11760200Y-3021800D02*
X11810200Y-2971800D01*
X11760200Y-2921800D01*
X11710200Y-2971800D01*
X11760200Y-3021800D01*
X12014200Y-3021800D02*
X12064200Y-2971800D01*
X12014200Y-2921800D01*
X11964200Y-2971800D01*
X12014200Y-3021800D01*
X12268200Y-3021800D02*
X12318200Y-2971800D01*
X12268200Y-2921800D01*
X12218200Y-2971800D01*
X12268200Y-3021800D01*
X12522200Y-3021800D02*
X12572200Y-2971800D01*
X12522200Y-2921800D01*
X12472200Y-2971800D01*
X12522200Y-3021800D01*
X12776200Y-3021800D02*
X12826200Y-2971800D01*
X12776200Y-2921800D01*
X12726200Y-2971800D01*
X12776200Y-3021800D01*
X13030200Y-3021800D02*
X13080200Y-2971800D01*
X13030200Y-2921800D01*
X12980200Y-2971800D01*
X13030200Y-3021800D01*
X13284200Y-3021800D02*
X13334200Y-2971800D01*
X13284200Y-2921800D01*
X13234200Y-2971800D01*
X13284200Y-3021800D01*
X13538200Y-3021800D02*
X13588200Y-2971800D01*
X13538200Y-2921800D01*
X13488200Y-2971800D01*
X13538200Y-3021800D01*
X13792200Y-3021800D02*
X13842200Y-2971800D01*
X13792200Y-2921800D01*
X13742200Y-2971800D01*
X13792200Y-3021800D01*
X14046200Y-3021800D02*
X14096200Y-2971800D01*
X14046200Y-2921800D01*
X13996200Y-2971800D01*
X14046200Y-3021800D01*
X14300200Y-3021800D02*
X14350200Y-2971800D01*
X14300200Y-2921800D01*
X14250200Y-2971800D01*
X14300200Y-3021800D01*
X16651000Y-4417000D02*
X16701000Y-4367000D01*
X16651000Y-4317000D01*
X16601000Y-4367000D01*
X16651000Y-4417000D01*
X17411000Y-4417000D02*
X17461000Y-4367000D01*
X17411000Y-4317000D01*
X17361000Y-4367000D01*
X17411000Y-4417000D01*
D17*
X5374000Y-14059000D02*
X5494000Y-14179000D01*
X5494000Y-14059000D02*
X5374000Y-14179000D01*
X5494000Y-14119000D02*
G75*
G03*
X5494000Y-14119000I-60000J0D01*
G01*
X5374000Y-14559000D02*
X5494000Y-14679000D01*
X5494000Y-14559000D02*
X5374000Y-14679000D01*
X5494000Y-14619000D02*
G75*
G03*
X5494000Y-14619000I-60000J0D01*
G01*
X5378000Y-12067000D02*
X5498000Y-12187000D01*
X5498000Y-12067000D02*
X5378000Y-12187000D01*
X5498000Y-12127000D02*
G75*
G03*
X5498000Y-12127000I-60000J0D01*
G01*
X5378000Y-12567000D02*
X5498000Y-12687000D01*
X5498000Y-12567000D02*
X5378000Y-12687000D01*
X5498000Y-12627000D02*
G75*
G03*
X5498000Y-12627000I-60000J0D01*
G01*
X6624000Y-14059000D02*
X6744000Y-14179000D01*
X6744000Y-14059000D02*
X6624000Y-14179000D01*
X6744000Y-14119000D02*
G75*
G03*
X6744000Y-14119000I-60000J0D01*
G01*
X6624000Y-14559000D02*
X6744000Y-14679000D01*
X6744000Y-14559000D02*
X6624000Y-14679000D01*
X6744000Y-14619000D02*
G75*
G03*
X6744000Y-14619000I-60000J0D01*
G01*
X6628000Y-12067000D02*
X6748000Y-12187000D01*
X6748000Y-12067000D02*
X6628000Y-12187000D01*
X6748000Y-12127000D02*
G75*
G03*
X6748000Y-12127000I-60000J0D01*
G01*
X6628000Y-12567000D02*
X6748000Y-12687000D01*
X6748000Y-12567000D02*
X6628000Y-12687000D01*
X6748000Y-12627000D02*
G75*
G03*
X6748000Y-12627000I-60000J0D01*
G01*
X6983000Y-14060000D02*
X7103000Y-14180000D01*
X7103000Y-14060000D02*
X6983000Y-14180000D01*
X7103000Y-14120000D02*
G75*
G03*
X7103000Y-14120000I-60000J0D01*
G01*
X6983000Y-14560000D02*
X7103000Y-14680000D01*
X7103000Y-14560000D02*
X6983000Y-14680000D01*
X7103000Y-14620000D02*
G75*
G03*
X7103000Y-14620000I-60000J0D01*
G01*
X6984000Y-12064000D02*
X7104000Y-12184000D01*
X7104000Y-12064000D02*
X6984000Y-12184000D01*
X7104000Y-12124000D02*
G75*
G03*
X7104000Y-12124000I-60000J0D01*
G01*
X6984000Y-12564000D02*
X7104000Y-12684000D01*
X7104000Y-12564000D02*
X6984000Y-12684000D01*
X7104000Y-12624000D02*
G75*
G03*
X7104000Y-12624000I-60000J0D01*
G01*
X8233000Y-14060000D02*
X8353000Y-14180000D01*
X8353000Y-14060000D02*
X8233000Y-14180000D01*
X8353000Y-14120000D02*
G75*
G03*
X8353000Y-14120000I-60000J0D01*
G01*
X8233000Y-14560000D02*
X8353000Y-14680000D01*
X8353000Y-14560000D02*
X8233000Y-14680000D01*
X8353000Y-14620000D02*
G75*
G03*
X8353000Y-14620000I-60000J0D01*
G01*
X8234000Y-12064000D02*
X8354000Y-12184000D01*
X8354000Y-12064000D02*
X8234000Y-12184000D01*
X8354000Y-12124000D02*
G75*
G03*
X8354000Y-12124000I-60000J0D01*
G01*
X8234000Y-12564000D02*
X8354000Y-12684000D01*
X8354000Y-12564000D02*
X8234000Y-12684000D01*
X8354000Y-12624000D02*
G75*
G03*
X8354000Y-12624000I-60000J0D01*
G01*
X8587000Y-14061000D02*
X8707000Y-14181000D01*
X8707000Y-14061000D02*
X8587000Y-14181000D01*
X8707000Y-14121000D02*
G75*
G03*
X8707000Y-14121000I-60000J0D01*
G01*
X8587000Y-14561000D02*
X8707000Y-14681000D01*
X8707000Y-14561000D02*
X8587000Y-14681000D01*
X8707000Y-14621000D02*
G75*
G03*
X8707000Y-14621000I-60000J0D01*
G01*
X8588000Y-12064000D02*
X8708000Y-12184000D01*
X8708000Y-12064000D02*
X8588000Y-12184000D01*
X8708000Y-12124000D02*
G75*
G03*
X8708000Y-12124000I-60000J0D01*
G01*
X8588000Y-12564000D02*
X8708000Y-12684000D01*
X8708000Y-12564000D02*
X8588000Y-12684000D01*
X8708000Y-12624000D02*
G75*
G03*
X8708000Y-12624000I-60000J0D01*
G01*
X9837000Y-14061000D02*
X9957000Y-14181000D01*
X9957000Y-14061000D02*
X9837000Y-14181000D01*
X9957000Y-14121000D02*
G75*
G03*
X9957000Y-14121000I-60000J0D01*
G01*
X9837000Y-14561000D02*
X9957000Y-14681000D01*
X9957000Y-14561000D02*
X9837000Y-14681000D01*
X9957000Y-14621000D02*
G75*
G03*
X9957000Y-14621000I-60000J0D01*
G01*
X9838000Y-12064000D02*
X9958000Y-12184000D01*
X9958000Y-12064000D02*
X9838000Y-12184000D01*
X9958000Y-12124000D02*
G75*
G03*
X9958000Y-12124000I-60000J0D01*
G01*
X9838000Y-12564000D02*
X9958000Y-12684000D01*
X9958000Y-12564000D02*
X9838000Y-12684000D01*
X9958000Y-12624000D02*
G75*
G03*
X9958000Y-12624000I-60000J0D01*
G01*
X10187000Y-14057000D02*
X10307000Y-14177000D01*
X10307000Y-14057000D02*
X10187000Y-14177000D01*
X10307000Y-14117000D02*
G75*
G03*
X10307000Y-14117000I-60000J0D01*
G01*
X10187000Y-14557000D02*
X10307000Y-14677000D01*
X10307000Y-14557000D02*
X10187000Y-14677000D01*
X10307000Y-14617000D02*
G75*
G03*
X10307000Y-14617000I-60000J0D01*
G01*
X10190000Y-12062000D02*
X10310000Y-12182000D01*
X10310000Y-12062000D02*
X10190000Y-12182000D01*
X10310000Y-12122000D02*
G75*
G03*
X10310000Y-12122000I-60000J0D01*
G01*
X10190000Y-12562000D02*
X10310000Y-12682000D01*
X10310000Y-12562000D02*
X10190000Y-12682000D01*
X10310000Y-12622000D02*
G75*
G03*
X10310000Y-12622000I-60000J0D01*
G01*
X11437000Y-14057000D02*
X11557000Y-14177000D01*
X11557000Y-14057000D02*
X11437000Y-14177000D01*
X11557000Y-14117000D02*
G75*
G03*
X11557000Y-14117000I-60000J0D01*
G01*
X11437000Y-14557000D02*
X11557000Y-14677000D01*
X11557000Y-14557000D02*
X11437000Y-14677000D01*
X11557000Y-14617000D02*
G75*
G03*
X11557000Y-14617000I-60000J0D01*
G01*
X11440000Y-12062000D02*
X11560000Y-12182000D01*
X11560000Y-12062000D02*
X11440000Y-12182000D01*
X11560000Y-12122000D02*
G75*
G03*
X11560000Y-12122000I-60000J0D01*
G01*
X11440000Y-12562000D02*
X11560000Y-12682000D01*
X11560000Y-12562000D02*
X11440000Y-12682000D01*
X11560000Y-12622000D02*
G75*
G03*
X11560000Y-12622000I-60000J0D01*
G01*
X11791000Y-12062000D02*
X11911000Y-12182000D01*
X11911000Y-12062000D02*
X11791000Y-12182000D01*
X11911000Y-12122000D02*
G75*
G03*
X11911000Y-12122000I-60000J0D01*
G01*
X11791000Y-12562000D02*
X11911000Y-12682000D01*
X11911000Y-12562000D02*
X11791000Y-12682000D01*
X11911000Y-12622000D02*
G75*
G03*
X11911000Y-12622000I-60000J0D01*
G01*
X11791000Y-14058000D02*
X11911000Y-14178000D01*
X11911000Y-14058000D02*
X11791000Y-14178000D01*
X11911000Y-14118000D02*
G75*
G03*
X11911000Y-14118000I-60000J0D01*
G01*
X11791000Y-14558000D02*
X11911000Y-14678000D01*
X11911000Y-14558000D02*
X11791000Y-14678000D01*
X11911000Y-14618000D02*
G75*
G03*
X11911000Y-14618000I-60000J0D01*
G01*
X12587000Y-10048000D02*
X12707000Y-10168000D01*
X12707000Y-10048000D02*
X12587000Y-10168000D01*
X12707000Y-10108000D02*
G75*
G03*
X12707000Y-10108000I-60000J0D01*
G01*
X12587000Y-10548000D02*
X12707000Y-10668000D01*
X12707000Y-10548000D02*
X12587000Y-10668000D01*
X12707000Y-10608000D02*
G75*
G03*
X12707000Y-10608000I-60000J0D01*
G01*
X13041000Y-12062000D02*
X13161000Y-12182000D01*
X13161000Y-12062000D02*
X13041000Y-12182000D01*
X13161000Y-12122000D02*
G75*
G03*
X13161000Y-12122000I-60000J0D01*
G01*
X13041000Y-12562000D02*
X13161000Y-12682000D01*
X13161000Y-12562000D02*
X13041000Y-12682000D01*
X13161000Y-12622000D02*
G75*
G03*
X13161000Y-12622000I-60000J0D01*
G01*
X13041000Y-14058000D02*
X13161000Y-14178000D01*
X13161000Y-14058000D02*
X13041000Y-14178000D01*
X13161000Y-14118000D02*
G75*
G03*
X13161000Y-14118000I-60000J0D01*
G01*
X13041000Y-14558000D02*
X13161000Y-14678000D01*
X13161000Y-14558000D02*
X13041000Y-14678000D01*
X13161000Y-14618000D02*
G75*
G03*
X13161000Y-14618000I-60000J0D01*
G01*
X13392000Y-14058000D02*
X13512000Y-14178000D01*
X13512000Y-14058000D02*
X13392000Y-14178000D01*
X13512000Y-14118000D02*
G75*
G03*
X13512000Y-14118000I-60000J0D01*
G01*
X13392000Y-14558000D02*
X13512000Y-14678000D01*
X13512000Y-14558000D02*
X13392000Y-14678000D01*
X13512000Y-14618000D02*
G75*
G03*
X13512000Y-14618000I-60000J0D01*
G01*
X13395000Y-12060000D02*
X13515000Y-12180000D01*
X13515000Y-12060000D02*
X13395000Y-12180000D01*
X13515000Y-12120000D02*
G75*
G03*
X13515000Y-12120000I-60000J0D01*
G01*
X13395000Y-12560000D02*
X13515000Y-12680000D01*
X13515000Y-12560000D02*
X13395000Y-12680000D01*
X13515000Y-12620000D02*
G75*
G03*
X13515000Y-12620000I-60000J0D01*
G01*
X13837000Y-10048000D02*
X13957000Y-10168000D01*
X13957000Y-10048000D02*
X13837000Y-10168000D01*
X13957000Y-10108000D02*
G75*
G03*
X13957000Y-10108000I-60000J0D01*
G01*
X13837000Y-10548000D02*
X13957000Y-10668000D01*
X13957000Y-10548000D02*
X13837000Y-10668000D01*
X13957000Y-10608000D02*
G75*
G03*
X13957000Y-10608000I-60000J0D01*
G01*
X14642000Y-14058000D02*
X14762000Y-14178000D01*
X14762000Y-14058000D02*
X14642000Y-14178000D01*
X14762000Y-14118000D02*
G75*
G03*
X14762000Y-14118000I-60000J0D01*
G01*
X14642000Y-14558000D02*
X14762000Y-14678000D01*
X14762000Y-14558000D02*
X14642000Y-14678000D01*
X14762000Y-14618000D02*
G75*
G03*
X14762000Y-14618000I-60000J0D01*
G01*
X14645000Y-12060000D02*
X14765000Y-12180000D01*
X14765000Y-12060000D02*
X14645000Y-12180000D01*
X14765000Y-12120000D02*
G75*
G03*
X14765000Y-12120000I-60000J0D01*
G01*
X14645000Y-12560000D02*
X14765000Y-12680000D01*
X14765000Y-12560000D02*
X14645000Y-12680000D01*
X14765000Y-12620000D02*
G75*
G03*
X14765000Y-12620000I-60000J0D01*
G01*
X14992000Y-14058000D02*
X15112000Y-14178000D01*
X15112000Y-14058000D02*
X14992000Y-14178000D01*
X15112000Y-14118000D02*
G75*
G03*
X15112000Y-14118000I-60000J0D01*
G01*
X14992000Y-14558000D02*
X15112000Y-14678000D01*
X15112000Y-14558000D02*
X14992000Y-14678000D01*
X15112000Y-14618000D02*
G75*
G03*
X15112000Y-14618000I-60000J0D01*
G01*
X15002000Y-12055000D02*
X15122000Y-12175000D01*
X15122000Y-12055000D02*
X15002000Y-12175000D01*
X15122000Y-12115000D02*
G75*
G03*
X15122000Y-12115000I-60000J0D01*
G01*
X15002000Y-12555000D02*
X15122000Y-12675000D01*
X15122000Y-12555000D02*
X15002000Y-12675000D01*
X15122000Y-12615000D02*
G75*
G03*
X15122000Y-12615000I-60000J0D01*
G01*
X15762000Y-10046000D02*
X15882000Y-10166000D01*
X15882000Y-10046000D02*
X15762000Y-10166000D01*
X15882000Y-10106000D02*
G75*
G03*
X15882000Y-10106000I-60000J0D01*
G01*
X15762000Y-10546000D02*
X15882000Y-10666000D01*
X15882000Y-10546000D02*
X15762000Y-10666000D01*
X15882000Y-10606000D02*
G75*
G03*
X15882000Y-10606000I-60000J0D01*
G01*
X16242000Y-14058000D02*
X16362000Y-14178000D01*
X16362000Y-14058000D02*
X16242000Y-14178000D01*
X16362000Y-14118000D02*
G75*
G03*
X16362000Y-14118000I-60000J0D01*
G01*
X16242000Y-14558000D02*
X16362000Y-14678000D01*
X16362000Y-14558000D02*
X16242000Y-14678000D01*
X16362000Y-14618000D02*
G75*
G03*
X16362000Y-14618000I-60000J0D01*
G01*
X16252000Y-12055000D02*
X16372000Y-12175000D01*
X16372000Y-12055000D02*
X16252000Y-12175000D01*
X16372000Y-12115000D02*
G75*
G03*
X16372000Y-12115000I-60000J0D01*
G01*
X16252000Y-12555000D02*
X16372000Y-12675000D01*
X16372000Y-12555000D02*
X16252000Y-12675000D01*
X16372000Y-12615000D02*
G75*
G03*
X16372000Y-12615000I-60000J0D01*
G01*
X16596000Y-14059000D02*
X16716000Y-14179000D01*
X16716000Y-14059000D02*
X16596000Y-14179000D01*
X16716000Y-14119000D02*
G75*
G03*
X16716000Y-14119000I-60000J0D01*
G01*
X16596000Y-14559000D02*
X16716000Y-14679000D01*
X16716000Y-14559000D02*
X16596000Y-14679000D01*
X16716000Y-14619000D02*
G75*
G03*
X16716000Y-14619000I-60000J0D01*
G01*
X16614000Y-12046000D02*
X16734000Y-12166000D01*
X16734000Y-12046000D02*
X16614000Y-12166000D01*
X16734000Y-12106000D02*
G75*
G03*
X16734000Y-12106000I-60000J0D01*
G01*
X16614000Y-12546000D02*
X16734000Y-12666000D01*
X16734000Y-12546000D02*
X16614000Y-12666000D01*
X16734000Y-12606000D02*
G75*
G03*
X16734000Y-12606000I-60000J0D01*
G01*
X17012000Y-10046000D02*
X17132000Y-10166000D01*
X17132000Y-10046000D02*
X17012000Y-10166000D01*
X17132000Y-10106000D02*
G75*
G03*
X17132000Y-10106000I-60000J0D01*
G01*
X17012000Y-10546000D02*
X17132000Y-10666000D01*
X17132000Y-10546000D02*
X17012000Y-10666000D01*
X17132000Y-10606000D02*
G75*
G03*
X17132000Y-10606000I-60000J0D01*
G01*
X17846000Y-14059000D02*
X17966000Y-14179000D01*
X17966000Y-14059000D02*
X17846000Y-14179000D01*
X17966000Y-14119000D02*
G75*
G03*
X17966000Y-14119000I-60000J0D01*
G01*
X17846000Y-14559000D02*
X17966000Y-14679000D01*
X17966000Y-14559000D02*
X17846000Y-14679000D01*
X17966000Y-14619000D02*
G75*
G03*
X17966000Y-14619000I-60000J0D01*
G01*
X17864000Y-12046000D02*
X17984000Y-12166000D01*
X17984000Y-12046000D02*
X17864000Y-12166000D01*
X17984000Y-12106000D02*
G75*
G03*
X17984000Y-12106000I-60000J0D01*
G01*
X17864000Y-12546000D02*
X17984000Y-12666000D01*
X17984000Y-12546000D02*
X17864000Y-12666000D01*
X17984000Y-12606000D02*
G75*
G03*
X17984000Y-12606000I-60000J0D01*
G01*
D18*
X6182000Y-10042000D02*
X6312000Y-10172000D01*
X6312000Y-10042000D02*
X6182000Y-10172000D01*
X6247000Y-10042000D02*
X6247000Y-10172000D01*
X6182000Y-10107000D02*
X6312000Y-10107000D01*
X6182000Y-10542000D02*
X6312000Y-10672000D01*
X6312000Y-10542000D02*
X6182000Y-10672000D01*
X6247000Y-10542000D02*
X6247000Y-10672000D01*
X6182000Y-10607000D02*
X6312000Y-10607000D01*
X7432000Y-10042000D02*
X7562000Y-10172000D01*
X7562000Y-10042000D02*
X7432000Y-10172000D01*
X7497000Y-10042000D02*
X7497000Y-10172000D01*
X7432000Y-10107000D02*
X7562000Y-10107000D01*
X7432000Y-10542000D02*
X7562000Y-10672000D01*
X7562000Y-10542000D02*
X7432000Y-10672000D01*
X7497000Y-10542000D02*
X7497000Y-10672000D01*
X7432000Y-10607000D02*
X7562000Y-10607000D01*
D19*
X4406000Y-12093000D02*
X4746000Y-12433000D01*
X4746000Y-12093000D02*
X4406000Y-12433000D01*
X4696209Y-12383209D02*
X4696209Y-12142791D01*
X4455791Y-12142791D01*
X4455791Y-12383209D01*
X4696209Y-12383209D01*
X4409000Y-7293000D02*
X4749000Y-7633000D01*
X4749000Y-7293000D02*
X4409000Y-7633000D01*
X4699209Y-7583209D02*
X4699209Y-7342791D01*
X4458791Y-7342791D01*
X4458791Y-7583209D01*
X4699209Y-7583209D01*
X7660000Y-15846000D02*
X8000000Y-16186000D01*
X8000000Y-15846000D02*
X7660000Y-16186000D01*
X7950209Y-16136209D02*
X7950209Y-15895791D01*
X7709791Y-15895791D01*
X7709791Y-16136209D01*
X7950209Y-16136209D01*
X7661000Y-2743000D02*
X8001000Y-3083000D01*
X8001000Y-2743000D02*
X7661000Y-3083000D01*
X7951209Y-3033209D02*
X7951209Y-2792791D01*
X7710791Y-2792791D01*
X7710791Y-3033209D01*
X7951209Y-3033209D01*
X15256000Y-15840000D02*
X15596000Y-16180000D01*
X15596000Y-15840000D02*
X15256000Y-16180000D01*
X15546209Y-16130209D02*
X15546209Y-15889791D01*
X15305791Y-15889791D01*
X15305791Y-16130209D01*
X15546209Y-16130209D01*
X15258000Y-2741000D02*
X15598000Y-3081000D01*
X15598000Y-2741000D02*
X15258000Y-3081000D01*
X15548209Y-3031209D02*
X15548209Y-2790791D01*
X15307791Y-2790791D01*
X15307791Y-3031209D01*
X15548209Y-3031209D01*
X18502000Y-12099000D02*
X18842000Y-12439000D01*
X18842000Y-12099000D02*
X18502000Y-12439000D01*
X18792209Y-12389209D02*
X18792209Y-12148791D01*
X18551791Y-12148791D01*
X18551791Y-12389209D01*
X18792209Y-12389209D01*
X18507000Y-7293000D02*
X18847000Y-7633000D01*
X18847000Y-7293000D02*
X18507000Y-7633000D01*
X18797209Y-7583209D02*
X18797209Y-7342791D01*
X18556791Y-7342791D01*
X18556791Y-7583209D01*
X18797209Y-7583209D01*
D11*
X4370777Y-16793133D02*
X4370777Y-16593133D01*
X4370777Y-16593133D02*
X4418396Y-16593133D01*
X4418396Y-16593133D02*
X4446967Y-16602656D01*
X4446967Y-16602656D02*
X4466015Y-16621704D01*
X4466015Y-16621704D02*
X4475539Y-16640752D01*
X4475539Y-16640752D02*
X4485063Y-16678847D01*
X4485063Y-16678847D02*
X4485063Y-16707418D01*
X4485063Y-16707418D02*
X4475539Y-16745514D01*
X4475539Y-16745514D02*
X4466015Y-16764561D01*
X4466015Y-16764561D02*
X4446967Y-16783609D01*
X4446967Y-16783609D02*
X4418396Y-16793133D01*
X4418396Y-16793133D02*
X4370777Y-16793133D01*
X4570777Y-16793133D02*
X4570777Y-16659799D01*
X4570777Y-16697895D02*
X4580301Y-16678847D01*
X4580301Y-16678847D02*
X4589825Y-16669323D01*
X4589825Y-16669323D02*
X4608872Y-16659799D01*
X4608872Y-16659799D02*
X4627920Y-16659799D01*
X4694586Y-16793133D02*
X4694586Y-16659799D01*
X4694586Y-16593133D02*
X4685063Y-16602656D01*
X4685063Y-16602656D02*
X4694586Y-16612180D01*
X4694586Y-16612180D02*
X4704110Y-16602656D01*
X4704110Y-16602656D02*
X4694586Y-16593133D01*
X4694586Y-16593133D02*
X4694586Y-16612180D01*
X4818396Y-16793133D02*
X4799348Y-16783609D01*
X4799348Y-16783609D02*
X4789825Y-16764561D01*
X4789825Y-16764561D02*
X4789825Y-16593133D01*
X4923158Y-16793133D02*
X4904110Y-16783609D01*
X4904110Y-16783609D02*
X4894586Y-16764561D01*
X4894586Y-16764561D02*
X4894586Y-16593133D01*
X5151729Y-16793133D02*
X5151729Y-16593133D01*
X5151729Y-16593133D02*
X5218396Y-16735990D01*
X5218396Y-16735990D02*
X5285063Y-16593133D01*
X5285063Y-16593133D02*
X5285063Y-16793133D01*
X5466015Y-16793133D02*
X5466015Y-16688371D01*
X5466015Y-16688371D02*
X5456491Y-16669323D01*
X5456491Y-16669323D02*
X5437444Y-16659799D01*
X5437444Y-16659799D02*
X5399348Y-16659799D01*
X5399348Y-16659799D02*
X5380301Y-16669323D01*
X5466015Y-16783609D02*
X5446967Y-16793133D01*
X5446967Y-16793133D02*
X5399348Y-16793133D01*
X5399348Y-16793133D02*
X5380301Y-16783609D01*
X5380301Y-16783609D02*
X5370777Y-16764561D01*
X5370777Y-16764561D02*
X5370777Y-16745514D01*
X5370777Y-16745514D02*
X5380301Y-16726466D01*
X5380301Y-16726466D02*
X5399348Y-16716942D01*
X5399348Y-16716942D02*
X5446967Y-16716942D01*
X5446967Y-16716942D02*
X5466015Y-16707418D01*
X5561253Y-16659799D02*
X5561253Y-16859799D01*
X5561253Y-16669323D02*
X5580301Y-16659799D01*
X5580301Y-16659799D02*
X5618396Y-16659799D01*
X5618396Y-16659799D02*
X5637444Y-16669323D01*
X5637444Y-16669323D02*
X5646967Y-16678847D01*
X5646967Y-16678847D02*
X5656491Y-16697895D01*
X5656491Y-16697895D02*
X5656491Y-16755037D01*
X5656491Y-16755037D02*
X5646967Y-16774085D01*
X5646967Y-16774085D02*
X5637444Y-16783609D01*
X5637444Y-16783609D02*
X5618396Y-16793133D01*
X5618396Y-16793133D02*
X5580301Y-16793133D01*
X5580301Y-16793133D02*
X5561253Y-16783609D01*
X5742205Y-16774085D02*
X5751729Y-16783609D01*
X5751729Y-16783609D02*
X5742205Y-16793133D01*
X5742205Y-16793133D02*
X5732682Y-16783609D01*
X5732682Y-16783609D02*
X5742205Y-16774085D01*
X5742205Y-16774085D02*
X5742205Y-16793133D01*
X5742205Y-16669323D02*
X5751729Y-16678847D01*
X5751729Y-16678847D02*
X5742205Y-16688371D01*
X5742205Y-16688371D02*
X5732682Y-16678847D01*
X5732682Y-16678847D02*
X5742205Y-16669323D01*
X5742205Y-16669323D02*
X5742205Y-16688371D01*
D12*
X4070000Y-17101649D02*
X4110000Y-17141649D01*
X4110000Y-17101649D02*
X4070000Y-17141649D01*
D11*
X4408872Y-17013133D02*
X4427920Y-17013133D01*
X4427920Y-17013133D02*
X4446967Y-17022657D01*
X4446967Y-17022657D02*
X4456491Y-17032180D01*
X4456491Y-17032180D02*
X4466015Y-17051228D01*
X4466015Y-17051228D02*
X4475539Y-17089323D01*
X4475539Y-17089323D02*
X4475539Y-17136942D01*
X4475539Y-17136942D02*
X4466015Y-17175037D01*
X4466015Y-17175037D02*
X4456491Y-17194085D01*
X4456491Y-17194085D02*
X4446967Y-17203609D01*
X4446967Y-17203609D02*
X4427920Y-17213133D01*
X4427920Y-17213133D02*
X4408872Y-17213133D01*
X4408872Y-17213133D02*
X4389825Y-17203609D01*
X4389825Y-17203609D02*
X4380301Y-17194085D01*
X4380301Y-17194085D02*
X4370777Y-17175037D01*
X4370777Y-17175037D02*
X4361253Y-17136942D01*
X4361253Y-17136942D02*
X4361253Y-17089323D01*
X4361253Y-17089323D02*
X4370777Y-17051228D01*
X4370777Y-17051228D02*
X4380301Y-17032180D01*
X4380301Y-17032180D02*
X4389825Y-17022657D01*
X4389825Y-17022657D02*
X4408872Y-17013133D01*
X4561253Y-17194085D02*
X4570777Y-17203609D01*
X4570777Y-17203609D02*
X4561253Y-17213133D01*
X4561253Y-17213133D02*
X4551729Y-17203609D01*
X4551729Y-17203609D02*
X4561253Y-17194085D01*
X4561253Y-17194085D02*
X4561253Y-17213133D01*
X4742206Y-17079799D02*
X4742206Y-17213133D01*
X4694586Y-17003609D02*
X4646967Y-17146466D01*
X4646967Y-17146466D02*
X4770777Y-17146466D01*
X4885063Y-17013133D02*
X4904110Y-17013133D01*
X4904110Y-17013133D02*
X4923158Y-17022657D01*
X4923158Y-17022657D02*
X4932682Y-17032180D01*
X4932682Y-17032180D02*
X4942206Y-17051228D01*
X4942206Y-17051228D02*
X4951729Y-17089323D01*
X4951729Y-17089323D02*
X4951729Y-17136942D01*
X4951729Y-17136942D02*
X4942206Y-17175037D01*
X4942206Y-17175037D02*
X4932682Y-17194085D01*
X4932682Y-17194085D02*
X4923158Y-17203609D01*
X4923158Y-17203609D02*
X4904110Y-17213133D01*
X4904110Y-17213133D02*
X4885063Y-17213133D01*
X4885063Y-17213133D02*
X4866015Y-17203609D01*
X4866015Y-17203609D02*
X4856491Y-17194085D01*
X4856491Y-17194085D02*
X4846967Y-17175037D01*
X4846967Y-17175037D02*
X4837444Y-17136942D01*
X4837444Y-17136942D02*
X4837444Y-17089323D01*
X4837444Y-17089323D02*
X4846967Y-17051228D01*
X4846967Y-17051228D02*
X4856491Y-17032180D01*
X4856491Y-17032180D02*
X4866015Y-17022657D01*
X4866015Y-17022657D02*
X4885063Y-17013133D01*
X5075539Y-17013133D02*
X5094587Y-17013133D01*
X5094587Y-17013133D02*
X5113634Y-17022657D01*
X5113634Y-17022657D02*
X5123158Y-17032180D01*
X5123158Y-17032180D02*
X5132682Y-17051228D01*
X5132682Y-17051228D02*
X5142206Y-17089323D01*
X5142206Y-17089323D02*
X5142206Y-17136942D01*
X5142206Y-17136942D02*
X5132682Y-17175037D01*
X5132682Y-17175037D02*
X5123158Y-17194085D01*
X5123158Y-17194085D02*
X5113634Y-17203609D01*
X5113634Y-17203609D02*
X5094587Y-17213133D01*
X5094587Y-17213133D02*
X5075539Y-17213133D01*
X5075539Y-17213133D02*
X5056491Y-17203609D01*
X5056491Y-17203609D02*
X5046967Y-17194085D01*
X5046967Y-17194085D02*
X5037444Y-17175037D01*
X5037444Y-17175037D02*
X5027920Y-17136942D01*
X5027920Y-17136942D02*
X5027920Y-17089323D01*
X5027920Y-17089323D02*
X5037444Y-17051228D01*
X5037444Y-17051228D02*
X5046967Y-17032180D01*
X5046967Y-17032180D02*
X5056491Y-17022657D01*
X5056491Y-17022657D02*
X5075539Y-17013133D01*
X5227920Y-17213133D02*
X5227920Y-17079799D01*
X5227920Y-17098847D02*
X5237444Y-17089323D01*
X5237444Y-17089323D02*
X5256491Y-17079799D01*
X5256491Y-17079799D02*
X5285063Y-17079799D01*
X5285063Y-17079799D02*
X5304110Y-17089323D01*
X5304110Y-17089323D02*
X5313634Y-17108371D01*
X5313634Y-17108371D02*
X5313634Y-17213133D01*
X5313634Y-17108371D02*
X5323158Y-17089323D01*
X5323158Y-17089323D02*
X5342206Y-17079799D01*
X5342206Y-17079799D02*
X5370777Y-17079799D01*
X5370777Y-17079799D02*
X5389825Y-17089323D01*
X5389825Y-17089323D02*
X5399348Y-17108371D01*
X5399348Y-17108371D02*
X5399348Y-17213133D01*
X5494587Y-17213133D02*
X5494587Y-17079799D01*
X5494587Y-17098847D02*
X5504110Y-17089323D01*
X5504110Y-17089323D02*
X5523158Y-17079799D01*
X5523158Y-17079799D02*
X5551729Y-17079799D01*
X5551729Y-17079799D02*
X5570777Y-17089323D01*
X5570777Y-17089323D02*
X5580301Y-17108371D01*
X5580301Y-17108371D02*
X5580301Y-17213133D01*
X5580301Y-17108371D02*
X5589825Y-17089323D01*
X5589825Y-17089323D02*
X5608872Y-17079799D01*
X5608872Y-17079799D02*
X5637444Y-17079799D01*
X5637444Y-17079799D02*
X5656491Y-17089323D01*
X5656491Y-17089323D02*
X5666015Y-17108371D01*
X5666015Y-17108371D02*
X5666015Y-17213133D01*
X6056491Y-17003609D02*
X5885063Y-17260752D01*
X6313634Y-17013133D02*
X6332682Y-17013133D01*
X6332682Y-17013133D02*
X6351729Y-17022657D01*
X6351729Y-17022657D02*
X6361253Y-17032180D01*
X6361253Y-17032180D02*
X6370777Y-17051228D01*
X6370777Y-17051228D02*
X6380301Y-17089323D01*
X6380301Y-17089323D02*
X6380301Y-17136942D01*
X6380301Y-17136942D02*
X6370777Y-17175037D01*
X6370777Y-17175037D02*
X6361253Y-17194085D01*
X6361253Y-17194085D02*
X6351729Y-17203609D01*
X6351729Y-17203609D02*
X6332682Y-17213133D01*
X6332682Y-17213133D02*
X6313634Y-17213133D01*
X6313634Y-17213133D02*
X6294587Y-17203609D01*
X6294587Y-17203609D02*
X6285063Y-17194085D01*
X6285063Y-17194085D02*
X6275539Y-17175037D01*
X6275539Y-17175037D02*
X6266015Y-17136942D01*
X6266015Y-17136942D02*
X6266015Y-17089323D01*
X6266015Y-17089323D02*
X6275539Y-17051228D01*
X6275539Y-17051228D02*
X6285063Y-17032180D01*
X6285063Y-17032180D02*
X6294587Y-17022657D01*
X6294587Y-17022657D02*
X6313634Y-17013133D01*
X6466015Y-17194085D02*
X6475539Y-17203609D01*
X6475539Y-17203609D02*
X6466015Y-17213133D01*
X6466015Y-17213133D02*
X6456491Y-17203609D01*
X6456491Y-17203609D02*
X6466015Y-17194085D01*
X6466015Y-17194085D02*
X6466015Y-17213133D01*
X6599348Y-17013133D02*
X6618396Y-17013133D01*
X6618396Y-17013133D02*
X6637444Y-17022657D01*
X6637444Y-17022657D02*
X6646968Y-17032180D01*
X6646968Y-17032180D02*
X6656491Y-17051228D01*
X6656491Y-17051228D02*
X6666015Y-17089323D01*
X6666015Y-17089323D02*
X6666015Y-17136942D01*
X6666015Y-17136942D02*
X6656491Y-17175037D01*
X6656491Y-17175037D02*
X6646968Y-17194085D01*
X6646968Y-17194085D02*
X6637444Y-17203609D01*
X6637444Y-17203609D02*
X6618396Y-17213133D01*
X6618396Y-17213133D02*
X6599348Y-17213133D01*
X6599348Y-17213133D02*
X6580301Y-17203609D01*
X6580301Y-17203609D02*
X6570777Y-17194085D01*
X6570777Y-17194085D02*
X6561253Y-17175037D01*
X6561253Y-17175037D02*
X6551729Y-17136942D01*
X6551729Y-17136942D02*
X6551729Y-17089323D01*
X6551729Y-17089323D02*
X6561253Y-17051228D01*
X6561253Y-17051228D02*
X6570777Y-17032180D01*
X6570777Y-17032180D02*
X6580301Y-17022657D01*
X6580301Y-17022657D02*
X6599348Y-17013133D01*
X6856491Y-17213133D02*
X6742206Y-17213133D01*
X6799348Y-17213133D02*
X6799348Y-17013133D01*
X6799348Y-17013133D02*
X6780301Y-17041704D01*
X6780301Y-17041704D02*
X6761253Y-17060752D01*
X6761253Y-17060752D02*
X6742206Y-17070276D01*
X7037444Y-17013133D02*
X6942206Y-17013133D01*
X6942206Y-17013133D02*
X6932682Y-17108371D01*
X6932682Y-17108371D02*
X6942206Y-17098847D01*
X6942206Y-17098847D02*
X6961253Y-17089323D01*
X6961253Y-17089323D02*
X7008872Y-17089323D01*
X7008872Y-17089323D02*
X7027920Y-17098847D01*
X7027920Y-17098847D02*
X7037444Y-17108371D01*
X7037444Y-17108371D02*
X7046968Y-17127418D01*
X7046968Y-17127418D02*
X7046968Y-17175037D01*
X7046968Y-17175037D02*
X7037444Y-17194085D01*
X7037444Y-17194085D02*
X7027920Y-17203609D01*
X7027920Y-17203609D02*
X7008872Y-17213133D01*
X7008872Y-17213133D02*
X6961253Y-17213133D01*
X6961253Y-17213133D02*
X6942206Y-17203609D01*
X6942206Y-17203609D02*
X6932682Y-17194085D01*
X7113634Y-17013133D02*
X7246968Y-17013133D01*
X7246968Y-17013133D02*
X7161253Y-17213133D01*
X7313634Y-17013133D02*
X7313634Y-17051228D01*
X7389825Y-17013133D02*
X7389825Y-17051228D01*
X7685063Y-17289323D02*
X7675539Y-17279799D01*
X7675539Y-17279799D02*
X7656491Y-17251228D01*
X7656491Y-17251228D02*
X7646968Y-17232180D01*
X7646968Y-17232180D02*
X7637444Y-17203609D01*
X7637444Y-17203609D02*
X7627920Y-17155990D01*
X7627920Y-17155990D02*
X7627920Y-17117895D01*
X7627920Y-17117895D02*
X7637444Y-17070276D01*
X7637444Y-17070276D02*
X7646968Y-17041704D01*
X7646968Y-17041704D02*
X7656491Y-17022657D01*
X7656491Y-17022657D02*
X7675539Y-16994085D01*
X7675539Y-16994085D02*
X7685063Y-16984561D01*
X7742206Y-17013133D02*
X7866015Y-17013133D01*
X7866015Y-17013133D02*
X7799349Y-17089323D01*
X7799349Y-17089323D02*
X7827920Y-17089323D01*
X7827920Y-17089323D02*
X7846968Y-17098847D01*
X7846968Y-17098847D02*
X7856491Y-17108371D01*
X7856491Y-17108371D02*
X7866015Y-17127418D01*
X7866015Y-17127418D02*
X7866015Y-17175037D01*
X7866015Y-17175037D02*
X7856491Y-17194085D01*
X7856491Y-17194085D02*
X7846968Y-17203609D01*
X7846968Y-17203609D02*
X7827920Y-17213133D01*
X7827920Y-17213133D02*
X7770777Y-17213133D01*
X7770777Y-17213133D02*
X7751730Y-17203609D01*
X7751730Y-17203609D02*
X7742206Y-17194085D01*
X7942206Y-17032180D02*
X7951730Y-17022657D01*
X7951730Y-17022657D02*
X7970777Y-17013133D01*
X7970777Y-17013133D02*
X8018396Y-17013133D01*
X8018396Y-17013133D02*
X8037444Y-17022657D01*
X8037444Y-17022657D02*
X8046968Y-17032180D01*
X8046968Y-17032180D02*
X8056491Y-17051228D01*
X8056491Y-17051228D02*
X8056491Y-17070276D01*
X8056491Y-17070276D02*
X8046968Y-17098847D01*
X8046968Y-17098847D02*
X7932682Y-17213133D01*
X7932682Y-17213133D02*
X8056491Y-17213133D01*
X8294587Y-17213133D02*
X8294587Y-17013133D01*
X8380301Y-17213133D02*
X8380301Y-17108371D01*
X8380301Y-17108371D02*
X8370777Y-17089323D01*
X8370777Y-17089323D02*
X8351730Y-17079799D01*
X8351730Y-17079799D02*
X8323158Y-17079799D01*
X8323158Y-17079799D02*
X8304111Y-17089323D01*
X8304111Y-17089323D02*
X8294587Y-17098847D01*
X8504111Y-17213133D02*
X8485063Y-17203609D01*
X8485063Y-17203609D02*
X8475539Y-17194085D01*
X8475539Y-17194085D02*
X8466015Y-17175037D01*
X8466015Y-17175037D02*
X8466015Y-17117895D01*
X8466015Y-17117895D02*
X8475539Y-17098847D01*
X8475539Y-17098847D02*
X8485063Y-17089323D01*
X8485063Y-17089323D02*
X8504111Y-17079799D01*
X8504111Y-17079799D02*
X8532682Y-17079799D01*
X8532682Y-17079799D02*
X8551730Y-17089323D01*
X8551730Y-17089323D02*
X8561254Y-17098847D01*
X8561254Y-17098847D02*
X8570777Y-17117895D01*
X8570777Y-17117895D02*
X8570777Y-17175037D01*
X8570777Y-17175037D02*
X8561254Y-17194085D01*
X8561254Y-17194085D02*
X8551730Y-17203609D01*
X8551730Y-17203609D02*
X8532682Y-17213133D01*
X8532682Y-17213133D02*
X8504111Y-17213133D01*
X8685063Y-17213133D02*
X8666015Y-17203609D01*
X8666015Y-17203609D02*
X8656492Y-17184561D01*
X8656492Y-17184561D02*
X8656492Y-17013133D01*
X8837444Y-17203609D02*
X8818396Y-17213133D01*
X8818396Y-17213133D02*
X8780301Y-17213133D01*
X8780301Y-17213133D02*
X8761254Y-17203609D01*
X8761254Y-17203609D02*
X8751730Y-17184561D01*
X8751730Y-17184561D02*
X8751730Y-17108371D01*
X8751730Y-17108371D02*
X8761254Y-17089323D01*
X8761254Y-17089323D02*
X8780301Y-17079799D01*
X8780301Y-17079799D02*
X8818396Y-17079799D01*
X8818396Y-17079799D02*
X8837444Y-17089323D01*
X8837444Y-17089323D02*
X8846968Y-17108371D01*
X8846968Y-17108371D02*
X8846968Y-17127418D01*
X8846968Y-17127418D02*
X8751730Y-17146466D01*
X8923158Y-17203609D02*
X8942206Y-17213133D01*
X8942206Y-17213133D02*
X8980301Y-17213133D01*
X8980301Y-17213133D02*
X8999349Y-17203609D01*
X8999349Y-17203609D02*
X9008873Y-17184561D01*
X9008873Y-17184561D02*
X9008873Y-17175037D01*
X9008873Y-17175037D02*
X8999349Y-17155990D01*
X8999349Y-17155990D02*
X8980301Y-17146466D01*
X8980301Y-17146466D02*
X8951730Y-17146466D01*
X8951730Y-17146466D02*
X8932682Y-17136942D01*
X8932682Y-17136942D02*
X8923158Y-17117895D01*
X8923158Y-17117895D02*
X8923158Y-17108371D01*
X8923158Y-17108371D02*
X8932682Y-17089323D01*
X8932682Y-17089323D02*
X8951730Y-17079799D01*
X8951730Y-17079799D02*
X8980301Y-17079799D01*
X8980301Y-17079799D02*
X8999349Y-17089323D01*
X9075539Y-17289323D02*
X9085063Y-17279799D01*
X9085063Y-17279799D02*
X9104111Y-17251228D01*
X9104111Y-17251228D02*
X9113635Y-17232180D01*
X9113635Y-17232180D02*
X9123158Y-17203609D01*
X9123158Y-17203609D02*
X9132682Y-17155990D01*
X9132682Y-17155990D02*
X9132682Y-17117895D01*
X9132682Y-17117895D02*
X9123158Y-17070276D01*
X9123158Y-17070276D02*
X9113635Y-17041704D01*
X9113635Y-17041704D02*
X9104111Y-17022657D01*
X9104111Y-17022657D02*
X9085063Y-16994085D01*
X9085063Y-16994085D02*
X9075539Y-16984561D01*
D13*
X4110000Y-17385649D02*
G75*
G03*
X4110000Y-17385649I-35000J0D01*
G01*
D11*
X4408872Y-17277133D02*
X4427920Y-17277133D01*
X4427920Y-17277133D02*
X4446967Y-17286657D01*
X4446967Y-17286657D02*
X4456491Y-17296180D01*
X4456491Y-17296180D02*
X4466015Y-17315228D01*
X4466015Y-17315228D02*
X4475539Y-17353323D01*
X4475539Y-17353323D02*
X4475539Y-17400942D01*
X4475539Y-17400942D02*
X4466015Y-17439037D01*
X4466015Y-17439037D02*
X4456491Y-17458085D01*
X4456491Y-17458085D02*
X4446967Y-17467609D01*
X4446967Y-17467609D02*
X4427920Y-17477133D01*
X4427920Y-17477133D02*
X4408872Y-17477133D01*
X4408872Y-17477133D02*
X4389825Y-17467609D01*
X4389825Y-17467609D02*
X4380301Y-17458085D01*
X4380301Y-17458085D02*
X4370777Y-17439037D01*
X4370777Y-17439037D02*
X4361253Y-17400942D01*
X4361253Y-17400942D02*
X4361253Y-17353323D01*
X4361253Y-17353323D02*
X4370777Y-17315228D01*
X4370777Y-17315228D02*
X4380301Y-17296180D01*
X4380301Y-17296180D02*
X4389825Y-17286657D01*
X4389825Y-17286657D02*
X4408872Y-17277133D01*
X4561253Y-17458085D02*
X4570777Y-17467609D01*
X4570777Y-17467609D02*
X4561253Y-17477133D01*
X4561253Y-17477133D02*
X4551729Y-17467609D01*
X4551729Y-17467609D02*
X4561253Y-17458085D01*
X4561253Y-17458085D02*
X4561253Y-17477133D01*
X4637444Y-17277133D02*
X4770777Y-17277133D01*
X4770777Y-17277133D02*
X4685063Y-17477133D01*
X4885063Y-17277133D02*
X4904110Y-17277133D01*
X4904110Y-17277133D02*
X4923158Y-17286657D01*
X4923158Y-17286657D02*
X4932682Y-17296180D01*
X4932682Y-17296180D02*
X4942206Y-17315228D01*
X4942206Y-17315228D02*
X4951729Y-17353323D01*
X4951729Y-17353323D02*
X4951729Y-17400942D01*
X4951729Y-17400942D02*
X4942206Y-17439037D01*
X4942206Y-17439037D02*
X4932682Y-17458085D01*
X4932682Y-17458085D02*
X4923158Y-17467609D01*
X4923158Y-17467609D02*
X4904110Y-17477133D01*
X4904110Y-17477133D02*
X4885063Y-17477133D01*
X4885063Y-17477133D02*
X4866015Y-17467609D01*
X4866015Y-17467609D02*
X4856491Y-17458085D01*
X4856491Y-17458085D02*
X4846967Y-17439037D01*
X4846967Y-17439037D02*
X4837444Y-17400942D01*
X4837444Y-17400942D02*
X4837444Y-17353323D01*
X4837444Y-17353323D02*
X4846967Y-17315228D01*
X4846967Y-17315228D02*
X4856491Y-17296180D01*
X4856491Y-17296180D02*
X4866015Y-17286657D01*
X4866015Y-17286657D02*
X4885063Y-17277133D01*
X5075539Y-17277133D02*
X5094587Y-17277133D01*
X5094587Y-17277133D02*
X5113634Y-17286657D01*
X5113634Y-17286657D02*
X5123158Y-17296180D01*
X5123158Y-17296180D02*
X5132682Y-17315228D01*
X5132682Y-17315228D02*
X5142206Y-17353323D01*
X5142206Y-17353323D02*
X5142206Y-17400942D01*
X5142206Y-17400942D02*
X5132682Y-17439037D01*
X5132682Y-17439037D02*
X5123158Y-17458085D01*
X5123158Y-17458085D02*
X5113634Y-17467609D01*
X5113634Y-17467609D02*
X5094587Y-17477133D01*
X5094587Y-17477133D02*
X5075539Y-17477133D01*
X5075539Y-17477133D02*
X5056491Y-17467609D01*
X5056491Y-17467609D02*
X5046967Y-17458085D01*
X5046967Y-17458085D02*
X5037444Y-17439037D01*
X5037444Y-17439037D02*
X5027920Y-17400942D01*
X5027920Y-17400942D02*
X5027920Y-17353323D01*
X5027920Y-17353323D02*
X5037444Y-17315228D01*
X5037444Y-17315228D02*
X5046967Y-17296180D01*
X5046967Y-17296180D02*
X5056491Y-17286657D01*
X5056491Y-17286657D02*
X5075539Y-17277133D01*
X5227920Y-17477133D02*
X5227920Y-17343799D01*
X5227920Y-17362847D02*
X5237444Y-17353323D01*
X5237444Y-17353323D02*
X5256491Y-17343799D01*
X5256491Y-17343799D02*
X5285063Y-17343799D01*
X5285063Y-17343799D02*
X5304110Y-17353323D01*
X5304110Y-17353323D02*
X5313634Y-17372371D01*
X5313634Y-17372371D02*
X5313634Y-17477133D01*
X5313634Y-17372371D02*
X5323158Y-17353323D01*
X5323158Y-17353323D02*
X5342206Y-17343799D01*
X5342206Y-17343799D02*
X5370777Y-17343799D01*
X5370777Y-17343799D02*
X5389825Y-17353323D01*
X5389825Y-17353323D02*
X5399348Y-17372371D01*
X5399348Y-17372371D02*
X5399348Y-17477133D01*
X5494587Y-17477133D02*
X5494587Y-17343799D01*
X5494587Y-17362847D02*
X5504110Y-17353323D01*
X5504110Y-17353323D02*
X5523158Y-17343799D01*
X5523158Y-17343799D02*
X5551729Y-17343799D01*
X5551729Y-17343799D02*
X5570777Y-17353323D01*
X5570777Y-17353323D02*
X5580301Y-17372371D01*
X5580301Y-17372371D02*
X5580301Y-17477133D01*
X5580301Y-17372371D02*
X5589825Y-17353323D01*
X5589825Y-17353323D02*
X5608872Y-17343799D01*
X5608872Y-17343799D02*
X5637444Y-17343799D01*
X5637444Y-17343799D02*
X5656491Y-17353323D01*
X5656491Y-17353323D02*
X5666015Y-17372371D01*
X5666015Y-17372371D02*
X5666015Y-17477133D01*
X6056491Y-17267609D02*
X5885063Y-17524752D01*
X6313634Y-17277133D02*
X6332682Y-17277133D01*
X6332682Y-17277133D02*
X6351729Y-17286657D01*
X6351729Y-17286657D02*
X6361253Y-17296180D01*
X6361253Y-17296180D02*
X6370777Y-17315228D01*
X6370777Y-17315228D02*
X6380301Y-17353323D01*
X6380301Y-17353323D02*
X6380301Y-17400942D01*
X6380301Y-17400942D02*
X6370777Y-17439037D01*
X6370777Y-17439037D02*
X6361253Y-17458085D01*
X6361253Y-17458085D02*
X6351729Y-17467609D01*
X6351729Y-17467609D02*
X6332682Y-17477133D01*
X6332682Y-17477133D02*
X6313634Y-17477133D01*
X6313634Y-17477133D02*
X6294587Y-17467609D01*
X6294587Y-17467609D02*
X6285063Y-17458085D01*
X6285063Y-17458085D02*
X6275539Y-17439037D01*
X6275539Y-17439037D02*
X6266015Y-17400942D01*
X6266015Y-17400942D02*
X6266015Y-17353323D01*
X6266015Y-17353323D02*
X6275539Y-17315228D01*
X6275539Y-17315228D02*
X6285063Y-17296180D01*
X6285063Y-17296180D02*
X6294587Y-17286657D01*
X6294587Y-17286657D02*
X6313634Y-17277133D01*
X6466015Y-17458085D02*
X6475539Y-17467609D01*
X6475539Y-17467609D02*
X6466015Y-17477133D01*
X6466015Y-17477133D02*
X6456491Y-17467609D01*
X6456491Y-17467609D02*
X6466015Y-17458085D01*
X6466015Y-17458085D02*
X6466015Y-17477133D01*
X6599348Y-17277133D02*
X6618396Y-17277133D01*
X6618396Y-17277133D02*
X6637444Y-17286657D01*
X6637444Y-17286657D02*
X6646968Y-17296180D01*
X6646968Y-17296180D02*
X6656491Y-17315228D01*
X6656491Y-17315228D02*
X6666015Y-17353323D01*
X6666015Y-17353323D02*
X6666015Y-17400942D01*
X6666015Y-17400942D02*
X6656491Y-17439037D01*
X6656491Y-17439037D02*
X6646968Y-17458085D01*
X6646968Y-17458085D02*
X6637444Y-17467609D01*
X6637444Y-17467609D02*
X6618396Y-17477133D01*
X6618396Y-17477133D02*
X6599348Y-17477133D01*
X6599348Y-17477133D02*
X6580301Y-17467609D01*
X6580301Y-17467609D02*
X6570777Y-17458085D01*
X6570777Y-17458085D02*
X6561253Y-17439037D01*
X6561253Y-17439037D02*
X6551729Y-17400942D01*
X6551729Y-17400942D02*
X6551729Y-17353323D01*
X6551729Y-17353323D02*
X6561253Y-17315228D01*
X6561253Y-17315228D02*
X6570777Y-17296180D01*
X6570777Y-17296180D02*
X6580301Y-17286657D01*
X6580301Y-17286657D02*
X6599348Y-17277133D01*
X6742206Y-17296180D02*
X6751729Y-17286657D01*
X6751729Y-17286657D02*
X6770777Y-17277133D01*
X6770777Y-17277133D02*
X6818396Y-17277133D01*
X6818396Y-17277133D02*
X6837444Y-17286657D01*
X6837444Y-17286657D02*
X6846968Y-17296180D01*
X6846968Y-17296180D02*
X6856491Y-17315228D01*
X6856491Y-17315228D02*
X6856491Y-17334276D01*
X6856491Y-17334276D02*
X6846968Y-17362847D01*
X6846968Y-17362847D02*
X6732682Y-17477133D01*
X6732682Y-17477133D02*
X6856491Y-17477133D01*
X6923158Y-17277133D02*
X7056491Y-17277133D01*
X7056491Y-17277133D02*
X6970777Y-17477133D01*
X7218396Y-17277133D02*
X7180301Y-17277133D01*
X7180301Y-17277133D02*
X7161253Y-17286657D01*
X7161253Y-17286657D02*
X7151729Y-17296180D01*
X7151729Y-17296180D02*
X7132682Y-17324752D01*
X7132682Y-17324752D02*
X7123158Y-17362847D01*
X7123158Y-17362847D02*
X7123158Y-17439037D01*
X7123158Y-17439037D02*
X7132682Y-17458085D01*
X7132682Y-17458085D02*
X7142206Y-17467609D01*
X7142206Y-17467609D02*
X7161253Y-17477133D01*
X7161253Y-17477133D02*
X7199349Y-17477133D01*
X7199349Y-17477133D02*
X7218396Y-17467609D01*
X7218396Y-17467609D02*
X7227920Y-17458085D01*
X7227920Y-17458085D02*
X7237444Y-17439037D01*
X7237444Y-17439037D02*
X7237444Y-17391418D01*
X7237444Y-17391418D02*
X7227920Y-17372371D01*
X7227920Y-17372371D02*
X7218396Y-17362847D01*
X7218396Y-17362847D02*
X7199349Y-17353323D01*
X7199349Y-17353323D02*
X7161253Y-17353323D01*
X7161253Y-17353323D02*
X7142206Y-17362847D01*
X7142206Y-17362847D02*
X7132682Y-17372371D01*
X7132682Y-17372371D02*
X7123158Y-17391418D01*
X7313634Y-17277133D02*
X7313634Y-17315228D01*
X7389825Y-17277133D02*
X7389825Y-17315228D01*
X7685063Y-17553323D02*
X7675539Y-17543799D01*
X7675539Y-17543799D02*
X7656491Y-17515228D01*
X7656491Y-17515228D02*
X7646968Y-17496180D01*
X7646968Y-17496180D02*
X7637444Y-17467609D01*
X7637444Y-17467609D02*
X7627920Y-17419990D01*
X7627920Y-17419990D02*
X7627920Y-17381895D01*
X7627920Y-17381895D02*
X7637444Y-17334276D01*
X7637444Y-17334276D02*
X7646968Y-17305704D01*
X7646968Y-17305704D02*
X7656491Y-17286657D01*
X7656491Y-17286657D02*
X7675539Y-17258085D01*
X7675539Y-17258085D02*
X7685063Y-17248561D01*
X7866015Y-17477133D02*
X7751730Y-17477133D01*
X7808872Y-17477133D02*
X7808872Y-17277133D01*
X7808872Y-17277133D02*
X7789825Y-17305704D01*
X7789825Y-17305704D02*
X7770777Y-17324752D01*
X7770777Y-17324752D02*
X7751730Y-17334276D01*
X7942206Y-17296180D02*
X7951730Y-17286657D01*
X7951730Y-17286657D02*
X7970777Y-17277133D01*
X7970777Y-17277133D02*
X8018396Y-17277133D01*
X8018396Y-17277133D02*
X8037444Y-17286657D01*
X8037444Y-17286657D02*
X8046968Y-17296180D01*
X8046968Y-17296180D02*
X8056491Y-17315228D01*
X8056491Y-17315228D02*
X8056491Y-17334276D01*
X8056491Y-17334276D02*
X8046968Y-17362847D01*
X8046968Y-17362847D02*
X7932682Y-17477133D01*
X7932682Y-17477133D02*
X8056491Y-17477133D01*
X8294587Y-17477133D02*
X8294587Y-17277133D01*
X8380301Y-17477133D02*
X8380301Y-17372371D01*
X8380301Y-17372371D02*
X8370777Y-17353323D01*
X8370777Y-17353323D02*
X8351730Y-17343799D01*
X8351730Y-17343799D02*
X8323158Y-17343799D01*
X8323158Y-17343799D02*
X8304111Y-17353323D01*
X8304111Y-17353323D02*
X8294587Y-17362847D01*
X8504111Y-17477133D02*
X8485063Y-17467609D01*
X8485063Y-17467609D02*
X8475539Y-17458085D01*
X8475539Y-17458085D02*
X8466015Y-17439037D01*
X8466015Y-17439037D02*
X8466015Y-17381895D01*
X8466015Y-17381895D02*
X8475539Y-17362847D01*
X8475539Y-17362847D02*
X8485063Y-17353323D01*
X8485063Y-17353323D02*
X8504111Y-17343799D01*
X8504111Y-17343799D02*
X8532682Y-17343799D01*
X8532682Y-17343799D02*
X8551730Y-17353323D01*
X8551730Y-17353323D02*
X8561254Y-17362847D01*
X8561254Y-17362847D02*
X8570777Y-17381895D01*
X8570777Y-17381895D02*
X8570777Y-17439037D01*
X8570777Y-17439037D02*
X8561254Y-17458085D01*
X8561254Y-17458085D02*
X8551730Y-17467609D01*
X8551730Y-17467609D02*
X8532682Y-17477133D01*
X8532682Y-17477133D02*
X8504111Y-17477133D01*
X8685063Y-17477133D02*
X8666015Y-17467609D01*
X8666015Y-17467609D02*
X8656492Y-17448561D01*
X8656492Y-17448561D02*
X8656492Y-17277133D01*
X8837444Y-17467609D02*
X8818396Y-17477133D01*
X8818396Y-17477133D02*
X8780301Y-17477133D01*
X8780301Y-17477133D02*
X8761254Y-17467609D01*
X8761254Y-17467609D02*
X8751730Y-17448561D01*
X8751730Y-17448561D02*
X8751730Y-17372371D01*
X8751730Y-17372371D02*
X8761254Y-17353323D01*
X8761254Y-17353323D02*
X8780301Y-17343799D01*
X8780301Y-17343799D02*
X8818396Y-17343799D01*
X8818396Y-17343799D02*
X8837444Y-17353323D01*
X8837444Y-17353323D02*
X8846968Y-17372371D01*
X8846968Y-17372371D02*
X8846968Y-17391418D01*
X8846968Y-17391418D02*
X8751730Y-17410466D01*
X8923158Y-17467609D02*
X8942206Y-17477133D01*
X8942206Y-17477133D02*
X8980301Y-17477133D01*
X8980301Y-17477133D02*
X8999349Y-17467609D01*
X8999349Y-17467609D02*
X9008873Y-17448561D01*
X9008873Y-17448561D02*
X9008873Y-17439037D01*
X9008873Y-17439037D02*
X8999349Y-17419990D01*
X8999349Y-17419990D02*
X8980301Y-17410466D01*
X8980301Y-17410466D02*
X8951730Y-17410466D01*
X8951730Y-17410466D02*
X8932682Y-17400942D01*
X8932682Y-17400942D02*
X8923158Y-17381895D01*
X8923158Y-17381895D02*
X8923158Y-17372371D01*
X8923158Y-17372371D02*
X8932682Y-17353323D01*
X8932682Y-17353323D02*
X8951730Y-17343799D01*
X8951730Y-17343799D02*
X8980301Y-17343799D01*
X8980301Y-17343799D02*
X8999349Y-17353323D01*
X9075539Y-17553323D02*
X9085063Y-17543799D01*
X9085063Y-17543799D02*
X9104111Y-17515228D01*
X9104111Y-17515228D02*
X9113635Y-17496180D01*
X9113635Y-17496180D02*
X9123158Y-17467609D01*
X9123158Y-17467609D02*
X9132682Y-17419990D01*
X9132682Y-17419990D02*
X9132682Y-17381895D01*
X9132682Y-17381895D02*
X9123158Y-17334276D01*
X9123158Y-17334276D02*
X9113635Y-17305704D01*
X9113635Y-17305704D02*
X9104111Y-17286657D01*
X9104111Y-17286657D02*
X9085063Y-17258085D01*
X9085063Y-17258085D02*
X9075539Y-17248561D01*
D14*
X4070000Y-17609649D02*
X4070000Y-17689649D01*
X4030000Y-17649649D02*
X4110000Y-17649649D01*
D11*
X4408872Y-17541133D02*
X4427920Y-17541133D01*
X4427920Y-17541133D02*
X4446967Y-17550657D01*
X4446967Y-17550657D02*
X4456491Y-17560180D01*
X4456491Y-17560180D02*
X4466015Y-17579228D01*
X4466015Y-17579228D02*
X4475539Y-17617323D01*
X4475539Y-17617323D02*
X4475539Y-17664942D01*
X4475539Y-17664942D02*
X4466015Y-17703037D01*
X4466015Y-17703037D02*
X4456491Y-17722085D01*
X4456491Y-17722085D02*
X4446967Y-17731609D01*
X4446967Y-17731609D02*
X4427920Y-17741133D01*
X4427920Y-17741133D02*
X4408872Y-17741133D01*
X4408872Y-17741133D02*
X4389825Y-17731609D01*
X4389825Y-17731609D02*
X4380301Y-17722085D01*
X4380301Y-17722085D02*
X4370777Y-17703037D01*
X4370777Y-17703037D02*
X4361253Y-17664942D01*
X4361253Y-17664942D02*
X4361253Y-17617323D01*
X4361253Y-17617323D02*
X4370777Y-17579228D01*
X4370777Y-17579228D02*
X4380301Y-17560180D01*
X4380301Y-17560180D02*
X4389825Y-17550657D01*
X4389825Y-17550657D02*
X4408872Y-17541133D01*
X4561253Y-17722085D02*
X4570777Y-17731609D01*
X4570777Y-17731609D02*
X4561253Y-17741133D01*
X4561253Y-17741133D02*
X4551729Y-17731609D01*
X4551729Y-17731609D02*
X4561253Y-17722085D01*
X4561253Y-17722085D02*
X4561253Y-17741133D01*
X4685063Y-17626847D02*
X4666015Y-17617323D01*
X4666015Y-17617323D02*
X4656491Y-17607799D01*
X4656491Y-17607799D02*
X4646967Y-17588752D01*
X4646967Y-17588752D02*
X4646967Y-17579228D01*
X4646967Y-17579228D02*
X4656491Y-17560180D01*
X4656491Y-17560180D02*
X4666015Y-17550657D01*
X4666015Y-17550657D02*
X4685063Y-17541133D01*
X4685063Y-17541133D02*
X4723158Y-17541133D01*
X4723158Y-17541133D02*
X4742206Y-17550657D01*
X4742206Y-17550657D02*
X4751729Y-17560180D01*
X4751729Y-17560180D02*
X4761253Y-17579228D01*
X4761253Y-17579228D02*
X4761253Y-17588752D01*
X4761253Y-17588752D02*
X4751729Y-17607799D01*
X4751729Y-17607799D02*
X4742206Y-17617323D01*
X4742206Y-17617323D02*
X4723158Y-17626847D01*
X4723158Y-17626847D02*
X4685063Y-17626847D01*
X4685063Y-17626847D02*
X4666015Y-17636371D01*
X4666015Y-17636371D02*
X4656491Y-17645895D01*
X4656491Y-17645895D02*
X4646967Y-17664942D01*
X4646967Y-17664942D02*
X4646967Y-17703037D01*
X4646967Y-17703037D02*
X4656491Y-17722085D01*
X4656491Y-17722085D02*
X4666015Y-17731609D01*
X4666015Y-17731609D02*
X4685063Y-17741133D01*
X4685063Y-17741133D02*
X4723158Y-17741133D01*
X4723158Y-17741133D02*
X4742206Y-17731609D01*
X4742206Y-17731609D02*
X4751729Y-17722085D01*
X4751729Y-17722085D02*
X4761253Y-17703037D01*
X4761253Y-17703037D02*
X4761253Y-17664942D01*
X4761253Y-17664942D02*
X4751729Y-17645895D01*
X4751729Y-17645895D02*
X4742206Y-17636371D01*
X4742206Y-17636371D02*
X4723158Y-17626847D01*
X4885063Y-17541133D02*
X4904110Y-17541133D01*
X4904110Y-17541133D02*
X4923158Y-17550657D01*
X4923158Y-17550657D02*
X4932682Y-17560180D01*
X4932682Y-17560180D02*
X4942206Y-17579228D01*
X4942206Y-17579228D02*
X4951729Y-17617323D01*
X4951729Y-17617323D02*
X4951729Y-17664942D01*
X4951729Y-17664942D02*
X4942206Y-17703037D01*
X4942206Y-17703037D02*
X4932682Y-17722085D01*
X4932682Y-17722085D02*
X4923158Y-17731609D01*
X4923158Y-17731609D02*
X4904110Y-17741133D01*
X4904110Y-17741133D02*
X4885063Y-17741133D01*
X4885063Y-17741133D02*
X4866015Y-17731609D01*
X4866015Y-17731609D02*
X4856491Y-17722085D01*
X4856491Y-17722085D02*
X4846967Y-17703037D01*
X4846967Y-17703037D02*
X4837444Y-17664942D01*
X4837444Y-17664942D02*
X4837444Y-17617323D01*
X4837444Y-17617323D02*
X4846967Y-17579228D01*
X4846967Y-17579228D02*
X4856491Y-17560180D01*
X4856491Y-17560180D02*
X4866015Y-17550657D01*
X4866015Y-17550657D02*
X4885063Y-17541133D01*
X5075539Y-17541133D02*
X5094587Y-17541133D01*
X5094587Y-17541133D02*
X5113634Y-17550657D01*
X5113634Y-17550657D02*
X5123158Y-17560180D01*
X5123158Y-17560180D02*
X5132682Y-17579228D01*
X5132682Y-17579228D02*
X5142206Y-17617323D01*
X5142206Y-17617323D02*
X5142206Y-17664942D01*
X5142206Y-17664942D02*
X5132682Y-17703037D01*
X5132682Y-17703037D02*
X5123158Y-17722085D01*
X5123158Y-17722085D02*
X5113634Y-17731609D01*
X5113634Y-17731609D02*
X5094587Y-17741133D01*
X5094587Y-17741133D02*
X5075539Y-17741133D01*
X5075539Y-17741133D02*
X5056491Y-17731609D01*
X5056491Y-17731609D02*
X5046967Y-17722085D01*
X5046967Y-17722085D02*
X5037444Y-17703037D01*
X5037444Y-17703037D02*
X5027920Y-17664942D01*
X5027920Y-17664942D02*
X5027920Y-17617323D01*
X5027920Y-17617323D02*
X5037444Y-17579228D01*
X5037444Y-17579228D02*
X5046967Y-17560180D01*
X5046967Y-17560180D02*
X5056491Y-17550657D01*
X5056491Y-17550657D02*
X5075539Y-17541133D01*
X5227920Y-17741133D02*
X5227920Y-17607799D01*
X5227920Y-17626847D02*
X5237444Y-17617323D01*
X5237444Y-17617323D02*
X5256491Y-17607799D01*
X5256491Y-17607799D02*
X5285063Y-17607799D01*
X5285063Y-17607799D02*
X5304110Y-17617323D01*
X5304110Y-17617323D02*
X5313634Y-17636371D01*
X5313634Y-17636371D02*
X5313634Y-17741133D01*
X5313634Y-17636371D02*
X5323158Y-17617323D01*
X5323158Y-17617323D02*
X5342206Y-17607799D01*
X5342206Y-17607799D02*
X5370777Y-17607799D01*
X5370777Y-17607799D02*
X5389825Y-17617323D01*
X5389825Y-17617323D02*
X5399348Y-17636371D01*
X5399348Y-17636371D02*
X5399348Y-17741133D01*
X5494587Y-17741133D02*
X5494587Y-17607799D01*
X5494587Y-17626847D02*
X5504110Y-17617323D01*
X5504110Y-17617323D02*
X5523158Y-17607799D01*
X5523158Y-17607799D02*
X5551729Y-17607799D01*
X5551729Y-17607799D02*
X5570777Y-17617323D01*
X5570777Y-17617323D02*
X5580301Y-17636371D01*
X5580301Y-17636371D02*
X5580301Y-17741133D01*
X5580301Y-17636371D02*
X5589825Y-17617323D01*
X5589825Y-17617323D02*
X5608872Y-17607799D01*
X5608872Y-17607799D02*
X5637444Y-17607799D01*
X5637444Y-17607799D02*
X5656491Y-17617323D01*
X5656491Y-17617323D02*
X5666015Y-17636371D01*
X5666015Y-17636371D02*
X5666015Y-17741133D01*
X6056491Y-17531609D02*
X5885063Y-17788752D01*
X6313634Y-17541133D02*
X6332682Y-17541133D01*
X6332682Y-17541133D02*
X6351729Y-17550657D01*
X6351729Y-17550657D02*
X6361253Y-17560180D01*
X6361253Y-17560180D02*
X6370777Y-17579228D01*
X6370777Y-17579228D02*
X6380301Y-17617323D01*
X6380301Y-17617323D02*
X6380301Y-17664942D01*
X6380301Y-17664942D02*
X6370777Y-17703037D01*
X6370777Y-17703037D02*
X6361253Y-17722085D01*
X6361253Y-17722085D02*
X6351729Y-17731609D01*
X6351729Y-17731609D02*
X6332682Y-17741133D01*
X6332682Y-17741133D02*
X6313634Y-17741133D01*
X6313634Y-17741133D02*
X6294587Y-17731609D01*
X6294587Y-17731609D02*
X6285063Y-17722085D01*
X6285063Y-17722085D02*
X6275539Y-17703037D01*
X6275539Y-17703037D02*
X6266015Y-17664942D01*
X6266015Y-17664942D02*
X6266015Y-17617323D01*
X6266015Y-17617323D02*
X6275539Y-17579228D01*
X6275539Y-17579228D02*
X6285063Y-17560180D01*
X6285063Y-17560180D02*
X6294587Y-17550657D01*
X6294587Y-17550657D02*
X6313634Y-17541133D01*
X6466015Y-17722085D02*
X6475539Y-17731609D01*
X6475539Y-17731609D02*
X6466015Y-17741133D01*
X6466015Y-17741133D02*
X6456491Y-17731609D01*
X6456491Y-17731609D02*
X6466015Y-17722085D01*
X6466015Y-17722085D02*
X6466015Y-17741133D01*
X6599348Y-17541133D02*
X6618396Y-17541133D01*
X6618396Y-17541133D02*
X6637444Y-17550657D01*
X6637444Y-17550657D02*
X6646968Y-17560180D01*
X6646968Y-17560180D02*
X6656491Y-17579228D01*
X6656491Y-17579228D02*
X6666015Y-17617323D01*
X6666015Y-17617323D02*
X6666015Y-17664942D01*
X6666015Y-17664942D02*
X6656491Y-17703037D01*
X6656491Y-17703037D02*
X6646968Y-17722085D01*
X6646968Y-17722085D02*
X6637444Y-17731609D01*
X6637444Y-17731609D02*
X6618396Y-17741133D01*
X6618396Y-17741133D02*
X6599348Y-17741133D01*
X6599348Y-17741133D02*
X6580301Y-17731609D01*
X6580301Y-17731609D02*
X6570777Y-17722085D01*
X6570777Y-17722085D02*
X6561253Y-17703037D01*
X6561253Y-17703037D02*
X6551729Y-17664942D01*
X6551729Y-17664942D02*
X6551729Y-17617323D01*
X6551729Y-17617323D02*
X6561253Y-17579228D01*
X6561253Y-17579228D02*
X6570777Y-17560180D01*
X6570777Y-17560180D02*
X6580301Y-17550657D01*
X6580301Y-17550657D02*
X6599348Y-17541133D01*
X6732682Y-17541133D02*
X6856491Y-17541133D01*
X6856491Y-17541133D02*
X6789825Y-17617323D01*
X6789825Y-17617323D02*
X6818396Y-17617323D01*
X6818396Y-17617323D02*
X6837444Y-17626847D01*
X6837444Y-17626847D02*
X6846968Y-17636371D01*
X6846968Y-17636371D02*
X6856491Y-17655418D01*
X6856491Y-17655418D02*
X6856491Y-17703037D01*
X6856491Y-17703037D02*
X6846968Y-17722085D01*
X6846968Y-17722085D02*
X6837444Y-17731609D01*
X6837444Y-17731609D02*
X6818396Y-17741133D01*
X6818396Y-17741133D02*
X6761253Y-17741133D01*
X6761253Y-17741133D02*
X6742206Y-17731609D01*
X6742206Y-17731609D02*
X6732682Y-17722085D01*
X7046968Y-17741133D02*
X6932682Y-17741133D01*
X6989825Y-17741133D02*
X6989825Y-17541133D01*
X6989825Y-17541133D02*
X6970777Y-17569704D01*
X6970777Y-17569704D02*
X6951729Y-17588752D01*
X6951729Y-17588752D02*
X6932682Y-17598276D01*
X7227920Y-17541133D02*
X7132682Y-17541133D01*
X7132682Y-17541133D02*
X7123158Y-17636371D01*
X7123158Y-17636371D02*
X7132682Y-17626847D01*
X7132682Y-17626847D02*
X7151729Y-17617323D01*
X7151729Y-17617323D02*
X7199349Y-17617323D01*
X7199349Y-17617323D02*
X7218396Y-17626847D01*
X7218396Y-17626847D02*
X7227920Y-17636371D01*
X7227920Y-17636371D02*
X7237444Y-17655418D01*
X7237444Y-17655418D02*
X7237444Y-17703037D01*
X7237444Y-17703037D02*
X7227920Y-17722085D01*
X7227920Y-17722085D02*
X7218396Y-17731609D01*
X7218396Y-17731609D02*
X7199349Y-17741133D01*
X7199349Y-17741133D02*
X7151729Y-17741133D01*
X7151729Y-17741133D02*
X7132682Y-17731609D01*
X7132682Y-17731609D02*
X7123158Y-17722085D01*
X7313634Y-17541133D02*
X7313634Y-17579228D01*
X7389825Y-17541133D02*
X7389825Y-17579228D01*
X7685063Y-17817323D02*
X7675539Y-17807799D01*
X7675539Y-17807799D02*
X7656491Y-17779228D01*
X7656491Y-17779228D02*
X7646968Y-17760180D01*
X7646968Y-17760180D02*
X7637444Y-17731609D01*
X7637444Y-17731609D02*
X7627920Y-17683990D01*
X7627920Y-17683990D02*
X7627920Y-17645895D01*
X7627920Y-17645895D02*
X7637444Y-17598276D01*
X7637444Y-17598276D02*
X7646968Y-17569704D01*
X7646968Y-17569704D02*
X7656491Y-17550657D01*
X7656491Y-17550657D02*
X7675539Y-17522085D01*
X7675539Y-17522085D02*
X7685063Y-17512561D01*
X7742206Y-17541133D02*
X7875539Y-17541133D01*
X7875539Y-17541133D02*
X7789825Y-17741133D01*
X8037444Y-17541133D02*
X7999349Y-17541133D01*
X7999349Y-17541133D02*
X7980301Y-17550657D01*
X7980301Y-17550657D02*
X7970777Y-17560180D01*
X7970777Y-17560180D02*
X7951730Y-17588752D01*
X7951730Y-17588752D02*
X7942206Y-17626847D01*
X7942206Y-17626847D02*
X7942206Y-17703037D01*
X7942206Y-17703037D02*
X7951730Y-17722085D01*
X7951730Y-17722085D02*
X7961253Y-17731609D01*
X7961253Y-17731609D02*
X7980301Y-17741133D01*
X7980301Y-17741133D02*
X8018396Y-17741133D01*
X8018396Y-17741133D02*
X8037444Y-17731609D01*
X8037444Y-17731609D02*
X8046968Y-17722085D01*
X8046968Y-17722085D02*
X8056491Y-17703037D01*
X8056491Y-17703037D02*
X8056491Y-17655418D01*
X8056491Y-17655418D02*
X8046968Y-17636371D01*
X8046968Y-17636371D02*
X8037444Y-17626847D01*
X8037444Y-17626847D02*
X8018396Y-17617323D01*
X8018396Y-17617323D02*
X7980301Y-17617323D01*
X7980301Y-17617323D02*
X7961253Y-17626847D01*
X7961253Y-17626847D02*
X7951730Y-17636371D01*
X7951730Y-17636371D02*
X7942206Y-17655418D01*
X8294587Y-17741133D02*
X8294587Y-17541133D01*
X8380301Y-17741133D02*
X8380301Y-17636371D01*
X8380301Y-17636371D02*
X8370777Y-17617323D01*
X8370777Y-17617323D02*
X8351730Y-17607799D01*
X8351730Y-17607799D02*
X8323158Y-17607799D01*
X8323158Y-17607799D02*
X8304111Y-17617323D01*
X8304111Y-17617323D02*
X8294587Y-17626847D01*
X8504111Y-17741133D02*
X8485063Y-17731609D01*
X8485063Y-17731609D02*
X8475539Y-17722085D01*
X8475539Y-17722085D02*
X8466015Y-17703037D01*
X8466015Y-17703037D02*
X8466015Y-17645895D01*
X8466015Y-17645895D02*
X8475539Y-17626847D01*
X8475539Y-17626847D02*
X8485063Y-17617323D01*
X8485063Y-17617323D02*
X8504111Y-17607799D01*
X8504111Y-17607799D02*
X8532682Y-17607799D01*
X8532682Y-17607799D02*
X8551730Y-17617323D01*
X8551730Y-17617323D02*
X8561254Y-17626847D01*
X8561254Y-17626847D02*
X8570777Y-17645895D01*
X8570777Y-17645895D02*
X8570777Y-17703037D01*
X8570777Y-17703037D02*
X8561254Y-17722085D01*
X8561254Y-17722085D02*
X8551730Y-17731609D01*
X8551730Y-17731609D02*
X8532682Y-17741133D01*
X8532682Y-17741133D02*
X8504111Y-17741133D01*
X8685063Y-17741133D02*
X8666015Y-17731609D01*
X8666015Y-17731609D02*
X8656492Y-17712561D01*
X8656492Y-17712561D02*
X8656492Y-17541133D01*
X8837444Y-17731609D02*
X8818396Y-17741133D01*
X8818396Y-17741133D02*
X8780301Y-17741133D01*
X8780301Y-17741133D02*
X8761254Y-17731609D01*
X8761254Y-17731609D02*
X8751730Y-17712561D01*
X8751730Y-17712561D02*
X8751730Y-17636371D01*
X8751730Y-17636371D02*
X8761254Y-17617323D01*
X8761254Y-17617323D02*
X8780301Y-17607799D01*
X8780301Y-17607799D02*
X8818396Y-17607799D01*
X8818396Y-17607799D02*
X8837444Y-17617323D01*
X8837444Y-17617323D02*
X8846968Y-17636371D01*
X8846968Y-17636371D02*
X8846968Y-17655418D01*
X8846968Y-17655418D02*
X8751730Y-17674466D01*
X8923158Y-17731609D02*
X8942206Y-17741133D01*
X8942206Y-17741133D02*
X8980301Y-17741133D01*
X8980301Y-17741133D02*
X8999349Y-17731609D01*
X8999349Y-17731609D02*
X9008873Y-17712561D01*
X9008873Y-17712561D02*
X9008873Y-17703037D01*
X9008873Y-17703037D02*
X8999349Y-17683990D01*
X8999349Y-17683990D02*
X8980301Y-17674466D01*
X8980301Y-17674466D02*
X8951730Y-17674466D01*
X8951730Y-17674466D02*
X8932682Y-17664942D01*
X8932682Y-17664942D02*
X8923158Y-17645895D01*
X8923158Y-17645895D02*
X8923158Y-17636371D01*
X8923158Y-17636371D02*
X8932682Y-17617323D01*
X8932682Y-17617323D02*
X8951730Y-17607799D01*
X8951730Y-17607799D02*
X8980301Y-17607799D01*
X8980301Y-17607799D02*
X8999349Y-17617323D01*
X9075539Y-17817323D02*
X9085063Y-17807799D01*
X9085063Y-17807799D02*
X9104111Y-17779228D01*
X9104111Y-17779228D02*
X9113635Y-17760180D01*
X9113635Y-17760180D02*
X9123158Y-17731609D01*
X9123158Y-17731609D02*
X9132682Y-17683990D01*
X9132682Y-17683990D02*
X9132682Y-17645895D01*
X9132682Y-17645895D02*
X9123158Y-17598276D01*
X9123158Y-17598276D02*
X9113635Y-17569704D01*
X9113635Y-17569704D02*
X9104111Y-17550657D01*
X9104111Y-17550657D02*
X9085063Y-17522085D01*
X9085063Y-17522085D02*
X9075539Y-17512561D01*
D15*
X4096820Y-17945469D02*
X4096820Y-17881829D01*
X4033180Y-17881829D01*
X4033180Y-17945469D01*
X4096820Y-17945469D01*
D11*
X4408872Y-17805133D02*
X4427920Y-17805133D01*
X4427920Y-17805133D02*
X4446967Y-17814657D01*
X4446967Y-17814657D02*
X4456491Y-17824180D01*
X4456491Y-17824180D02*
X4466015Y-17843228D01*
X4466015Y-17843228D02*
X4475539Y-17881323D01*
X4475539Y-17881323D02*
X4475539Y-17928942D01*
X4475539Y-17928942D02*
X4466015Y-17967037D01*
X4466015Y-17967037D02*
X4456491Y-17986085D01*
X4456491Y-17986085D02*
X4446967Y-17995609D01*
X4446967Y-17995609D02*
X4427920Y-18005133D01*
X4427920Y-18005133D02*
X4408872Y-18005133D01*
X4408872Y-18005133D02*
X4389825Y-17995609D01*
X4389825Y-17995609D02*
X4380301Y-17986085D01*
X4380301Y-17986085D02*
X4370777Y-17967037D01*
X4370777Y-17967037D02*
X4361253Y-17928942D01*
X4361253Y-17928942D02*
X4361253Y-17881323D01*
X4361253Y-17881323D02*
X4370777Y-17843228D01*
X4370777Y-17843228D02*
X4380301Y-17824180D01*
X4380301Y-17824180D02*
X4389825Y-17814657D01*
X4389825Y-17814657D02*
X4408872Y-17805133D01*
X4561253Y-17986085D02*
X4570777Y-17995609D01*
X4570777Y-17995609D02*
X4561253Y-18005133D01*
X4561253Y-18005133D02*
X4551729Y-17995609D01*
X4551729Y-17995609D02*
X4561253Y-17986085D01*
X4561253Y-17986085D02*
X4561253Y-18005133D01*
X4666015Y-18005133D02*
X4704110Y-18005133D01*
X4704110Y-18005133D02*
X4723158Y-17995609D01*
X4723158Y-17995609D02*
X4732682Y-17986085D01*
X4732682Y-17986085D02*
X4751729Y-17957514D01*
X4751729Y-17957514D02*
X4761253Y-17919418D01*
X4761253Y-17919418D02*
X4761253Y-17843228D01*
X4761253Y-17843228D02*
X4751729Y-17824180D01*
X4751729Y-17824180D02*
X4742206Y-17814657D01*
X4742206Y-17814657D02*
X4723158Y-17805133D01*
X4723158Y-17805133D02*
X4685063Y-17805133D01*
X4685063Y-17805133D02*
X4666015Y-17814657D01*
X4666015Y-17814657D02*
X4656491Y-17824180D01*
X4656491Y-17824180D02*
X4646967Y-17843228D01*
X4646967Y-17843228D02*
X4646967Y-17890847D01*
X4646967Y-17890847D02*
X4656491Y-17909895D01*
X4656491Y-17909895D02*
X4666015Y-17919418D01*
X4666015Y-17919418D02*
X4685063Y-17928942D01*
X4685063Y-17928942D02*
X4723158Y-17928942D01*
X4723158Y-17928942D02*
X4742206Y-17919418D01*
X4742206Y-17919418D02*
X4751729Y-17909895D01*
X4751729Y-17909895D02*
X4761253Y-17890847D01*
X4885063Y-17805133D02*
X4904110Y-17805133D01*
X4904110Y-17805133D02*
X4923158Y-17814657D01*
X4923158Y-17814657D02*
X4932682Y-17824180D01*
X4932682Y-17824180D02*
X4942206Y-17843228D01*
X4942206Y-17843228D02*
X4951729Y-17881323D01*
X4951729Y-17881323D02*
X4951729Y-17928942D01*
X4951729Y-17928942D02*
X4942206Y-17967037D01*
X4942206Y-17967037D02*
X4932682Y-17986085D01*
X4932682Y-17986085D02*
X4923158Y-17995609D01*
X4923158Y-17995609D02*
X4904110Y-18005133D01*
X4904110Y-18005133D02*
X4885063Y-18005133D01*
X4885063Y-18005133D02*
X4866015Y-17995609D01*
X4866015Y-17995609D02*
X4856491Y-17986085D01*
X4856491Y-17986085D02*
X4846967Y-17967037D01*
X4846967Y-17967037D02*
X4837444Y-17928942D01*
X4837444Y-17928942D02*
X4837444Y-17881323D01*
X4837444Y-17881323D02*
X4846967Y-17843228D01*
X4846967Y-17843228D02*
X4856491Y-17824180D01*
X4856491Y-17824180D02*
X4866015Y-17814657D01*
X4866015Y-17814657D02*
X4885063Y-17805133D01*
X5075539Y-17805133D02*
X5094587Y-17805133D01*
X5094587Y-17805133D02*
X5113634Y-17814657D01*
X5113634Y-17814657D02*
X5123158Y-17824180D01*
X5123158Y-17824180D02*
X5132682Y-17843228D01*
X5132682Y-17843228D02*
X5142206Y-17881323D01*
X5142206Y-17881323D02*
X5142206Y-17928942D01*
X5142206Y-17928942D02*
X5132682Y-17967037D01*
X5132682Y-17967037D02*
X5123158Y-17986085D01*
X5123158Y-17986085D02*
X5113634Y-17995609D01*
X5113634Y-17995609D02*
X5094587Y-18005133D01*
X5094587Y-18005133D02*
X5075539Y-18005133D01*
X5075539Y-18005133D02*
X5056491Y-17995609D01*
X5056491Y-17995609D02*
X5046967Y-17986085D01*
X5046967Y-17986085D02*
X5037444Y-17967037D01*
X5037444Y-17967037D02*
X5027920Y-17928942D01*
X5027920Y-17928942D02*
X5027920Y-17881323D01*
X5027920Y-17881323D02*
X5037444Y-17843228D01*
X5037444Y-17843228D02*
X5046967Y-17824180D01*
X5046967Y-17824180D02*
X5056491Y-17814657D01*
X5056491Y-17814657D02*
X5075539Y-17805133D01*
X5227920Y-18005133D02*
X5227920Y-17871799D01*
X5227920Y-17890847D02*
X5237444Y-17881323D01*
X5237444Y-17881323D02*
X5256491Y-17871799D01*
X5256491Y-17871799D02*
X5285063Y-17871799D01*
X5285063Y-17871799D02*
X5304110Y-17881323D01*
X5304110Y-17881323D02*
X5313634Y-17900371D01*
X5313634Y-17900371D02*
X5313634Y-18005133D01*
X5313634Y-17900371D02*
X5323158Y-17881323D01*
X5323158Y-17881323D02*
X5342206Y-17871799D01*
X5342206Y-17871799D02*
X5370777Y-17871799D01*
X5370777Y-17871799D02*
X5389825Y-17881323D01*
X5389825Y-17881323D02*
X5399348Y-17900371D01*
X5399348Y-17900371D02*
X5399348Y-18005133D01*
X5494587Y-18005133D02*
X5494587Y-17871799D01*
X5494587Y-17890847D02*
X5504110Y-17881323D01*
X5504110Y-17881323D02*
X5523158Y-17871799D01*
X5523158Y-17871799D02*
X5551729Y-17871799D01*
X5551729Y-17871799D02*
X5570777Y-17881323D01*
X5570777Y-17881323D02*
X5580301Y-17900371D01*
X5580301Y-17900371D02*
X5580301Y-18005133D01*
X5580301Y-17900371D02*
X5589825Y-17881323D01*
X5589825Y-17881323D02*
X5608872Y-17871799D01*
X5608872Y-17871799D02*
X5637444Y-17871799D01*
X5637444Y-17871799D02*
X5656491Y-17881323D01*
X5656491Y-17881323D02*
X5666015Y-17900371D01*
X5666015Y-17900371D02*
X5666015Y-18005133D01*
X6056491Y-17795609D02*
X5885063Y-18052752D01*
X6313634Y-17805133D02*
X6332682Y-17805133D01*
X6332682Y-17805133D02*
X6351729Y-17814657D01*
X6351729Y-17814657D02*
X6361253Y-17824180D01*
X6361253Y-17824180D02*
X6370777Y-17843228D01*
X6370777Y-17843228D02*
X6380301Y-17881323D01*
X6380301Y-17881323D02*
X6380301Y-17928942D01*
X6380301Y-17928942D02*
X6370777Y-17967037D01*
X6370777Y-17967037D02*
X6361253Y-17986085D01*
X6361253Y-17986085D02*
X6351729Y-17995609D01*
X6351729Y-17995609D02*
X6332682Y-18005133D01*
X6332682Y-18005133D02*
X6313634Y-18005133D01*
X6313634Y-18005133D02*
X6294587Y-17995609D01*
X6294587Y-17995609D02*
X6285063Y-17986085D01*
X6285063Y-17986085D02*
X6275539Y-17967037D01*
X6275539Y-17967037D02*
X6266015Y-17928942D01*
X6266015Y-17928942D02*
X6266015Y-17881323D01*
X6266015Y-17881323D02*
X6275539Y-17843228D01*
X6275539Y-17843228D02*
X6285063Y-17824180D01*
X6285063Y-17824180D02*
X6294587Y-17814657D01*
X6294587Y-17814657D02*
X6313634Y-17805133D01*
X6466015Y-17986085D02*
X6475539Y-17995609D01*
X6475539Y-17995609D02*
X6466015Y-18005133D01*
X6466015Y-18005133D02*
X6456491Y-17995609D01*
X6456491Y-17995609D02*
X6466015Y-17986085D01*
X6466015Y-17986085D02*
X6466015Y-18005133D01*
X6599348Y-17805133D02*
X6618396Y-17805133D01*
X6618396Y-17805133D02*
X6637444Y-17814657D01*
X6637444Y-17814657D02*
X6646968Y-17824180D01*
X6646968Y-17824180D02*
X6656491Y-17843228D01*
X6656491Y-17843228D02*
X6666015Y-17881323D01*
X6666015Y-17881323D02*
X6666015Y-17928942D01*
X6666015Y-17928942D02*
X6656491Y-17967037D01*
X6656491Y-17967037D02*
X6646968Y-17986085D01*
X6646968Y-17986085D02*
X6637444Y-17995609D01*
X6637444Y-17995609D02*
X6618396Y-18005133D01*
X6618396Y-18005133D02*
X6599348Y-18005133D01*
X6599348Y-18005133D02*
X6580301Y-17995609D01*
X6580301Y-17995609D02*
X6570777Y-17986085D01*
X6570777Y-17986085D02*
X6561253Y-17967037D01*
X6561253Y-17967037D02*
X6551729Y-17928942D01*
X6551729Y-17928942D02*
X6551729Y-17881323D01*
X6551729Y-17881323D02*
X6561253Y-17843228D01*
X6561253Y-17843228D02*
X6570777Y-17824180D01*
X6570777Y-17824180D02*
X6580301Y-17814657D01*
X6580301Y-17814657D02*
X6599348Y-17805133D01*
X6732682Y-17805133D02*
X6856491Y-17805133D01*
X6856491Y-17805133D02*
X6789825Y-17881323D01*
X6789825Y-17881323D02*
X6818396Y-17881323D01*
X6818396Y-17881323D02*
X6837444Y-17890847D01*
X6837444Y-17890847D02*
X6846968Y-17900371D01*
X6846968Y-17900371D02*
X6856491Y-17919418D01*
X6856491Y-17919418D02*
X6856491Y-17967037D01*
X6856491Y-17967037D02*
X6846968Y-17986085D01*
X6846968Y-17986085D02*
X6837444Y-17995609D01*
X6837444Y-17995609D02*
X6818396Y-18005133D01*
X6818396Y-18005133D02*
X6761253Y-18005133D01*
X6761253Y-18005133D02*
X6742206Y-17995609D01*
X6742206Y-17995609D02*
X6732682Y-17986085D01*
X7037444Y-17805133D02*
X6942206Y-17805133D01*
X6942206Y-17805133D02*
X6932682Y-17900371D01*
X6932682Y-17900371D02*
X6942206Y-17890847D01*
X6942206Y-17890847D02*
X6961253Y-17881323D01*
X6961253Y-17881323D02*
X7008872Y-17881323D01*
X7008872Y-17881323D02*
X7027920Y-17890847D01*
X7027920Y-17890847D02*
X7037444Y-17900371D01*
X7037444Y-17900371D02*
X7046968Y-17919418D01*
X7046968Y-17919418D02*
X7046968Y-17967037D01*
X7046968Y-17967037D02*
X7037444Y-17986085D01*
X7037444Y-17986085D02*
X7027920Y-17995609D01*
X7027920Y-17995609D02*
X7008872Y-18005133D01*
X7008872Y-18005133D02*
X6961253Y-18005133D01*
X6961253Y-18005133D02*
X6942206Y-17995609D01*
X6942206Y-17995609D02*
X6932682Y-17986085D01*
X7218396Y-17871799D02*
X7218396Y-18005133D01*
X7170777Y-17795609D02*
X7123158Y-17938466D01*
X7123158Y-17938466D02*
X7246968Y-17938466D01*
X7313634Y-17805133D02*
X7313634Y-17843228D01*
X7389825Y-17805133D02*
X7389825Y-17843228D01*
X7685063Y-18081323D02*
X7675539Y-18071799D01*
X7675539Y-18071799D02*
X7656491Y-18043228D01*
X7656491Y-18043228D02*
X7646968Y-18024180D01*
X7646968Y-18024180D02*
X7637444Y-17995609D01*
X7637444Y-17995609D02*
X7627920Y-17947990D01*
X7627920Y-17947990D02*
X7627920Y-17909895D01*
X7627920Y-17909895D02*
X7637444Y-17862276D01*
X7637444Y-17862276D02*
X7646968Y-17833704D01*
X7646968Y-17833704D02*
X7656491Y-17814657D01*
X7656491Y-17814657D02*
X7675539Y-17786085D01*
X7675539Y-17786085D02*
X7685063Y-17776561D01*
X7789825Y-17890847D02*
X7770777Y-17881323D01*
X7770777Y-17881323D02*
X7761253Y-17871799D01*
X7761253Y-17871799D02*
X7751730Y-17852752D01*
X7751730Y-17852752D02*
X7751730Y-17843228D01*
X7751730Y-17843228D02*
X7761253Y-17824180D01*
X7761253Y-17824180D02*
X7770777Y-17814657D01*
X7770777Y-17814657D02*
X7789825Y-17805133D01*
X7789825Y-17805133D02*
X7827920Y-17805133D01*
X7827920Y-17805133D02*
X7846968Y-17814657D01*
X7846968Y-17814657D02*
X7856491Y-17824180D01*
X7856491Y-17824180D02*
X7866015Y-17843228D01*
X7866015Y-17843228D02*
X7866015Y-17852752D01*
X7866015Y-17852752D02*
X7856491Y-17871799D01*
X7856491Y-17871799D02*
X7846968Y-17881323D01*
X7846968Y-17881323D02*
X7827920Y-17890847D01*
X7827920Y-17890847D02*
X7789825Y-17890847D01*
X7789825Y-17890847D02*
X7770777Y-17900371D01*
X7770777Y-17900371D02*
X7761253Y-17909895D01*
X7761253Y-17909895D02*
X7751730Y-17928942D01*
X7751730Y-17928942D02*
X7751730Y-17967037D01*
X7751730Y-17967037D02*
X7761253Y-17986085D01*
X7761253Y-17986085D02*
X7770777Y-17995609D01*
X7770777Y-17995609D02*
X7789825Y-18005133D01*
X7789825Y-18005133D02*
X7827920Y-18005133D01*
X7827920Y-18005133D02*
X7846968Y-17995609D01*
X7846968Y-17995609D02*
X7856491Y-17986085D01*
X7856491Y-17986085D02*
X7866015Y-17967037D01*
X7866015Y-17967037D02*
X7866015Y-17928942D01*
X7866015Y-17928942D02*
X7856491Y-17909895D01*
X7856491Y-17909895D02*
X7846968Y-17900371D01*
X7846968Y-17900371D02*
X7827920Y-17890847D01*
X8104111Y-18005133D02*
X8104111Y-17805133D01*
X8189825Y-18005133D02*
X8189825Y-17900371D01*
X8189825Y-17900371D02*
X8180301Y-17881323D01*
X8180301Y-17881323D02*
X8161253Y-17871799D01*
X8161253Y-17871799D02*
X8132682Y-17871799D01*
X8132682Y-17871799D02*
X8113634Y-17881323D01*
X8113634Y-17881323D02*
X8104111Y-17890847D01*
X8313634Y-18005133D02*
X8294587Y-17995609D01*
X8294587Y-17995609D02*
X8285063Y-17986085D01*
X8285063Y-17986085D02*
X8275539Y-17967037D01*
X8275539Y-17967037D02*
X8275539Y-17909895D01*
X8275539Y-17909895D02*
X8285063Y-17890847D01*
X8285063Y-17890847D02*
X8294587Y-17881323D01*
X8294587Y-17881323D02*
X8313634Y-17871799D01*
X8313634Y-17871799D02*
X8342206Y-17871799D01*
X8342206Y-17871799D02*
X8361253Y-17881323D01*
X8361253Y-17881323D02*
X8370777Y-17890847D01*
X8370777Y-17890847D02*
X8380301Y-17909895D01*
X8380301Y-17909895D02*
X8380301Y-17967037D01*
X8380301Y-17967037D02*
X8370777Y-17986085D01*
X8370777Y-17986085D02*
X8361253Y-17995609D01*
X8361253Y-17995609D02*
X8342206Y-18005133D01*
X8342206Y-18005133D02*
X8313634Y-18005133D01*
X8494587Y-18005133D02*
X8475539Y-17995609D01*
X8475539Y-17995609D02*
X8466015Y-17976561D01*
X8466015Y-17976561D02*
X8466015Y-17805133D01*
X8646968Y-17995609D02*
X8627920Y-18005133D01*
X8627920Y-18005133D02*
X8589825Y-18005133D01*
X8589825Y-18005133D02*
X8570777Y-17995609D01*
X8570777Y-17995609D02*
X8561254Y-17976561D01*
X8561254Y-17976561D02*
X8561254Y-17900371D01*
X8561254Y-17900371D02*
X8570777Y-17881323D01*
X8570777Y-17881323D02*
X8589825Y-17871799D01*
X8589825Y-17871799D02*
X8627920Y-17871799D01*
X8627920Y-17871799D02*
X8646968Y-17881323D01*
X8646968Y-17881323D02*
X8656492Y-17900371D01*
X8656492Y-17900371D02*
X8656492Y-17919418D01*
X8656492Y-17919418D02*
X8561254Y-17938466D01*
X8732682Y-17995609D02*
X8751730Y-18005133D01*
X8751730Y-18005133D02*
X8789825Y-18005133D01*
X8789825Y-18005133D02*
X8808873Y-17995609D01*
X8808873Y-17995609D02*
X8818396Y-17976561D01*
X8818396Y-17976561D02*
X8818396Y-17967037D01*
X8818396Y-17967037D02*
X8808873Y-17947990D01*
X8808873Y-17947990D02*
X8789825Y-17938466D01*
X8789825Y-17938466D02*
X8761254Y-17938466D01*
X8761254Y-17938466D02*
X8742206Y-17928942D01*
X8742206Y-17928942D02*
X8732682Y-17909895D01*
X8732682Y-17909895D02*
X8732682Y-17900371D01*
X8732682Y-17900371D02*
X8742206Y-17881323D01*
X8742206Y-17881323D02*
X8761254Y-17871799D01*
X8761254Y-17871799D02*
X8789825Y-17871799D01*
X8789825Y-17871799D02*
X8808873Y-17881323D01*
X8885063Y-18081323D02*
X8894587Y-18071799D01*
X8894587Y-18071799D02*
X8913635Y-18043228D01*
X8913635Y-18043228D02*
X8923158Y-18024180D01*
X8923158Y-18024180D02*
X8932682Y-17995609D01*
X8932682Y-17995609D02*
X8942206Y-17947990D01*
X8942206Y-17947990D02*
X8942206Y-17909895D01*
X8942206Y-17909895D02*
X8932682Y-17862276D01*
X8932682Y-17862276D02*
X8923158Y-17833704D01*
X8923158Y-17833704D02*
X8913635Y-17814657D01*
X8913635Y-17814657D02*
X8894587Y-17786085D01*
X8894587Y-17786085D02*
X8885063Y-17776561D01*
D16*
X4060000Y-18227649D02*
X4110000Y-18177649D01*
X4060000Y-18127649D01*
X4010000Y-18177649D01*
X4060000Y-18227649D01*
D11*
X4475539Y-18269133D02*
X4361253Y-18269133D01*
X4418396Y-18269133D02*
X4418396Y-18069133D01*
X4418396Y-18069133D02*
X4399348Y-18097704D01*
X4399348Y-18097704D02*
X4380301Y-18116752D01*
X4380301Y-18116752D02*
X4361253Y-18126276D01*
X4561253Y-18250085D02*
X4570777Y-18259609D01*
X4570777Y-18259609D02*
X4561253Y-18269133D01*
X4561253Y-18269133D02*
X4551729Y-18259609D01*
X4551729Y-18259609D02*
X4561253Y-18250085D01*
X4561253Y-18250085D02*
X4561253Y-18269133D01*
X4694586Y-18069133D02*
X4713634Y-18069133D01*
X4713634Y-18069133D02*
X4732682Y-18078657D01*
X4732682Y-18078657D02*
X4742206Y-18088180D01*
X4742206Y-18088180D02*
X4751729Y-18107228D01*
X4751729Y-18107228D02*
X4761253Y-18145323D01*
X4761253Y-18145323D02*
X4761253Y-18192942D01*
X4761253Y-18192942D02*
X4751729Y-18231037D01*
X4751729Y-18231037D02*
X4742206Y-18250085D01*
X4742206Y-18250085D02*
X4732682Y-18259609D01*
X4732682Y-18259609D02*
X4713634Y-18269133D01*
X4713634Y-18269133D02*
X4694586Y-18269133D01*
X4694586Y-18269133D02*
X4675539Y-18259609D01*
X4675539Y-18259609D02*
X4666015Y-18250085D01*
X4666015Y-18250085D02*
X4656491Y-18231037D01*
X4656491Y-18231037D02*
X4646967Y-18192942D01*
X4646967Y-18192942D02*
X4646967Y-18145323D01*
X4646967Y-18145323D02*
X4656491Y-18107228D01*
X4656491Y-18107228D02*
X4666015Y-18088180D01*
X4666015Y-18088180D02*
X4675539Y-18078657D01*
X4675539Y-18078657D02*
X4694586Y-18069133D01*
X4885063Y-18069133D02*
X4904110Y-18069133D01*
X4904110Y-18069133D02*
X4923158Y-18078657D01*
X4923158Y-18078657D02*
X4932682Y-18088180D01*
X4932682Y-18088180D02*
X4942206Y-18107228D01*
X4942206Y-18107228D02*
X4951729Y-18145323D01*
X4951729Y-18145323D02*
X4951729Y-18192942D01*
X4951729Y-18192942D02*
X4942206Y-18231037D01*
X4942206Y-18231037D02*
X4932682Y-18250085D01*
X4932682Y-18250085D02*
X4923158Y-18259609D01*
X4923158Y-18259609D02*
X4904110Y-18269133D01*
X4904110Y-18269133D02*
X4885063Y-18269133D01*
X4885063Y-18269133D02*
X4866015Y-18259609D01*
X4866015Y-18259609D02*
X4856491Y-18250085D01*
X4856491Y-18250085D02*
X4846967Y-18231037D01*
X4846967Y-18231037D02*
X4837444Y-18192942D01*
X4837444Y-18192942D02*
X4837444Y-18145323D01*
X4837444Y-18145323D02*
X4846967Y-18107228D01*
X4846967Y-18107228D02*
X4856491Y-18088180D01*
X4856491Y-18088180D02*
X4866015Y-18078657D01*
X4866015Y-18078657D02*
X4885063Y-18069133D01*
X5075539Y-18069133D02*
X5094587Y-18069133D01*
X5094587Y-18069133D02*
X5113634Y-18078657D01*
X5113634Y-18078657D02*
X5123158Y-18088180D01*
X5123158Y-18088180D02*
X5132682Y-18107228D01*
X5132682Y-18107228D02*
X5142206Y-18145323D01*
X5142206Y-18145323D02*
X5142206Y-18192942D01*
X5142206Y-18192942D02*
X5132682Y-18231037D01*
X5132682Y-18231037D02*
X5123158Y-18250085D01*
X5123158Y-18250085D02*
X5113634Y-18259609D01*
X5113634Y-18259609D02*
X5094587Y-18269133D01*
X5094587Y-18269133D02*
X5075539Y-18269133D01*
X5075539Y-18269133D02*
X5056491Y-18259609D01*
X5056491Y-18259609D02*
X5046967Y-18250085D01*
X5046967Y-18250085D02*
X5037444Y-18231037D01*
X5037444Y-18231037D02*
X5027920Y-18192942D01*
X5027920Y-18192942D02*
X5027920Y-18145323D01*
X5027920Y-18145323D02*
X5037444Y-18107228D01*
X5037444Y-18107228D02*
X5046967Y-18088180D01*
X5046967Y-18088180D02*
X5056491Y-18078657D01*
X5056491Y-18078657D02*
X5075539Y-18069133D01*
X5227920Y-18269133D02*
X5227920Y-18135799D01*
X5227920Y-18154847D02*
X5237444Y-18145323D01*
X5237444Y-18145323D02*
X5256491Y-18135799D01*
X5256491Y-18135799D02*
X5285063Y-18135799D01*
X5285063Y-18135799D02*
X5304110Y-18145323D01*
X5304110Y-18145323D02*
X5313634Y-18164371D01*
X5313634Y-18164371D02*
X5313634Y-18269133D01*
X5313634Y-18164371D02*
X5323158Y-18145323D01*
X5323158Y-18145323D02*
X5342206Y-18135799D01*
X5342206Y-18135799D02*
X5370777Y-18135799D01*
X5370777Y-18135799D02*
X5389825Y-18145323D01*
X5389825Y-18145323D02*
X5399348Y-18164371D01*
X5399348Y-18164371D02*
X5399348Y-18269133D01*
X5494587Y-18269133D02*
X5494587Y-18135799D01*
X5494587Y-18154847D02*
X5504110Y-18145323D01*
X5504110Y-18145323D02*
X5523158Y-18135799D01*
X5523158Y-18135799D02*
X5551729Y-18135799D01*
X5551729Y-18135799D02*
X5570777Y-18145323D01*
X5570777Y-18145323D02*
X5580301Y-18164371D01*
X5580301Y-18164371D02*
X5580301Y-18269133D01*
X5580301Y-18164371D02*
X5589825Y-18145323D01*
X5589825Y-18145323D02*
X5608872Y-18135799D01*
X5608872Y-18135799D02*
X5637444Y-18135799D01*
X5637444Y-18135799D02*
X5656491Y-18145323D01*
X5656491Y-18145323D02*
X5666015Y-18164371D01*
X5666015Y-18164371D02*
X5666015Y-18269133D01*
X6056491Y-18059609D02*
X5885063Y-18316752D01*
X6313634Y-18069133D02*
X6332682Y-18069133D01*
X6332682Y-18069133D02*
X6351729Y-18078657D01*
X6351729Y-18078657D02*
X6361253Y-18088180D01*
X6361253Y-18088180D02*
X6370777Y-18107228D01*
X6370777Y-18107228D02*
X6380301Y-18145323D01*
X6380301Y-18145323D02*
X6380301Y-18192942D01*
X6380301Y-18192942D02*
X6370777Y-18231037D01*
X6370777Y-18231037D02*
X6361253Y-18250085D01*
X6361253Y-18250085D02*
X6351729Y-18259609D01*
X6351729Y-18259609D02*
X6332682Y-18269133D01*
X6332682Y-18269133D02*
X6313634Y-18269133D01*
X6313634Y-18269133D02*
X6294587Y-18259609D01*
X6294587Y-18259609D02*
X6285063Y-18250085D01*
X6285063Y-18250085D02*
X6275539Y-18231037D01*
X6275539Y-18231037D02*
X6266015Y-18192942D01*
X6266015Y-18192942D02*
X6266015Y-18145323D01*
X6266015Y-18145323D02*
X6275539Y-18107228D01*
X6275539Y-18107228D02*
X6285063Y-18088180D01*
X6285063Y-18088180D02*
X6294587Y-18078657D01*
X6294587Y-18078657D02*
X6313634Y-18069133D01*
X6466015Y-18250085D02*
X6475539Y-18259609D01*
X6475539Y-18259609D02*
X6466015Y-18269133D01*
X6466015Y-18269133D02*
X6456491Y-18259609D01*
X6456491Y-18259609D02*
X6466015Y-18250085D01*
X6466015Y-18250085D02*
X6466015Y-18269133D01*
X6599348Y-18069133D02*
X6618396Y-18069133D01*
X6618396Y-18069133D02*
X6637444Y-18078657D01*
X6637444Y-18078657D02*
X6646968Y-18088180D01*
X6646968Y-18088180D02*
X6656491Y-18107228D01*
X6656491Y-18107228D02*
X6666015Y-18145323D01*
X6666015Y-18145323D02*
X6666015Y-18192942D01*
X6666015Y-18192942D02*
X6656491Y-18231037D01*
X6656491Y-18231037D02*
X6646968Y-18250085D01*
X6646968Y-18250085D02*
X6637444Y-18259609D01*
X6637444Y-18259609D02*
X6618396Y-18269133D01*
X6618396Y-18269133D02*
X6599348Y-18269133D01*
X6599348Y-18269133D02*
X6580301Y-18259609D01*
X6580301Y-18259609D02*
X6570777Y-18250085D01*
X6570777Y-18250085D02*
X6561253Y-18231037D01*
X6561253Y-18231037D02*
X6551729Y-18192942D01*
X6551729Y-18192942D02*
X6551729Y-18145323D01*
X6551729Y-18145323D02*
X6561253Y-18107228D01*
X6561253Y-18107228D02*
X6570777Y-18088180D01*
X6570777Y-18088180D02*
X6580301Y-18078657D01*
X6580301Y-18078657D02*
X6599348Y-18069133D01*
X6732682Y-18069133D02*
X6856491Y-18069133D01*
X6856491Y-18069133D02*
X6789825Y-18145323D01*
X6789825Y-18145323D02*
X6818396Y-18145323D01*
X6818396Y-18145323D02*
X6837444Y-18154847D01*
X6837444Y-18154847D02*
X6846968Y-18164371D01*
X6846968Y-18164371D02*
X6856491Y-18183418D01*
X6856491Y-18183418D02*
X6856491Y-18231037D01*
X6856491Y-18231037D02*
X6846968Y-18250085D01*
X6846968Y-18250085D02*
X6837444Y-18259609D01*
X6837444Y-18259609D02*
X6818396Y-18269133D01*
X6818396Y-18269133D02*
X6761253Y-18269133D01*
X6761253Y-18269133D02*
X6742206Y-18259609D01*
X6742206Y-18259609D02*
X6732682Y-18250085D01*
X6951729Y-18269133D02*
X6989825Y-18269133D01*
X6989825Y-18269133D02*
X7008872Y-18259609D01*
X7008872Y-18259609D02*
X7018396Y-18250085D01*
X7018396Y-18250085D02*
X7037444Y-18221514D01*
X7037444Y-18221514D02*
X7046968Y-18183418D01*
X7046968Y-18183418D02*
X7046968Y-18107228D01*
X7046968Y-18107228D02*
X7037444Y-18088180D01*
X7037444Y-18088180D02*
X7027920Y-18078657D01*
X7027920Y-18078657D02*
X7008872Y-18069133D01*
X7008872Y-18069133D02*
X6970777Y-18069133D01*
X6970777Y-18069133D02*
X6951729Y-18078657D01*
X6951729Y-18078657D02*
X6942206Y-18088180D01*
X6942206Y-18088180D02*
X6932682Y-18107228D01*
X6932682Y-18107228D02*
X6932682Y-18154847D01*
X6932682Y-18154847D02*
X6942206Y-18173895D01*
X6942206Y-18173895D02*
X6951729Y-18183418D01*
X6951729Y-18183418D02*
X6970777Y-18192942D01*
X6970777Y-18192942D02*
X7008872Y-18192942D01*
X7008872Y-18192942D02*
X7027920Y-18183418D01*
X7027920Y-18183418D02*
X7037444Y-18173895D01*
X7037444Y-18173895D02*
X7046968Y-18154847D01*
X7218396Y-18135799D02*
X7218396Y-18269133D01*
X7170777Y-18059609D02*
X7123158Y-18202466D01*
X7123158Y-18202466D02*
X7246968Y-18202466D01*
X7313634Y-18069133D02*
X7313634Y-18107228D01*
X7389825Y-18069133D02*
X7389825Y-18107228D01*
X7685063Y-18345323D02*
X7675539Y-18335799D01*
X7675539Y-18335799D02*
X7656491Y-18307228D01*
X7656491Y-18307228D02*
X7646968Y-18288180D01*
X7646968Y-18288180D02*
X7637444Y-18259609D01*
X7637444Y-18259609D02*
X7627920Y-18211990D01*
X7627920Y-18211990D02*
X7627920Y-18173895D01*
X7627920Y-18173895D02*
X7637444Y-18126276D01*
X7637444Y-18126276D02*
X7646968Y-18097704D01*
X7646968Y-18097704D02*
X7656491Y-18078657D01*
X7656491Y-18078657D02*
X7675539Y-18050085D01*
X7675539Y-18050085D02*
X7685063Y-18040561D01*
X7751730Y-18088180D02*
X7761253Y-18078657D01*
X7761253Y-18078657D02*
X7780301Y-18069133D01*
X7780301Y-18069133D02*
X7827920Y-18069133D01*
X7827920Y-18069133D02*
X7846968Y-18078657D01*
X7846968Y-18078657D02*
X7856491Y-18088180D01*
X7856491Y-18088180D02*
X7866015Y-18107228D01*
X7866015Y-18107228D02*
X7866015Y-18126276D01*
X7866015Y-18126276D02*
X7856491Y-18154847D01*
X7856491Y-18154847D02*
X7742206Y-18269133D01*
X7742206Y-18269133D02*
X7866015Y-18269133D01*
X8037444Y-18135799D02*
X8037444Y-18269133D01*
X7989825Y-18059609D02*
X7942206Y-18202466D01*
X7942206Y-18202466D02*
X8066015Y-18202466D01*
X8294587Y-18269133D02*
X8294587Y-18069133D01*
X8380301Y-18269133D02*
X8380301Y-18164371D01*
X8380301Y-18164371D02*
X8370777Y-18145323D01*
X8370777Y-18145323D02*
X8351730Y-18135799D01*
X8351730Y-18135799D02*
X8323158Y-18135799D01*
X8323158Y-18135799D02*
X8304111Y-18145323D01*
X8304111Y-18145323D02*
X8294587Y-18154847D01*
X8504111Y-18269133D02*
X8485063Y-18259609D01*
X8485063Y-18259609D02*
X8475539Y-18250085D01*
X8475539Y-18250085D02*
X8466015Y-18231037D01*
X8466015Y-18231037D02*
X8466015Y-18173895D01*
X8466015Y-18173895D02*
X8475539Y-18154847D01*
X8475539Y-18154847D02*
X8485063Y-18145323D01*
X8485063Y-18145323D02*
X8504111Y-18135799D01*
X8504111Y-18135799D02*
X8532682Y-18135799D01*
X8532682Y-18135799D02*
X8551730Y-18145323D01*
X8551730Y-18145323D02*
X8561254Y-18154847D01*
X8561254Y-18154847D02*
X8570777Y-18173895D01*
X8570777Y-18173895D02*
X8570777Y-18231037D01*
X8570777Y-18231037D02*
X8561254Y-18250085D01*
X8561254Y-18250085D02*
X8551730Y-18259609D01*
X8551730Y-18259609D02*
X8532682Y-18269133D01*
X8532682Y-18269133D02*
X8504111Y-18269133D01*
X8685063Y-18269133D02*
X8666015Y-18259609D01*
X8666015Y-18259609D02*
X8656492Y-18240561D01*
X8656492Y-18240561D02*
X8656492Y-18069133D01*
X8837444Y-18259609D02*
X8818396Y-18269133D01*
X8818396Y-18269133D02*
X8780301Y-18269133D01*
X8780301Y-18269133D02*
X8761254Y-18259609D01*
X8761254Y-18259609D02*
X8751730Y-18240561D01*
X8751730Y-18240561D02*
X8751730Y-18164371D01*
X8751730Y-18164371D02*
X8761254Y-18145323D01*
X8761254Y-18145323D02*
X8780301Y-18135799D01*
X8780301Y-18135799D02*
X8818396Y-18135799D01*
X8818396Y-18135799D02*
X8837444Y-18145323D01*
X8837444Y-18145323D02*
X8846968Y-18164371D01*
X8846968Y-18164371D02*
X8846968Y-18183418D01*
X8846968Y-18183418D02*
X8751730Y-18202466D01*
X8923158Y-18259609D02*
X8942206Y-18269133D01*
X8942206Y-18269133D02*
X8980301Y-18269133D01*
X8980301Y-18269133D02*
X8999349Y-18259609D01*
X8999349Y-18259609D02*
X9008873Y-18240561D01*
X9008873Y-18240561D02*
X9008873Y-18231037D01*
X9008873Y-18231037D02*
X8999349Y-18211990D01*
X8999349Y-18211990D02*
X8980301Y-18202466D01*
X8980301Y-18202466D02*
X8951730Y-18202466D01*
X8951730Y-18202466D02*
X8932682Y-18192942D01*
X8932682Y-18192942D02*
X8923158Y-18173895D01*
X8923158Y-18173895D02*
X8923158Y-18164371D01*
X8923158Y-18164371D02*
X8932682Y-18145323D01*
X8932682Y-18145323D02*
X8951730Y-18135799D01*
X8951730Y-18135799D02*
X8980301Y-18135799D01*
X8980301Y-18135799D02*
X8999349Y-18145323D01*
X9075539Y-18345323D02*
X9085063Y-18335799D01*
X9085063Y-18335799D02*
X9104111Y-18307228D01*
X9104111Y-18307228D02*
X9113635Y-18288180D01*
X9113635Y-18288180D02*
X9123158Y-18259609D01*
X9123158Y-18259609D02*
X9132682Y-18211990D01*
X9132682Y-18211990D02*
X9132682Y-18173895D01*
X9132682Y-18173895D02*
X9123158Y-18126276D01*
X9123158Y-18126276D02*
X9113635Y-18097704D01*
X9113635Y-18097704D02*
X9104111Y-18078657D01*
X9104111Y-18078657D02*
X9085063Y-18050085D01*
X9085063Y-18050085D02*
X9075539Y-18040561D01*
D17*
X3990000Y-18381649D02*
X4110000Y-18501649D01*
X4110000Y-18381649D02*
X3990000Y-18501649D01*
X4110000Y-18441649D02*
G75*
G03*
X4110000Y-18441649I-60000J0D01*
G01*
D11*
X4475539Y-18533133D02*
X4361253Y-18533133D01*
X4418396Y-18533133D02*
X4418396Y-18333133D01*
X4418396Y-18333133D02*
X4399348Y-18361704D01*
X4399348Y-18361704D02*
X4380301Y-18380752D01*
X4380301Y-18380752D02*
X4361253Y-18390276D01*
X4561253Y-18514085D02*
X4570777Y-18523609D01*
X4570777Y-18523609D02*
X4561253Y-18533133D01*
X4561253Y-18533133D02*
X4551729Y-18523609D01*
X4551729Y-18523609D02*
X4561253Y-18514085D01*
X4561253Y-18514085D02*
X4561253Y-18533133D01*
X4646967Y-18352180D02*
X4656491Y-18342657D01*
X4656491Y-18342657D02*
X4675539Y-18333133D01*
X4675539Y-18333133D02*
X4723158Y-18333133D01*
X4723158Y-18333133D02*
X4742206Y-18342657D01*
X4742206Y-18342657D02*
X4751729Y-18352180D01*
X4751729Y-18352180D02*
X4761253Y-18371228D01*
X4761253Y-18371228D02*
X4761253Y-18390276D01*
X4761253Y-18390276D02*
X4751729Y-18418847D01*
X4751729Y-18418847D02*
X4637444Y-18533133D01*
X4637444Y-18533133D02*
X4761253Y-18533133D01*
X4885063Y-18333133D02*
X4904110Y-18333133D01*
X4904110Y-18333133D02*
X4923158Y-18342657D01*
X4923158Y-18342657D02*
X4932682Y-18352180D01*
X4932682Y-18352180D02*
X4942206Y-18371228D01*
X4942206Y-18371228D02*
X4951729Y-18409323D01*
X4951729Y-18409323D02*
X4951729Y-18456942D01*
X4951729Y-18456942D02*
X4942206Y-18495037D01*
X4942206Y-18495037D02*
X4932682Y-18514085D01*
X4932682Y-18514085D02*
X4923158Y-18523609D01*
X4923158Y-18523609D02*
X4904110Y-18533133D01*
X4904110Y-18533133D02*
X4885063Y-18533133D01*
X4885063Y-18533133D02*
X4866015Y-18523609D01*
X4866015Y-18523609D02*
X4856491Y-18514085D01*
X4856491Y-18514085D02*
X4846967Y-18495037D01*
X4846967Y-18495037D02*
X4837444Y-18456942D01*
X4837444Y-18456942D02*
X4837444Y-18409323D01*
X4837444Y-18409323D02*
X4846967Y-18371228D01*
X4846967Y-18371228D02*
X4856491Y-18352180D01*
X4856491Y-18352180D02*
X4866015Y-18342657D01*
X4866015Y-18342657D02*
X4885063Y-18333133D01*
X5075539Y-18333133D02*
X5094587Y-18333133D01*
X5094587Y-18333133D02*
X5113634Y-18342657D01*
X5113634Y-18342657D02*
X5123158Y-18352180D01*
X5123158Y-18352180D02*
X5132682Y-18371228D01*
X5132682Y-18371228D02*
X5142206Y-18409323D01*
X5142206Y-18409323D02*
X5142206Y-18456942D01*
X5142206Y-18456942D02*
X5132682Y-18495037D01*
X5132682Y-18495037D02*
X5123158Y-18514085D01*
X5123158Y-18514085D02*
X5113634Y-18523609D01*
X5113634Y-18523609D02*
X5094587Y-18533133D01*
X5094587Y-18533133D02*
X5075539Y-18533133D01*
X5075539Y-18533133D02*
X5056491Y-18523609D01*
X5056491Y-18523609D02*
X5046967Y-18514085D01*
X5046967Y-18514085D02*
X5037444Y-18495037D01*
X5037444Y-18495037D02*
X5027920Y-18456942D01*
X5027920Y-18456942D02*
X5027920Y-18409323D01*
X5027920Y-18409323D02*
X5037444Y-18371228D01*
X5037444Y-18371228D02*
X5046967Y-18352180D01*
X5046967Y-18352180D02*
X5056491Y-18342657D01*
X5056491Y-18342657D02*
X5075539Y-18333133D01*
X5227920Y-18533133D02*
X5227920Y-18399799D01*
X5227920Y-18418847D02*
X5237444Y-18409323D01*
X5237444Y-18409323D02*
X5256491Y-18399799D01*
X5256491Y-18399799D02*
X5285063Y-18399799D01*
X5285063Y-18399799D02*
X5304110Y-18409323D01*
X5304110Y-18409323D02*
X5313634Y-18428371D01*
X5313634Y-18428371D02*
X5313634Y-18533133D01*
X5313634Y-18428371D02*
X5323158Y-18409323D01*
X5323158Y-18409323D02*
X5342206Y-18399799D01*
X5342206Y-18399799D02*
X5370777Y-18399799D01*
X5370777Y-18399799D02*
X5389825Y-18409323D01*
X5389825Y-18409323D02*
X5399348Y-18428371D01*
X5399348Y-18428371D02*
X5399348Y-18533133D01*
X5494587Y-18533133D02*
X5494587Y-18399799D01*
X5494587Y-18418847D02*
X5504110Y-18409323D01*
X5504110Y-18409323D02*
X5523158Y-18399799D01*
X5523158Y-18399799D02*
X5551729Y-18399799D01*
X5551729Y-18399799D02*
X5570777Y-18409323D01*
X5570777Y-18409323D02*
X5580301Y-18428371D01*
X5580301Y-18428371D02*
X5580301Y-18533133D01*
X5580301Y-18428371D02*
X5589825Y-18409323D01*
X5589825Y-18409323D02*
X5608872Y-18399799D01*
X5608872Y-18399799D02*
X5637444Y-18399799D01*
X5637444Y-18399799D02*
X5656491Y-18409323D01*
X5656491Y-18409323D02*
X5666015Y-18428371D01*
X5666015Y-18428371D02*
X5666015Y-18533133D01*
X6056491Y-18323609D02*
X5885063Y-18580752D01*
X6313634Y-18333133D02*
X6332682Y-18333133D01*
X6332682Y-18333133D02*
X6351729Y-18342657D01*
X6351729Y-18342657D02*
X6361253Y-18352180D01*
X6361253Y-18352180D02*
X6370777Y-18371228D01*
X6370777Y-18371228D02*
X6380301Y-18409323D01*
X6380301Y-18409323D02*
X6380301Y-18456942D01*
X6380301Y-18456942D02*
X6370777Y-18495037D01*
X6370777Y-18495037D02*
X6361253Y-18514085D01*
X6361253Y-18514085D02*
X6351729Y-18523609D01*
X6351729Y-18523609D02*
X6332682Y-18533133D01*
X6332682Y-18533133D02*
X6313634Y-18533133D01*
X6313634Y-18533133D02*
X6294587Y-18523609D01*
X6294587Y-18523609D02*
X6285063Y-18514085D01*
X6285063Y-18514085D02*
X6275539Y-18495037D01*
X6275539Y-18495037D02*
X6266015Y-18456942D01*
X6266015Y-18456942D02*
X6266015Y-18409323D01*
X6266015Y-18409323D02*
X6275539Y-18371228D01*
X6275539Y-18371228D02*
X6285063Y-18352180D01*
X6285063Y-18352180D02*
X6294587Y-18342657D01*
X6294587Y-18342657D02*
X6313634Y-18333133D01*
X6466015Y-18514085D02*
X6475539Y-18523609D01*
X6475539Y-18523609D02*
X6466015Y-18533133D01*
X6466015Y-18533133D02*
X6456491Y-18523609D01*
X6456491Y-18523609D02*
X6466015Y-18514085D01*
X6466015Y-18514085D02*
X6466015Y-18533133D01*
X6599348Y-18333133D02*
X6618396Y-18333133D01*
X6618396Y-18333133D02*
X6637444Y-18342657D01*
X6637444Y-18342657D02*
X6646968Y-18352180D01*
X6646968Y-18352180D02*
X6656491Y-18371228D01*
X6656491Y-18371228D02*
X6666015Y-18409323D01*
X6666015Y-18409323D02*
X6666015Y-18456942D01*
X6666015Y-18456942D02*
X6656491Y-18495037D01*
X6656491Y-18495037D02*
X6646968Y-18514085D01*
X6646968Y-18514085D02*
X6637444Y-18523609D01*
X6637444Y-18523609D02*
X6618396Y-18533133D01*
X6618396Y-18533133D02*
X6599348Y-18533133D01*
X6599348Y-18533133D02*
X6580301Y-18523609D01*
X6580301Y-18523609D02*
X6570777Y-18514085D01*
X6570777Y-18514085D02*
X6561253Y-18495037D01*
X6561253Y-18495037D02*
X6551729Y-18456942D01*
X6551729Y-18456942D02*
X6551729Y-18409323D01*
X6551729Y-18409323D02*
X6561253Y-18371228D01*
X6561253Y-18371228D02*
X6570777Y-18352180D01*
X6570777Y-18352180D02*
X6580301Y-18342657D01*
X6580301Y-18342657D02*
X6599348Y-18333133D01*
X6837444Y-18399799D02*
X6837444Y-18533133D01*
X6789825Y-18323609D02*
X6742206Y-18466466D01*
X6742206Y-18466466D02*
X6866015Y-18466466D01*
X6923158Y-18333133D02*
X7056491Y-18333133D01*
X7056491Y-18333133D02*
X6970777Y-18533133D01*
X7123158Y-18352180D02*
X7132682Y-18342657D01*
X7132682Y-18342657D02*
X7151729Y-18333133D01*
X7151729Y-18333133D02*
X7199349Y-18333133D01*
X7199349Y-18333133D02*
X7218396Y-18342657D01*
X7218396Y-18342657D02*
X7227920Y-18352180D01*
X7227920Y-18352180D02*
X7237444Y-18371228D01*
X7237444Y-18371228D02*
X7237444Y-18390276D01*
X7237444Y-18390276D02*
X7227920Y-18418847D01*
X7227920Y-18418847D02*
X7113634Y-18533133D01*
X7113634Y-18533133D02*
X7237444Y-18533133D01*
X7313634Y-18333133D02*
X7313634Y-18371228D01*
X7389825Y-18333133D02*
X7389825Y-18371228D01*
X7685063Y-18609323D02*
X7675539Y-18599799D01*
X7675539Y-18599799D02*
X7656491Y-18571228D01*
X7656491Y-18571228D02*
X7646968Y-18552180D01*
X7646968Y-18552180D02*
X7637444Y-18523609D01*
X7637444Y-18523609D02*
X7627920Y-18475990D01*
X7627920Y-18475990D02*
X7627920Y-18437895D01*
X7627920Y-18437895D02*
X7637444Y-18390276D01*
X7637444Y-18390276D02*
X7646968Y-18361704D01*
X7646968Y-18361704D02*
X7656491Y-18342657D01*
X7656491Y-18342657D02*
X7675539Y-18314085D01*
X7675539Y-18314085D02*
X7685063Y-18304561D01*
X7742206Y-18333133D02*
X7875539Y-18333133D01*
X7875539Y-18333133D02*
X7789825Y-18533133D01*
X7942206Y-18352180D02*
X7951730Y-18342657D01*
X7951730Y-18342657D02*
X7970777Y-18333133D01*
X7970777Y-18333133D02*
X8018396Y-18333133D01*
X8018396Y-18333133D02*
X8037444Y-18342657D01*
X8037444Y-18342657D02*
X8046968Y-18352180D01*
X8046968Y-18352180D02*
X8056491Y-18371228D01*
X8056491Y-18371228D02*
X8056491Y-18390276D01*
X8056491Y-18390276D02*
X8046968Y-18418847D01*
X8046968Y-18418847D02*
X7932682Y-18533133D01*
X7932682Y-18533133D02*
X8056491Y-18533133D01*
X8294587Y-18533133D02*
X8294587Y-18333133D01*
X8380301Y-18533133D02*
X8380301Y-18428371D01*
X8380301Y-18428371D02*
X8370777Y-18409323D01*
X8370777Y-18409323D02*
X8351730Y-18399799D01*
X8351730Y-18399799D02*
X8323158Y-18399799D01*
X8323158Y-18399799D02*
X8304111Y-18409323D01*
X8304111Y-18409323D02*
X8294587Y-18418847D01*
X8504111Y-18533133D02*
X8485063Y-18523609D01*
X8485063Y-18523609D02*
X8475539Y-18514085D01*
X8475539Y-18514085D02*
X8466015Y-18495037D01*
X8466015Y-18495037D02*
X8466015Y-18437895D01*
X8466015Y-18437895D02*
X8475539Y-18418847D01*
X8475539Y-18418847D02*
X8485063Y-18409323D01*
X8485063Y-18409323D02*
X8504111Y-18399799D01*
X8504111Y-18399799D02*
X8532682Y-18399799D01*
X8532682Y-18399799D02*
X8551730Y-18409323D01*
X8551730Y-18409323D02*
X8561254Y-18418847D01*
X8561254Y-18418847D02*
X8570777Y-18437895D01*
X8570777Y-18437895D02*
X8570777Y-18495037D01*
X8570777Y-18495037D02*
X8561254Y-18514085D01*
X8561254Y-18514085D02*
X8551730Y-18523609D01*
X8551730Y-18523609D02*
X8532682Y-18533133D01*
X8532682Y-18533133D02*
X8504111Y-18533133D01*
X8685063Y-18533133D02*
X8666015Y-18523609D01*
X8666015Y-18523609D02*
X8656492Y-18504561D01*
X8656492Y-18504561D02*
X8656492Y-18333133D01*
X8837444Y-18523609D02*
X8818396Y-18533133D01*
X8818396Y-18533133D02*
X8780301Y-18533133D01*
X8780301Y-18533133D02*
X8761254Y-18523609D01*
X8761254Y-18523609D02*
X8751730Y-18504561D01*
X8751730Y-18504561D02*
X8751730Y-18428371D01*
X8751730Y-18428371D02*
X8761254Y-18409323D01*
X8761254Y-18409323D02*
X8780301Y-18399799D01*
X8780301Y-18399799D02*
X8818396Y-18399799D01*
X8818396Y-18399799D02*
X8837444Y-18409323D01*
X8837444Y-18409323D02*
X8846968Y-18428371D01*
X8846968Y-18428371D02*
X8846968Y-18447418D01*
X8846968Y-18447418D02*
X8751730Y-18466466D01*
X8923158Y-18523609D02*
X8942206Y-18533133D01*
X8942206Y-18533133D02*
X8980301Y-18533133D01*
X8980301Y-18533133D02*
X8999349Y-18523609D01*
X8999349Y-18523609D02*
X9008873Y-18504561D01*
X9008873Y-18504561D02*
X9008873Y-18495037D01*
X9008873Y-18495037D02*
X8999349Y-18475990D01*
X8999349Y-18475990D02*
X8980301Y-18466466D01*
X8980301Y-18466466D02*
X8951730Y-18466466D01*
X8951730Y-18466466D02*
X8932682Y-18456942D01*
X8932682Y-18456942D02*
X8923158Y-18437895D01*
X8923158Y-18437895D02*
X8923158Y-18428371D01*
X8923158Y-18428371D02*
X8932682Y-18409323D01*
X8932682Y-18409323D02*
X8951730Y-18399799D01*
X8951730Y-18399799D02*
X8980301Y-18399799D01*
X8980301Y-18399799D02*
X8999349Y-18409323D01*
X9075539Y-18609323D02*
X9085063Y-18599799D01*
X9085063Y-18599799D02*
X9104111Y-18571228D01*
X9104111Y-18571228D02*
X9113635Y-18552180D01*
X9113635Y-18552180D02*
X9123158Y-18523609D01*
X9123158Y-18523609D02*
X9132682Y-18475990D01*
X9132682Y-18475990D02*
X9132682Y-18437895D01*
X9132682Y-18437895D02*
X9123158Y-18390276D01*
X9123158Y-18390276D02*
X9113635Y-18361704D01*
X9113635Y-18361704D02*
X9104111Y-18342657D01*
X9104111Y-18342657D02*
X9085063Y-18314085D01*
X9085063Y-18314085D02*
X9075539Y-18304561D01*
D18*
X3980000Y-18640649D02*
X4110000Y-18770649D01*
X4110000Y-18640649D02*
X3980000Y-18770649D01*
X4045000Y-18640649D02*
X4045000Y-18770649D01*
X3980000Y-18705649D02*
X4110000Y-18705649D01*
D11*
X4475539Y-18797133D02*
X4361253Y-18797133D01*
X4418396Y-18797133D02*
X4418396Y-18597133D01*
X4418396Y-18597133D02*
X4399348Y-18625704D01*
X4399348Y-18625704D02*
X4380301Y-18644752D01*
X4380301Y-18644752D02*
X4361253Y-18654276D01*
X4561253Y-18778085D02*
X4570777Y-18787609D01*
X4570777Y-18787609D02*
X4561253Y-18797133D01*
X4561253Y-18797133D02*
X4551729Y-18787609D01*
X4551729Y-18787609D02*
X4561253Y-18778085D01*
X4561253Y-18778085D02*
X4561253Y-18797133D01*
X4637444Y-18597133D02*
X4761253Y-18597133D01*
X4761253Y-18597133D02*
X4694586Y-18673323D01*
X4694586Y-18673323D02*
X4723158Y-18673323D01*
X4723158Y-18673323D02*
X4742206Y-18682847D01*
X4742206Y-18682847D02*
X4751729Y-18692371D01*
X4751729Y-18692371D02*
X4761253Y-18711418D01*
X4761253Y-18711418D02*
X4761253Y-18759037D01*
X4761253Y-18759037D02*
X4751729Y-18778085D01*
X4751729Y-18778085D02*
X4742206Y-18787609D01*
X4742206Y-18787609D02*
X4723158Y-18797133D01*
X4723158Y-18797133D02*
X4666015Y-18797133D01*
X4666015Y-18797133D02*
X4646967Y-18787609D01*
X4646967Y-18787609D02*
X4637444Y-18778085D01*
X4885063Y-18597133D02*
X4904110Y-18597133D01*
X4904110Y-18597133D02*
X4923158Y-18606657D01*
X4923158Y-18606657D02*
X4932682Y-18616180D01*
X4932682Y-18616180D02*
X4942206Y-18635228D01*
X4942206Y-18635228D02*
X4951729Y-18673323D01*
X4951729Y-18673323D02*
X4951729Y-18720942D01*
X4951729Y-18720942D02*
X4942206Y-18759037D01*
X4942206Y-18759037D02*
X4932682Y-18778085D01*
X4932682Y-18778085D02*
X4923158Y-18787609D01*
X4923158Y-18787609D02*
X4904110Y-18797133D01*
X4904110Y-18797133D02*
X4885063Y-18797133D01*
X4885063Y-18797133D02*
X4866015Y-18787609D01*
X4866015Y-18787609D02*
X4856491Y-18778085D01*
X4856491Y-18778085D02*
X4846967Y-18759037D01*
X4846967Y-18759037D02*
X4837444Y-18720942D01*
X4837444Y-18720942D02*
X4837444Y-18673323D01*
X4837444Y-18673323D02*
X4846967Y-18635228D01*
X4846967Y-18635228D02*
X4856491Y-18616180D01*
X4856491Y-18616180D02*
X4866015Y-18606657D01*
X4866015Y-18606657D02*
X4885063Y-18597133D01*
X5075539Y-18597133D02*
X5094587Y-18597133D01*
X5094587Y-18597133D02*
X5113634Y-18606657D01*
X5113634Y-18606657D02*
X5123158Y-18616180D01*
X5123158Y-18616180D02*
X5132682Y-18635228D01*
X5132682Y-18635228D02*
X5142206Y-18673323D01*
X5142206Y-18673323D02*
X5142206Y-18720942D01*
X5142206Y-18720942D02*
X5132682Y-18759037D01*
X5132682Y-18759037D02*
X5123158Y-18778085D01*
X5123158Y-18778085D02*
X5113634Y-18787609D01*
X5113634Y-18787609D02*
X5094587Y-18797133D01*
X5094587Y-18797133D02*
X5075539Y-18797133D01*
X5075539Y-18797133D02*
X5056491Y-18787609D01*
X5056491Y-18787609D02*
X5046967Y-18778085D01*
X5046967Y-18778085D02*
X5037444Y-18759037D01*
X5037444Y-18759037D02*
X5027920Y-18720942D01*
X5027920Y-18720942D02*
X5027920Y-18673323D01*
X5027920Y-18673323D02*
X5037444Y-18635228D01*
X5037444Y-18635228D02*
X5046967Y-18616180D01*
X5046967Y-18616180D02*
X5056491Y-18606657D01*
X5056491Y-18606657D02*
X5075539Y-18597133D01*
X5227920Y-18797133D02*
X5227920Y-18663799D01*
X5227920Y-18682847D02*
X5237444Y-18673323D01*
X5237444Y-18673323D02*
X5256491Y-18663799D01*
X5256491Y-18663799D02*
X5285063Y-18663799D01*
X5285063Y-18663799D02*
X5304110Y-18673323D01*
X5304110Y-18673323D02*
X5313634Y-18692371D01*
X5313634Y-18692371D02*
X5313634Y-18797133D01*
X5313634Y-18692371D02*
X5323158Y-18673323D01*
X5323158Y-18673323D02*
X5342206Y-18663799D01*
X5342206Y-18663799D02*
X5370777Y-18663799D01*
X5370777Y-18663799D02*
X5389825Y-18673323D01*
X5389825Y-18673323D02*
X5399348Y-18692371D01*
X5399348Y-18692371D02*
X5399348Y-18797133D01*
X5494587Y-18797133D02*
X5494587Y-18663799D01*
X5494587Y-18682847D02*
X5504110Y-18673323D01*
X5504110Y-18673323D02*
X5523158Y-18663799D01*
X5523158Y-18663799D02*
X5551729Y-18663799D01*
X5551729Y-18663799D02*
X5570777Y-18673323D01*
X5570777Y-18673323D02*
X5580301Y-18692371D01*
X5580301Y-18692371D02*
X5580301Y-18797133D01*
X5580301Y-18692371D02*
X5589825Y-18673323D01*
X5589825Y-18673323D02*
X5608872Y-18663799D01*
X5608872Y-18663799D02*
X5637444Y-18663799D01*
X5637444Y-18663799D02*
X5656491Y-18673323D01*
X5656491Y-18673323D02*
X5666015Y-18692371D01*
X5666015Y-18692371D02*
X5666015Y-18797133D01*
X6056491Y-18587609D02*
X5885063Y-18844752D01*
X6313634Y-18597133D02*
X6332682Y-18597133D01*
X6332682Y-18597133D02*
X6351729Y-18606657D01*
X6351729Y-18606657D02*
X6361253Y-18616180D01*
X6361253Y-18616180D02*
X6370777Y-18635228D01*
X6370777Y-18635228D02*
X6380301Y-18673323D01*
X6380301Y-18673323D02*
X6380301Y-18720942D01*
X6380301Y-18720942D02*
X6370777Y-18759037D01*
X6370777Y-18759037D02*
X6361253Y-18778085D01*
X6361253Y-18778085D02*
X6351729Y-18787609D01*
X6351729Y-18787609D02*
X6332682Y-18797133D01*
X6332682Y-18797133D02*
X6313634Y-18797133D01*
X6313634Y-18797133D02*
X6294587Y-18787609D01*
X6294587Y-18787609D02*
X6285063Y-18778085D01*
X6285063Y-18778085D02*
X6275539Y-18759037D01*
X6275539Y-18759037D02*
X6266015Y-18720942D01*
X6266015Y-18720942D02*
X6266015Y-18673323D01*
X6266015Y-18673323D02*
X6275539Y-18635228D01*
X6275539Y-18635228D02*
X6285063Y-18616180D01*
X6285063Y-18616180D02*
X6294587Y-18606657D01*
X6294587Y-18606657D02*
X6313634Y-18597133D01*
X6466015Y-18778085D02*
X6475539Y-18787609D01*
X6475539Y-18787609D02*
X6466015Y-18797133D01*
X6466015Y-18797133D02*
X6456491Y-18787609D01*
X6456491Y-18787609D02*
X6466015Y-18778085D01*
X6466015Y-18778085D02*
X6466015Y-18797133D01*
X6599348Y-18597133D02*
X6618396Y-18597133D01*
X6618396Y-18597133D02*
X6637444Y-18606657D01*
X6637444Y-18606657D02*
X6646968Y-18616180D01*
X6646968Y-18616180D02*
X6656491Y-18635228D01*
X6656491Y-18635228D02*
X6666015Y-18673323D01*
X6666015Y-18673323D02*
X6666015Y-18720942D01*
X6666015Y-18720942D02*
X6656491Y-18759037D01*
X6656491Y-18759037D02*
X6646968Y-18778085D01*
X6646968Y-18778085D02*
X6637444Y-18787609D01*
X6637444Y-18787609D02*
X6618396Y-18797133D01*
X6618396Y-18797133D02*
X6599348Y-18797133D01*
X6599348Y-18797133D02*
X6580301Y-18787609D01*
X6580301Y-18787609D02*
X6570777Y-18778085D01*
X6570777Y-18778085D02*
X6561253Y-18759037D01*
X6561253Y-18759037D02*
X6551729Y-18720942D01*
X6551729Y-18720942D02*
X6551729Y-18673323D01*
X6551729Y-18673323D02*
X6561253Y-18635228D01*
X6561253Y-18635228D02*
X6570777Y-18616180D01*
X6570777Y-18616180D02*
X6580301Y-18606657D01*
X6580301Y-18606657D02*
X6599348Y-18597133D01*
X6846968Y-18597133D02*
X6751729Y-18597133D01*
X6751729Y-18597133D02*
X6742206Y-18692371D01*
X6742206Y-18692371D02*
X6751729Y-18682847D01*
X6751729Y-18682847D02*
X6770777Y-18673323D01*
X6770777Y-18673323D02*
X6818396Y-18673323D01*
X6818396Y-18673323D02*
X6837444Y-18682847D01*
X6837444Y-18682847D02*
X6846968Y-18692371D01*
X6846968Y-18692371D02*
X6856491Y-18711418D01*
X6856491Y-18711418D02*
X6856491Y-18759037D01*
X6856491Y-18759037D02*
X6846968Y-18778085D01*
X6846968Y-18778085D02*
X6837444Y-18787609D01*
X6837444Y-18787609D02*
X6818396Y-18797133D01*
X6818396Y-18797133D02*
X6770777Y-18797133D01*
X6770777Y-18797133D02*
X6751729Y-18787609D01*
X6751729Y-18787609D02*
X6742206Y-18778085D01*
X7046968Y-18797133D02*
X6932682Y-18797133D01*
X6989825Y-18797133D02*
X6989825Y-18597133D01*
X6989825Y-18597133D02*
X6970777Y-18625704D01*
X6970777Y-18625704D02*
X6951729Y-18644752D01*
X6951729Y-18644752D02*
X6932682Y-18654276D01*
X7123158Y-18616180D02*
X7132682Y-18606657D01*
X7132682Y-18606657D02*
X7151729Y-18597133D01*
X7151729Y-18597133D02*
X7199349Y-18597133D01*
X7199349Y-18597133D02*
X7218396Y-18606657D01*
X7218396Y-18606657D02*
X7227920Y-18616180D01*
X7227920Y-18616180D02*
X7237444Y-18635228D01*
X7237444Y-18635228D02*
X7237444Y-18654276D01*
X7237444Y-18654276D02*
X7227920Y-18682847D01*
X7227920Y-18682847D02*
X7113634Y-18797133D01*
X7113634Y-18797133D02*
X7237444Y-18797133D01*
X7313634Y-18597133D02*
X7313634Y-18635228D01*
X7389825Y-18597133D02*
X7389825Y-18635228D01*
X7685063Y-18873323D02*
X7675539Y-18863799D01*
X7675539Y-18863799D02*
X7656491Y-18835228D01*
X7656491Y-18835228D02*
X7646968Y-18816180D01*
X7646968Y-18816180D02*
X7637444Y-18787609D01*
X7637444Y-18787609D02*
X7627920Y-18739990D01*
X7627920Y-18739990D02*
X7627920Y-18701895D01*
X7627920Y-18701895D02*
X7637444Y-18654276D01*
X7637444Y-18654276D02*
X7646968Y-18625704D01*
X7646968Y-18625704D02*
X7656491Y-18606657D01*
X7656491Y-18606657D02*
X7675539Y-18578085D01*
X7675539Y-18578085D02*
X7685063Y-18568561D01*
X7846968Y-18663799D02*
X7846968Y-18797133D01*
X7799349Y-18587609D02*
X7751730Y-18730466D01*
X7751730Y-18730466D02*
X7875539Y-18730466D01*
X8104111Y-18797133D02*
X8104111Y-18597133D01*
X8189825Y-18797133D02*
X8189825Y-18692371D01*
X8189825Y-18692371D02*
X8180301Y-18673323D01*
X8180301Y-18673323D02*
X8161253Y-18663799D01*
X8161253Y-18663799D02*
X8132682Y-18663799D01*
X8132682Y-18663799D02*
X8113634Y-18673323D01*
X8113634Y-18673323D02*
X8104111Y-18682847D01*
X8313634Y-18797133D02*
X8294587Y-18787609D01*
X8294587Y-18787609D02*
X8285063Y-18778085D01*
X8285063Y-18778085D02*
X8275539Y-18759037D01*
X8275539Y-18759037D02*
X8275539Y-18701895D01*
X8275539Y-18701895D02*
X8285063Y-18682847D01*
X8285063Y-18682847D02*
X8294587Y-18673323D01*
X8294587Y-18673323D02*
X8313634Y-18663799D01*
X8313634Y-18663799D02*
X8342206Y-18663799D01*
X8342206Y-18663799D02*
X8361253Y-18673323D01*
X8361253Y-18673323D02*
X8370777Y-18682847D01*
X8370777Y-18682847D02*
X8380301Y-18701895D01*
X8380301Y-18701895D02*
X8380301Y-18759037D01*
X8380301Y-18759037D02*
X8370777Y-18778085D01*
X8370777Y-18778085D02*
X8361253Y-18787609D01*
X8361253Y-18787609D02*
X8342206Y-18797133D01*
X8342206Y-18797133D02*
X8313634Y-18797133D01*
X8494587Y-18797133D02*
X8475539Y-18787609D01*
X8475539Y-18787609D02*
X8466015Y-18768561D01*
X8466015Y-18768561D02*
X8466015Y-18597133D01*
X8646968Y-18787609D02*
X8627920Y-18797133D01*
X8627920Y-18797133D02*
X8589825Y-18797133D01*
X8589825Y-18797133D02*
X8570777Y-18787609D01*
X8570777Y-18787609D02*
X8561254Y-18768561D01*
X8561254Y-18768561D02*
X8561254Y-18692371D01*
X8561254Y-18692371D02*
X8570777Y-18673323D01*
X8570777Y-18673323D02*
X8589825Y-18663799D01*
X8589825Y-18663799D02*
X8627920Y-18663799D01*
X8627920Y-18663799D02*
X8646968Y-18673323D01*
X8646968Y-18673323D02*
X8656492Y-18692371D01*
X8656492Y-18692371D02*
X8656492Y-18711418D01*
X8656492Y-18711418D02*
X8561254Y-18730466D01*
X8732682Y-18787609D02*
X8751730Y-18797133D01*
X8751730Y-18797133D02*
X8789825Y-18797133D01*
X8789825Y-18797133D02*
X8808873Y-18787609D01*
X8808873Y-18787609D02*
X8818396Y-18768561D01*
X8818396Y-18768561D02*
X8818396Y-18759037D01*
X8818396Y-18759037D02*
X8808873Y-18739990D01*
X8808873Y-18739990D02*
X8789825Y-18730466D01*
X8789825Y-18730466D02*
X8761254Y-18730466D01*
X8761254Y-18730466D02*
X8742206Y-18720942D01*
X8742206Y-18720942D02*
X8732682Y-18701895D01*
X8732682Y-18701895D02*
X8732682Y-18692371D01*
X8732682Y-18692371D02*
X8742206Y-18673323D01*
X8742206Y-18673323D02*
X8761254Y-18663799D01*
X8761254Y-18663799D02*
X8789825Y-18663799D01*
X8789825Y-18663799D02*
X8808873Y-18673323D01*
X8885063Y-18873323D02*
X8894587Y-18863799D01*
X8894587Y-18863799D02*
X8913635Y-18835228D01*
X8913635Y-18835228D02*
X8923158Y-18816180D01*
X8923158Y-18816180D02*
X8932682Y-18787609D01*
X8932682Y-18787609D02*
X8942206Y-18739990D01*
X8942206Y-18739990D02*
X8942206Y-18701895D01*
X8942206Y-18701895D02*
X8932682Y-18654276D01*
X8932682Y-18654276D02*
X8923158Y-18625704D01*
X8923158Y-18625704D02*
X8913635Y-18606657D01*
X8913635Y-18606657D02*
X8894587Y-18578085D01*
X8894587Y-18578085D02*
X8885063Y-18568561D01*
X3910000Y-18869649D02*
X4110000Y-19069649D01*
X4110000Y-18869649D02*
X3910000Y-19069649D01*
X4080711Y-19040360D02*
X4080711Y-18898938D01*
X3939289Y-18898938D01*
X3939289Y-19040360D01*
X4080711Y-19040360D01*
X4351729Y-18861133D02*
X4475539Y-18861133D01*
X4475539Y-18861133D02*
X4408872Y-18937323D01*
X4408872Y-18937323D02*
X4437444Y-18937323D01*
X4437444Y-18937323D02*
X4456491Y-18946847D01*
X4456491Y-18946847D02*
X4466015Y-18956371D01*
X4466015Y-18956371D02*
X4475539Y-18975418D01*
X4475539Y-18975418D02*
X4475539Y-19023037D01*
X4475539Y-19023037D02*
X4466015Y-19042085D01*
X4466015Y-19042085D02*
X4456491Y-19051609D01*
X4456491Y-19051609D02*
X4437444Y-19061133D01*
X4437444Y-19061133D02*
X4380301Y-19061133D01*
X4380301Y-19061133D02*
X4361253Y-19051609D01*
X4361253Y-19051609D02*
X4351729Y-19042085D01*
X4561253Y-19042085D02*
X4570777Y-19051609D01*
X4570777Y-19051609D02*
X4561253Y-19061133D01*
X4561253Y-19061133D02*
X4551729Y-19051609D01*
X4551729Y-19051609D02*
X4561253Y-19042085D01*
X4561253Y-19042085D02*
X4561253Y-19061133D01*
X4742206Y-18927799D02*
X4742206Y-19061133D01*
X4694586Y-18851609D02*
X4646967Y-18994466D01*
X4646967Y-18994466D02*
X4770777Y-18994466D01*
X4885063Y-18861133D02*
X4904110Y-18861133D01*
X4904110Y-18861133D02*
X4923158Y-18870657D01*
X4923158Y-18870657D02*
X4932682Y-18880180D01*
X4932682Y-18880180D02*
X4942206Y-18899228D01*
X4942206Y-18899228D02*
X4951729Y-18937323D01*
X4951729Y-18937323D02*
X4951729Y-18984942D01*
X4951729Y-18984942D02*
X4942206Y-19023037D01*
X4942206Y-19023037D02*
X4932682Y-19042085D01*
X4932682Y-19042085D02*
X4923158Y-19051609D01*
X4923158Y-19051609D02*
X4904110Y-19061133D01*
X4904110Y-19061133D02*
X4885063Y-19061133D01*
X4885063Y-19061133D02*
X4866015Y-19051609D01*
X4866015Y-19051609D02*
X4856491Y-19042085D01*
X4856491Y-19042085D02*
X4846967Y-19023037D01*
X4846967Y-19023037D02*
X4837444Y-18984942D01*
X4837444Y-18984942D02*
X4837444Y-18937323D01*
X4837444Y-18937323D02*
X4846967Y-18899228D01*
X4846967Y-18899228D02*
X4856491Y-18880180D01*
X4856491Y-18880180D02*
X4866015Y-18870657D01*
X4866015Y-18870657D02*
X4885063Y-18861133D01*
X5075539Y-18861133D02*
X5094587Y-18861133D01*
X5094587Y-18861133D02*
X5113634Y-18870657D01*
X5113634Y-18870657D02*
X5123158Y-18880180D01*
X5123158Y-18880180D02*
X5132682Y-18899228D01*
X5132682Y-18899228D02*
X5142206Y-18937323D01*
X5142206Y-18937323D02*
X5142206Y-18984942D01*
X5142206Y-18984942D02*
X5132682Y-19023037D01*
X5132682Y-19023037D02*
X5123158Y-19042085D01*
X5123158Y-19042085D02*
X5113634Y-19051609D01*
X5113634Y-19051609D02*
X5094587Y-19061133D01*
X5094587Y-19061133D02*
X5075539Y-19061133D01*
X5075539Y-19061133D02*
X5056491Y-19051609D01*
X5056491Y-19051609D02*
X5046967Y-19042085D01*
X5046967Y-19042085D02*
X5037444Y-19023037D01*
X5037444Y-19023037D02*
X5027920Y-18984942D01*
X5027920Y-18984942D02*
X5027920Y-18937323D01*
X5027920Y-18937323D02*
X5037444Y-18899228D01*
X5037444Y-18899228D02*
X5046967Y-18880180D01*
X5046967Y-18880180D02*
X5056491Y-18870657D01*
X5056491Y-18870657D02*
X5075539Y-18861133D01*
X5227920Y-19061133D02*
X5227920Y-18927799D01*
X5227920Y-18946847D02*
X5237444Y-18937323D01*
X5237444Y-18937323D02*
X5256491Y-18927799D01*
X5256491Y-18927799D02*
X5285063Y-18927799D01*
X5285063Y-18927799D02*
X5304110Y-18937323D01*
X5304110Y-18937323D02*
X5313634Y-18956371D01*
X5313634Y-18956371D02*
X5313634Y-19061133D01*
X5313634Y-18956371D02*
X5323158Y-18937323D01*
X5323158Y-18937323D02*
X5342206Y-18927799D01*
X5342206Y-18927799D02*
X5370777Y-18927799D01*
X5370777Y-18927799D02*
X5389825Y-18937323D01*
X5389825Y-18937323D02*
X5399348Y-18956371D01*
X5399348Y-18956371D02*
X5399348Y-19061133D01*
X5494587Y-19061133D02*
X5494587Y-18927799D01*
X5494587Y-18946847D02*
X5504110Y-18937323D01*
X5504110Y-18937323D02*
X5523158Y-18927799D01*
X5523158Y-18927799D02*
X5551729Y-18927799D01*
X5551729Y-18927799D02*
X5570777Y-18937323D01*
X5570777Y-18937323D02*
X5580301Y-18956371D01*
X5580301Y-18956371D02*
X5580301Y-19061133D01*
X5580301Y-18956371D02*
X5589825Y-18937323D01*
X5589825Y-18937323D02*
X5608872Y-18927799D01*
X5608872Y-18927799D02*
X5637444Y-18927799D01*
X5637444Y-18927799D02*
X5656491Y-18937323D01*
X5656491Y-18937323D02*
X5666015Y-18956371D01*
X5666015Y-18956371D02*
X5666015Y-19061133D01*
X6056491Y-18851609D02*
X5885063Y-19108752D01*
X6313634Y-18861133D02*
X6332682Y-18861133D01*
X6332682Y-18861133D02*
X6351729Y-18870657D01*
X6351729Y-18870657D02*
X6361253Y-18880180D01*
X6361253Y-18880180D02*
X6370777Y-18899228D01*
X6370777Y-18899228D02*
X6380301Y-18937323D01*
X6380301Y-18937323D02*
X6380301Y-18984942D01*
X6380301Y-18984942D02*
X6370777Y-19023037D01*
X6370777Y-19023037D02*
X6361253Y-19042085D01*
X6361253Y-19042085D02*
X6351729Y-19051609D01*
X6351729Y-19051609D02*
X6332682Y-19061133D01*
X6332682Y-19061133D02*
X6313634Y-19061133D01*
X6313634Y-19061133D02*
X6294587Y-19051609D01*
X6294587Y-19051609D02*
X6285063Y-19042085D01*
X6285063Y-19042085D02*
X6275539Y-19023037D01*
X6275539Y-19023037D02*
X6266015Y-18984942D01*
X6266015Y-18984942D02*
X6266015Y-18937323D01*
X6266015Y-18937323D02*
X6275539Y-18899228D01*
X6275539Y-18899228D02*
X6285063Y-18880180D01*
X6285063Y-18880180D02*
X6294587Y-18870657D01*
X6294587Y-18870657D02*
X6313634Y-18861133D01*
X6466015Y-19042085D02*
X6475539Y-19051609D01*
X6475539Y-19051609D02*
X6466015Y-19061133D01*
X6466015Y-19061133D02*
X6456491Y-19051609D01*
X6456491Y-19051609D02*
X6466015Y-19042085D01*
X6466015Y-19042085D02*
X6466015Y-19061133D01*
X6666015Y-19061133D02*
X6551729Y-19061133D01*
X6608872Y-19061133D02*
X6608872Y-18861133D01*
X6608872Y-18861133D02*
X6589825Y-18889704D01*
X6589825Y-18889704D02*
X6570777Y-18908752D01*
X6570777Y-18908752D02*
X6551729Y-18918276D01*
X6732682Y-18861133D02*
X6856491Y-18861133D01*
X6856491Y-18861133D02*
X6789825Y-18937323D01*
X6789825Y-18937323D02*
X6818396Y-18937323D01*
X6818396Y-18937323D02*
X6837444Y-18946847D01*
X6837444Y-18946847D02*
X6846968Y-18956371D01*
X6846968Y-18956371D02*
X6856491Y-18975418D01*
X6856491Y-18975418D02*
X6856491Y-19023037D01*
X6856491Y-19023037D02*
X6846968Y-19042085D01*
X6846968Y-19042085D02*
X6837444Y-19051609D01*
X6837444Y-19051609D02*
X6818396Y-19061133D01*
X6818396Y-19061133D02*
X6761253Y-19061133D01*
X6761253Y-19061133D02*
X6742206Y-19051609D01*
X6742206Y-19051609D02*
X6732682Y-19042085D01*
X6923158Y-18861133D02*
X7046968Y-18861133D01*
X7046968Y-18861133D02*
X6980301Y-18937323D01*
X6980301Y-18937323D02*
X7008872Y-18937323D01*
X7008872Y-18937323D02*
X7027920Y-18946847D01*
X7027920Y-18946847D02*
X7037444Y-18956371D01*
X7037444Y-18956371D02*
X7046968Y-18975418D01*
X7046968Y-18975418D02*
X7046968Y-19023037D01*
X7046968Y-19023037D02*
X7037444Y-19042085D01*
X7037444Y-19042085D02*
X7027920Y-19051609D01*
X7027920Y-19051609D02*
X7008872Y-19061133D01*
X7008872Y-19061133D02*
X6951729Y-19061133D01*
X6951729Y-19061133D02*
X6932682Y-19051609D01*
X6932682Y-19051609D02*
X6923158Y-19042085D01*
X7142206Y-19061133D02*
X7180301Y-19061133D01*
X7180301Y-19061133D02*
X7199349Y-19051609D01*
X7199349Y-19051609D02*
X7208872Y-19042085D01*
X7208872Y-19042085D02*
X7227920Y-19013514D01*
X7227920Y-19013514D02*
X7237444Y-18975418D01*
X7237444Y-18975418D02*
X7237444Y-18899228D01*
X7237444Y-18899228D02*
X7227920Y-18880180D01*
X7227920Y-18880180D02*
X7218396Y-18870657D01*
X7218396Y-18870657D02*
X7199349Y-18861133D01*
X7199349Y-18861133D02*
X7161253Y-18861133D01*
X7161253Y-18861133D02*
X7142206Y-18870657D01*
X7142206Y-18870657D02*
X7132682Y-18880180D01*
X7132682Y-18880180D02*
X7123158Y-18899228D01*
X7123158Y-18899228D02*
X7123158Y-18946847D01*
X7123158Y-18946847D02*
X7132682Y-18965895D01*
X7132682Y-18965895D02*
X7142206Y-18975418D01*
X7142206Y-18975418D02*
X7161253Y-18984942D01*
X7161253Y-18984942D02*
X7199349Y-18984942D01*
X7199349Y-18984942D02*
X7218396Y-18975418D01*
X7218396Y-18975418D02*
X7227920Y-18965895D01*
X7227920Y-18965895D02*
X7237444Y-18946847D01*
X7313634Y-18861133D02*
X7313634Y-18899228D01*
X7389825Y-18861133D02*
X7389825Y-18899228D01*
X7685063Y-19137323D02*
X7675539Y-19127799D01*
X7675539Y-19127799D02*
X7656491Y-19099228D01*
X7656491Y-19099228D02*
X7646968Y-19080180D01*
X7646968Y-19080180D02*
X7637444Y-19051609D01*
X7637444Y-19051609D02*
X7627920Y-19003990D01*
X7627920Y-19003990D02*
X7627920Y-18965895D01*
X7627920Y-18965895D02*
X7637444Y-18918276D01*
X7637444Y-18918276D02*
X7646968Y-18889704D01*
X7646968Y-18889704D02*
X7656491Y-18870657D01*
X7656491Y-18870657D02*
X7675539Y-18842085D01*
X7675539Y-18842085D02*
X7685063Y-18832561D01*
X7789825Y-18946847D02*
X7770777Y-18937323D01*
X7770777Y-18937323D02*
X7761253Y-18927799D01*
X7761253Y-18927799D02*
X7751730Y-18908752D01*
X7751730Y-18908752D02*
X7751730Y-18899228D01*
X7751730Y-18899228D02*
X7761253Y-18880180D01*
X7761253Y-18880180D02*
X7770777Y-18870657D01*
X7770777Y-18870657D02*
X7789825Y-18861133D01*
X7789825Y-18861133D02*
X7827920Y-18861133D01*
X7827920Y-18861133D02*
X7846968Y-18870657D01*
X7846968Y-18870657D02*
X7856491Y-18880180D01*
X7856491Y-18880180D02*
X7866015Y-18899228D01*
X7866015Y-18899228D02*
X7866015Y-18908752D01*
X7866015Y-18908752D02*
X7856491Y-18927799D01*
X7856491Y-18927799D02*
X7846968Y-18937323D01*
X7846968Y-18937323D02*
X7827920Y-18946847D01*
X7827920Y-18946847D02*
X7789825Y-18946847D01*
X7789825Y-18946847D02*
X7770777Y-18956371D01*
X7770777Y-18956371D02*
X7761253Y-18965895D01*
X7761253Y-18965895D02*
X7751730Y-18984942D01*
X7751730Y-18984942D02*
X7751730Y-19023037D01*
X7751730Y-19023037D02*
X7761253Y-19042085D01*
X7761253Y-19042085D02*
X7770777Y-19051609D01*
X7770777Y-19051609D02*
X7789825Y-19061133D01*
X7789825Y-19061133D02*
X7827920Y-19061133D01*
X7827920Y-19061133D02*
X7846968Y-19051609D01*
X7846968Y-19051609D02*
X7856491Y-19042085D01*
X7856491Y-19042085D02*
X7866015Y-19023037D01*
X7866015Y-19023037D02*
X7866015Y-18984942D01*
X7866015Y-18984942D02*
X7856491Y-18965895D01*
X7856491Y-18965895D02*
X7846968Y-18956371D01*
X7846968Y-18956371D02*
X7827920Y-18946847D01*
X8104111Y-19061133D02*
X8104111Y-18861133D01*
X8189825Y-19061133D02*
X8189825Y-18956371D01*
X8189825Y-18956371D02*
X8180301Y-18937323D01*
X8180301Y-18937323D02*
X8161253Y-18927799D01*
X8161253Y-18927799D02*
X8132682Y-18927799D01*
X8132682Y-18927799D02*
X8113634Y-18937323D01*
X8113634Y-18937323D02*
X8104111Y-18946847D01*
X8313634Y-19061133D02*
X8294587Y-19051609D01*
X8294587Y-19051609D02*
X8285063Y-19042085D01*
X8285063Y-19042085D02*
X8275539Y-19023037D01*
X8275539Y-19023037D02*
X8275539Y-18965895D01*
X8275539Y-18965895D02*
X8285063Y-18946847D01*
X8285063Y-18946847D02*
X8294587Y-18937323D01*
X8294587Y-18937323D02*
X8313634Y-18927799D01*
X8313634Y-18927799D02*
X8342206Y-18927799D01*
X8342206Y-18927799D02*
X8361253Y-18937323D01*
X8361253Y-18937323D02*
X8370777Y-18946847D01*
X8370777Y-18946847D02*
X8380301Y-18965895D01*
X8380301Y-18965895D02*
X8380301Y-19023037D01*
X8380301Y-19023037D02*
X8370777Y-19042085D01*
X8370777Y-19042085D02*
X8361253Y-19051609D01*
X8361253Y-19051609D02*
X8342206Y-19061133D01*
X8342206Y-19061133D02*
X8313634Y-19061133D01*
X8494587Y-19061133D02*
X8475539Y-19051609D01*
X8475539Y-19051609D02*
X8466015Y-19032561D01*
X8466015Y-19032561D02*
X8466015Y-18861133D01*
X8646968Y-19051609D02*
X8627920Y-19061133D01*
X8627920Y-19061133D02*
X8589825Y-19061133D01*
X8589825Y-19061133D02*
X8570777Y-19051609D01*
X8570777Y-19051609D02*
X8561254Y-19032561D01*
X8561254Y-19032561D02*
X8561254Y-18956371D01*
X8561254Y-18956371D02*
X8570777Y-18937323D01*
X8570777Y-18937323D02*
X8589825Y-18927799D01*
X8589825Y-18927799D02*
X8627920Y-18927799D01*
X8627920Y-18927799D02*
X8646968Y-18937323D01*
X8646968Y-18937323D02*
X8656492Y-18956371D01*
X8656492Y-18956371D02*
X8656492Y-18975418D01*
X8656492Y-18975418D02*
X8561254Y-18994466D01*
X8732682Y-19051609D02*
X8751730Y-19061133D01*
X8751730Y-19061133D02*
X8789825Y-19061133D01*
X8789825Y-19061133D02*
X8808873Y-19051609D01*
X8808873Y-19051609D02*
X8818396Y-19032561D01*
X8818396Y-19032561D02*
X8818396Y-19023037D01*
X8818396Y-19023037D02*
X8808873Y-19003990D01*
X8808873Y-19003990D02*
X8789825Y-18994466D01*
X8789825Y-18994466D02*
X8761254Y-18994466D01*
X8761254Y-18994466D02*
X8742206Y-18984942D01*
X8742206Y-18984942D02*
X8732682Y-18965895D01*
X8732682Y-18965895D02*
X8732682Y-18956371D01*
X8732682Y-18956371D02*
X8742206Y-18937323D01*
X8742206Y-18937323D02*
X8761254Y-18927799D01*
X8761254Y-18927799D02*
X8789825Y-18927799D01*
X8789825Y-18927799D02*
X8808873Y-18937323D01*
X8885063Y-19137323D02*
X8894587Y-19127799D01*
X8894587Y-19127799D02*
X8913635Y-19099228D01*
X8913635Y-19099228D02*
X8923158Y-19080180D01*
X8923158Y-19080180D02*
X8932682Y-19051609D01*
X8932682Y-19051609D02*
X8942206Y-19003990D01*
X8942206Y-19003990D02*
X8942206Y-18965895D01*
X8942206Y-18965895D02*
X8932682Y-18918276D01*
X8932682Y-18918276D02*
X8923158Y-18889704D01*
X8923158Y-18889704D02*
X8913635Y-18870657D01*
X8913635Y-18870657D02*
X8894587Y-18842085D01*
X8894587Y-18842085D02*
X8885063Y-18832561D01*
M02*
