  0
SECTION
  2
HEADER
  9
$ACADVER
  1
AC1014
  9
$HANDSEED
  5
FFFF
  9
$MEASUREMENT
 70
     1
  0
ENDSEC
  0
SECTION
  2
TABLES
  0
TABLE
  2
VPORT
  5
8
330
0
100
AcDbSymbolTable
 70
     4
  0
VPORT
  5
2E
330
8
100
AcDbSymbolTableRecord
100
AcDbViewportTableRecord
  2
*ACTIVE
 70
     0
 10
0.0
 20
0.0
 11
1.0
 21
1.0
 12
210.0
 22
148.5
 13
0.0
 23
0.0
 14
10.0
 24
10.0
 15
10.0
 25
10.0
 16
0.0
 26
0.0
 36
1.0
 17
0.0
 27
0.0
 37
0.0
 40
341.0
 41
1.24
 42
50.0
 43
0.0
 44
0.0
 50
0.0
 51
0.0
 71
     0
 72
   100
 73
     1
 74
     3
 75
     0
 76
     0
 77
     0
 78
     0
  0
ENDTAB
  0
TABLE
  2
LTYPE
  5
5
330
0
100
AcDbSymbolTable
 70
     1
  0
LTYPE
  5
14
330
5
100
AcDbSymbolTableRecord
100
AcDbLinetypeTableRecord
  2
BYBLOCK
 70
     0
  3

 72
    65
 73
     0
 40
0.0
  0
LTYPE
  5
15
330
5
100
AcDbSymbolTableRecord
100
AcDbLinetypeTableRecord
  2
BYLAYER
 70
     0
  3

 72
    65
 73
     0
 40
0.0
  0
LTYPE
  5
16
330
5
100
AcDbSymbolTableRecord
100
AcDbLinetypeTableRecord
  2
CONTINUOUS
 70
     0
  3
Solid line
 72
    65
 73
     0
 40
0.0
  0
ENDTAB
  0
TABLE
  2
LAYER
  5
2
100
AcDbSymbolTable
 70
2
  0
LAYER
  5
50
100
AcDbSymbolTableRecord
100
AcDbLayerTableRecord
  2
0
 70
0
  6
CONTINUOUS
  0
LAYER
  5
51
100
AcDbSymbolTableRecord
100
AcDbLayerTableRecord
  2
Cutout
 70
0
  6
CONTINUOUS
  0
ENDTAB
  0
TABLE
  2
STYLE
  5
3
330
0
100
AcDbSymbolTable
 70
     1
  0
STYLE
  5
11
330
3
100
AcDbSymbolTableRecord
100
AcDbTextStyleTableRecord
  2
STANDARD
 70
     0
 40
0.0
 41
1.0
 50
0.0
 71
     0
 42
2.5
  3
txt
  4

  0
ENDTAB
  0
TABLE
  2
VIEW
  5
6
330
0
100
AcDbSymbolTable
 70
     0
  0
ENDTAB
  0
TABLE
  2
UCS
  5
7
330
0
100
AcDbSymbolTable
 70
     0
  0
ENDTAB
  0
TABLE
  2
APPID
  5
9
330
0
100
AcDbSymbolTable
 70
     2
  0
APPID
  5
12
330
9
100
AcDbSymbolTableRecord
100
AcDbRegAppTableRecord
  2
ACAD
 70
     0
  0
ENDTAB
  0
TABLE
  2
DIMSTYLE
  5
A
330
0
100
AcDbSymbolTable
 70
     1
  0
DIMSTYLE
105
27
330
A
100
AcDbSymbolTableRecord
100
AcDbDimStyleTableRecord
  2
ISO-25
 70
     0
  3

  4

  5

  6

  7

 40
1.0
 41
2.5
 42
0.625
 43
3.75
 44
1.25
 45
0.0
 46
0.0
 47
0.0
 48
0.0
140
2.5
141
2.5
142
0.0
143
0.03937007874016
144
1.0
145
0.0
146
1.0
147
0.625
 71
     0
 72
     0
 73
     0
 74
     0
 75
     0
 76
     0
 77
     1
 78
     8
170
     0
171
     3
172
     1
173
     0
174
     0
175
     0
176
     0
177
     0
178
     0
270
     2
271
     2
272
     2
273
     2
274
     3
340
11
275
     0
280
     0
281
     0
282
     0
283
     0
284
     8
285
     0
286
     0
287
     3
288
     0
  0
ENDTAB
  0
TABLE
  2
BLOCK_RECORD
  5
1
330
0
100
AcDbSymbolTable
 70
     1
  0
BLOCK_RECORD
  5
1F
330
1
100
AcDbSymbolTableRecord
100
AcDbBlockTableRecord
  2
*MODEL_SPACE
  0
BLOCK_RECORD
  5
1B
330
1
100
AcDbSymbolTableRecord
100
AcDbBlockTableRecord
  2
*PAPER_SPACE
  0
ENDTAB
  0
ENDSEC
  0
SECTION
  2
BLOCKS
  0
BLOCK
  5
20
330
1F
100
AcDbEntity
  8
0
100
AcDbBlockBegin
  2
*MODEL_SPACE
 70
     0
 10
0.0
 20
0.0
 30
0.0
  3
*MODEL_SPACE
  1

  0
ENDBLK
  5
21
330
1F
100
AcDbEntity
  8
0
100
AcDbBlockEnd
  0
BLOCK
  5
1C
330
1B
100
AcDbEntity
 67
     1
  8
0
100
AcDbBlockBegin
  2
*PAPER_SPACE
  1

  0
ENDBLK
  5
1D
330
1B
100
AcDbEntity
 67
     1
  8
0
100
AcDbBlockEnd
  0
ENDSEC
  0
SECTION
  2
ENTITIES
  0
SPLINE
  5
100
100
AcDbEntity
  8
Cutout
 62
1
100
AcDbSpline
 70
8
 71
3
 72
8
 73
4
 74
0
 40
0
 40
0
 40
0
 40
0
 40
1
 40
1
 40
1
 40
1
 10
154.884435
 20
142.620989
 30
0.0
 10
154.955545
 20
142.620989
 30
0.0
 10
155.023742
 20
142.592741
 30
0.0
 10
155.074025
 20
142.542459
 30
0.0
  0
SPLINE
  5
101
100
AcDbEntity
  8
Cutout
 62
1
100
AcDbSpline
 70
8
 71
3
 72
8
 73
4
 74
0
 40
0
 40
0
 40
0
 40
0
 40
1
 40
1
 40
1
 40
1
 10
155.074025
 20
142.542459
 30
0.0
 10
155.124307
 20
142.492176
 30
0.0
 10
155.152555
 20
142.423979
 30
0.0
 10
155.152555
 20
142.352869
 30
0.0
  0
LWPOLYLINE
  5
102
100
AcDbEntity
  8
Cutout
 62
1
100
AcDbPolyline
 90
2
 70
0
 10
0.268120
 20
142.620989
 30
0.0
 10
154.884435
 20
142.620989
 30
0.0
  0
SPLINE
  5
103
100
AcDbEntity
  8
Cutout
 62
1
100
AcDbSpline
 70
8
 71
3
 72
8
 73
4
 74
0
 40
0
 40
0
 40
0
 40
0
 40
1
 40
1
 40
1
 40
1
 10
155.152555
 20
-0.129691
 30
0.0
 10
155.152555
 20
-0.200801
 30
0.0
 10
155.124307
 20
-0.268999
 30
0.0
 10
155.074025
 20
-0.319281
 30
0.0
  0
SPLINE
  5
104
100
AcDbEntity
  8
Cutout
 62
1
100
AcDbSpline
 70
8
 71
3
 72
8
 73
4
 74
0
 40
0
 40
0
 40
0
 40
0
 40
1
 40
1
 40
1
 40
1
 10
155.074025
 20
-0.319281
 30
0.0
 10
155.023742
 20
-0.369563
 30
0.0
 10
154.955545
 20
-0.397812
 30
0.0
 10
154.884435
 20
-0.397812
 30
0.0
  0
LWPOLYLINE
  5
105
100
AcDbEntity
  8
Cutout
 62
1
100
AcDbPolyline
 90
2
 70
0
 10
155.152555
 20
142.352869
 30
0.0
 10
155.152555
 20
-0.129691
 30
0.0
  0
SPLINE
  5
106
100
AcDbEntity
  8
Cutout
 62
1
100
AcDbSpline
 70
8
 71
3
 72
8
 73
4
 74
0
 40
0
 40
0
 40
0
 40
0
 40
1
 40
1
 40
1
 40
1
 10
0.268120
 20
-0.397812
 30
0.0
 10
0.197010
 20
-0.397812
 30
0.0
 10
0.128813
 20
-0.369563
 30
0.0
 10
0.078531
 20
-0.319281
 30
0.0
  0
SPLINE
  5
107
100
AcDbEntity
  8
Cutout
 62
1
100
AcDbSpline
 70
8
 71
3
 72
8
 73
4
 74
0
 40
0
 40
0
 40
0
 40
0
 40
1
 40
1
 40
1
 40
1
 10
0.078531
 20
-0.319281
 30
0.0
 10
0.028248
 20
-0.268999
 30
0.0
 10
0.000000
 20
-0.200801
 30
0.0
 10
0.000000
 20
-0.129691
 30
0.0
  0
LWPOLYLINE
  5
108
100
AcDbEntity
  8
Cutout
 62
1
100
AcDbPolyline
 90
2
 70
0
 10
154.884435
 20
-0.397812
 30
0.0
 10
0.268120
 20
-0.397812
 30
0.0
  0
SPLINE
  5
109
100
AcDbEntity
  8
Cutout
 62
1
100
AcDbSpline
 70
8
 71
3
 72
8
 73
4
 74
0
 40
0
 40
0
 40
0
 40
0
 40
1
 40
1
 40
1
 40
1
 10
0.000000
 20
142.352869
 30
0.0
 10
0.000000
 20
142.423979
 30
0.0
 10
0.028248
 20
142.492176
 30
0.0
 10
0.078531
 20
142.542459
 30
0.0
  0
SPLINE
  5
10a
100
AcDbEntity
  8
Cutout
 62
1
100
AcDbSpline
 70
8
 71
3
 72
8
 73
4
 74
0
 40
0
 40
0
 40
0
 40
0
 40
1
 40
1
 40
1
 40
1
 10
0.078531
 20
142.542459
 30
0.0
 10
0.128813
 20
142.592741
 30
0.0
 10
0.197010
 20
142.620989
 30
0.0
 10
0.268120
 20
142.620989
 30
0.0
  0
LWPOLYLINE
  5
10b
100
AcDbEntity
  8
Cutout
 62
1
100
AcDbPolyline
 90
2
 70
0
 10
0.000000
 20
-0.129691
 30
0.0
 10
0.000000
 20
142.352869
 30
0.0
  0
LWPOLYLINE
  5
10c
100
AcDbEntity
  8
Cutout
 62
1
100
AcDbPolyline
 90
1
 70
1
 10
0.268120
 20
142.620989
 30
0.0
  0
SPLINE
  5
10d
100
AcDbEntity
  8
Cutout
 62
7
100
AcDbSpline
 70
8
 71
3
 72
8
 73
4
 74
0
 40
0
 40
0
 40
0
 40
0
 40
1
 40
1
 40
1
 40
1
 10
147.499959
 20
142.620989
 30
0.0
 10
149.529553
 20
142.620989
 30
0.0
 10
151.476021
 20
141.814736
 30
0.0
 10
152.911162
 20
140.379596
 30
0.0
  0
SPLINE
  5
10e
100
AcDbEntity
  8
Cutout
 62
7
100
AcDbSpline
 70
8
 71
3
 72
8
 73
4
 74
0
 40
0
 40
0
 40
0
 40
0
 40
1
 40
1
 40
1
 40
1
 10
152.911162
 20
140.379596
 30
0.0
 10
154.346302
 20
138.944455
 30
0.0
 10
155.152555
 20
136.997988
 30
0.0
 10
155.152555
 20
134.968393
 30
0.0
  0
LWPOLYLINE
  5
10f
100
AcDbEntity
  8
Cutout
 62
7
100
AcDbPolyline
 90
2
 70
0
 10
7.652597
 20
142.620989
 30
0.0
 10
147.499959
 20
142.620989
 30
0.0
  0
SPLINE
  5
110
100
AcDbEntity
  8
Cutout
 62
7
100
AcDbSpline
 70
8
 71
3
 72
8
 73
4
 74
0
 40
0
 40
0
 40
0
 40
0
 40
1
 40
1
 40
1
 40
1
 10
155.152555
 20
7.254785
 30
0.0
 10
155.152555
 20
5.225190
 30
0.0
 10
154.346302
 20
3.278722
 30
0.0
 10
152.911162
 20
1.843582
 30
0.0
  0
SPLINE
  5
111
100
AcDbEntity
  8
Cutout
 62
7
100
AcDbSpline
 70
8
 71
3
 72
8
 73
4
 74
0
 40
0
 40
0
 40
0
 40
0
 40
1
 40
1
 40
1
 40
1
 10
152.911162
 20
1.843582
 30
0.0
 10
151.476021
 20
0.408442
 30
0.0
 10
149.529553
 20
-0.397812
 30
0.0
 10
147.499959
 20
-0.397812
 30
0.0
  0
LWPOLYLINE
  5
112
100
AcDbEntity
  8
Cutout
 62
7
100
AcDbPolyline
 90
2
 70
0
 10
155.152555
 20
134.968393
 30
0.0
 10
155.152555
 20
7.254785
 30
0.0
  0
SPLINE
  5
113
100
AcDbEntity
  8
Cutout
 62
7
100
AcDbSpline
 70
8
 71
3
 72
8
 73
4
 74
0
 40
0
 40
0
 40
0
 40
0
 40
1
 40
1
 40
1
 40
1
 10
7.652597
 20
-0.397812
 30
0.0
 10
5.623002
 20
-0.397812
 30
0.0
 10
3.676534
 20
0.408442
 30
0.0
 10
2.241394
 20
1.843582
 30
0.0
  0
SPLINE
  5
114
100
AcDbEntity
  8
Cutout
 62
7
100
AcDbSpline
 70
8
 71
3
 72
8
 73
4
 74
0
 40
0
 40
0
 40
0
 40
0
 40
1
 40
1
 40
1
 40
1
 10
2.241394
 20
1.843582
 30
0.0
 10
0.806253
 20
3.278722
 30
0.0
 10
0.000000
 20
5.225190
 30
0.0
 10
0.000000
 20
7.254785
 30
0.0
  0
LWPOLYLINE
  5
115
100
AcDbEntity
  8
Cutout
 62
7
100
AcDbPolyline
 90
2
 70
0
 10
147.499959
 20
-0.397812
 30
0.0
 10
7.652597
 20
-0.397812
 30
0.0
  0
SPLINE
  5
116
100
AcDbEntity
  8
Cutout
 62
7
100
AcDbSpline
 70
8
 71
3
 72
8
 73
4
 74
0
 40
0
 40
0
 40
0
 40
0
 40
1
 40
1
 40
1
 40
1
 10
0.000000
 20
134.968393
 30
0.0
 10
0.000000
 20
136.997988
 30
0.0
 10
0.806253
 20
138.944455
 30
0.0
 10
2.241394
 20
140.379596
 30
0.0
  0
SPLINE
  5
117
100
AcDbEntity
  8
Cutout
 62
7
100
AcDbSpline
 70
8
 71
3
 72
8
 73
4
 74
0
 40
0
 40
0
 40
0
 40
0
 40
1
 40
1
 40
1
 40
1
 10
2.241394
 20
140.379596
 30
0.0
 10
3.676534
 20
141.814736
 30
0.0
 10
5.623002
 20
142.620989
 30
0.0
 10
7.652597
 20
142.620989
 30
0.0
  0
LWPOLYLINE
  5
118
100
AcDbEntity
  8
Cutout
 62
7
100
AcDbPolyline
 90
2
 70
0
 10
0.000000
 20
7.254785
 30
0.0
 10
0.000000
 20
134.968393
 30
0.0
  0
LWPOLYLINE
  5
119
100
AcDbEntity
  8
Cutout
 62
7
100
AcDbPolyline
 90
1
 70
1
 10
7.652597
 20
142.620989
 30
0.0
  0
SPLINE
  5
11a
100
AcDbEntity
  8
Cutout
 62
7
100
AcDbSpline
 70
8
 71
3
 72
8
 73
4
 74
0
 40
0
 40
0
 40
0
 40
0
 40
1
 40
1
 40
1
 40
1
 10
152.101551
 20
141.930935
 30
0.0
 10
152.171020
 20
141.930935
 30
0.0
 10
152.237644
 20
141.903338
 30
0.0
 10
152.286766
 20
141.854216
 30
0.0
  0
SPLINE
  5
11b
100
AcDbEntity
  8
Cutout
 62
7
100
AcDbSpline
 70
8
 71
3
 72
8
 73
4
 74
0
 40
0
 40
0
 40
0
 40
0
 40
1
 40
1
 40
1
 40
1
 10
152.286766
 20
141.854216
 30
0.0
 10
152.335887
 20
141.805094
 30
0.0
 10
152.363484
 20
141.738470
 30
0.0
 10
152.363484
 20
141.669001
 30
0.0
  0
LWPOLYLINE
  5
11c
100
AcDbEntity
  8
Cutout
 62
7
100
AcDbPolyline
 90
2
 70
0
 10
2.906993
 20
141.930935
 30
0.0
 10
152.101551
 20
141.930935
 30
0.0
  0
SPLINE
  5
11d
100
AcDbEntity
  8
Cutout
 62
7
100
AcDbSpline
 70
8
 71
3
 72
8
 73
4
 74
0
 40
0
 40
0
 40
0
 40
0
 40
1
 40
1
 40
1
 40
1
 10
152.363484
 20
2.474447
 30
0.0
 10
152.363484
 20
2.329786
 30
0.0
 10
152.246212
 20
2.212514
 30
0.0
 10
152.101551
 20
2.212514
 30
0.0
  0
LWPOLYLINE
  5
11e
100
AcDbEntity
  8
Cutout
 62
7
100
AcDbPolyline
 90
2
 70
0
 10
152.363484
 20
141.669001
 30
0.0
 10
152.363484
 20
2.474447
 30
0.0
  0
SPLINE
  5
11f
100
AcDbEntity
  8
Cutout
 62
7
100
AcDbSpline
 70
8
 71
3
 72
8
 73
4
 74
0
 40
0
 40
0
 40
0
 40
0
 40
1
 40
1
 40
1
 40
1
 10
2.906993
 20
2.212514
 30
0.0
 10
2.837524
 20
2.212514
 30
0.0
 10
2.770901
 20
2.240111
 30
0.0
 10
2.721779
 20
2.289233
 30
0.0
  0
SPLINE
  5
120
100
AcDbEntity
  8
Cutout
 62
7
100
AcDbSpline
 70
8
 71
3
 72
8
 73
4
 74
0
 40
0
 40
0
 40
0
 40
0
 40
1
 40
1
 40
1
 40
1
 10
2.721779
 20
2.289233
 30
0.0
 10
2.672657
 20
2.338355
 30
0.0
 10
2.645060
 20
2.404978
 30
0.0
 10
2.645060
 20
2.474447
 30
0.0
  0
LWPOLYLINE
  5
121
100
AcDbEntity
  8
Cutout
 62
7
100
AcDbPolyline
 90
2
 70
0
 10
152.101551
 20
2.212514
 30
0.0
 10
2.906993
 20
2.212514
 30
0.0
  0
SPLINE
  5
122
100
AcDbEntity
  8
Cutout
 62
7
100
AcDbSpline
 70
8
 71
3
 72
8
 73
4
 74
0
 40
0
 40
0
 40
0
 40
0
 40
1
 40
1
 40
1
 40
1
 10
2.645060
 20
141.669001
 30
0.0
 10
2.645060
 20
141.738470
 30
0.0
 10
2.672657
 20
141.805094
 30
0.0
 10
2.721779
 20
141.854216
 30
0.0
  0
SPLINE
  5
123
100
AcDbEntity
  8
Cutout
 62
7
100
AcDbSpline
 70
8
 71
3
 72
8
 73
4
 74
0
 40
0
 40
0
 40
0
 40
0
 40
1
 40
1
 40
1
 40
1
 10
2.721779
 20
141.854216
 30
0.0
 10
2.770901
 20
141.903338
 30
0.0
 10
2.837524
 20
141.930935
 30
0.0
 10
2.906993
 20
141.930935
 30
0.0
  0
LWPOLYLINE
  5
124
100
AcDbEntity
  8
Cutout
 62
7
100
AcDbPolyline
 90
2
 70
0
 10
2.645060
 20
2.474447
 30
0.0
 10
2.645060
 20
141.669001
 30
0.0
  0
LWPOLYLINE
  5
125
100
AcDbEntity
  8
Cutout
 62
7
100
AcDbPolyline
 90
1
 70
1
 10
2.906993
 20
141.930935
 30
0.0
  0
SPLINE
  5
126
100
AcDbEntity
  8
Cutout
 62
7
100
AcDbSpline
 70
8
 71
3
 72
8
 73
4
 74
0
 40
0
 40
0
 40
0
 40
0
 40
1
 40
1
 40
1
 40
1
 10
47.093814
 20
118.753832
 30
0.0
 10
47.470151
 20
118.753832
 30
0.0
 10
47.831075
 20
118.604333
 30
0.0
 10
48.097186
 20
118.338222
 30
0.0
  0
SPLINE
  5
127
100
AcDbEntity
  8
Cutout
 62
7
100
AcDbSpline
 70
8
 71
3
 72
8
 73
4
 74
0
 40
0
 40
0
 40
0
 40
0
 40
1
 40
1
 40
1
 40
1
 10
48.097186
 20
118.338222
 30
0.0
 10
48.363297
 20
118.072111
 30
0.0
 10
48.512797
 20
117.711187
 30
0.0
 10
48.512797
 20
117.334849
 30
0.0
  0
LWPOLYLINE
  5
128
100
AcDbEntity
  8
Cutout
 62
7
100
AcDbPolyline
 90
2
 70
0
 10
36.851016
 20
118.753832
 30
0.0
 10
47.093814
 20
118.753832
 30
0.0
  0
SPLINE
  5
129
100
AcDbEntity
  8
Cutout
 62
7
100
AcDbSpline
 70
8
 71
3
 72
8
 73
4
 74
0
 40
0
 40
0
 40
0
 40
0
 40
1
 40
1
 40
1
 40
1
 10
48.512797
 20
103.039318
 30
0.0
 10
48.512797
 20
102.662980
 30
0.0
 10
48.363297
 20
102.302056
 30
0.0
 10
48.097186
 20
102.035945
 30
0.0
  0
SPLINE
  5
12a
100
AcDbEntity
  8
Cutout
 62
7
100
AcDbSpline
 70
8
 71
3
 72
8
 73
4
 74
0
 40
0
 40
0
 40
0
 40
0
 40
1
 40
1
 40
1
 40
1
 10
48.097186
 20
102.035945
 30
0.0
 10
47.831075
 20
101.769834
 30
0.0
 10
47.470151
 20
101.620334
 30
0.0
 10
47.093814
 20
101.620334
 30
0.0
  0
LWPOLYLINE
  5
12b
100
AcDbEntity
  8
Cutout
 62
7
100
AcDbPolyline
 90
2
 70
0
 10
48.512797
 20
117.334849
 30
0.0
 10
48.512797
 20
103.039318
 30
0.0
  0
SPLINE
  5
12c
100
AcDbEntity
  8
Cutout
 62
7
100
AcDbSpline
 70
8
 71
3
 72
8
 73
4
 74
0
 40
0
 40
0
 40
0
 40
0
 40
1
 40
1
 40
1
 40
1
 10
36.851016
 20
101.620334
 30
0.0
 10
36.474678
 20
101.620334
 30
0.0
 10
36.113755
 20
101.769834
 30
0.0
 10
35.847644
 20
102.035945
 30
0.0
  0
SPLINE
  5
12d
100
AcDbEntity
  8
Cutout
 62
7
100
AcDbSpline
 70
8
 71
3
 72
8
 73
4
 74
0
 40
0
 40
0
 40
0
 40
0
 40
1
 40
1
 40
1
 40
1
 10
35.847644
 20
102.035945
 30
0.0
 10
35.581533
 20
102.302056
 30
0.0
 10
35.432033
 20
102.662980
 30
0.0
 10
35.432033
 20
103.039318
 30
0.0
  0
LWPOLYLINE
  5
12e
100
AcDbEntity
  8
Cutout
 62
7
100
AcDbPolyline
 90
2
 70
0
 10
47.093814
 20
101.620334
 30
0.0
 10
36.851016
 20
101.620334
 30
0.0
  0
SPLINE
  5
12f
100
AcDbEntity
  8
Cutout
 62
7
100
AcDbSpline
 70
8
 71
3
 72
8
 73
4
 74
0
 40
0
 40
0
 40
0
 40
0
 40
1
 40
1
 40
1
 40
1
 10
35.432033
 20
117.334849
 30
0.0
 10
35.432033
 20
117.711187
 30
0.0
 10
35.581533
 20
118.072111
 30
0.0
 10
35.847644
 20
118.338222
 30
0.0
  0
SPLINE
  5
130
100
AcDbEntity
  8
Cutout
 62
7
100
AcDbSpline
 70
8
 71
3
 72
8
 73
4
 74
0
 40
0
 40
0
 40
0
 40
0
 40
1
 40
1
 40
1
 40
1
 10
35.847644
 20
118.338222
 30
0.0
 10
36.113755
 20
118.604333
 30
0.0
 10
36.474678
 20
118.753832
 30
0.0
 10
36.851016
 20
118.753832
 30
0.0
  0
LWPOLYLINE
  5
131
100
AcDbEntity
  8
Cutout
 62
7
100
AcDbPolyline
 90
2
 70
0
 10
35.432033
 20
103.039318
 30
0.0
 10
35.432033
 20
117.334849
 30
0.0
  0
LWPOLYLINE
  5
132
100
AcDbEntity
  8
Cutout
 62
7
100
AcDbPolyline
 90
1
 70
1
 10
36.851016
 20
118.753832
 30
0.0
  0
SPLINE
  5
133
100
AcDbEntity
  8
Cutout
 62
7
100
AcDbSpline
 70
8
 71
3
 72
8
 73
4
 74
0
 40
0
 40
0
 40
0
 40
0
 40
1
 40
1
 40
1
 40
1
 10
67.066553
 20
118.753832
 30
0.0
 10
67.442890
 20
118.753832
 30
0.0
 10
67.803814
 20
118.604333
 30
0.0
 10
68.069925
 20
118.338222
 30
0.0
  0
SPLINE
  5
134
100
AcDbEntity
  8
Cutout
 62
7
100
AcDbSpline
 70
8
 71
3
 72
8
 73
4
 74
0
 40
0
 40
0
 40
0
 40
0
 40
1
 40
1
 40
1
 40
1
 10
68.069925
 20
118.338222
 30
0.0
 10
68.336036
 20
118.072111
 30
0.0
 10
68.485536
 20
117.711187
 30
0.0
 10
68.485536
 20
117.334849
 30
0.0
  0
LWPOLYLINE
  5
135
100
AcDbEntity
  8
Cutout
 62
7
100
AcDbPolyline
 90
2
 70
0
 10
56.823755
 20
118.753832
 30
0.0
 10
67.066553
 20
118.753832
 30
0.0
  0
SPLINE
  5
136
100
AcDbEntity
  8
Cutout
 62
7
100
AcDbSpline
 70
8
 71
3
 72
8
 73
4
 74
0
 40
0
 40
0
 40
0
 40
0
 40
1
 40
1
 40
1
 40
1
 10
68.485536
 20
103.039318
 30
0.0
 10
68.485536
 20
102.662980
 30
0.0
 10
68.336036
 20
102.302056
 30
0.0
 10
68.069925
 20
102.035945
 30
0.0
  0
SPLINE
  5
137
100
AcDbEntity
  8
Cutout
 62
7
100
AcDbSpline
 70
8
 71
3
 72
8
 73
4
 74
0
 40
0
 40
0
 40
0
 40
0
 40
1
 40
1
 40
1
 40
1
 10
68.069925
 20
102.035945
 30
0.0
 10
67.803814
 20
101.769834
 30
0.0
 10
67.442890
 20
101.620334
 30
0.0
 10
67.066553
 20
101.620334
 30
0.0
  0
LWPOLYLINE
  5
138
100
AcDbEntity
  8
Cutout
 62
7
100
AcDbPolyline
 90
2
 70
0
 10
68.485536
 20
117.334849
 30
0.0
 10
68.485536
 20
103.039318
 30
0.0
  0
SPLINE
  5
139
100
AcDbEntity
  8
Cutout
 62
7
100
AcDbSpline
 70
8
 71
3
 72
8
 73
4
 74
0
 40
0
 40
0
 40
0
 40
0
 40
1
 40
1
 40
1
 40
1
 10
56.823755
 20
101.620334
 30
0.0
 10
56.447417
 20
101.620334
 30
0.0
 10
56.086493
 20
101.769834
 30
0.0
 10
55.820382
 20
102.035945
 30
0.0
  0
SPLINE
  5
13a
100
AcDbEntity
  8
Cutout
 62
7
100
AcDbSpline
 70
8
 71
3
 72
8
 73
4
 74
0
 40
0
 40
0
 40
0
 40
0
 40
1
 40
1
 40
1
 40
1
 10
55.820382
 20
102.035945
 30
0.0
 10
55.554271
 20
102.302056
 30
0.0
 10
55.404772
 20
102.662980
 30
0.0
 10
55.404772
 20
103.039318
 30
0.0
  0
LWPOLYLINE
  5
13b
100
AcDbEntity
  8
Cutout
 62
7
100
AcDbPolyline
 90
2
 70
0
 10
67.066553
 20
101.620334
 30
0.0
 10
56.823755
 20
101.620334
 30
0.0
  0
SPLINE
  5
13c
100
AcDbEntity
  8
Cutout
 62
7
100
AcDbSpline
 70
8
 71
3
 72
8
 73
4
 74
0
 40
0
 40
0
 40
0
 40
0
 40
1
 40
1
 40
1
 40
1
 10
55.404772
 20
117.334849
 30
0.0
 10
55.404772
 20
117.711187
 30
0.0
 10
55.554271
 20
118.072111
 30
0.0
 10
55.820382
 20
118.338222
 30
0.0
  0
SPLINE
  5
13d
100
AcDbEntity
  8
Cutout
 62
7
100
AcDbSpline
 70
8
 71
3
 72
8
 73
4
 74
0
 40
0
 40
0
 40
0
 40
0
 40
1
 40
1
 40
1
 40
1
 10
55.820382
 20
118.338222
 30
0.0
 10
56.086493
 20
118.604333
 30
0.0
 10
56.447417
 20
118.753832
 30
0.0
 10
56.823755
 20
118.753832
 30
0.0
  0
LWPOLYLINE
  5
13e
100
AcDbEntity
  8
Cutout
 62
7
100
AcDbPolyline
 90
2
 70
0
 10
55.404772
 20
103.039318
 30
0.0
 10
55.404772
 20
117.334849
 30
0.0
  0
LWPOLYLINE
  5
13f
100
AcDbEntity
  8
Cutout
 62
7
100
AcDbPolyline
 90
1
 70
1
 10
56.823755
 20
118.753832
 30
0.0
  0
SPLINE
  5
140
100
AcDbEntity
  8
Cutout
 62
7
100
AcDbSpline
 70
8
 71
3
 72
8
 73
4
 74
0
 40
0
 40
0
 40
0
 40
0
 40
1
 40
1
 40
1
 40
1
 10
99.191093
 20
118.753832
 30
0.0
 10
99.567431
 20
118.753832
 30
0.0
 10
99.928355
 20
118.604333
 30
0.0
 10
100.194466
 20
118.338222
 30
0.0
  0
SPLINE
  5
141
100
AcDbEntity
  8
Cutout
 62
7
100
AcDbSpline
 70
8
 71
3
 72
8
 73
4
 74
0
 40
0
 40
0
 40
0
 40
0
 40
1
 40
1
 40
1
 40
1
 10
100.194466
 20
118.338222
 30
0.0
 10
100.460577
 20
118.072111
 30
0.0
 10
100.610076
 20
117.711187
 30
0.0
 10
100.610076
 20
117.334849
 30
0.0
  0
LWPOLYLINE
  5
142
100
AcDbEntity
  8
Cutout
 62
7
100
AcDbPolyline
 90
2
 70
0
 10
88.948296
 20
118.753832
 30
0.0
 10
99.191093
 20
118.753832
 30
0.0
  0
SPLINE
  5
143
100
AcDbEntity
  8
Cutout
 62
7
100
AcDbSpline
 70
8
 71
3
 72
8
 73
4
 74
0
 40
0
 40
0
 40
0
 40
0
 40
1
 40
1
 40
1
 40
1
 10
100.610076
 20
103.039318
 30
0.0
 10
100.610076
 20
102.662980
 30
0.0
 10
100.460577
 20
102.302056
 30
0.0
 10
100.194466
 20
102.035945
 30
0.0
  0
SPLINE
  5
144
100
AcDbEntity
  8
Cutout
 62
7
100
AcDbSpline
 70
8
 71
3
 72
8
 73
4
 74
0
 40
0
 40
0
 40
0
 40
0
 40
1
 40
1
 40
1
 40
1
 10
100.194466
 20
102.035945
 30
0.0
 10
99.928355
 20
101.769834
 30
0.0
 10
99.567431
 20
101.620334
 30
0.0
 10
99.191093
 20
101.620334
 30
0.0
  0
LWPOLYLINE
  5
145
100
AcDbEntity
  8
Cutout
 62
7
100
AcDbPolyline
 90
2
 70
0
 10
100.610076
 20
117.334849
 30
0.0
 10
100.610076
 20
103.039318
 30
0.0
  0
SPLINE
  5
146
100
AcDbEntity
  8
Cutout
 62
7
100
AcDbSpline
 70
8
 71
3
 72
8
 73
4
 74
0
 40
0
 40
0
 40
0
 40
0
 40
1
 40
1
 40
1
 40
1
 10
88.948296
 20
101.620334
 30
0.0
 10
88.571958
 20
101.620334
 30
0.0
 10
88.211034
 20
101.769834
 30
0.0
 10
87.944923
 20
102.035945
 30
0.0
  0
SPLINE
  5
147
100
AcDbEntity
  8
Cutout
 62
7
100
AcDbSpline
 70
8
 71
3
 72
8
 73
4
 74
0
 40
0
 40
0
 40
0
 40
0
 40
1
 40
1
 40
1
 40
1
 10
87.944923
 20
102.035945
 30
0.0
 10
87.678812
 20
102.302056
 30
0.0
 10
87.529312
 20
102.662980
 30
0.0
 10
87.529312
 20
103.039318
 30
0.0
  0
LWPOLYLINE
  5
148
100
AcDbEntity
  8
Cutout
 62
7
100
AcDbPolyline
 90
2
 70
0
 10
99.191093
 20
101.620334
 30
0.0
 10
88.948296
 20
101.620334
 30
0.0
  0
SPLINE
  5
149
100
AcDbEntity
  8
Cutout
 62
7
100
AcDbSpline
 70
8
 71
3
 72
8
 73
4
 74
0
 40
0
 40
0
 40
0
 40
0
 40
1
 40
1
 40
1
 40
1
 10
87.529312
 20
117.334849
 30
0.0
 10
87.529312
 20
117.711187
 30
0.0
 10
87.678812
 20
118.072111
 30
0.0
 10
87.944923
 20
118.338222
 30
0.0
  0
SPLINE
  5
14a
100
AcDbEntity
  8
Cutout
 62
7
100
AcDbSpline
 70
8
 71
3
 72
8
 73
4
 74
0
 40
0
 40
0
 40
0
 40
0
 40
1
 40
1
 40
1
 40
1
 10
87.944923
 20
118.338222
 30
0.0
 10
88.211034
 20
118.604333
 30
0.0
 10
88.571958
 20
118.753832
 30
0.0
 10
88.948296
 20
118.753832
 30
0.0
  0
LWPOLYLINE
  5
14b
100
AcDbEntity
  8
Cutout
 62
7
100
AcDbPolyline
 90
2
 70
0
 10
87.529312
 20
103.039318
 30
0.0
 10
87.529312
 20
117.334849
 30
0.0
  0
LWPOLYLINE
  5
14c
100
AcDbEntity
  8
Cutout
 62
7
100
AcDbPolyline
 90
1
 70
1
 10
88.948296
 20
118.753832
 30
0.0
  0
SPLINE
  5
14d
100
AcDbEntity
  8
Cutout
 62
7
100
AcDbSpline
 70
8
 71
3
 72
8
 73
4
 74
0
 40
0
 40
0
 40
0
 40
0
 40
1
 40
1
 40
1
 40
1
 10
119.430545
 20
118.753832
 30
0.0
 10
119.806883
 20
118.753832
 30
0.0
 10
120.167807
 20
118.604333
 30
0.0
 10
120.433918
 20
118.338222
 30
0.0
  0
SPLINE
  5
14e
100
AcDbEntity
  8
Cutout
 62
7
100
AcDbSpline
 70
8
 71
3
 72
8
 73
4
 74
0
 40
0
 40
0
 40
0
 40
0
 40
1
 40
1
 40
1
 40
1
 10
120.433918
 20
118.338222
 30
0.0
 10
120.700029
 20
118.072111
 30
0.0
 10
120.849528
 20
117.711187
 30
0.0
 10
120.849528
 20
117.334849
 30
0.0
  0
LWPOLYLINE
  5
14f
100
AcDbEntity
  8
Cutout
 62
7
100
AcDbPolyline
 90
2
 70
0
 10
109.187748
 20
118.753832
 30
0.0
 10
119.430545
 20
118.753832
 30
0.0
  0
SPLINE
  5
150
100
AcDbEntity
  8
Cutout
 62
7
100
AcDbSpline
 70
8
 71
3
 72
8
 73
4
 74
0
 40
0
 40
0
 40
0
 40
0
 40
1
 40
1
 40
1
 40
1
 10
120.849528
 20
103.039318
 30
0.0
 10
120.849528
 20
102.662980
 30
0.0
 10
120.700029
 20
102.302056
 30
0.0
 10
120.433918
 20
102.035945
 30
0.0
  0
SPLINE
  5
151
100
AcDbEntity
  8
Cutout
 62
7
100
AcDbSpline
 70
8
 71
3
 72
8
 73
4
 74
0
 40
0
 40
0
 40
0
 40
0
 40
1
 40
1
 40
1
 40
1
 10
120.433918
 20
102.035945
 30
0.0
 10
120.167807
 20
101.769834
 30
0.0
 10
119.806883
 20
101.620334
 30
0.0
 10
119.430545
 20
101.620334
 30
0.0
  0
LWPOLYLINE
  5
152
100
AcDbEntity
  8
Cutout
 62
7
100
AcDbPolyline
 90
2
 70
0
 10
120.849528
 20
117.334849
 30
0.0
 10
120.849528
 20
103.039318
 30
0.0
  0
SPLINE
  5
153
100
AcDbEntity
  8
Cutout
 62
7
100
AcDbSpline
 70
8
 71
3
 72
8
 73
4
 74
0
 40
0
 40
0
 40
0
 40
0
 40
1
 40
1
 40
1
 40
1
 10
109.187748
 20
101.620334
 30
0.0
 10
108.811410
 20
101.620334
 30
0.0
 10
108.450486
 20
101.769834
 30
0.0
 10
108.184375
 20
102.035945
 30
0.0
  0
SPLINE
  5
154
100
AcDbEntity
  8
Cutout
 62
7
100
AcDbSpline
 70
8
 71
3
 72
8
 73
4
 74
0
 40
0
 40
0
 40
0
 40
0
 40
1
 40
1
 40
1
 40
1
 10
108.184375
 20
102.035945
 30
0.0
 10
107.918264
 20
102.302056
 30
0.0
 10
107.768764
 20
102.662980
 30
0.0
 10
107.768764
 20
103.039318
 30
0.0
  0
LWPOLYLINE
  5
155
100
AcDbEntity
  8
Cutout
 62
7
100
AcDbPolyline
 90
2
 70
0
 10
119.430545
 20
101.620334
 30
0.0
 10
109.187748
 20
101.620334
 30
0.0
  0
SPLINE
  5
156
100
AcDbEntity
  8
Cutout
 62
7
100
AcDbSpline
 70
8
 71
3
 72
8
 73
4
 74
0
 40
0
 40
0
 40
0
 40
0
 40
1
 40
1
 40
1
 40
1
 10
107.768764
 20
117.334849
 30
0.0
 10
107.768764
 20
117.711187
 30
0.0
 10
107.918264
 20
118.072111
 30
0.0
 10
108.184375
 20
118.338222
 30
0.0
  0
SPLINE
  5
157
100
AcDbEntity
  8
Cutout
 62
7
100
AcDbSpline
 70
8
 71
3
 72
8
 73
4
 74
0
 40
0
 40
0
 40
0
 40
0
 40
1
 40
1
 40
1
 40
1
 10
108.184375
 20
118.338222
 30
0.0
 10
108.450486
 20
118.604333
 30
0.0
 10
108.811410
 20
118.753832
 30
0.0
 10
109.187748
 20
118.753832
 30
0.0
  0
LWPOLYLINE
  5
158
100
AcDbEntity
  8
Cutout
 62
7
100
AcDbPolyline
 90
2
 70
0
 10
107.768764
 20
103.039318
 30
0.0
 10
107.768764
 20
117.334849
 30
0.0
  0
SPLINE
  5
159
100
AcDbEntity
  8
Cutout
 62
7
100
AcDbSpline
 70
8
 71
3
 72
8
 73
4
 74
0
 40
0
 40
0
 40
0
 40
0
 40
1
 40
1
 40
1
 40
1
 10
93.729095
 20
88.225068
 30
0.0
 10
92.566849
 20
88.225068
 30
0.0
 10
91.519046
 20
87.524949
 30
0.0
 10
91.074274
 20
86.451174
 30
0.0
  0
SPLINE
  5
15a
100
AcDbEntity
  8
Cutout
 62
7
100
AcDbSpline
 70
8
 71
3
 72
8
 73
4
 74
0
 40
0
 40
0
 40
0
 40
0
 40
1
 40
1
 40
1
 40
1
 10
91.074274
 20
86.451174
 30
0.0
 10
90.629502
 20
85.377399
 30
0.0
 10
90.875351
 20
84.141431
 30
0.0
 10
91.697183
 20
83.319599
 30
0.0
  0
SPLINE
  5
15b
100
AcDbEntity
  8
Cutout
 62
7
100
AcDbSpline
 70
8
 71
3
 72
8
 73
4
 74
0
 40
0
 40
0
 40
0
 40
0
 40
1
 40
1
 40
1
 40
1
 10
91.697183
 20
83.319599
 30
0.0
 10
92.519015
 20
82.497767
 30
0.0
 10
93.754983
 20
82.251918
 30
0.0
 10
94.828758
 20
82.696690
 30
0.0
  0
SPLINE
  5
15c
100
AcDbEntity
  8
Cutout
 62
7
100
AcDbSpline
 70
8
 71
3
 72
8
 73
4
 74
0
 40
0
 40
0
 40
0
 40
0
 40
1
 40
1
 40
1
 40
1
 10
94.828758
 20
82.696690
 30
0.0
 10
95.902532
 20
83.141462
 30
0.0
 10
96.602652
 20
84.189266
 30
0.0
 10
96.602652
 20
85.351511
 30
0.0
  0
SPLINE
  5
15d
100
AcDbEntity
  8
Cutout
 62
7
100
AcDbSpline
 70
8
 71
3
 72
8
 73
4
 74
0
 40
0
 40
0
 40
0
 40
0
 40
1
 40
1
 40
1
 40
1
 10
96.602652
 20
85.351511
 30
0.0
 10
96.602652
 20
86.938533
 30
0.0
 10
95.316117
 20
88.225068
 30
0.0
 10
93.729095
 20
88.225068
 30
0.0
  0
LWPOLYLINE
  5
15e
100
AcDbEntity
  8
Cutout
 62
7
100
AcDbPolyline
 90
1
 70
1
 10
109.187748
 20
118.753832
 30
0.0
  0
SPLINE
  5
15f
100
AcDbEntity
  8
Cutout
 62
7
100
AcDbSpline
 70
8
 71
3
 72
8
 73
4
 74
0
 40
0
 40
0
 40
0
 40
0
 40
1
 40
1
 40
1
 40
1
 10
125.553894
 20
88.134160
 30
0.0
 10
124.391648
 20
88.134160
 30
0.0
 10
123.343845
 20
87.434040
 30
0.0
 10
122.899073
 20
86.360266
 30
0.0
  0
SPLINE
  5
160
100
AcDbEntity
  8
Cutout
 62
7
100
AcDbSpline
 70
8
 71
3
 72
8
 73
4
 74
0
 40
0
 40
0
 40
0
 40
0
 40
1
 40
1
 40
1
 40
1
 10
122.899073
 20
86.360266
 30
0.0
 10
122.454301
 20
85.286491
 30
0.0
 10
122.700150
 20
84.050523
 30
0.0
 10
123.521982
 20
83.228691
 30
0.0
  0
SPLINE
  5
161
100
AcDbEntity
  8
Cutout
 62
7
100
AcDbSpline
 70
8
 71
3
 72
8
 73
4
 74
0
 40
0
 40
0
 40
0
 40
0
 40
1
 40
1
 40
1
 40
1
 10
123.521982
 20
83.228691
 30
0.0
 10
124.343814
 20
82.406859
 30
0.0
 10
125.579782
 20
82.161010
 30
0.0
 10
126.653557
 20
82.605782
 30
0.0
  0
SPLINE
  5
162
100
AcDbEntity
  8
Cutout
 62
7
100
AcDbSpline
 70
8
 71
3
 72
8
 73
4
 74
0
 40
0
 40
0
 40
0
 40
0
 40
1
 40
1
 40
1
 40
1
 10
126.653557
 20
82.605782
 30
0.0
 10
127.727332
 20
83.050554
 30
0.0
 10
128.427451
 20
84.098357
 30
0.0
 10
128.427451
 20
85.260603
 30
0.0
  0
SPLINE
  5
163
100
AcDbEntity
  8
Cutout
 62
7
100
AcDbSpline
 70
8
 71
3
 72
8
 73
4
 74
0
 40
0
 40
0
 40
0
 40
0
 40
1
 40
1
 40
1
 40
1
 10
128.427451
 20
85.260603
 30
0.0
 10
128.427451
 20
86.847625
 30
0.0
 10
127.140916
 20
88.134160
 30
0.0
 10
125.553894
 20
88.134160
 30
0.0
  0
LWPOLYLINE
  5
164
100
AcDbEntity
  8
Cutout
 62
7
100
AcDbPolyline
 90
1
 70
1
 10
93.729095
 20
88.225068
 30
0.0
  0
SPLINE
  5
165
100
AcDbEntity
  8
Cutout
 62
7
100
AcDbSpline
 70
8
 71
3
 72
8
 73
4
 74
0
 40
0
 40
0
 40
0
 40
0
 40
1
 40
1
 40
1
 40
1
 10
61.768474
 20
87.626720
 30
0.0
 10
60.804863
 20
87.626720
 30
0.0
 10
59.936136
 20
87.046255
 30
0.0
 10
59.567378
 20
86.155994
 30
0.0
  0
SPLINE
  5
166
100
AcDbEntity
  8
Cutout
 62
7
100
AcDbSpline
 70
8
 71
3
 72
8
 73
4
 74
0
 40
0
 40
0
 40
0
 40
0
 40
1
 40
1
 40
1
 40
1
 10
59.567378
 20
86.155994
 30
0.0
 10
59.198620
 20
85.265734
 30
0.0
 10
59.402452
 20
84.241000
 30
0.0
 10
60.083828
 20
83.559624
 30
0.0
  0
SPLINE
  5
167
100
AcDbEntity
  8
Cutout
 62
7
100
AcDbSpline
 70
8
 71
3
 72
8
 73
4
 74
0
 40
0
 40
0
 40
0
 40
0
 40
1
 40
1
 40
1
 40
1
 10
60.083828
 20
83.559624
 30
0.0
 10
60.765204
 20
82.878248
 30
0.0
 10
61.789938
 20
82.674416
 30
0.0
 10
62.680198
 20
83.043174
 30
0.0
  0
SPLINE
  5
168
100
AcDbEntity
  8
Cutout
 62
7
100
AcDbSpline
 70
8
 71
3
 72
8
 73
4
 74
0
 40
0
 40
0
 40
0
 40
0
 40
1
 40
1
 40
1
 40
1
 10
62.680198
 20
83.043174
 30
0.0
 10
63.570459
 20
83.411932
 30
0.0
 10
64.150924
 20
84.280659
 30
0.0
 10
64.150924
 20
85.244270
 30
0.0
  0
SPLINE
  5
169
100
AcDbEntity
  8
Cutout
 62
7
100
AcDbSpline
 70
8
 71
3
 72
8
 73
4
 74
0
 40
0
 40
0
 40
0
 40
0
 40
1
 40
1
 40
1
 40
1
 10
64.150924
 20
85.244270
 30
0.0
 10
64.150924
 20
85.876135
 30
0.0
 10
63.899917
 20
86.482120
 30
0.0
 10
63.453121
 20
86.928916
 30
0.0
  0
SPLINE
  5
16a
100
AcDbEntity
  8
Cutout
 62
7
100
AcDbSpline
 70
8
 71
3
 72
8
 73
4
 74
0
 40
0
 40
0
 40
0
 40
0
 40
1
 40
1
 40
1
 40
1
 10
63.453121
 20
86.928916
 30
0.0
 10
63.006325
 20
87.375712
 30
0.0
 10
62.400339
 20
87.626720
 30
0.0
 10
61.768474
 20
87.626720
 30
0.0
  0
LWPOLYLINE
  5
16b
100
AcDbEntity
  8
Cutout
 62
7
100
AcDbPolyline
 90
1
 70
1
 10
125.553894
 20
88.134160
 30
0.0
  0
SPLINE
  5
16c
100
AcDbEntity
  8
Cutout
 62
7
100
AcDbSpline
 70
8
 71
3
 72
8
 73
4
 74
0
 40
0
 40
0
 40
0
 40
0
 40
1
 40
1
 40
1
 40
1
 10
29.583405
 20
87.707541
 30
0.0
 10
28.591418
 20
87.707541
 30
0.0
 10
27.697108
 20
87.109982
 30
0.0
 10
27.317491
 20
86.193505
 30
0.0
  0
SPLINE
  5
16d
100
AcDbEntity
  8
Cutout
 62
7
100
AcDbSpline
 70
8
 71
3
 72
8
 73
4
 74
0
 40
0
 40
0
 40
0
 40
0
 40
1
 40
1
 40
1
 40
1
 10
27.317491
 20
86.193505
 30
0.0
 10
26.937874
 20
85.277028
 30
0.0
 10
27.147709
 20
84.222118
 30
0.0
 10
27.849150
 20
83.520677
 30
0.0
  0
SPLINE
  5
16e
100
AcDbEntity
  8
Cutout
 62
7
100
AcDbSpline
 70
8
 71
3
 72
8
 73
4
 74
0
 40
0
 40
0
 40
0
 40
0
 40
1
 40
1
 40
1
 40
1
 10
27.849150
 20
83.520677
 30
0.0
 10
28.550591
 20
82.819236
 30
0.0
 10
29.605501
 20
82.609401
 30
0.0
 10
30.521978
 20
82.989018
 30
0.0
  0
SPLINE
  5
16f
100
AcDbEntity
  8
Cutout
 62
7
100
AcDbSpline
 70
8
 71
3
 72
8
 73
4
 74
0
 40
0
 40
0
 40
0
 40
0
 40
1
 40
1
 40
1
 40
1
 10
30.521978
 20
82.989018
 30
0.0
 10
31.438455
 20
83.368636
 30
0.0
 10
32.036013
 20
84.262945
 30
0.0
 10
32.036013
 20
85.254933
 30
0.0
  0
SPLINE
  5
170
100
AcDbEntity
  8
Cutout
 62
7
100
AcDbSpline
 70
8
 71
3
 72
8
 73
4
 74
0
 40
0
 40
0
 40
0
 40
0
 40
1
 40
1
 40
1
 40
1
 10
32.036013
 20
85.254933
 30
0.0
 10
32.036013
 20
85.905405
 30
0.0
 10
31.777614
 20
86.529235
 30
0.0
 10
31.317661
 20
86.989189
 30
0.0
  0
SPLINE
  5
171
100
AcDbEntity
  8
Cutout
 62
7
100
AcDbSpline
 70
8
 71
3
 72
8
 73
4
 74
0
 40
0
 40
0
 40
0
 40
0
 40
1
 40
1
 40
1
 40
1
 10
31.317661
 20
86.989189
 30
0.0
 10
30.857708
 20
87.449142
 30
0.0
 10
30.233877
 20
87.707541
 30
0.0
 10
29.583405
 20
87.707541
 30
0.0
  0
LWPOLYLINE
  5
172
100
AcDbEntity
  8
Cutout
 62
7
100
AcDbPolyline
 90
1
 70
1
 10
61.768474
 20
87.626720
 30
0.0
  0
LWPOLYLINE
  5
173
100
AcDbEntity
  8
Cutout
 62
7
100
AcDbPolyline
 90
1
 70
1
 10
29.583405
 20
87.707541
 30
0.0
  0
ENDSEC
  0
SECTION
  2
OBJECTS
  0
DICTIONARY
  5
C
330
0
100
AcDbDictionary
  3
ACAD_GROUP
350
D
  3
ACAD_MLINESTYLE
350
17
  0
DICTIONARY
  5
D
330
C
100
AcDbDictionary
  0
DICTIONARY
  5
1A
330
C
100
AcDbDictionary
  0
DICTIONARY
  5
17
330
C
100
AcDbDictionary
  3
STANDARD
350
18
  0
DICTIONARY
  5
19
330
C
100
AcDbDictionary
  0
ENDSEC
  0
EOF
