0
SECTION
2
HEADER
9
$INSUNITS
70
4
9
$ACADVER
1
AC1014
9
$HANDSEED
5
FFFF
0
ENDSEC
0
SECTION
2
TABLES
0
TABLE
2
VPORT
5
8
100
AcDbSymbolTable
0
ENDTAB
0
TABLE
2
LTYPE
5
5
100
AcDbSymbolTable
0
LTYPE
5
14
100
AcDbSymbolTableRecord
100
AcDbLinetypeTableRecord
2
BYBLOCK
70
0
0
LTYPE
5
15
100
AcDbSymbolTableRecord
100
AcDbLinetypeTableRecord
2
BYLAYER
70
0
0
ENDTAB
0
TABLE
2
LAYER
5
2
100
AcDbSymbolTable
70
2
0
LAYER
5
50
100
AcDbSymbolTableRecord
100
AcDbLayerTableRecord
2
0
70
0
6
CONTINUOUS
0
ENDTAB
0
TABLE
2
STYLE
5
3
100
AcDbSymbolTable
70
1
0
STYLE
5
11
100
AcDbSymbolTableRecord
100
AcDbTextStyleTableRecord
2
STANDARD
70
0
0
ENDTAB
0
TABLE
2
VIEW
5
6
100
AcDbSymbolTable
70
0
0
ENDTAB
0
TABLE
2
UCS
5
7
100
AcDbSymbolTable
70
0
0
ENDTAB
0
TABLE
2
APPID
5
9
100
AcDbSymbolTable
70
2
0
APPID
5
12
100
AcDbSymbolTableRecord
100
AcDbRegAppTableRecord
2
ACAD
70
0
0
ENDTAB
0
TABLE
2
DIMSTYLE
5
A
100
AcDbSymbolTable
70
1
0
ENDTAB
0
TABLE
2
BLOCK_RECORD
5
1
100
AcDbSymbolTable
70
1
0
BLOCK_RECORD
5
1F
100
AcDbSymbolTableRecord
100
AcDbBlockTableRecord
2
*MODEL_SPACE
0
BLOCK_RECORD
5
1B
100
AcDbSymbolTableRecord
100
AcDbBlockTableRecord
2
*PAPER_SPACE
0
ENDTAB
0
ENDSEC
0
SECTION
2
BLOCKS
0
BLOCK
5
20
100
AcDbEntity
100
AcDbBlockBegin
2
*MODEL_SPACE
0
ENDBLK
5
21
100
AcDbEntity
100
AcDbBlockEnd
0
BLOCK
5
1C
100
AcDbEntity
100
AcDbBlockBegin
2
*PAPER_SPACE
0
ENDBLK
5
1D
100
AcDbEntity
100
AcDbBlockEnd
0
ENDSEC
0
SECTION
2
ENTITIES
0
SPLINE
5
100
100
AcDbEntity
8
0
100
AcDbSpline
70
0
71
3
72
8
73
4
74
0
42
0.000000001
43
0.0000000001
44
0.0000000001
40
0
40
0
40
0
40
0
40
1
40
1
40
1
40
1
10
155.15255500000001
20
-0.129691
30
0
10
155.15255500000001
20
-0.20080100000000004
30
0
10
155.12430700000004
20
-0.26899899999999999
30
0
10
155.07402500000001
20
-0.31928100000000004
30
0
0
SPLINE
5
101
100
AcDbEntity
8
0
100
AcDbSpline
70
0
71
3
72
8
73
4
74
0
42
0.000000001
43
0.0000000001
44
0.0000000001
40
0
40
0
40
0
40
0
40
1
40
1
40
1
40
1
10
155.07402500000001
20
-0.31928100000000004
30
0
10
155.023742
20
-0.36956300000000003
30
0
10
154.955545
20
-0.39781200000000005
30
0
10
154.884435
20
-0.39781200000000005
30
0
0
SPLINE
5
102
100
AcDbEntity
8
0
100
AcDbSpline
70
0
71
3
72
8
73
4
74
0
42
0.000000001
43
0.0000000001
44
0.0000000001
40
0
40
0
40
0
40
0
40
1
40
1
40
1
40
1
10
0.26811999999999997
20
-0.39781200000000005
30
0
10
0.19700999999999999
20
-0.39781200000000005
30
0
10
0.12881300000000001
20
-0.36956300000000003
30
0
10
0.078531000000000004
20
-0.31928100000000004
30
0
0
SPLINE
5
103
100
AcDbEntity
8
0
100
AcDbSpline
70
0
71
3
72
8
73
4
74
0
42
0.000000001
43
0.0000000001
44
0.0000000001
40
0
40
0
40
0
40
0
40
1
40
1
40
1
40
1
10
0.078531000000000004
20
-0.31928100000000004
30
0
10
0.028248000000000006
20
-0.26899899999999999
30
0
10
0
20
-0.20080100000000004
30
0
10
0
20
-0.129691
30
0
0
LWPOLYLINE
5
104
100
AcDbEntity
8
0
100
AcDbPolyline
90
4
70
1
43
0.0
10
2.9069929999999999
20
141.93093500000001
10
152.906993
20
141.93093500000001
10
152.906993
20
1.9309350000000158
10
2.9587247382058113
20
1.9309350000000158
0
SPLINE
5
105
100
AcDbEntity
8
0
100
AcDbSpline
70
0
71
3
72
8
73
4
74
0
42
0.000000001
43
0.0000000001
44
0.0000000001
40
0
40
0
40
0
40
0
40
1
40
1
40
1
40
1
10
46.861814000000017
20
118.75383200000002
30
0
10
47.238151000000016
20
118.75383200000002
30
0
10
47.599075000000006
20
118.60433300000003
30
0
10
47.865186000000008
20
118.338222
30
0
0
SPLINE
5
106
100
AcDbEntity
8
0
100
AcDbSpline
70
0
71
3
72
8
73
4
74
0
42
0.000000001
43
0.0000000001
44
0.0000000001
40
0
40
0
40
0
40
0
40
1
40
1
40
1
40
1
10
47.865186000000008
20
118.338222
30
0
10
48.131297000000011
20
118.07211100000002
30
0
10
48.280797000000007
20
117.71118700000002
30
0
10
48.280797000000007
20
117.33484900000001
30
0
0
LINE
5
107
100
AcDbEntity
8
0
100
AcDbLine
10
36.619016000000002
20
118.75383200000002
30
0
11
46.861814000000017
21
118.75383200000002
31
0
0
SPLINE
5
108
100
AcDbEntity
8
0
100
AcDbSpline
70
0
71
3
72
8
73
4
74
0
42
0.000000001
43
0.0000000001
44
0.0000000001
40
0
40
0
40
0
40
0
40
1
40
1
40
1
40
1
10
48.280797000000007
20
103.03931800000001
30
0
10
48.280797000000007
20
102.66298
30
0
10
48.131297000000011
20
102.30205600000002
30
0
10
47.865186000000008
20
102.03594500000001
30
0
0
SPLINE
5
109
100
AcDbEntity
8
0
100
AcDbSpline
70
0
71
3
72
8
73
4
74
0
42
0.000000001
43
0.0000000001
44
0.0000000001
40
0
40
0
40
0
40
0
40
1
40
1
40
1
40
1
10
47.865186000000008
20
102.03594500000001
30
0
10
47.599075000000006
20
101.769834
30
0
10
47.238151000000016
20
101.620334
30
0
10
46.861814000000017
20
101.620334
30
0
0
LINE
5
110
100
AcDbEntity
8
0
100
AcDbLine
10
48.280797000000007
20
117.33484900000001
30
0
11
48.280797000000007
21
103.03931800000001
31
0
0
SPLINE
5
111
100
AcDbEntity
8
0
100
AcDbSpline
70
0
71
3
72
8
73
4
74
0
42
0.000000001
43
0.0000000001
44
0.0000000001
40
0
40
0
40
0
40
0
40
1
40
1
40
1
40
1
10
36.619016000000002
20
101.620334
30
0
10
36.242678000000012
20
101.620334
30
0
10
35.881755000000005
20
101.769834
30
0
10
35.61564400000001
20
102.03594500000001
30
0
0
SPLINE
5
112
100
AcDbEntity
8
0
100
AcDbSpline
70
0
71
3
72
8
73
4
74
0
42
0.000000001
43
0.0000000001
44
0.0000000001
40
0
40
0
40
0
40
0
40
1
40
1
40
1
40
1
10
35.61564400000001
20
102.03594500000001
30
0
10
35.349533000000008
20
102.30205600000002
30
0
10
35.200033000000012
20
102.66298
30
0
10
35.200033000000012
20
103.03931800000001
30
0
0
LINE
5
113
100
AcDbEntity
8
0
100
AcDbLine
10
46.861814000000017
20
101.620334
30
0
11
36.619016000000002
21
101.620334
31
0
0
SPLINE
5
114
100
AcDbEntity
8
0
100
AcDbSpline
70
0
71
3
72
8
73
4
74
0
42
0.000000001
43
0.0000000001
44
0.0000000001
40
0
40
0
40
0
40
0
40
1
40
1
40
1
40
1
10
35.200033000000012
20
117.33484900000001
30
0
10
35.200033000000012
20
117.71118700000002
30
0
10
35.349533000000008
20
118.07211100000002
30
0
10
35.61564400000001
20
118.338222
30
0
0
SPLINE
5
115
100
AcDbEntity
8
0
100
AcDbSpline
70
0
71
3
72
8
73
4
74
0
42
0.000000001
43
0.0000000001
44
0.0000000001
40
0
40
0
40
0
40
0
40
1
40
1
40
1
40
1
10
35.61564400000001
20
118.338222
30
0
10
35.881755000000005
20
118.60433300000003
30
0
10
36.242678000000012
20
118.75383200000002
30
0
10
36.619016000000002
20
118.75383200000002
30
0
0
LINE
5
116
100
AcDbEntity
8
0
100
AcDbLine
10
35.200033000000012
20
103.03931800000001
30
0
11
35.200033000000012
21
117.33484900000001
31
0
0
SPLINE
5
117
100
AcDbEntity
8
0
100
AcDbSpline
70
0
71
3
72
8
73
4
74
0
42
0.000000001
43
0.0000000001
44
0.0000000001
40
0
40
0
40
0
40
0
40
1
40
1
40
1
40
1
10
66.834553000000014
20
118.75383200000002
30
0
10
67.21089000000002
20
118.75383200000002
30
0
10
67.571814000000018
20
118.60433300000003
30
0
10
67.837925000000013
20
118.338222
30
0
0
SPLINE
5
118
100
AcDbEntity
8
0
100
AcDbSpline
70
0
71
3
72
8
73
4
74
0
42
0.000000001
43
0.0000000001
44
0.0000000001
40
0
40
0
40
0
40
0
40
1
40
1
40
1
40
1
10
67.837925000000013
20
118.338222
30
0
10
68.104036000000008
20
118.07211100000002
30
0
10
68.253536000000011
20
117.71118700000002
30
0
10
68.253536000000011
20
117.33484900000001
30
0
0
LINE
5
119
100
AcDbEntity
8
0
100
AcDbLine
10
56.59175500000002
20
118.75383200000002
30
0
11
66.834553000000014
21
118.75383200000002
31
0
0
SPLINE
5
120
100
AcDbEntity
8
0
100
AcDbSpline
70
0
71
3
72
8
73
4
74
0
42
0.000000001
43
0.0000000001
44
0.0000000001
40
0
40
0
40
0
40
0
40
1
40
1
40
1
40
1
10
68.253536000000011
20
103.03931800000001
30
0
10
68.253536000000011
20
102.66298
30
0
10
68.104036000000008
20
102.30205600000002
30
0
10
67.837925000000013
20
102.03594500000001
30
0
0
SPLINE
5
121
100
AcDbEntity
8
0
100
AcDbSpline
70
0
71
3
72
8
73
4
74
0
42
0.000000001
43
0.0000000001
44
0.0000000001
40
0
40
0
40
0
40
0
40
1
40
1
40
1
40
1
10
67.837925000000013
20
102.03594500000001
30
0
10
67.571814000000018
20
101.769834
30
0
10
67.21089000000002
20
101.620334
30
0
10
66.834553000000014
20
101.620334
30
0
0
LINE
5
122
100
AcDbEntity
8
0
100
AcDbLine
10
68.253536000000011
20
117.33484900000001
30
0
11
68.253536000000011
21
103.03931800000001
31
0
0
SPLINE
5
123
100
AcDbEntity
8
0
100
AcDbSpline
70
0
71
3
72
8
73
4
74
0
42
0.000000001
43
0.0000000001
44
0.0000000001
40
0
40
0
40
0
40
0
40
1
40
1
40
1
40
1
10
56.59175500000002
20
101.620334
30
0
10
56.215417000000016
20
101.620334
30
0
10
55.854493000000012
20
101.769834
30
0
10
55.588382000000003
20
102.03594500000001
30
0
0
SPLINE
5
124
100
AcDbEntity
8
0
100
AcDbSpline
70
0
71
3
72
8
73
4
74
0
42
0.000000001
43
0.0000000001
44
0.0000000001
40
0
40
0
40
0
40
0
40
1
40
1
40
1
40
1
10
55.588382000000003
20
102.03594500000001
30
0
10
55.322271000000001
20
102.30205600000002
30
0
10
55.172772000000009
20
102.66298
30
0
10
55.172772000000009
20
103.03931800000001
30
0
0
LINE
5
125
100
AcDbEntity
8
0
100
AcDbLine
10
66.834553000000014
20
101.620334
30
0
11
56.59175500000002
21
101.620334
31
0
0
SPLINE
5
126
100
AcDbEntity
8
0
100
AcDbSpline
70
0
71
3
72
8
73
4
74
0
42
0.000000001
43
0.0000000001
44
0.0000000001
40
0
40
0
40
0
40
0
40
1
40
1
40
1
40
1
10
55.172772000000009
20
117.33484900000001
30
0
10
55.172772000000009
20
117.71118700000002
30
0
10
55.322271000000001
20
118.07211100000002
30
0
10
55.588382000000003
20
118.338222
30
0
0
SPLINE
5
127
100
AcDbEntity
8
0
100
AcDbSpline
70
0
71
3
72
8
73
4
74
0
42
0.000000001
43
0.0000000001
44
0.0000000001
40
0
40
0
40
0
40
0
40
1
40
1
40
1
40
1
10
55.588382000000003
20
118.338222
30
0
10
55.854493000000012
20
118.60433300000003
30
0
10
56.215417000000016
20
118.75383200000002
30
0
10
56.59175500000002
20
118.75383200000002
30
0
0
LINE
5
128
100
AcDbEntity
8
0
100
AcDbLine
10
55.172772000000009
20
103.03931800000001
30
0
11
55.172772000000009
21
117.33484900000001
31
0
0
SPLINE
5
129
100
AcDbEntity
8
0
100
AcDbSpline
70
0
71
3
72
8
73
4
74
0
42
0.000000001
43
0.0000000001
44
0.0000000001
40
0
40
0
40
0
40
0
40
1
40
1
40
1
40
1
10
98.959093000000024
20
118.75383200000002
30
0
10
99.335431000000014
20
118.75383200000002
30
0
10
99.696355000000025
20
118.60433300000003
30
0
10
99.962466000000035
20
118.338222
30
0
0
SPLINE
5
130
100
AcDbEntity
8
0
100
AcDbSpline
70
0
71
3
72
8
73
4
74
0
42
0.000000001
43
0.0000000001
44
0.0000000001
40
0
40
0
40
0
40
0
40
1
40
1
40
1
40
1
10
99.962466000000035
20
118.338222
30
0
10
100.22857700000002
20
118.07211100000002
30
0
10
100.37807600000002
20
117.71118700000002
30
0
10
100.37807600000002
20
117.33484900000001
30
0
0
LINE
5
131
100
AcDbEntity
8
0
100
AcDbLine
10
88.716296
20
118.75383200000002
30
0
11
98.959093000000024
21
118.75383200000002
31
0
0
SPLINE
5
132
100
AcDbEntity
8
0
100
AcDbSpline
70
0
71
3
72
8
73
4
74
0
42
0.000000001
43
0.0000000001
44
0.0000000001
40
0
40
0
40
0
40
0
40
1
40
1
40
1
40
1
10
100.37807600000002
20
103.03931800000001
30
0
10
100.37807600000002
20
102.66298
30
0
10
100.22857700000002
20
102.30205600000002
30
0
10
99.962466000000035
20
102.03594500000001
30
0
0
SPLINE
5
133
100
AcDbEntity
8
0
100
AcDbSpline
70
0
71
3
72
8
73
4
74
0
42
0.000000001
43
0.0000000001
44
0.0000000001
40
0
40
0
40
0
40
0
40
1
40
1
40
1
40
1
10
99.962466000000035
20
102.03594500000001
30
0
10
99.696355000000025
20
101.769834
30
0
10
99.335431000000014
20
101.620334
30
0
10
98.959093000000024
20
101.620334
30
0
0
LINE
5
134
100
AcDbEntity
8
0
100
AcDbLine
10
100.37807600000002
20
117.33484900000001
30
0
11
100.37807600000002
21
103.03931800000001
31
0
0
SPLINE
5
135
100
AcDbEntity
8
0
100
AcDbSpline
70
0
71
3
72
8
73
4
74
0
42
0.000000001
43
0.0000000001
44
0.0000000001
40
0
40
0
40
0
40
0
40
1
40
1
40
1
40
1
10
88.716296
20
101.620334
30
0
10
88.339957999999996
20
101.620334
30
0
10
87.979034000000013
20
101.769834
30
0
10
87.712923000000004
20
102.03594500000001
30
0
0
SPLINE
5
136
100
AcDbEntity
8
0
100
AcDbSpline
70
0
71
3
72
8
73
4
74
0
42
0.000000001
43
0.0000000001
44
0.0000000001
40
0
40
0
40
0
40
0
40
1
40
1
40
1
40
1
10
87.712923000000004
20
102.03594500000001
30
0
10
87.446812000000008
20
102.30205600000002
30
0
10
87.297312000000019
20
102.66298
30
0
10
87.297312000000019
20
103.03931800000001
30
0
0
LINE
5
137
100
AcDbEntity
8
0
100
AcDbLine
10
98.959093000000024
20
101.620334
30
0
11
88.716296
21
101.620334
31
0
0
SPLINE
5
138
100
AcDbEntity
8
0
100
AcDbSpline
70
0
71
3
72
8
73
4
74
0
42
0.000000001
43
0.0000000001
44
0.0000000001
40
0
40
0
40
0
40
0
40
1
40
1
40
1
40
1
10
87.297312000000019
20
117.33484900000001
30
0
10
87.297312000000019
20
117.71118700000002
30
0
10
87.446812000000008
20
118.07211100000002
30
0
10
87.712923000000004
20
118.338222
30
0
0
SPLINE
5
139
100
AcDbEntity
8
0
100
AcDbSpline
70
0
71
3
72
8
73
4
74
0
42
0.000000001
43
0.0000000001
44
0.0000000001
40
0
40
0
40
0
40
0
40
1
40
1
40
1
40
1
10
87.712923000000004
20
118.338222
30
0
10
87.979034000000013
20
118.60433300000003
30
0
10
88.339957999999996
20
118.75383200000002
30
0
10
88.716296
20
118.75383200000002
30
0
0
LINE
5
140
100
AcDbEntity
8
0
100
AcDbLine
10
87.297312000000019
20
103.03931800000001
30
0
11
87.297312000000019
21
117.33484900000001
31
0
0
SPLINE
5
141
100
AcDbEntity
8
0
100
AcDbSpline
70
0
71
3
72
8
73
4
74
0
42
0.000000001
43
0.0000000001
44
0.0000000001
40
0
40
0
40
0
40
0
40
1
40
1
40
1
40
1
10
119.19854500000001
20
118.75383200000002
30
0
10
119.57488300000003
20
118.75383200000002
30
0
10
119.93580700000003
20
118.60433300000003
30
0
10
120.20191800000001
20
118.338222
30
0
0
SPLINE
5
142
100
AcDbEntity
8
0
100
AcDbSpline
70
0
71
3
72
8
73
4
74
0
42
0.000000001
43
0.0000000001
44
0.0000000001
40
0
40
0
40
0
40
0
40
1
40
1
40
1
40
1
10
120.20191800000001
20
118.338222
30
0
10
120.46802900000002
20
118.07211100000002
30
0
10
120.61752800000002
20
117.71118700000002
30
0
10
120.61752800000002
20
117.33484900000001
30
0
0
LINE
5
143
100
AcDbEntity
8
0
100
AcDbLine
10
108.95574800000003
20
118.75383200000002
30
0
11
119.19854500000001
21
118.75383200000002
31
0
0
SPLINE
5
144
100
AcDbEntity
8
0
100
AcDbSpline
70
0
71
3
72
8
73
4
74
0
42
0.000000001
43
0.0000000001
44
0.0000000001
40
0
40
0
40
0
40
0
40
1
40
1
40
1
40
1
10
120.61752800000002
20
103.03931800000001
30
0
10
120.61752800000002
20
102.66298
30
0
10
120.46802900000002
20
102.30205600000002
30
0
10
120.20191800000001
20
102.03594500000001
30
0
0
SPLINE
5
145
100
AcDbEntity
8
0
100
AcDbSpline
70
0
71
3
72
8
73
4
74
0
42
0.000000001
43
0.0000000001
44
0.0000000001
40
0
40
0
40
0
40
0
40
1
40
1
40
1
40
1
10
120.20191800000001
20
102.03594500000001
30
0
10
119.93580700000003
20
101.769834
30
0
10
119.57488300000003
20
101.620334
30
0
10
119.19854500000001
20
101.620334
30
0
0
LINE
5
146
100
AcDbEntity
8
0
100
AcDbLine
10
120.61752800000002
20
117.33484900000001
30
0
11
120.61752800000002
21
103.03931800000001
31
0
0
SPLINE
5
147
100
AcDbEntity
8
0
100
AcDbSpline
70
0
71
3
72
8
73
4
74
0
42
0.000000001
43
0.0000000001
44
0.0000000001
40
0
40
0
40
0
40
0
40
1
40
1
40
1
40
1
10
108.95574800000003
20
101.620334
30
0
10
108.57941000000002
20
101.620334
30
0
10
108.21848600000003
20
101.769834
30
0
10
107.95237500000002
20
102.03594500000001
30
0
0
SPLINE
5
148
100
AcDbEntity
8
0
100
AcDbSpline
70
0
71
3
72
8
73
4
74
0
42
0.000000001
43
0.0000000001
44
0.0000000001
40
0
40
0
40
0
40
0
40
1
40
1
40
1
40
1
10
107.95237500000002
20
102.03594500000001
30
0
10
107.68626400000001
20
102.30205600000002
30
0
10
107.53676400000001
20
102.66298
30
0
10
107.53676400000001
20
103.03931800000001
30
0
0
LINE
5
149
100
AcDbEntity
8
0
100
AcDbLine
10
119.19854500000001
20
101.620334
30
0
11
108.95574800000003
21
101.620334
31
0
0
SPLINE
5
150
100
AcDbEntity
8
0
100
AcDbSpline
70
0
71
3
72
8
73
4
74
0
42
0.000000001
43
0.0000000001
44
0.0000000001
40
0
40
0
40
0
40
0
40
1
40
1
40
1
40
1
10
107.53676400000001
20
117.33484900000001
30
0
10
107.53676400000001
20
117.71118700000002
30
0
10
107.68626400000001
20
118.07211100000002
30
0
10
107.95237500000002
20
118.338222
30
0
0
SPLINE
5
151
100
AcDbEntity
8
0
100
AcDbSpline
70
0
71
3
72
8
73
4
74
0
42
0.000000001
43
0.0000000001
44
0.0000000001
40
0
40
0
40
0
40
0
40
1
40
1
40
1
40
1
10
107.95237500000002
20
118.338222
30
0
10
108.21848600000003
20
118.60433300000003
30
0
10
108.57941000000002
20
118.75383200000002
30
0
10
108.95574800000003
20
118.75383200000002
30
0
0
LINE
5
152
100
AcDbEntity
8
0
100
AcDbLine
10
107.53676400000001
20
103.03931800000001
30
0
11
107.53676400000001
21
117.33484900000001
31
0
0
SPLINE
5
153
100
AcDbEntity
8
0
100
AcDbSpline
70
0
71
3
72
8
73
4
74
0
42
0.000000001
43
0.0000000001
44
0.0000000001
40
0
40
0
40
0
40
0
40
1
40
1
40
1
40
1
10
93.497095000000016
20
88.225068000000007
30
0
10
92.33484900000002
20
88.225068000000007
30
0
10
91.287046000000004
20
87.524949000000007
30
0
10
90.842274000000018
20
86.451174000000009
30
0
0
SPLINE
5
154
100
AcDbEntity
8
0
100
AcDbSpline
70
0
71
3
72
8
73
4
74
0
42
0.000000001
43
0.0000000001
44
0.0000000001
40
0
40
0
40
0
40
0
40
1
40
1
40
1
40
1
10
90.842274000000018
20
86.451174000000009
30
0
10
90.397502000000017
20
85.377398999999997
30
0
10
90.64335100000001
20
84.141431000000026
30
0
10
91.465182999999996
20
83.319598999999997
30
0
0
SPLINE
5
155
100
AcDbEntity
8
0
100
AcDbSpline
70
0
71
3
72
8
73
4
74
0
42
0.000000001
43
0.0000000001
44
0.0000000001
40
0
40
0
40
0
40
0
40
1
40
1
40
1
40
1
10
91.465182999999996
20
83.319598999999997
30
0
10
92.287015000000011
20
82.49776700000001
30
0
10
93.522983000000011
20
82.251918000000018
30
0
10
94.596758000000008
20
82.696690000000004
30
0
0
SPLINE
5
156
100
AcDbEntity
8
0
100
AcDbSpline
70
0
71
3
72
8
73
4
74
0
42
0.000000001
43
0.0000000001
44
0.0000000001
40
0
40
0
40
0
40
0
40
1
40
1
40
1
40
1
10
94.596758000000008
20
82.696690000000004
30
0
10
95.670532000000009
20
83.141462000000018
30
0
10
96.370652000000021
20
84.189266000000003
30
0
10
96.370652000000021
20
85.351511000000002
30
0
0
SPLINE
5
157
100
AcDbEntity
8
0
100
AcDbSpline
70
0
71
3
72
8
73
4
74
0
42
0.000000001
43
0.0000000001
44
0.0000000001
40
0
40
0
40
0
40
0
40
1
40
1
40
1
40
1
10
96.370652000000021
20
85.351511000000002
30
0
10
96.370652000000021
20
86.938532999999993
30
0
10
95.08411700000002
20
88.225068000000007
30
0
10
93.497095000000016
20
88.225068000000007
30
0
0
SPLINE
5
158
100
AcDbEntity
8
0
100
AcDbSpline
70
0
71
3
72
8
73
4
74
0
42
0.000000001
43
0.0000000001
44
0.0000000001
40
0
40
0
40
0
40
0
40
1
40
1
40
1
40
1
10
125.32189400000001
20
88.134160000000008
30
0
10
124.159648
20
88.134160000000008
30
0
10
123.11184500000002
20
87.434039999999996
30
0
10
122.66707300000002
20
86.36026600000001
30
0
0
SPLINE
5
159
100
AcDbEntity
8
0
100
AcDbSpline
70
0
71
3
72
8
73
4
74
0
42
0.000000001
43
0.0000000001
44
0.0000000001
40
0
40
0
40
0
40
0
40
1
40
1
40
1
40
1
10
122.66707300000002
20
86.36026600000001
30
0
10
122.22230100000002
20
85.286491000000012
30
0
10
122.46815000000001
20
84.050522999999998
30
0
10
123.28998200000002
20
83.228690999999998
30
0
0
SPLINE
5
160
100
AcDbEntity
8
0
100
AcDbSpline
70
0
71
3
72
8
73
4
74
0
42
0.000000001
43
0.0000000001
44
0.0000000001
40
0
40
0
40
0
40
0
40
1
40
1
40
1
40
1
10
123.28998200000002
20
83.228690999999998
30
0
10
124.11181400000001
20
82.406859000000011
30
0
10
125.34778200000002
20
82.161010000000005
30
0
10
126.42155700000002
20
82.605781999999991
30
0
0
SPLINE
5
161
100
AcDbEntity
8
0
100
AcDbSpline
70
0
71
3
72
8
73
4
74
0
42
0.000000001
43
0.0000000001
44
0.0000000001
40
0
40
0
40
0
40
0
40
1
40
1
40
1
40
1
10
126.42155700000002
20
82.605781999999991
30
0
10
127.49533200000002
20
83.050554000000005
30
0
10
128.19545100000002
20
84.098357000000007
30
0
10
128.19545100000002
20
85.260603000000003
30
0
0
SPLINE
5
162
100
AcDbEntity
8
0
100
AcDbSpline
70
0
71
3
72
8
73
4
74
0
42
0.000000001
43
0.0000000001
44
0.0000000001
40
0
40
0
40
0
40
0
40
1
40
1
40
1
40
1
10
128.19545100000002
20
85.260603000000003
30
0
10
128.19545100000002
20
86.847624999999994
30
0
10
126.908916
20
88.134160000000008
30
0
10
125.32189400000001
20
88.134160000000008
30
0
0
SPLINE
5
163
100
AcDbEntity
8
0
100
AcDbSpline
70
0
71
3
72
8
73
4
74
0
42
0.000000001
43
0.0000000001
44
0.0000000001
40
0
40
0
40
0
40
0
40
1
40
1
40
1
40
1
10
61.536474000000005
20
87.626720000000006
30
0
10
60.572863000000012
20
87.626720000000006
30
0
10
59.704136000000005
20
87.046255000000002
30
0
10
59.33537800000002
20
86.155993999999993
30
0
0
SPLINE
5
164
100
AcDbEntity
8
0
100
AcDbSpline
70
0
71
3
72
8
73
4
74
0
42
0.000000001
43
0.0000000001
44
0.0000000001
40
0
40
0
40
0
40
0
40
1
40
1
40
1
40
1
10
59.33537800000002
20
86.155993999999993
30
0
10
58.966620000000006
20
85.265734000000009
30
0
10
59.170452000000012
20
84.241000000000014
30
0
10
59.851828000000012
20
83.559624000000014
30
0
0
SPLINE
5
165
100
AcDbEntity
8
0
100
AcDbSpline
70
0
71
3
72
8
73
4
74
0
42
0.000000001
43
0.0000000001
44
0.0000000001
40
0
40
0
40
0
40
0
40
1
40
1
40
1
40
1
10
59.851828000000012
20
83.559624000000014
30
0
10
60.533204000000012
20
82.878248000000013
30
0
10
61.557938000000014
20
82.674416000000008
30
0
10
62.448198000000012
20
83.043174000000008
30
0
0
SPLINE
5
166
100
AcDbEntity
8
0
100
AcDbSpline
70
0
71
3
72
8
73
4
74
0
42
0.000000001
43
0.0000000001
44
0.0000000001
40
0
40
0
40
0
40
0
40
1
40
1
40
1
40
1
10
62.448198000000012
20
83.043174000000008
30
0
10
63.338459000000007
20
83.411931999999993
30
0
10
63.918924000000018
20
84.280659
30
0
10
63.918924000000018
20
85.244270000000014
30
0
0
SPLINE
5
167
100
AcDbEntity
8
0
100
AcDbSpline
70
0
71
3
72
8
73
4
74
0
42
0.000000001
43
0.0000000001
44
0.0000000001
40
0
40
0
40
0
40
0
40
1
40
1
40
1
40
1
10
63.918924000000018
20
85.244270000000014
30
0
10
63.918924000000018
20
85.876135000000005
30
0
10
63.66791700000001
20
86.482119999999995
30
0
10
63.221121000000011
20
86.928916000000015
30
0
0
SPLINE
5
168
100
AcDbEntity
8
0
100
AcDbSpline
70
0
71
3
72
8
73
4
74
0
42
0.000000001
43
0.0000000001
44
0.0000000001
40
0
40
0
40
0
40
0
40
1
40
1
40
1
40
1
10
63.221121000000011
20
86.928916000000015
30
0
10
62.774325000000005
20
87.375711999999993
30
0
10
62.16833900000001
20
87.626720000000006
30
0
10
61.536474000000005
20
87.626720000000006
30
0
0
SPLINE
5
169
100
AcDbEntity
8
0
100
AcDbSpline
70
0
71
3
72
8
73
4
74
0
42
0.000000001
43
0.0000000001
44
0.0000000001
40
0
40
0
40
0
40
0
40
1
40
1
40
1
40
1
10
29.35140500000001
20
87.70754100000002
30
0
10
28.359418000000009
20
87.70754100000002
30
0
10
27.465108000000011
20
87.109981999999988
30
0
10
27.085491000000008
20
86.193505000000016
30
0
0
SPLINE
5
170
100
AcDbEntity
8
0
100
AcDbSpline
70
0
71
3
72
8
73
4
74
0
42
0.000000001
43
0.0000000001
44
0.0000000001
40
0
40
0
40
0
40
0
40
1
40
1
40
1
40
1
10
27.085491000000008
20
86.193505000000016
30
0
10
26.705874000000009
20
85.277028000000001
30
0
10
26.915709000000014
20
84.222118000000009
30
0
10
27.617150000000009
20
83.520677000000006
30
0
0
SPLINE
5
171
100
AcDbEntity
8
0
100
AcDbSpline
70
0
71
3
72
8
73
4
74
0
42
0.000000001
43
0.0000000001
44
0.0000000001
40
0
40
0
40
0
40
0
40
1
40
1
40
1
40
1
10
27.617150000000009
20
83.520677000000006
30
0
10
28.318591000000009
20
82.819236000000004
30
0
10
29.373501000000012
20
82.609401000000005
30
0
10
30.289978000000012
20
82.989018000000016
30
0
0
SPLINE
5
172
100
AcDbEntity
8
0
100
AcDbSpline
70
0
71
3
72
8
73
4
74
0
42
0.000000001
43
0.0000000001
44
0.0000000001
40
0
40
0
40
0
40
0
40
1
40
1
40
1
40
1
10
30.289978000000012
20
82.989018000000016
30
0
10
31.206455000000005
20
83.368635999999995
30
0
10
31.804013000000005
20
84.262945000000002
30
0
10
31.804013000000005
20
85.254932999999994
30
0
0
SPLINE
5
173
100
AcDbEntity
8
0
100
AcDbSpline
70
0
71
3
72
8
73
4
74
0
42
0.000000001
43
0.0000000001
44
0.0000000001
40
0
40
0
40
0
40
0
40
1
40
1
40
1
40
1
10
31.804013000000005
20
85.254932999999994
30
0
10
31.804013000000005
20
85.905405000000016
30
0
10
31.545614000000008
20
86.529235
30
0
10
31.085661000000009
20
86.98918900000001
30
0
0
SPLINE
5
174
100
AcDbEntity
8
0
100
AcDbSpline
70
0
71
3
72
8
73
4
74
0
42
0.000000001
43
0.0000000001
44
0.0000000001
40
0
40
0
40
0
40
0
40
1
40
1
40
1
40
1
10
31.085661000000009
20
86.98918900000001
30
0
10
30.625708000000014
20
87.449142000000023
30
0
10
30.001877000000015
20
87.70754100000002
30
0
10
29.35140500000001
20
87.70754100000002
30
0
0
CIRCLE
5
175
100
AcDbEntity
8
0
100
AcDbCircle
10
39.942011940895249
20
6.4269376396910536
30
0
40
1.5000000000000182
210
0
220
0
230
1
0
CIRCLE
5
176
100
AcDbEntity
8
0
100
AcDbCircle
10
148.31338079456788
20
43.930935000000019
30
0
40
1.4999999999999978
210
0
220
0
230
1
0
CIRCLE
5
177
100
AcDbEntity
8
0
100
AcDbCircle
10
7.3133807945683849
20
43.930935000000019
30
0
40
1.5000000000000036
210
0
220
0
230
1
0
CIRCLE
5
178
100
AcDbEntity
8
0
100
AcDbCircle
10
148.43030274116782
20
91.96721324054775
30
0
40
1.4999999999999987
210
0
220
0
230
1
0
LINE
5
179
100
AcDbEntity
8
0
100
AcDbLine
10
152.80336207757097
20
2.025863507625842
30
2.2204460492513228e-15
11
152.83682015400015
21
141.96844158515586
31
0
0
CIRCLE
5
180
100
AcDbEntity
8
0
100
AcDbCircle
10
115.90035717389495
20
6.4581593226805678
30
0
40
1.5000000000000062
210
0
220
0
230
1
0
CIRCLE
5
181
100
AcDbEntity
8
0
100
AcDbCircle
10
115.83574075492953
20
137.45814338653838
30
0
40
1.5000000000000056
210
0
220
0
230
1
0
LINE
5
182
100
AcDbEntity
8
0
100
AcDbLine
10
2.9420133039421268
20
141.92672333279012
30
0
11
2.9420116870743125
21
3.0182579995561385
31
-1.1102230246251565e-15
0
LINE
5
183
100
AcDbEntity
8
0
100
AcDbLine
10
152.83682015400015
20
141.96844158515586
30
0
11
2.9420133039421268
21
141.92672333279012
31
0
0
CIRCLE
5
184
100
AcDbEntity
8
0
100
AcDbCircle
10
39.942013251565342
20
137.42693763969049
30
0
40
1.4999999999999996
210
0
220
0
230
1
0
CIRCLE
5
185
100
AcDbEntity
8
0
100
AcDbCircle
10
7.4303082021175459
20
91.927970564437786
30
0
40
1.5000000000000056
210
0
220
0
230
1
0
ENDSEC
0
SECTION
2
OBJECTS
0
DICTIONARY
5
C
100
AcDbDictionary
3
ACAD_GROUP
350
D
3
ACAD_MLINESTYLE
350
17
0
DICTIONARY
5
D
100
AcDbDictionary
0
DICTIONARY
5
1A
330
C
100
AcDbDictionary
0
DICTIONARY
5
17
100
AcDbDictionary
0
ENDSEC
0
EOF
